<?xml version="1.0" encoding="UTF-8"?>
<svg width="35px" height="35px" viewBox="0 0 35 35" version="1.1" xmlns="http://www.w3.org/2000/svg" xmlns:xlink="http://www.w3.org/1999/xlink">
    <title>拍卖1</title>
    <g id="页面-1" stroke="none" stroke-width="1" fill="none" fill-rule="evenodd">
        <g id="报价" transform="translate(-1068.000000, -1305.000000)">
            <g id="编组-21备份" transform="translate(433.000000, 1191.000000)">
                <g id="编组-2" transform="translate(60.000000, 60.000000)">
                    <g id="编组" transform="translate(0.000000, 34.000000)">
                        <g id="拍卖1" transform="translate(575.000000, 20.000000)">
                            <rect id="矩形" x="0" y="0" width="35" height="35"></rect>
                            <g id="编组-9" transform="translate(4.000000, 0.000000)">
                                <circle id="椭圆形" stroke="#183B56" stroke-width="3" fill-rule="nonzero" cx="13.5" cy="19.5" r="13.5"></circle>
                                <path d="M12.3387267,11.162177 C11.1923738,11.3495113 10.3326909,11.5838014 9.75967812,11.8650474 C6.94059553,13.2487089 5,16.1477293 5,19.5 C5,24.1944204 8.80557963,28 13.5,28 C14.9894801,28 16.3894796,27.6168875 17.6068327,26.9438282 C18.0658918,26.6900202 18.6210164,26.2615701 19.2722065,25.6584781 C19.6773579,25.2831884 19.701619,24.6505179 19.3263635,24.2453348 C19.2848263,24.200485 19.239264,24.1595385 19.1902487,24.1230096 C18.5583212,23.6520629 18.055206,23.2771141 17.6809032,22.9981633 C16.7518136,22.3057552 15.3581792,21.267143 13.5,19.8823268 C13.5,17.2804047 13.5,15.3289631 13.5,14.0280021 C13.5,13.5626198 13.5,12.9363042 13.5,12.1490552 C13.4999689,11.5967877 13.0522676,11.1490863 12.5,11.1490863 C12.4459769,11.1490863 12.3920426,11.1534642 12.3387267,11.162177 Z" id="路径" fill="#183B56" fill-rule="nonzero"></path>
                                <rect id="矩形" fill="#183B56" x="10" y="0" width="8" height="3" rx="1"></rect>
                            </g>
                        </g>
                    </g>
                </g>
            </g>
        </g>
    </g>
</svg>