<?xml version="1.0" encoding="UTF-8"?>
<svg width="16px" height="16px" viewBox="0 0 16 16" version="1.1" xmlns="http://www.w3.org/2000/svg" xmlns:xlink="http://www.w3.org/1999/xlink">
    <title>Bid</title>
    <defs>
        <filter color-interpolation-filters="auto" id="filter-1">
            <feColorMatrix in="SourceGraphic" type="matrix" values="0 0 0 0 1.000000 0 0 0 0 1.000000 0 0 0 0 1.000000 0 0 0 1.000000 0"></feColorMatrix>
        </filter>
    </defs>
    <g id="页面-1" stroke="none" stroke-width="1" fill="none" fill-rule="evenodd">
        <g id="Home1首页" transform="translate(-632.000000, -1672.000000)">
            <g id="1备份" transform="translate(433.000000, 1238.000000)">
                <g id="编组-16" transform="translate(20.000000, 344.000000)">
                    <g id="编组-8" transform="translate(0.000000, 66.000000)">
                        <g id="编组-7" transform="translate(164.000000, 12.000000)">
                            <g id="Bid" transform="translate(15.000000, 10.000000)" filter="url(#filter-1)">
                                <g transform="translate(0.000000, 2.000000)">
                                    <path d="M15.4051728,13.6812978 C15.1169658,14.0331009 14.5885863,14.065083 14.2363333,13.7772441 L8.18398638,8.69209038 L6.95110091,10.1472759 L3.15637545,6.96505705 L7.0311584,2.40760794 L10.8258838,5.5898268 L9.65704435,6.96505705 L15.7093913,12.0502108 C16.0616443,12.3380497 16.0936673,12.8657543 15.8054603,13.2015663 L15.4051728,13.6812978 Z M12.5070913,5.1420774 C12.2188843,5.4938805 11.6905048,5.5258626 11.3382518,5.23802371 L7.54352639,2.07179591 C7.19127338,1.78395703 7.15925038,1.25625239 7.44745739,0.920440346 L7.97583688,0.296789415 C8.26404387,-0.0550136814 8.79242337,-0.102986829 9.14467637,0.20084312 L12.9394018,3.35107987 C13.2916548,3.63891876 13.3236778,4.16662339 13.0354708,4.50243542 L12.5070913,5.1420774 Z M6.7909859,11.9062913 L6.26260642,12.5299423 C5.97439943,12.8817454 5.44601993,12.9137275 5.09376693,12.6258886 L1.29904147,9.45966077 C0.94678847,9.17182189 0.914765471,8.64411725 1.20297248,8.30830521 L1.73135197,7.68465428 C2.01955896,7.33285118 2.54793846,7.28487803 2.90019146,7.58870798 L6.6949169,10.7709268 C7.03115839,11.0427747 7.0791929,11.5544882 6.7909859,11.9062913 Z M10.0092974,14.8326534 L10.0092974,15.1524744 C10.0253089,15.6002238 9.68906737,15.9680179 9.25675687,16 L0.754650493,16 C0.306328494,15.9680179 -0.0299129941,15.6002238 0.00211000469,15.1524744 L0.00211000469,14.8326534 C-0.0139014947,14.384904 0.322339993,14.0171099 0.754650493,13.9851278 L9.25675687,13.9851278 C9.68906737,14.0011188 10.0253089,14.384904 10.0092974,14.8326534 L10.0092974,14.8326534 Z" id="形状" fill="#4786EA" fill-rule="nonzero"></path>
                                </g>
                            </g>
                        </g>
                    </g>
                </g>
            </g>
        </g>
    </g>
</svg>