<?xml version="1.0" encoding="UTF-8"?>
<svg width="190px" height="60px" viewBox="0 0 190 60" version="1.1" xmlns="http://www.w3.org/2000/svg" xmlns:xlink="http://www.w3.org/1999/xlink">
    <title>bitkeep</title>
    <defs>
        <rect id="path-1" x="0" y="0" width="190" height="60"></rect>
        <polygon id="path-3" points="0 0 31.858943 0 31.858943 36 0 36"></polygon>
    </defs>
    <g id="NFT交易市场" stroke="none" stroke-width="1" fill="none" fill-rule="evenodd">
        <g id="Home首页" transform="translate(-728.000000, -3522.000000)">
            <g id="编组-33" transform="translate(0.000000, 3191.000000)">
                <g id="编组-32" transform="translate(432.000000, 70.000000)">
                    <g id="编组-29" transform="translate(0.000000, 81.000000)">
                        <g id="bitkeep" transform="translate(296.000000, 180.000000)">
                            <mask id="mask-2" fill="white">
                                <use xlink:href="#path-1"></use>
                            </mask>
                            <g id="蒙版"></g>
                            <g id="编组" mask="url(#mask-2)">
                                <g transform="translate(0.000000, 12.000000)">
                                    <path d="M55.0755482,12.3855171 C55.4859109,12.7958798 55.9833202,12.9948435 56.5803358,12.9948435 C57.1771026,12.9948435 57.6869472,12.7958798 58.0848746,12.3855171 C58.4953617,11.9627192 58.6943254,11.4653098 58.6943254,10.8808539 C58.6943254,10.2839627 58.4952373,9.77411813 58.0848746,9.37619067 C57.6745119,8.95339275 57.1771026,8.74199378 56.5803358,8.74199378 C55.9833202,8.74199378 55.4734756,8.95339275 55.0755482,9.37619067 C54.6651855,9.78655337 54.4663461,10.2839627 54.4663461,10.8808539 C54.4663461,11.4653098 54.6651855,11.9627192 55.0755482,12.3855171" id="Fill-1" fill="#171728"></path>
                                    <path d="M54.7024912,14.4497161 C54.6278798,14.5244518 54.6030093,14.6114984 54.6030093,14.7358508 L54.6030093,26.8975088 C54.6030093,27.0218611 54.640315,27.1212187 54.7024912,27.1833948 C54.7772269,27.2580062 54.8641492,27.2828767 54.9885016,27.2828767 L58.159486,27.2828767 C58.2838383,27.2828767 58.3834446,27.245571 58.4456207,27.1833948 C58.5201078,27.1089078 58.5574135,27.0218611 58.5574135,26.8975088 L58.5574135,14.7358508 C58.5574135,14.6114984 58.5201078,14.5118922 58.4456207,14.4497161 C58.370885,14.3751047 58.2838383,14.3502342 58.159486,14.3502342 L54.9885016,14.3502342 C54.8765845,14.3379233 54.7772269,14.3751047 54.7024912,14.4497161" id="Fill-3" fill="#171728"></path>
                                    <path d="M96.0621389,21.811399 C96.1864912,21.5502591 96.2486674,21.1274611 96.2486674,20.5430052 C96.2486674,19.3740933 95.9874031,18.3046632 95.4776829,17.3222798 C94.967714,16.3398964 94.2464705,15.5564767 93.313828,14.9720207 C92.3811855,14.3875648 91.2993202,14.1015544 90.0932269,14.1015544 C88.8621389,14.1015544 87.7429679,14.4 86.735714,14.9968912 C85.7283358,15.5813472 84.9326052,16.3772021 84.3604601,17.3968912 C83.8008746,18.4165803 83.5149886,19.5481865 83.5149886,20.7792746 C83.5149886,22.010487 83.8008746,23.1419689 84.3854549,24.161658 C84.9699109,25.1814715 85.778201,25.9897617 86.8226363,26.5989637 C87.8796311,27.1958549 89.0735378,27.4943005 90.3915482,27.4943005 C91.3241907,27.4943005 92.194657,27.3326425 93.0029472,26.9968912 C93.8362321,26.6487047 94.5573513,26.1512953 95.1916725,25.5170984 C95.2911544,25.4176166 95.3533306,25.3058238 95.3533306,25.2062176 C95.3533306,25.1067358 95.3160249,25.0072539 95.2414135,24.9450777 L93.8611026,23.6270674 C93.7491855,23.5150259 93.6620145,23.465285 93.5750922,23.465285 C93.4631751,23.465285 93.3760041,23.502715 93.2889575,23.5772021 C92.8537244,23.8632124 92.4310508,24.0623005 92.0206881,24.1866528 C91.6350715,24.2860104 91.2248332,24.3481865 90.7771648,24.3481865 C89.8941389,24.3481865 89.1605845,24.1740933 88.5884394,23.8259067 C88.0288539,23.4528497 87.643486,22.9181347 87.4569575,22.2093264 L95.3034653,22.2093264 C95.6890819,22.184456 95.9377865,22.0601036 96.0621389,21.811399 M88.3397347,18.0312124 C88.837144,17.6455959 89.4217244,17.4466321 90.1056622,17.4466321 C90.7771648,17.4466321 91.3491855,17.6455959 91.8216,18.0312124 C92.2941389,18.4042694 92.5927088,18.9512953 92.7170611,19.6725389 L87.3822218,19.6725389 C87.5314446,18.9512953 87.854885,18.4042694 88.3397347,18.0312124" id="Fill-5" fill="#171728"></path>
                                    <path d="M109.9896,20.5429803 C109.9896,21.1274363 109.927424,21.5503585 109.803072,21.8113741 C109.678719,22.0600788 109.430015,22.1844311 109.032087,22.1844311 L101.185331,22.1844311 C101.384419,22.8932394 101.757476,23.4279544 102.317061,23.8010114 C102.901517,24.1491979 103.635072,24.3232912 104.505538,24.3232912 C104.953331,24.3232912 105.363693,24.2735503 105.749061,24.1617575 C106.159424,24.0374052 106.582346,23.8383171 107.017579,23.5523067 C107.104626,23.4778197 107.204108,23.4403896 107.303465,23.4403896 C107.390636,23.4403896 107.489994,23.4901306 107.589476,23.602172 L108.969911,24.9201824 C109.044522,24.9947938 109.081704,25.0818404 109.081704,25.1813223 C109.081704,25.2809285 109.032087,25.3927212 108.920046,25.4922031 C108.285973,26.1264 107.55217,26.6238093 106.731569,26.9719959 C105.923279,27.3077472 105.052812,27.4694052 104.12017,27.4694052 C102.801911,27.4694052 101.608253,27.1709596 100.551258,26.5740684 C99.5065741,25.9771772 98.6982839,25.168887 98.1139523,24.1367627 C97.5294964,23.1170736 97.243486,21.9855917 97.243486,20.7543793 C97.243486,19.5234155 97.5294964,18.391685 98.0890819,17.3719959 C98.6735378,16.3524311 99.4692684,15.5441409 100.464087,14.9719959 C101.471465,14.3751047 102.590636,14.0766591 103.8216,14.0766591 C105.040253,14.0766591 106.109807,14.3627938 107.04245,14.9471254 C107.975092,15.5315813 108.696336,16.315001 109.206056,17.2973845 C109.728336,18.3046383 109.9896,19.3741927 109.9896,20.5429803 M103.858906,17.4467316 C103.174968,17.4467316 102.578077,17.645571 102.093227,18.0311876 C101.595818,18.4042446 101.284937,18.9512705 101.148025,19.672514 L106.482864,19.672514 C106.358512,18.9512705 106.059942,18.4042446 105.587527,18.0311876 C105.090118,17.645571 104.518097,17.4467316 103.858906,17.4467316" id="Fill-7" fill="#171728"></path>
                                    <path d="M121.529472,14.9969161 C120.571959,14.4000249 119.514964,14.1015793 118.333617,14.1015793 C116.816518,14.1015793 115.572995,14.7233409 114.603047,15.954429 L114.466259,14.7606466 C114.428829,14.4995067 114.304477,14.3627192 114.068332,14.3627192 L111.369886,14.3627192 C111.245534,14.3627192 111.146052,14.4000249 111.083876,14.462201 C111.00914,14.5368124 110.984394,14.6238591 110.984394,14.7482114 L110.984394,31.9337036 C110.984394,32.058056 111.021699,32.1575378 111.083876,32.219714 C111.158487,32.2944497 111.245534,32.3316311 111.369886,32.3316311 L114.54087,32.3316311 C114.665223,32.3316311 114.764705,32.2944497 114.826881,32.219714 C114.901492,32.1451026 114.926238,32.0457451 114.926238,31.9337036 L114.926238,26.1390093 C115.796705,27.0342218 116.915876,27.4818902 118.308746,27.4818902 C119.490093,27.4818902 120.559523,27.1960041 121.504601,26.6114238 C122.474549,26.014657 123.220663,25.2063668 123.755254,24.1989886 C124.302528,23.1794238 124.576104,22.0602528 124.576104,20.8414756 C124.576104,19.5855171 124.302528,18.4540352 123.755254,17.4343461 C123.245534,16.4145326 122.49942,15.5938073 121.529472,14.9969161 M119.937762,23.0300767 C119.390611,23.5896622 118.694238,23.8756725 117.848518,23.8756725 C116.990611,23.8756725 116.281803,23.5896622 115.734528,23.0300767 C115.199938,22.4704912 114.938798,21.7368124 114.938798,20.8414756 C114.938798,19.9585741 115.199938,19.2248953 115.734528,18.6155689 C116.281803,18.0186777 116.990611,17.7202321 117.848518,17.7202321 C118.694238,17.7202321 119.390611,18.0062425 119.937762,18.5906984 C120.497347,19.1751544 120.783358,19.9212684 120.783358,20.8414756 C120.783358,21.7368124 120.509782,22.4704912 119.937762,23.0300767" id="Fill-9" fill="#171728"></path>
                                    <path d="M68.1574383,14.3378736 C68.2817907,14.3378736 68.3812725,14.3751793 68.4434487,14.4373554 C68.5180601,14.5118425 68.5429306,14.5990135 68.5429306,14.7233658 L68.5429306,17.1232415 C68.5429306,17.2475938 68.5056249,17.3472 68.4434487,17.4093762 C68.3688373,17.4839876 68.2817907,17.5212933 68.1574383,17.5212933 L66.0434487,17.5212933 L66.0434487,26.8850238 C66.0434487,27.0093762 66.006143,27.108858 65.9315316,27.1710342 C65.8569202,27.2456456 65.7698736,27.2830756 65.6455212,27.2830756 L62.4745368,27.2830756 C62.3501845,27.2830756 62.2507026,27.2456456 62.1885264,27.1710342 C62.113915,27.0965472 62.0766093,27.0093762 62.0766093,26.8850238 L62.0766093,17.5212933 L59.9626197,17.5212933 C59.8382674,17.5212933 59.7387855,17.4839876 59.6766093,17.4093762 C59.6019979,17.3347648 59.5646922,17.2475938 59.5646922,17.1232415 L59.5646922,14.7233658 C59.5646922,14.5990135 59.6019979,14.4995316 59.6766093,14.4373554 C59.7512207,14.362744 59.8507026,14.3378736 59.9626197,14.3378736 L62.0766093,14.3378736 L62.0766093,10.7689617 C62.0766093,10.6446093 62.113915,10.5451275 62.1885264,10.4829513 C62.2631378,10.4082155 62.3501845,10.3834694 62.4745368,10.3834694 L65.6455212,10.3834694 C65.7698736,10.3834694 65.8693554,10.4207751 65.9315316,10.4829513 C66.006143,10.5575627 66.0434487,10.6446093 66.0434487,10.7689617 L66.0434487,14.3378736 L68.1574383,14.3378736 Z" id="Fill-11" fill="#171728"></path>
                                    <path d="M49.9647047,17.4093886 C50.9469637,17.6705285 51.7926839,18.2051192 52.5013679,19.0259689 C53.2227358,19.8342591 53.5833575,20.8165181 53.5833575,21.9606839 C53.5833575,23.7387979 53.0112124,25.0818031 51.8672953,25.9771399 C50.7355648,26.8601658 49.0071917,27.295399 46.6818031,27.295399 L40.1781762,27.295399 C40.0538238,27.295399 39.954342,27.2579689 39.8921658,27.1957927 C39.8174301,27.1213057 39.7926839,27.0341347 39.7926839,26.9097824 L39.7926839,9.18957513 C39.7926839,9.0652228 39.8299896,8.96586528 39.8921658,8.90368912 C39.9667772,8.82907772 40.0538238,8.79164767 40.1781762,8.79164767 L46.6568083,8.79164767 C47.8258446,8.79164767 48.8206632,9.00304663 49.6412642,9.42596891 C50.4869845,9.84864249 51.1211813,10.4207876 51.5439793,11.1420311 C51.9792124,11.8631503 52.2030466,12.6714404 52.2030466,13.5792124 C52.2030466,14.499544 51.9792124,15.295399 51.5439793,15.9793368 C51.1334922,16.6632746 50.5989016,17.1358135 49.9647047,17.4093886 L49.9647047,17.4093886 Z M48.3854301,14.1014922 C48.3854301,12.9700104 47.689057,12.4104249 46.2963109,12.4104249 L43.8963109,12.4104249 L43.8963109,15.9544663 L46.2963109,15.9544663 C46.942943,15.9544663 47.4650984,15.8052435 47.8258446,15.5066736 C48.1989016,15.1834819 48.3854301,14.7232539 48.3854301,14.1014922 L48.3854301,14.1014922 Z M46.8433368,23.6766218 C47.6516269,23.6766218 48.2983834,23.4900933 48.7707979,23.1170363 C49.2434611,22.7439793 49.4797306,22.1969534 49.4797306,21.4508394 C49.4797306,20.7294715 49.2434611,20.1947565 48.7707979,19.8590052 C48.2983834,19.5108187 47.6516269,19.3242902 46.8433368,19.3242902 L43.8838756,19.3242902 L43.8838756,23.6643109 L46.8433368,23.6766218 Z" id="Fill-13" fill="#171728"></path>
                                    <path d="M84.9573886,27.1585492 C84.9573886,27.0715026 84.9326425,26.9968912 84.8827772,26.9224041 L77.5211192,16.9989637 L84.6217617,9.35129534 C84.7086839,9.26437306 84.7584249,9.17720207 84.7584249,9.11502591 C84.7584249,9.04041451 84.7212435,8.99067358 84.6466321,8.95349223 C84.5968912,8.90362694 84.5097202,8.87875648 84.4103627,8.87875648 L80.8165803,8.87875648 C80.642487,8.87875648 80.4932642,8.95349223 80.3689119,9.09015544 L73.5544041,16.4768083 L73.5544041,9.27668394 C73.5544041,9.15233161 73.5170984,9.05284974 73.4423627,8.99067358 C73.3678756,8.91606218 73.280829,8.87875648 73.1564767,8.87875648 L69.9854922,8.87875648 C69.8611399,8.87875648 69.761658,8.91606218 69.6994819,8.99067358 C69.6248705,9.06528497 69.6,9.15233161 69.6,9.27668394 L69.6,27.0093264 C69.6,27.1336788 69.6373057,27.233285 69.6994819,27.2954611 C69.7739689,27.3699482 69.8611399,27.3948187 69.9854922,27.3948187 L73.1564767,27.3948187 C73.280829,27.3948187 73.3801865,27.3576373 73.4423627,27.2954611 C73.5170984,27.2207254 73.5544041,27.1336788 73.5544041,27.0093264 L73.5544041,21.2891192 L75.1088083,19.5979275 L80.7544041,27.1711088 C80.853886,27.3326425 81.015544,27.4072539 81.226943,27.4072539 L84.6340725,27.4072539 C84.8455959,27.3948187 84.9573886,27.3202073 84.9573886,27.1585492" id="Fill-15" fill="#171728"></path>
                                    <g id="编组" stroke-width="1" fill="none">
                                        <mask id="mask-4" fill="white">
                                            <use xlink:href="#path-3"></use>
                                        </mask>
                                        <g id="Clip-18"></g>
                                        <path d="M31.858943,10.1098943 L31.858943,11.9130031 C31.858943,12.2735005 31.6724145,12.5969409 31.3615337,12.7709098 L25.5295337,16.1409824 L30.739772,19.1378736 C31.4362694,19.535801 31.858943,20.281915 31.858943,21.0777699 L31.858943,25.9026404 C31.858943,26.698371 31.4362694,27.444485 30.739772,27.8425368 L17.0485803,35.7016041 C16.3523316,36.0995316 15.5066114,36.0995316 14.8102383,35.7016041 L10.3212435,33.1150756 C9.98549223,32.9285472 9.98549223,32.4435731 10.3212435,32.2570446 L25.119171,23.7389098 C25.280829,23.639428 25.280829,23.4030342 25.119171,23.3036767 L19.6227979,20.1326922 C19.3119171,19.9584746 18.9388601,19.9584746 18.6279793,20.1326922 L3.59365803,28.8000497 C3.36982383,28.936713 3.08393782,28.936713 2.84754404,28.8000497 L1.1439171,27.8299772 C0.447544041,27.4321741 0.0123108808,26.6860601 0.0123108808,25.8900808 L0.0123108808,23.9128788 C0.0123108808,23.6517389 0.149098446,23.4030342 0.385367876,23.266371 L21.9356269,10.8807544 C22.0974093,10.7812725 22.0974093,10.5451275 21.9356269,10.4455212 L16.4268187,7.26222591 C16.1159378,7.08800829 15.7428808,7.08800829 15.432,7.26222591 L0.74611399,15.7057492 C0.410362694,15.8922777 0,15.6560083 0,15.2705161 L0,10.0973347 C0,9.30160415 0.422673575,8.55549016 1.11917098,8.15756269 L14.8102383,0.298495337 C15.5066114,-0.0995564767 16.3523316,-0.0995564767 17.0485803,0.298495337 L30.7150259,8.18243316 C31.4362694,8.56792539 31.858943,9.31403938 31.858943,10.1098943" id="Fill-17" fill="#7524F9" mask="url(#mask-4)"></path>
                                    </g>
                                </g>
                            </g>
                        </g>
                    </g>
                </g>
            </g>
        </g>
    </g>
</svg>