<?xml version="1.0" encoding="UTF-8"?>
<svg width="28px" height="28px" viewBox="0 0 28 28" version="1.1" xmlns="http://www.w3.org/2000/svg" xmlns:xlink="http://www.w3.org/1999/xlink">
    <title>BSC</title>
    <g id="页面-1" stroke="none" stroke-width="1" fill="none" fill-rule="evenodd">
        <g id="Item-details" transform="translate(-1902.000000, -2764.000000)">
            <g id="编组-19备份" transform="translate(1849.000000, 2763.000000)">
                <g id="heco" transform="translate(53.000000, 1.000000)">
                    <circle id="椭圆形" fill="#000000" cx="14" cy="14" r="14"></circle>
                    <g id="bsc1" transform="translate(5.607378, 4.666667)" fill="#F0B90B" fill-rule="nonzero">
                        <polygon id="路径" points="8.07407338 2.1037037 4.94813264 3.91111111 3.09628079 2.85925926 8.05924375 0 13.0222067 2.85925926 11.1999845 3.91111111"></polygon>
                        <polygon id="路径" points="11.2148141 5.42222222 13.0370363 6.47407407 13.0370363 8.57777778 9.9110956 10.3851852 9.9110956 14 8.08887338 15.0518519 6.26663634 14 6.26663634 10.3851852 3.14074004 8.57777778 3.14074004 6.47407407 4.96296227 5.42222222 8.08887338 7.22962963"></polygon>
                        <polygon id="路径" points="13.0370363 10.0888889 13.0370363 12.1925926 11.2148141 13.2444444 11.2148141 11.1407407"></polygon>
                        <polygon id="路径" points="11.2148141 14.7555556 14.3407104 12.9481481 14.35554 12.9481481 14.35554 9.33333333 16.1778067 8.28148148 16.1778067 14 11.2148141 16.8592593"></polygon>
                        <polygon id="路径" points="14.3407104 5.71851852 12.5185178 4.66666667 14.3407104 3.61481481 16.1629919 4.66666667 16.1629919 6.77037037 14.3407104 7.82222222"></polygon>
                        <polygon id="路径" points="6.25185116 17.6148148 6.25185116 15.5111111 8.07407338 16.562963 9.89626597 15.5111111 9.89626597 17.6148148 8.07407338 18.6666667"></polygon>
                        <polygon id="路径" points="4.94813264 13.2444444 3.12591041 12.1925926 3.12591041 10.0888889 4.94813264 11.1407407"></polygon>
                        <polygon id="路径" points="8.07407338 5.71851852 6.25185116 4.66666667 8.07407338 3.61481481 9.89626597 4.66666667"></polygon>
                        <polygon id="路径" points="3.64442893 4.66666667 1.8221919 5.71851852 1.8221919 7.82222222 0 6.77037037 0 4.66666667 1.8221919 3.61481481"></polygon>
                        <polygon id="路径" points="0 8.28148148 1.8221919 9.33333333 1.83702153 9.33333333 1.83702153 12.9481481 4.96296227 14.7555556 4.96296227 16.8592593 0 14"></polygon>
                    </g>
                </g>
            </g>
        </g>
    </g>
</svg>