<?xml version="1.0" encoding="UTF-8"?>
<svg width="32px" height="32px" viewBox="0 0 32 32" version="1.1" xmlns="http://www.w3.org/2000/svg" xmlns:xlink="http://www.w3.org/1999/xlink">
    <title>简体中文</title>
    <g id="导航" stroke="none" stroke-width="1" fill="none" fill-rule="evenodd">
        <g transform="translate(-1617.000000, -28.000000)" fill-rule="nonzero" id="编组-16">
            <g id="简体中文" transform="translate(1617.000000, 28.000000)">
                <path d="M15.9999718,0 C7.16336614,0 0,7.16342258 0,16.0000282 C0,24.8365774 7.16336614,32.0000564 15.9999718,32.0000564 C24.8366339,32.0000564 32,24.8365774 32,16.0000282 C32,7.16342258 24.8366903,0 15.9999718,0 Z" id="路径" fill="#9FAEBC"></path>
                <path d="M21.5047967,21.5776481 L17.4257935,21.585107 L17.4257935,21.585107 L17.4257935,24.2398434 C17.4257935,24.7921281 16.9780782,25.2398434 16.4257935,25.2398434 L15.5742067,25.2398434 C15.021922,25.2398434 14.5742067,24.7921281 14.5742067,24.2398434 L14.5742067,21.585107 L14.5742067,21.585107 L10.5000001,21.5849262 C8.84319785,21.5847196 7.50013324,20.2415953 7.5000001,18.5847931 L7.5000001,13.4982147 C7.49957861,11.8413605 8.84272436,10.4982147 10.4995786,10.4982147 C10.4997191,10.4982147 10.4998596,10.4982147 10.5000001,10.4986362 L14.5742067,10.4992087 L14.5742067,10.4992087 L14.5742067,7.84447234 C14.5742067,7.29218759 15.021922,6.84447234 15.5742067,6.84447234 L16.4257935,6.84447234 C16.9780782,6.84447234 17.4257935,7.29218759 17.4257935,7.84447234 L17.4257935,10.4992087 L17.4257935,10.4992087 L21.4974519,10.4992087 C23.1540365,10.4998992 24.4970706,11.8426242 24.4981423,13.4992086 L24.4993108,18.5769627 C24.4996917,20.2319445 23.1597758,21.5746218 21.5047967,21.5776481 Z M11.0046529,18.7335203 L14.5742067,18.7335203 L14.5742067,13.3507954 L11.0046529,13.3507954 C10.6436412,13.3507954 10.3515868,13.6428498 10.3515868,14.0038615 L10.3515868,18.0804542 C10.3515868,18.4414659 10.6436412,18.7335203 11.0046529,18.7335203 Z M17.4257935,18.7335203 L21.0034599,18.7335203 C21.3604153,18.7335203 21.6484134,18.4455222 21.6484134,18.0885668 L21.6484134,13.9957489 C21.6484134,13.6387935 21.3604153,13.3507954 21.0034599,13.3507954 L17.4257935,13.3507954 L17.4257935,18.7335203 Z" id="形状结合" fill="#FFFFFF"></path>
            </g>
        </g>
    </g>
</svg>