<?xml version="1.0" encoding="UTF-8"?>
<svg width="190px" height="60px" viewBox="0 0 190 60" version="1.1" xmlns="http://www.w3.org/2000/svg" xmlns:xlink="http://www.w3.org/1999/xlink">
    <title>Coin98 Wallet-32</title>
    <defs>
        <rect id="path-1" x="0" y="0" width="190" height="60"></rect>
        <linearGradient x1="50.0002766%" y1="99.9766014%" x2="50.0002766%" y2="-0.0254817965%" id="linearGradient-3">
            <stop stop-color="#CDA146" offset="0%"></stop>
            <stop stop-color="#F1D961" offset="100%"></stop>
        </linearGradient>
        <linearGradient x1="94.9012219%" y1="5.09877812%" x2="6.48052986%" y2="93.5180427%" id="linearGradient-4">
            <stop stop-color="#F1D961" offset="0%"></stop>
            <stop stop-color="#CDA146" offset="100%"></stop>
        </linearGradient>
    </defs>
    <g id="NFT交易市场" stroke="none" stroke-width="1" fill="none" fill-rule="evenodd">
        <g id="Home首页" transform="translate(-432.000000, -3342.000000)">
            <g id="编组-33" transform="translate(0.000000, 3191.000000)">
                <g id="编组-32" transform="translate(432.000000, 70.000000)">
                    <g id="Coin98-Wallet-32" transform="translate(0.000000, 81.000000)">
                        <mask id="mask-2" fill="white">
                            <use xlink:href="#path-1"></use>
                        </mask>
                        <g id="蒙版"></g>
                        <g mask="url(#mask-2)" fill-rule="nonzero">
                            <g transform="translate(0.000000, 12.000000)">
                                <path d="M66.2945284,16.7825674 C65.6455951,16.5025151 65.0559283,16.098703 64.5576651,15.5931392 C64.0643099,15.0839089 63.6665626,14.4880704 63.3838452,13.8347185 C62.6665263,12.1246444 62.8459715,10.1640957 63.8614511,8.61658273 C64.8769307,7.06906975 66.592526,6.14172215 68.4276264,6.14834737 C69.1603317,6.14911304 69.8857676,6.29547135 70.5627775,6.57915452 C71.2065538,6.86461853 71.793026,7.26743945 72.2929685,7.76754346 C72.790706,8.26843315 73.1850168,8.8645908 73.4529304,9.52128752 C74.0370162,10.8997417 74.0370162,12.4604213 73.4529304,13.8388755 C73.1783146,14.494215 72.7836923,15.0910269 72.2898889,15.5978158 C71.7874908,16.0982899 71.1988317,16.5014119 70.5530256,16.787244 C69.8754652,17.0671589 69.1507008,17.2113345 68.4189011,17.2117893 C67.6891344,17.2131309 66.9664199,17.0672179 66.2929886,16.7825674 M65.5148903,4.69342498 C63.715044,5.45891737 62.2831692,6.90800453 61.5263664,8.72989427 C60.7472646,10.6176025 60.7472646,12.7425605 61.5263664,14.6302687 C62.2832832,16.4526234 63.7152927,17.90222 65.5154035,18.6682969 C67.3792219,19.458146 69.478084,19.458146 71.3419024,18.6682969 C73.1425742,17.9030656 74.5748578,16.4531915 75.3309395,14.6302687 C76.109012,12.7434326 76.109012,10.6198482 75.3309395,8.73301204 C74.5730825,6.91021514 73.1404945,5.46021939 71.3398494,4.69342498 C69.4752893,3.90912761 67.3789371,3.90912761 65.514377,4.69342498 M49.5792722,4.68874833 C48.6896044,5.07418654 47.8794643,5.6255665 47.1910852,6.31414431 C46.509906,7.00836485 45.9660239,7.82796447 45.5886953,8.72885502 C44.8037682,10.6168184 44.8037682,12.7454231 45.5886953,14.6333865 C45.9662598,15.5329732 46.5097478,16.3514458 47.1900586,17.0449794 C47.8763632,17.7342049 48.6850551,18.2860184 49.5736264,18.6714147 C50.4976275,19.061329 51.4889031,19.2616209 52.4899553,19.260676 C54.4733966,19.2618852 56.3765127,18.4674239 57.7826664,17.051215 C58.4658594,16.3545008 59.0116111,15.532326 59.3907021,14.6287099 C59.4717968,14.4322905 59.5446793,14.229116 59.6139691,14.0202256 L57.4362176,14.0202256 C57.1655086,14.6037174 56.7991689,15.1365924 56.3527311,15.5962569 C55.3318879,16.6433069 53.9348372,17.2257912 52.4817432,17.2102211 C51.0315905,17.2159422 49.639688,16.6329178 48.6174277,15.5915803 C48.1239606,15.0820476 47.7262068,14.4858471 47.4436078,13.8321203 C46.8842276,12.4498996 46.886072,10.9000611 47.4487404,9.51920901 C48.3035953,7.4687335 50.2916146,6.13902761 52.4899553,6.14734376 C53.2231601,6.14776906 53.9490187,6.29523711 54.6256197,6.58123303 C55.2698587,6.86727271 55.8577443,7.26881389 56.3609432,7.7665042 C56.8092861,8.22656172 57.1750584,8.76216031 57.4418634,9.34929069 L59.6149956,9.34929069 C59.5498119,9.13884141 59.4738498,8.9335884 59.3932684,8.73353167 C58.6336814,6.9119096 57.2022014,5.46210321 55.4032048,4.69238572 C53.5394471,3.90834026 51.444256,3.90665781 49.5792722,4.68770907 M78.1713063,19.2606727 L80.1935408,19.2606727 L80.1935408,4.10416697 L78.1713063,4.10416697 L78.1713063,19.2606727 Z M103.146415,9.44594148 C103.146415,8.15385113 103.827286,6.95991038 104.932551,6.31386518 C106.037816,5.66781999 107.399558,5.66781999 108.504823,6.31386518 C109.610088,6.95991038 110.290959,8.15385113 110.290959,9.44594148 C110.290959,11.4433399 108.691598,13.0625512 106.718687,13.0625512 C104.745776,13.0625512 103.146415,11.4433399 103.146415,9.44594148 M101.327944,9.47504064 C101.327944,12.4332821 103.740254,14.7482243 106.81364,14.7482243 L108.034166,14.7482243 L105.649059,19.3282243 L107.683611,19.3282243 L111.393436,12.1282605 C111.855742,11.3002832 112.110565,10.370213 112.135607,9.41944046 C112.058365,6.4434381 109.645386,4.07592517 106.704892,4.0909805 C103.764397,4.10618001 101.375308,6.49839725 101.327944,9.47504064 M115.624218,14.7752449 C115.655072,13.0532953 117.042677,11.6737206 118.743796,11.6737206 C120.444916,11.6737206 121.832521,13.0532953 121.863375,14.7752449 C121.863375,16.5195248 120.466692,17.9335431 118.743796,17.9335431 C117.020901,17.9335431 115.624218,16.5195248 115.624218,14.7752449 M116.663051,7.83977173 C116.664339,6.68381202 117.574672,5.73913886 118.716081,5.70929746 C119.879135,5.70929746 120.821976,6.66384122 120.821976,7.84133062 C120.821976,9.01882001 119.879135,9.97336377 118.716081,9.97336377 C117.574789,9.94325141 116.664609,8.99873758 116.663051,7.8428895 M114.983672,7.8428895 C114.974845,8.66878285 115.231751,9.47514965 115.715577,10.1401643 L116.131829,10.7029213 L115.601121,11.1591546 C114.545454,12.0556365 113.93801,13.3808027 113.943265,14.7757645 C113.943265,17.4601993 116.092785,19.6363636 118.74431,19.6363636 C121.395835,19.6363636 123.545388,17.4601993 123.545388,14.7757645 C123.552842,13.3651725 122.934036,12.02578 121.859783,11.1274573 L121.317783,10.6665473 L121.753538,10.0991137 C122.247464,9.45309882 122.511505,8.65718481 122.502894,7.84029136 C122.468988,5.76323335 120.796184,4.09742469 118.74431,4.09742469 C116.692435,4.09742469 115.019631,5.76323335 114.985725,7.84029136 M96.4771475,4.10416697 L96.4771475,15.8623064 C96.5109003,16.1435353 96.4253439,16.4260715 96.2417025,16.6398259 C96.0580612,16.8535802 95.7935414,16.9785244 95.5137632,16.9836634 C95.0353243,16.9567493 94.6115618,16.6621848 94.4148789,16.2198104 L89.7929954,6.1499419 C89.3000438,4.90242215 88.1005959,4.08976921 86.7735016,4.10416697 C86.0199995,4.09551988 85.2870311,4.35273505 84.7004547,4.83164599 C84.6734583,4.85164936 84.6475842,4.87316068 84.6229528,4.89607985 C83.9991724,5.41451694 83.6391179,6.18974944 83.6426056,7.00680826 L83.6426056,19.2606727 L85.7859942,19.2606727 L85.7859942,7.32430088 C85.7720542,7.04924853 85.8703404,6.78047688 86.0578363,6.5809269 C86.2453322,6.38137692 86.5055702,6.26857484 86.7776077,6.26893668 C87.2587647,6.28642632 87.6830561,6.59325315 87.8554484,7.04837849 L87.8970222,7.14762741 C88.9830751,9.57948584 91.4128359,14.9269763 92.8350724,17.7631052 C93.3134284,18.7155831 94.1305343,19.1437564 95.4881003,19.1505116 C96.2550178,19.1644385 97.0031307,18.9096472 97.6058006,18.4292681 C98.2838708,17.9918888 98.6723225,17.2149056 98.6189709,16.4027194 L98.6189709,4.10416697 L96.4771475,4.10416697 Z" id="形状" fill="url(#linearGradient-3)"></path>
                                <path d="M48.4172327,31.0901356 C48.2421108,31.0899794 48.0928012,30.9690189 48.0642815,30.8041986 L45.8355736,24.2052017 C45.8243265,24.1705851 45.8184668,24.1345812 45.8181818,24.0983412 C45.8229855,24.0129529 45.8525597,23.9305158 45.9036062,23.860223 C45.9656688,23.769359 46.0753023,23.7186647 46.1885248,23.7284773 C46.2645778,23.7274187 46.338921,23.7500298 46.4002955,23.7928863 C46.4678918,23.8426178 46.5157041,23.9128379 46.5358493,23.9919688 L48.4699196,29.720956 L50.2996391,24.0197817 C50.3237878,23.9283147 50.3836125,23.8490835 50.4669073,23.7982538 C50.5418059,23.7531421 50.6284645,23.7289682 50.7170423,23.7284773 C50.810406,23.7280888 50.9020794,23.7522299 50.9820114,23.7982538 C51.0661513,23.8477186 51.1256036,23.927679 51.146722,24.0197817 L52.97593,29.720956 L54.9115349,23.9919688 C54.9345894,23.9145311 54.9829795,23.8461462 55.0496462,23.7967899 C55.1092276,23.7560002 55.1809233,23.7344569 55.2542556,23.7353086 C55.3694192,23.7225394 55.4831743,23.7682774 55.5540084,23.8558315 C55.603976,23.9224133 55.6325875,24.0014097 55.6363636,24.0832149 C55.6363636,24.1253748 55.6283363,24.1671843 55.6128336,24.2066655 L53.3820796,30.8041986 C53.3432771,30.9771916 53.1791014,31.0981043 52.9938333,31.0901356 L52.9703032,31.0901356 C52.7842775,31.1004161 52.6187066,30.9784758 52.5820569,30.8041986 L50.7052772,25.0410551 L48.8228708,30.8041986 C48.8036412,30.8912273 48.7538326,30.9693825 48.6816903,31.0257266 C48.6027313,31.0729677 48.5102684,31.0954871 48.4172327,31.0901356 L48.4172327,31.0901356 Z" id="路径" fill="#231F20"></path>
                                <path d="M58.8898305,24.8439637 L57.3516751,28.4867137 L59.4887229,28.4867137 C59.5918464,28.4792223 59.6929653,28.5173783 59.7642135,28.5906668 C59.8254826,28.6597314 59.8582243,28.7486502 59.8560436,28.8400566 C59.8586274,28.9307922 59.8257942,29.0190872 59.7642135,29.0870062 C59.6920689,29.1586974 59.5912836,29.1956563 59.4887229,29.188031 L57.0612123,29.188031 L56.3550183,30.860553 C56.3180854,30.9935202 56.1964187,31.0871152 56.0555721,31.0909091 C55.9943326,31.0891821 55.934008,31.0759257 55.8779006,31.0518657 C55.7794775,31.0274214 55.6987305,30.9587993 55.6602543,30.8669007 C55.6217781,30.7750022 55.6301283,30.670708 55.6827615,30.585785 L58.4835818,24.0020902 C58.5463801,23.8360297 58.7087795,23.7261902 58.8898305,23.7272727 L58.918777,23.7272727 C59.0966464,23.7245762 59.2552911,23.8362669 59.3090552,24.0020902 L62.132833,30.585785 C62.1875441,30.6703051 62.1970203,30.7754987 62.1582622,30.8680706 C62.1195041,30.9606425 62.0373094,31.0291336 61.9376939,31.0518657 C61.8807616,31.0730878 61.8204472,31.0843223 61.7595234,31.0850526 C61.6234403,31.0809972 61.506472,30.9894914 61.4725541,30.860553 L58.8898305,24.8439637 Z" id="路径" fill="#231F20"></path>
                                <path d="M64.2174914,31.0876948 C64.1085527,31.101783 63.9985725,31.0690591 63.920689,30.9993831 C63.8428055,30.9297072 63.8061256,30.8312263 63.8217012,30.7336139 L63.8217012,24.0686766 C63.8296057,23.8781078 64.0043485,23.7272727 64.2172184,23.7272727 C64.4300884,23.7272727 64.6048312,23.8781078 64.6127357,24.0686766 L64.6127357,30.3775767 L68.3167858,30.3775767 C68.4615952,30.3727562 68.5977679,30.4392162 68.6717707,30.5508292 C68.7457734,30.6624423 68.7457734,30.801362 68.6717707,30.912975 C68.5977679,31.0245881 68.4615952,31.091048 68.3167858,31.0862276 L64.2174914,31.0876948 Z" id="路径" fill="#231F20"></path>
                                <path d="M70.7624339,31.0877664 C70.6535697,31.1016832 70.5437431,31.0688826 70.4659846,30.9992296 C70.3882261,30.9295766 70.3516085,30.8311983 70.3671447,30.7336821 L70.3671447,24.0686799 C70.3750501,23.8781093 70.5498127,23.7272727 70.7627069,23.7272727 C70.975601,23.7272727 71.1503637,23.8781093 71.158269,24.0686799 L71.158269,30.3776415 L74.8621937,30.3776415 C75.0070196,30.3728209 75.1432078,30.4392815 75.2172189,30.5508957 C75.2912301,30.6625098 75.2912301,30.8014309 75.2172189,30.913045 C75.1432078,31.0246592 75.0070196,31.0911198 74.8621937,31.0862992 L70.7624339,31.0877664 Z" id="路径" fill="#231F20"></path>
                                <path d="M80.6399414,23.7304086 C80.8319784,23.7374747 80.9839757,23.8936846 80.9839757,24.0839779 C80.9839757,24.2742712 80.8319784,24.4304811 80.6399414,24.4375472 L76.450885,24.4375472 C76.3564934,24.4424317 76.263619,24.4125292 76.1901778,24.3536081 C76.1201487,24.2817 76.0850851,24.1832341 76.0940759,24.0837339 C76.0800521,23.9864268 76.1131051,23.8882594 76.1832941,23.8187557 C76.253483,23.749252 76.3526184,23.7165218 76.450885,23.7304086 L80.6399414,23.7304086 Z M80.9967504,30.7344479 C81.0107742,30.831755 80.9777213,30.9299225 80.9075323,30.9994261 C80.8373433,31.0689298 80.738208,31.1016601 80.6399414,31.0877732 L76.450885,31.0877732 C76.3559607,31.0929065 76.2626595,31.0618187 76.1901778,31.0009059 C76.1207585,30.9300151 76.0857134,30.8328467 76.0940759,30.7344479 L76.0940759,27.3671213 C76.0846551,27.266019 76.1234874,27.1663656 76.1990488,27.0977352 C76.2702648,27.0409779 76.3594967,27.0110632 76.450885,27.013308 L79.2959935,27.013308 C79.4933259,27.013308 79.6532954,27.1717156 79.6532954,27.3671213 C79.6532954,27.562527 79.4933259,27.7209346 79.2959935,27.7209346 L76.8081868,27.7209346 L76.8081868,30.3806346 L80.6394486,30.3806346 C80.7378916,30.3665394 80.8372813,30.3992528 80.907615,30.4688998 C80.9779486,30.5385467 81.0109846,30.636966 80.9967504,30.7344479 L80.9967504,30.7344479 Z" id="形状" fill="#231F20"></path>
                                <path d="M88.2573223,23.826073 C88.3309167,23.8939932 88.3693859,23.9878743 88.3629386,24.0838212 C88.3682872,24.1783286 88.3334108,24.2710179 88.2657716,24.3420574 C88.1920208,24.4100033 88.090348,24.4455369 87.9864163,24.4396893 L82.2028652,24.4396893 C82.098406,24.4495945 81.9946731,24.4155029 81.9204217,24.3468648 C81.8461704,24.2782268 81.8092907,24.182336 81.820006,24.0857738 C81.8110245,23.9893036 81.8483299,23.8940548 81.9220394,23.8252598 C81.9957489,23.7564648 82.0984241,23.7210661 82.2028652,23.7284412 L87.984304,23.7284412 C88.0867529,23.7201615 88.1875728,23.7562149 88.2573223,23.826073 Z M84.7049165,25.4985069 C84.7023082,25.4098001 84.7298245,25.3225663 84.7836006,25.2490575 C84.8623831,25.1697152 84.9780925,25.1309028 85.0935846,25.1450795 C85.2071206,25.1316196 85.320581,25.1704718 85.3972316,25.2490575 C85.4510077,25.3225663 85.478524,25.4098001 85.4759158,25.4985069 L85.4759158,30.7364564 C85.484123,30.8323165 85.4464857,30.9266881 85.3729297,30.9946833 C85.2993737,31.0626786 85.1972842,31.0974705 85.0935846,31.0898838 C84.9898583,31.0946498 84.8883009,31.0613093 84.8110609,30.9971335 C84.7374299,30.9280349 84.6990336,30.8332669 84.7054445,30.7364564 L84.7049165,25.4985069 Z" id="形状" fill="#231F20"></path>
                                <rect id="矩形" fill="url(#linearGradient-4)" x="0" y="0" width="36" height="36" rx="12.791"></rect>
                                <path d="M23.8589778,15.7564151 C20.7658081,15.7535834 18.2560096,18.2682455 18.2531828,21.3730731 C18.2503608,24.4779007 20.7555801,26.9971593 23.8487498,26.9999976 C26.9419194,27.0028311 29.4517194,24.4881704 29.4545455,21.3833428 C29.453425,18.2801508 26.9505106,15.7632102 23.8589778,15.7564151 L23.8589778,15.7564151 Z M23.8589778,24.6896768 C22.5231453,24.6886325 21.3195691,23.8797004 20.8098047,22.640304 C20.3000402,21.4009075 20.5845502,19.9753025 21.53059,19.0286371 C22.4766298,18.0819717 23.8977573,17.8008113 25.1309135,18.3163376 C26.3640696,18.8318639 27.1662285,20.0424788 27.1631337,21.3833428 C27.1594559,23.2118624 25.6806343,24.691662 23.8589778,24.6896768 L23.8589778,24.6896768 Z M25.0149177,21.403879 C25.0183919,21.8983222 24.7078365,22.3401059 24.2425861,22.502567 L24.2425861,23.3445521 L23.4753694,23.3445521 L23.4753694,22.502567 C23.0075056,22.343604 22.6954042,21.899621 22.7030378,21.403879 C22.7030378,20.7630649 23.2205698,20.2435824 23.8589778,20.2435824 C24.4973858,20.2435824 25.0149177,20.7630649 25.0149177,21.403879 L25.0149177,21.403879 Z M16.9335676,22.1893895 C16.9335676,24.8462163 14.7878711,26.9999999 12.1410202,26.9999999 C9.4941693,26.9999999 7.34847271,24.8462163 7.34847271,22.1893895 L9.65012304,22.1893895 C9.65012304,23.5716767 10.7664807,24.6922418 12.1435776,24.6922418 C13.5206745,24.6922418 14.6370321,23.5716767 14.6370321,22.1893895 L16.9335676,22.1893895 Z M12.1410202,9 C9.0491821,9.00283553 6.54451345,11.5200088 6.54545481,14.623501 C6.54639671,17.7269932 9.05259236,20.2426346 12.1444316,20.24358 C15.2362708,20.2445249 17.7439925,17.7304163 17.7468174,14.6269252 C17.7451243,11.5199645 15.2363149,9.0016995 12.1410202,9 L12.1410202,9 Z M12.1410202,17.9435263 C10.8031182,17.9445636 9.59642753,17.1362552 9.08395672,15.8957347 C8.5714859,14.6552142 8.85423092,13.226959 9.80027073,12.2773536 C10.7463105,11.3277482 12.169203,11.0439376 13.4050655,11.5583399 C14.6409281,12.0727421 15.4462014,13.2839808 15.4451681,14.6269252 C15.438714,16.4559431 13.9631705,17.9370479 12.1410202,17.9435263 L12.1410202,17.9435263 Z M13.3020749,14.7604107 C13.3060988,15.3527745 12.865859,15.8534996 12.2797979,15.9231397 C11.6937368,15.9927799 11.1491901,15.6090745 11.0153109,15.032141 C10.8814316,14.4552075 11.2010147,13.8694638 11.7574118,13.6719908 L11.7574118,12.8351397 L12.5297433,12.8351397 L12.5297433,13.6719908 C12.9925072,13.8317804 13.3028871,14.269188 13.3020749,14.7604107 L13.3020749,14.7604107 Z M28.651537,13.8106104 C28.6533163,14.6150054 28.4508815,15.406593 28.0633257,16.1106674 C27.4646555,15.6222261 26.7839481,15.2449482 26.0532177,14.9965773 C26.5475272,14.0784735 26.4221564,12.9488236 25.7386772,12.1624204 C25.0551981,11.3760171 23.9572043,11.0980777 22.9839417,11.4651035 C22.0106792,11.8321293 21.3666226,12.767011 21.3680806,13.8106104 C21.3636526,14.2249697 21.465833,14.6334636 21.6647378,14.9965773 C20.9340074,15.2449482 20.2533,15.6222261 19.6546298,16.1106674 C19.267074,15.406593 19.0646392,14.6150054 19.0664185,13.8106104 C19.0664185,11.1537836 21.2121269,9 23.8589778,9 C26.5058286,9 28.651537,11.1537836 28.651537,13.8106104 L28.651537,13.8106104 Z" id="形状" fill="#252525"></path>
                            </g>
                        </g>
                    </g>
                </g>
            </g>
        </g>
    </g>
</svg>