<?xml version="1.0" encoding="UTF-8"?>
<svg width="190px" height="60px" viewBox="0 0 190 60" version="1.1" xmlns="http://www.w3.org/2000/svg" xmlns:xlink="http://www.w3.org/1999/xlink">
    <title>Coinhub</title>
    <defs>
        <rect id="path-1" x="0" y="0" width="190" height="60"></rect>
    </defs>
    <g id="NFT交易市场" stroke="none" stroke-width="1" fill="none" fill-rule="evenodd">
        <g id="Home首页" transform="translate(-669.000000, -3342.000000)">
            <g id="编组-33" transform="translate(0.000000, 3191.000000)">
                <g id="编组-32" transform="translate(432.000000, 70.000000)">
                    <g id="编组-29" transform="translate(0.000000, 81.000000)">
                        <g id="Coinhub" transform="translate(237.000000, 0.000000)">
                            <mask id="mask-2" fill="white">
                                <use xlink:href="#path-1"></use>
                            </mask>
                            <g id="蒙版"></g>
                            <g mask="url(#mask-2)" fill-rule="nonzero">
                                <g transform="translate(0.000000, 11.000000)">
                                    <path d="M54.2245541,13.8299159 C55.0465696,13.830521 55.865672,13.9276285 56.6650424,14.1192447 C57.5576938,14.3429241 58.4224147,14.6661026 59.2429619,15.0827095 L59.2429619,17.7430877 C58.4546845,17.2771953 57.6166678,16.9011311 56.7446078,16.6219387 C55.9677883,16.3900298 55.1611053,16.273536 54.3504122,16.2761908 C53.3728768,16.2618498 52.4062664,16.4831579 51.5323498,16.921394 C50.7203047,17.3268331 50.0422717,17.9576548 49.5793805,18.7383787 C48.6533855,20.361709 48.6533855,22.3533461 49.5793805,23.9766764 C50.0399178,24.7527126 50.7172284,25.3772261 51.5280099,25.7734081 C52.4073514,26.2053441 53.3766217,26.4225003 54.3561987,26.4070382 C55.136103,26.4102782 55.9118751,26.2936684 56.6563626,26.0612903 C57.6124728,25.7305183 58.5363756,25.3131156 59.4165592,24.8142832 L59.4165592,27.476108 C58.5847049,27.9236448 57.706126,28.2782783 56.796687,28.5336047 C55.8851455,28.7567282 54.9487877,28.8622265 54.0104508,28.8475265 C52.467364,28.8475265 51.0882301,28.5403557 49.8730492,27.9260143 C48.68245,27.3343765 47.6875068,26.4122585 47.0072476,25.269976 C46.3155556,24.1248429 45.9549994,22.8103153 45.965664,21.4725357 C45.9434427,20.0760069 46.3133226,18.7012363 47.0332872,17.5043915 C47.7412379,16.3383807 48.7656198,15.3972737 49.9873341,14.7904875 C51.3033313,14.138107 52.75588,13.8088163 54.2245541,13.8299159 Z M66.0913742,18.680513 C67.0547221,18.6670926 68.0070708,18.8864455 68.8674839,19.3199296 C69.6697206,19.7181895 70.3394809,20.3402175 70.7958603,21.1108748 C71.2543345,21.9011881 71.4893543,22.8012641 71.4757829,23.7148338 C71.4962711,24.6442358 71.2706888,25.5625356 70.8218999,26.3766586 C70.3691698,27.1527578 69.698688,27.7789767 68.8935235,28.1777303 C68.0269172,28.6219507 67.0651391,28.8483683 66.0913742,28.8373999 C65.1192314,28.8504222 64.1588385,28.6238629 63.2950115,28.1777303 C62.496303,27.7756098 61.8318191,27.1498288 61.3825483,26.3766586 C60.9331125,25.5627884 60.7074867,24.6443115 60.7286652,23.7148338 C60.7121466,22.7931829 60.9509748,21.8849347 61.4187144,21.0906217 C61.8798443,20.3263368 62.5485901,19.7087629 63.3470907,19.3098031 C64.1980848,18.8828184 65.139364,18.6669742 66.0913742,18.680513 L66.0913742,18.680513 Z M63.4309961,23.7249603 C63.4309961,24.7028916 63.6721034,25.4831149 64.154318,26.0656302 C64.6209226,26.6447233 65.3337636,26.9692296 66.0769078,26.9408498 C66.9140324,26.9408498 67.573702,26.6616475 68.0559167,26.1032429 C68.5381313,25.5448384 68.7792386,24.7453265 68.7792386,23.7047073 C68.7792386,22.7123096 68.5381313,21.9455883 68.0559167,21.4045435 C67.573702,20.8634986 66.915479,20.5929762 66.0812477,20.5929762 C65.3473974,20.5711401 64.6442784,20.8880238 64.174571,21.4522827 C63.6788544,22.021296 63.4309961,22.7788552 63.4309961,23.7249603 Z M74.376304,14.343456 C75.1779937,14.3497807 75.826118,14.9985493 75.8316289,15.8002449 C75.8321198,16.1835767 75.6795351,16.551238 75.4077611,16.8215755 C75.1416869,17.1050979 74.7701864,17.2659312 74.3813672,17.2659312 C73.992548,17.2659312 73.6210475,17.1050979 73.3549734,16.8215755 C73.0778228,16.5540515 72.9211924,16.1854481 72.9209802,15.8002449 C72.9132809,15.4101035 73.070929,15.0349012 73.3549734,14.7673412 C73.62448,14.4943306 73.9926834,14.3415209 74.376304,14.343456 Z M75.6638171,18.8685767 L75.6638171,28.6536762 L73.0873442,28.6536762 L73.0873442,18.8685767 L75.6638171,18.8685767 Z M83.4554412,18.680513 C84.5047403,18.680513 85.3413827,19.024332 85.9653684,19.7119701 C86.5893542,20.3996082 86.9018293,21.3056895 86.9027937,22.430214 L86.9027937,28.6507829 L84.3393407,28.6507829 L84.3393407,22.6920566 C84.3393407,22.0564977 84.1874431,21.55403 83.8836478,21.1846536 C83.5803851,20.8144675 83.1205346,20.6086603 82.6424273,20.6291423 C82.2411737,20.6279824 81.8490882,20.7490899 81.518385,20.9763369 C81.0734335,21.3019849 80.6828292,21.696007 80.3610699,22.1437785 L80.3610699,28.6536762 L77.788937,28.6536762 L77.788937,18.8685767 L80.3654098,18.8685767 L80.3654098,20.2414418 C80.7640306,19.744707 81.2616028,19.3363037 81.8265202,19.0421739 C82.3348291,18.7990351 82.8919986,18.6753296 83.4554412,18.680513 Z M91.4365757,14.0194262 L91.4365757,20.2399951 L91.4987814,20.2399951 C92.3310839,19.2003403 93.3336081,18.6800308 94.5063541,18.6790663 C95.5469733,18.6790663 96.3850624,19.0214387 97.0206213,19.7061835 C97.6561802,20.3909283 97.9739596,21.284472 97.9739596,22.3868147 L97.9739596,28.6522295 L95.4061667,28.6522295 L95.4061667,22.8801203 C95.4061667,22.2233439 95.2508936,21.7011055 94.9403473,21.3134049 C94.6327168,20.9283389 94.1596965,20.7133297 93.6673007,20.7347473 C93.2739684,20.7359545 92.8896524,20.8526578 92.5620647,21.0703687 C92.1297232,21.3779265 91.7497006,21.7530645 91.4365757,22.1813913 L91.4365757,28.6551228 L88.8586563,28.6551228 L88.8586563,14.0194262 L91.4365757,14.0194262 Z M102.41371,18.8685767 L102.41371,24.9242281 C102.41371,25.559787 102.572358,26.0420017 102.889656,26.3708721 C103.221246,26.7079855 103.68015,26.8888136 104.152576,26.8685176 C104.598731,26.8639428 105.033206,26.7253344 105.399583,26.4706905 C105.812759,26.1871053 106.144841,25.8006744 106.363048,25.3495414 L106.363048,18.8685767 L108.939521,18.8685767 L108.939521,28.6536762 L106.363048,28.6536762 L106.363048,27.3227638 C105.434302,28.3354145 104.428403,28.8417399 103.345349,28.8417399 C102.297978,28.8417399 101.453138,28.4993675 100.810828,27.8146227 C100.168518,27.1298779 99.8473635,26.2363342 99.8473635,25.1339915 L99.8473635,18.8685767 L102.41371,18.8685767 Z M113.561548,14.0194262 L113.561548,19.4978668 C114.314385,18.9551848 115.221624,18.6686616 116.149594,18.680513 C116.96998,18.672989 117.776497,18.8922654 118.480137,19.314143 C119.184086,19.7392584 119.7514,20.3572796 120.114845,21.0949617 C120.508638,21.8908266 120.707008,22.7691103 120.693502,23.6569681 C120.693502,25.2627428 120.215146,26.5285562 119.258432,27.4544084 C118.301718,28.3802605 116.992023,28.8427043 115.329347,28.8417426 C113.837768,28.8427501 112.359422,28.5620017 110.972055,28.0142596 L110.972055,14.0194262 L113.561548,14.0194262 Z M113.561548,26.6052284 C114.184146,26.8066745 114.835622,26.9044203 115.489924,26.8945572 C116.219353,26.9216931 116.917972,26.5992532 117.370561,26.0265708 C117.835416,25.4479132 118.067844,24.649848 118.067844,23.6323751 C118.067844,22.7103807 117.83397,21.9754856 117.366221,21.4276898 C116.907635,20.8825274 116.223555,20.578907 115.511624,20.6045494 C115.17285,20.60107 114.837153,20.6690968 114.526459,20.8041862 C114.178998,20.9678456 113.854577,21.176506 113.561548,21.4247965 L113.561548,26.6052284 Z" id="形状结合" fill="#222222"></path>
                                    <path d="M56.5174848,26.0916698 L56.5174848,28.5885772 C56.6086233,28.5683242 56.7041018,28.5509644 56.7909005,28.5278181 C57.700582,28.272566 58.5792208,27.9174232 59.4107726,27.4688748 L59.4107726,24.8084966 C58.530589,25.3073291 57.6066862,25.7247317 56.650576,26.0555037 C56.60573,26.0699701 56.5637774,26.07865 56.5174848,26.0916698 Z" id="路径" fill="#22A079"></path>
                                    <path d="M23.998376,16.6682313 C23.998376,16.6682313 25.9947446,23.0725239 33.793602,23.9607633 C35.0811151,24.1054277 36.5422255,24.2674518 38.035162,23.8247788 C38.1656984,23.8307116 38.2871548,23.8932839 38.3677634,23.9961294 C38.4483721,24.0989749 38.4801147,24.2318634 38.4546887,24.360037 C38.2311223,25.8556487 37.7296698,27.2962209 36.9762187,28.6073836 C35.0840084,31.9708307 30.9263538,36.4192607 21.540528,37.990316 C21.0443291,37.9801895 20.0606113,37.5563229 19.6034718,37.6315483 C19.6034718,37.6315483 8.28492974,27.7017845 23.998376,16.6682313 Z" id="路径" fill="#CFBFA3"></path>
                                    <path d="M21.540528,37.9917627 C21.540528,37.9917627 13.3423969,26.2739469 26.2160812,20.2645881 L24.6103064,18.1785275 C24.6103064,18.1785275 7.94352178,26.6949203 21.540528,37.9917627 Z" id="路径" fill="#B9A798"></path>
                                    <path d="M38.4445622,24.3788434 C38.1881561,25.9449421 37.6489386,27.4513197 36.8532539,28.8243801 L34.4735247,24.0345421 C35.5771726,24.1819375 36.6984803,24.1260437 37.7819993,23.8696247 C38.2984512,23.7495533 38.522681,23.9202573 38.4445622,24.3788434 Z" id="路径" fill="#222222"></path>
                                    <circle id="椭圆形" fill="#222222" cx="24.762204" cy="25.9904047" r="1.66074722"></circle>
                                    <path d="M25.079019,2.79057613 L26.4576707,0.5236851 C26.4576707,0.5236851 23.0117649,1.03869034 19.6946104,2.44916816 C19.121671,2.50248296 18.5518894,2.58553587 17.9875705,2.69799091 L20.7492138,0 C20.7492138,0 16.9720265,0.674136068 13.6432988,4.19526737 C13.35397,4.33993177 13.0848943,4.48459616 12.8114786,4.64517363 L14.9814445,0.656776341 C14.9814445,0.656776341 10.5677339,2.72692379 8.44695386,7.86684965 L9.78509949,3.21588944 C9.78509949,3.21588944 6.41007922,5.78657569 5.81406192,12.0939432 C5.73594315,12.2501807 5.65927102,12.4049716 5.58549218,12.5626558 L5.21659798,6.90483144 C5.21659798,6.90483144 1.93126964,12.1518089 4.04192312,18.0685826 L4.04192312,18.083049 L1.74465257,12.3673589 C1.74465257,12.3673589 0.318261663,16.8693148 3.7612742,22.6718035 L0,18.3174053 C0,18.3174053 0.364554268,25.8312739 4.66253336,29.8905567 C4.66253336,29.8905567 6.21044236,29.4319706 7.15944077,30.5256334 C10.197393,34.8655652 15.0841562,37.758853 20.6436088,37.970063 C20.8678386,37.9787429 21.3177448,37.9830828 21.3177448,37.9830828 C21.3177448,37.9830828 13.338057,31.1028443 21.0284161,21.2656657 C28.7202218,12.212568 38.6601122,18.5069157 38.5487206,17.6924552 C37.5404098,10.3058913 32.1053686,4.37609786 25.079019,2.79057613 Z" id="路径" fill="#22A079"></path>
                                    <path d="M17.957191,32.1748075 C17.957191,32.1748075 9.14857616,35.2445859 0.964911496,23.3502795 C0.964911496,23.3502795 1.92982299,27.6034127 5.56379252,31.7813203 C8.55400551,35.2185463 14.4924788,38.205866 21.540528,37.9888694 C21.540528,37.9888694 20.4714581,37.2655474 19.4501275,35.5686341 C18.5763546,34.1133103 17.957191,32.1748075 17.957191,32.1748075 Z" id="路径" fill="#1B8061"></path>
                                </g>
                            </g>
                        </g>
                    </g>
                </g>
            </g>
        </g>
    </g>
</svg>