<?xml version="1.0" encoding="UTF-8"?>
<svg width="40px" height="40px" viewBox="0 0 40 40" version="1.1" xmlns="http://www.w3.org/2000/svg" xmlns:xlink="http://www.w3.org/1999/xlink">
    <title>Copy</title>
    <g id="页面-1" stroke="none" stroke-width="1" fill="none" fill-rule="evenodd">
        <g id="Profile" transform="translate(-783.000000, -259.000000)">
            <g id="编组-17" transform="translate(0.000000, 158.000000)">
                <g id="编组-12" transform="translate(300.000000, 95.000000)">
                    <g id="编组-2" transform="translate(281.000000, 6.000000)">
                        <g id="Copy" transform="translate(202.000000, 0.000000)">
                            <circle id="椭圆形" fill="#F5F7FA" cx="20" cy="20" r="20"></circle>
                            <g id="编组" transform="translate(13.000000, 12.000000)" fill="#B8BFCC" fill-rule="nonzero">
                                <path d="M10.2440625,10.667037 C10.1503125,10.704537 10.0509375,10.723287 9.9496875,10.722383 L0.761249993,10.722383 C0.559353939,10.722383 0.365727023,10.6421466 0.222964956,10.4993846 C0.0802028884,10.3566225 0,10.1629956 0,9.96109953 L0,0.761412023 C0,0.340985261 0.340823231,7.87850229e-05 0.761249993,7.87850229e-05 L9.9496875,7.87850229e-05 C10.1535257,-0.00285068934 10.3500553,0.0760202309 10.4952599,0.21911014 C10.6404644,0.362200049 10.7221875,0.55755158 10.7221875,0.761412023 L10.7221875,9.96109953 C10.7216418,10.2718835 10.5324565,10.5512101 10.2440625,10.667037 L10.2440625,10.667037 Z M11.7834375,4.27789128 L14.2275,4.27789128 C14.4313382,4.2749618 14.6278678,4.35383272 14.7730724,4.49692264 C14.9182769,4.64001255 15,4.83536408 15,5.03922453 L15,14.238912 C15,14.6593388 14.6591768,15.0002599 14.23875,15.0002599 L5.05031249,15.0002599 C4.8463991,15.0034313 4.64972088,14.9246437 4.50445996,14.7814982 C4.35919904,14.6383528 4.27753482,14.4428514 4.27781179,14.238912 L4.27781179,11.782662 L10.9359375,11.782662 C11.1604599,11.7829108 11.3758852,11.6939582 11.5348223,11.5353727 C11.6937594,11.3767872 11.783189,11.1615594 11.7834375,10.937037 L11.7834375,4.27789128 Z" id="形状"></path>
                            </g>
                        </g>
                    </g>
                </g>
            </g>
        </g>
    </g>
</svg>