<?xml version="1.0" encoding="UTF-8"?>
<svg width="190px" height="60px" viewBox="0 0 190 60" version="1.1" xmlns="http://www.w3.org/2000/svg" xmlns:xlink="http://www.w3.org/1999/xlink">
    <title>DappRadar</title>
    <defs>
        <rect id="path-1" x="0" y="0" width="190" height="60"></rect>
    </defs>
    <g id="NFT交易市场" stroke="none" stroke-width="1" fill="none" fill-rule="evenodd">
        <g id="Home首页" transform="translate(-669.000000, -3432.000000)">
            <g id="编组-33" transform="translate(0.000000, 3191.000000)">
                <g id="编组-32" transform="translate(432.000000, 70.000000)">
                    <g id="编组-29" transform="translate(0.000000, 81.000000)">
                        <g id="编组-20" transform="translate(237.000000, 90.000000)">
                            <mask id="mask-2" fill="white">
                                <use xlink:href="#path-1"></use>
                            </mask>
                            <g id="蒙版"></g>
                            <g id="DappRadar" mask="url(#mask-2)" fill="#006CFF" fill-rule="nonzero">
                                <g transform="translate(0.000000, 17.000000)" id="形状">
                                    <path d="M28.857289,11.6971805 L22.8472836,1.27600968 C22.3797635,0.485055894 21.5292329,0 20.6104386,0 L8.5891517,0 C7.66645749,0 6.81388169,0.492376729 6.35230677,1.2913218 L0.342301296,11.7086646 C-0.114100432,12.5090547 -0.114100432,13.4909181 0.342301296,14.2913082 L6.35230677,24.708651 C6.81194369,25.509532 7.66575021,26.0024311 8.5891517,26 L20.6091627,26 C21.5318569,26 22.3844327,25.507596 22.8460076,24.708651 L28.8560131,14.2913082 C29.3130689,13.487115 29.3135536,12.5018228 28.857289,11.6971805 L28.857289,11.6971805 Z M14.5991572,21.937158 L14.5991572,20.1507445 C18.5519355,20.1507445 21.7562953,16.9463846 21.7562953,12.9936064 C21.7562953,9.04082809 18.5519355,5.83646819 14.5991572,5.83646819 C10.6463789,5.83646819 7.44201901,9.04082809 7.44201901,12.9936064 C7.43803045,14.5545072 7.95086574,16.0728228 8.90049805,17.311623 L10.1918198,16.0534775 C9.56456166,15.1558249 9.23028515,14.08614 9.23481258,12.9910543 C9.23481258,10.0220661 11.6416531,7.61522565 14.6106412,7.61522565 C17.5796294,7.61522565 19.9864699,10.0220661 19.9864699,12.9910543 C19.9864699,15.9600425 17.5796294,18.366883 14.6106412,18.366883 L14.6106412,16.5804695 C16.588863,16.5748356 18.1884911,14.9675985 18.1847378,12.9893723 C18.1809846,11.0111461 16.575269,9.40999074 14.5970402,9.41186339 C12.6188113,9.41373603 11.0161301,11.0179286 11.0161221,12.9961583 C11.013943,13.6235838 11.179119,14.2402408 11.4946257,14.7825719 L12.8306078,13.479766 C12.786007,13.324198 12.7636676,13.1630966 12.7642553,13.0012624 C12.7642553,11.9871694 13.5863402,11.1650845 14.6004332,11.1650845 C15.6145263,11.1650845 16.436611,11.9871694 16.436611,13.0012624 C16.436611,14.0153555 15.6145263,14.8374404 14.6004332,14.8374404 C14.4223815,14.8359381 14.2457332,14.8057786 14.0772692,14.7481196 L9.45811427,19.2549857 C9.41497872,19.2979837 9.36652287,19.3352904 9.31392519,19.3659985 C9.30244109,19.3774827 9.28074893,19.3774827 9.26926485,19.3876907 C9.23464381,19.4107859 9.1973722,19.429636 9.158252,19.4438352 C9.13655984,19.4553192 9.11359166,19.4553192 9.0918995,19.4655274 L8.99109474,19.4987036 C8.96955396,19.4981455 8.94816979,19.5025095 8.92857027,19.5114637 C8.89539401,19.5114637 8.86221776,19.5229478 8.83924959,19.5229478 C8.80607334,19.5229478 8.77289708,19.5114637 8.73844483,19.5114637 C8.71201618,19.5124124 8.68563682,19.5085203 8.66060824,19.4999795 L8.55980347,19.4668033 C8.53811131,19.4553192 8.51514313,19.4553192 8.49345097,19.4451111 C8.45758744,19.4307826 8.42370952,19.4119139 8.39264621,19.3889667 C8.37252968,19.380473 8.35364586,19.3693144 8.33650179,19.3557905 C8.30437844,19.3326716 8.27447598,19.3066137 8.24718111,19.277954 C8.23569703,19.2664698 8.21400486,19.2562618 8.20252077,19.2332935 C5.23496566,16.1840728 4.82733421,11.4659775 7.22792879,7.95296217 C9.62852339,4.43994689 14.1722399,3.10532085 18.091344,4.76205078 C22.0104481,6.41878071 24.2191203,10.6078563 23.3719823,14.777567 C22.5248441,18.9472777 18.8566023,21.9423718 14.6017091,21.9384417 L14.5991572,21.937158 Z M36.0922638,4.61915497 L41.5905894,4.61915497 C46.9102736,4.56301055 50.8288994,8.00313258 50.7510627,12.9668101 C50.8288994,17.830959 46.9115496,21.4931066 41.5905894,21.413994 L36.0922638,21.413994 L36.0922638,4.61915497 Z M41.5574131,18.3209466 C44.9413908,18.3209466 47.2114119,16.2065986 47.2114119,12.9782942 C47.2114119,9.71681355 44.9962592,7.73644657 41.5574131,7.73644657 L39.5157977,7.73644657 L39.5157977,18.3273268 L41.5574131,18.3273268 L41.5574131,18.3209466 Z M63.350382,21.4254781 L60.1897062,21.4254781 L60.1897062,20.2017849 C59.1741721,21.2166719 57.7853141,21.7682458 56.350193,21.7266164 C53.6795049,21.7266164 51.9977241,20.1686086 51.9977241,17.9649399 C51.9977241,15.6949188 53.8339021,14.3027923 56.7610682,14.3027923 L59.9217441,14.3027923 L59.9217441,13.746452 C59.9755271,13.1223204 59.7421361,12.5076684 59.2876541,12.0765314 C58.8331721,11.6453944 58.2070778,11.4447094 57.5866465,11.5312993 C56.265949,11.5668015 55.0347768,12.2070862 54.2473292,13.2679484 L52.4609156,11.1536004 C53.7903334,9.47497227 55.8286144,8.51508688 57.9694493,8.55947279 C59.4393921,8.41964025 60.8950315,8.9432138 61.9391304,9.98731263 C62.9832292,11.0314115 63.5068028,12.4870509 63.3669701,13.9569937 L63.3669701,21.4254781 L63.350382,21.4254781 Z M59.905156,16.5613293 L57.2178796,16.5613293 C56.0937152,16.5613293 55.4595383,16.9951726 55.4595383,17.8296829 C55.4595383,18.6641933 56.1715517,19.1988414 57.26254,19.1988414 C57.9492832,19.237702 58.6218351,18.9927317 59.1227073,18.5212943 C59.6235796,18.0498567 59.9087841,17.3933547 59.911536,16.7055185 L59.905156,16.5613293 Z M73.2215928,21.7266164 C71.8053725,21.7717379 70.4356578,21.2182009 69.4484322,20.2017849 L69.4484322,25.9999727 L66.0032061,25.9999727 L66.0032061,8.82871083 L69.163882,8.82871083 L69.163882,10.4071348 C70.1256028,9.15430532 71.6447482,8.45826916 73.2215928,8.5479887 C74.9176785,8.56394303 76.5326821,9.27619224 77.6882058,10.5178552 C78.8437292,11.7595182 79.4382254,13.4214779 79.3324029,15.1143344 C79.4401056,16.8120736 78.8476714,18.4798282 77.6930831,19.7291655 C76.5384948,20.9785029 74.9225422,21.7003621 73.2215928,21.7266164 L73.2215928,21.7266164 Z M72.5835879,11.6537962 C71.684528,11.637042 70.8213868,12.0063548 70.2126936,12.6682325 C69.6040004,13.3301102 69.308113,14.2210956 69.3999439,15.1156104 C69.3078077,16.0122599 69.6028843,16.9055902 70.2109687,17.5709492 C70.8190533,18.2363082 71.6822876,18.6103882 72.5835879,18.5991167 C73.4850402,18.6027037 74.3476154,18.2323014 74.9657758,17.5761712 C75.583936,16.920041 75.9023225,16.036942 75.8450686,15.1373026 C75.9140736,14.2333616 75.6008789,13.3419048 74.9816611,12.6797566 C74.3624434,12.0176084 73.4939484,11.6454487 72.5874159,11.6537962 L72.5835879,11.6537962 Z M88.592405,21.7266164 C87.1761847,21.7717379 85.8064701,21.2182009 84.8192445,20.2017849 L84.8192445,25.9999727 L81.3740185,25.9999727 L81.3740185,8.82871083 L84.5449024,8.82871083 L84.5449024,10.4071348 C85.504543,9.15738878 87.0190865,8.46171101 88.592405,8.5479887 C90.2884909,8.56394303 91.9034945,9.27619224 93.059018,10.5178552 C94.2145415,11.7595182 94.8090378,13.4214779 94.7032153,15.1143344 C94.8109179,16.8120736 94.2184838,18.4798282 93.0638954,19.7291655 C91.9093071,20.9785029 90.2933544,21.7003621 88.592405,21.7266164 L88.592405,21.7266164 Z M87.9544002,11.6537962 C87.0553402,11.637042 86.1921992,12.0063548 85.5835059,12.6682325 C84.9748127,13.3301102 84.6789253,14.2210956 84.7707561,15.1156104 C84.6786199,16.0122599 84.9736966,16.9055902 85.5817811,17.5709492 C86.1898655,18.2363082 87.0530999,18.6103882 87.9544002,18.5991167 C88.8558525,18.6027037 89.7184278,18.2323014 90.336588,17.5761712 C90.9547483,16.920041 91.2731347,16.036942 91.2158809,15.1373026 C91.2868821,14.2328792 90.9743636,13.3402751 90.3547121,12.677663 C89.7350607,12.015051 88.8653757,11.6434893 87.9582282,11.6537962 L87.9544002,11.6537962 Z M107.203006,21.4254781 L102.850537,15.4933092 L100.335522,15.4933092 L100.335522,21.4254781 L96.8902958,21.4254781 L96.8902958,4.61915497 L103.20144,4.61915497 C106.718122,4.61915497 109.256105,6.81133957 109.256105,10.039644 C109.292755,12.0742044 108.140942,13.9437192 106.307247,14.8259562 L111.070591,21.4152701 L107.203006,21.4152701 L107.203006,21.4254781 Z M100.325314,12.4666144 L103.200164,12.4666144 C103.872271,12.5380272 104.541953,12.3116091 105.032831,11.8469934 C105.523709,11.3823777 105.78657,10.7261438 105.752183,10.0511281 C105.773649,9.38179396 105.505923,8.73561539 105.017368,8.27759489 C104.528812,7.81957439 103.866723,7.5940501 103.200164,7.65860997 L100.329142,7.65860997 L100.325314,12.4666144 Z M122.617203,21.4254781 L119.456527,21.4254781 L119.456527,20.2017849 C118.440992,21.2166719 117.052134,21.7682458 115.617014,21.7266164 C112.946325,21.7266164 111.264545,20.1686086 111.264545,17.9649399 C111.264545,15.6949188 113.100722,14.3027923 116.027889,14.3027923 L119.188565,14.3027923 L119.188565,13.746452 C119.242503,13.1218107 119.008787,12.5066445 118.553691,12.0753969 C118.098596,11.6441494 117.471752,11.4438505 116.850915,11.5312993 C115.530217,11.5668015 114.299045,12.2070862 113.511598,13.2679484 L111.725184,11.1536004 C113.052674,9.47834166 115.086455,8.51926915 117.22351,8.5607488 C118.693452,8.42091626 120.149092,8.94448981 121.193191,9.98858864 C122.23729,11.0326875 122.760863,12.4883269 122.621031,13.9582696 L122.621031,21.4267541 L122.617203,21.4254781 Z M119.171976,16.5613293 L116.47832,16.5613293 C115.354156,16.5613293 114.719979,16.9951726 114.719979,17.8296829 C114.719979,18.6641933 115.431992,19.1988414 116.52298,19.1988414 C117.209724,19.237702 117.882275,18.9927317 118.383148,18.5212943 C118.88402,18.0498567 119.169225,17.3933547 119.171976,16.7055185 L119.171976,16.5613293 Z M137.888486,2.32616563 L137.888486,21.413994 L134.72781,21.413994 L134.72781,19.8559863 C133.767389,21.1068875 132.251121,21.8026995 130.67648,21.7151323 C128.976745,21.6976955 127.359045,20.9817501 126.203195,19.7353915 C125.047344,18.4890329 124.455156,16.8220457 124.565669,15.1258184 C124.455156,13.4295913 125.047344,11.762604 126.203195,10.5162454 C127.359045,9.26988688 128.976745,8.55394142 130.67648,8.53650462 C132.092364,8.46849056 133.468381,9.01666352 134.44964,10.039644 L134.44964,2.32616563 L137.888486,2.32616563 Z M131.32214,11.6537962 C130.420688,11.6502093 129.558112,12.0206115 128.939952,12.6767417 C128.321792,13.332872 128.003406,14.215971 128.06066,15.1156104 C127.989593,16.0207056 128.302617,16.9139363 128.923118,17.576678 C129.543619,18.2394195 130.414331,18.6105081 131.32214,18.5991167 C132.2212,18.6158709 133.084341,18.2465581 133.693034,17.5846805 C134.301728,16.9228027 134.597616,16.0318173 134.505785,15.1373026 C134.594167,14.2414868 134.297796,13.3503034 133.690524,12.6858343 C133.083253,12.0213652 132.222274,11.6461879 131.32214,11.6537962 L131.32214,11.6537962 Z M151.221511,21.4254781 L148.060835,21.4254781 L148.060835,20.2017849 C147.045302,21.2166719 145.656443,21.7682458 144.221322,21.7266164 C141.550633,21.7266164 139.868853,20.1686086 139.868853,17.9649399 C139.868853,15.6949188 141.70503,14.3027923 144.632196,14.3027923 L147.792873,14.3027923 L147.792873,13.746452 C147.846811,13.1218107 147.613096,12.5066445 147.157999,12.0753969 C146.702904,11.6441494 146.07606,11.4438505 145.455224,11.5312993 C144.134526,11.5668015 142.903354,12.2070862 142.115906,13.2679484 L140.329492,11.1536004 C141.656983,9.47834166 143.690764,8.51926915 145.827818,8.5607488 C147.297761,8.42091626 148.7534,8.94448981 149.7975,9.98858864 C150.841598,11.0326875 151.365172,12.4883269 151.225339,13.9582696 L151.225339,21.4267541 L151.221511,21.4254781 Z M147.792873,16.5613293 L145.100493,16.5613293 C143.976328,16.5613293 143.342152,16.9951726 143.342152,17.8296829 C143.342152,18.6641933 144.054165,19.1988414 145.145153,19.1988414 C145.831896,19.237702 146.504448,18.9927317 147.005321,18.5212943 C147.506192,18.0498567 147.791397,17.3933547 147.794149,16.7055185 L147.792873,16.5613293 Z M161.628646,11.8541297 L160.716299,11.8541297 C159.808489,11.7484653 158.901254,12.0563836 158.245304,12.6927924 C157.589355,13.3292011 157.254151,14.2267126 157.332321,15.1373026 L157.332321,21.4254781 L153.887095,21.4254781 L153.887095,8.82615881 L157.047771,8.82615881 L157.047771,10.3292982 C157.882504,9.27002998 159.161009,8.65740344 160.509585,8.67048564 C160.890306,8.66041521 161.270093,8.71300765 161.63375,8.82615881 L161.63375,11.8541297 L161.628646,11.8541297 Z"></path>
                                </g>
                            </g>
                        </g>
                    </g>
                </g>
            </g>
        </g>
    </g>
</svg>