<?xml version="1.0" encoding="UTF-8"?>
<svg width="25px" height="24px" viewBox="0 0 25 24" version="1.1" xmlns="http://www.w3.org/2000/svg" xmlns:xlink="http://www.w3.org/1999/xlink">
    <title>Discord icon</title>
    <defs>
        <filter color-interpolation-filters="auto" id="filter-1">
            <feColorMatrix in="SourceGraphic" type="matrix" values="0 0 0 0 0.094118 0 0 0 0 0.231373 0 0 0 0 0.337255 0 0 0 1.000000 0"></feColorMatrix>
        </filter>
    </defs>
    <g id="页面-1" stroke="none" stroke-width="1" fill="none" fill-rule="evenodd">
        <g id="Profile创作者" transform="translate(-2019.000000, -373.000000)">
            <g id="编组-17" transform="translate(0.000000, 158.000000)">
                <g id="编组-16" transform="translate(1515.990288, 94.000000)">
                    <g id="编组-13" transform="translate(51.009712, 121.000000)">
                        <g id="Discord-icon" transform="translate(232.977674, 0.000000)" filter="url(#filter-1)">
                            <g transform="translate(219.974102, 0.000000)">
                                <path d="M12,0 C18.630303,0 24,5.37051367 24,12.0018251 C24,18.6331366 18.630303,24.0036503 12,24.0036503 C5.36969697,24.0036503 0,18.6331366 0,12.0018251 C0,5.37051367 5.36969697,0 12,0 Z M14.0522652,6.18436596 L13.8825682,6.35380064 C16.1855985,6.94682203 17.3855985,8.06024995 17.3855985,8.06024995 C15.5068106,6.94682203 13.1189318,6.77738735 12.1734773,6.77738735 L11.6643864,6.77738735 C10.6340834,6.77738735 8.24620457,7.03153937 6.45226518,8.06024995 C6.45226518,8.06024995 7.65226518,6.94682203 9.95529548,6.35380064 L9.78559851,6.18436596 C9.78559851,6.18436596 9.77724834,6.18398943 9.76110468,6.1837169 L9.68984991,6.1836918 C9.28458841,6.18909937 7.65630558,6.29328825 6.02802275,7.5519459 C6.02802275,7.5519459 5.98813878,7.62334332 5.91996228,7.75709634 L5.84278425,7.91129969 C5.34257443,8.92815925 4.01110943,11.964284 4.14923487,15.2249166 C4.14923487,15.2249166 5.43408336,17.1855179 8.24620457,17.1855179 L9.09468942,16.07209 C9.09468942,16.07209 7.47044699,15.5637859 6.79165911,14.5350754 L6.84598303,14.5710964 C7.18136681,14.7877539 9.04503155,15.9108538 11.7492349,15.9873727 L12.2583258,15.9873727 C15.2522652,15.817938 17.2159015,14.5350754 17.2159015,14.5350754 C16.5371137,15.5637859 14.9128712,16.07209 14.9128712,16.07209 L15.7613561,17.1855179 C18.5734773,17.1008006 19.8583258,15.2249166 19.8583258,15.2249166 C19.8583258,11.9820289 18.5158947,8.96121216 18.0044923,7.9280806 L17.9233139,7.76675605 C17.8516467,7.62678367 17.8098409,7.5519459 17.8098409,7.5519459 C15.9310531,6.01493127 14.0522652,6.18436596 14.0522652,6.18436596 Z M9.44620457,11.1342792 C10.2098409,11.1342792 10.8159015,11.8120179 10.8159015,12.5865765 C10.8159015,13.3611351 10.2098409,14.0388738 9.44620457,14.0388738 C8.68256821,14.0388738 8.0765076,13.3611351 8.0765076,12.5865765 C8.0765076,11.8241204 8.67044699,11.1342792 9.44620457,11.1342792 Z M14.3068106,11.1342792 C15.070447,11.1342792 15.6765076,11.8120179 15.6765076,12.5865765 C15.7613561,13.3490326 15.0825682,14.0388738 14.3068106,14.0388738 C13.5431743,14.0388738 12.9371137,13.3611351 12.9371137,12.5865765 C12.9371137,11.8241204 13.5310531,11.1342792 14.3068106,11.1342792 Z" id="形状结合" fill="#000000" fill-rule="nonzero"></path>
                            </g>
                        </g>
                    </g>
                </g>
            </g>
        </g>
    </g>
</svg>