<?xml version="1.0" encoding="UTF-8"?>
<svg width="25px" height="25px" viewBox="0 0 25 25" version="1.1" xmlns="http://www.w3.org/2000/svg" xmlns:xlink="http://www.w3.org/1999/xlink">
    <title>Discord</title>
    <defs>
        <rect id="path-1" x="0" y="0" width="25" height="25"></rect>
    </defs>
    <g id="导航" stroke="none" stroke-width="1" fill="none" fill-rule="evenodd">
        <g transform="translate(-336.000000, -1184.000000)" id="编组-15">
            <g transform="translate(0.000000, 950.000000)">
                <g id="Discord备份" transform="translate(328.000000, 226.000000)">
                    <g id="形状" transform="translate(8.000000, 8.000000)">
                        <mask id="mask-2" fill="white">
                            <use xlink:href="#path-1"></use>
                        </mask>
                        <g id="蒙版"></g>
                        <path d="M16.0176127,5.0004407 C15.1228051,4.98196465 14.3194051,5.54602263 14.0328624,6.39391131 C13.9786541,6.55425836 13.9303678,6.71506095 13.890281,6.87768567 C13.4092734,6.83373057 12.9265249,6.81153872 12.4435132,6.81117808 C12.1250968,6.81117808 11.6112573,6.82165531 10.9967455,6.87768567 C10.9558682,6.71488947 10.9084545,6.55380464 10.8546197,6.39482238 C10.5221415,5.41239323 9.50838598,4.83296468 8.4931448,5.04508278 C7.48642036,5.25781596 6.04876321,5.67098295 4.91494553,6.5911564 C4.90274148,6.60121921 4.89089052,6.61170275 4.87941408,6.62258807 C4.52136639,6.95649259 4.27446835,7.40701317 3.96971784,8.04247949 C3.66542284,8.67794582 3.34928405,9.47740345 3.05865502,10.3884663 C2.47785246,12.2110475 2,14.4777718 2,16.7244528 C2,16.8419491 2.03057955,16.9574237 2.0883731,17.0597239 C3.15659428,18.9556456 5.47616024,19.6744742 6.89696271,19.9610035 C7.68310087,20.1165056 8.48770043,19.799116 8.95596472,19.1487909 L9.51900155,18.3675546 C10.3608236,18.5438452 11.3352053,18.6604613 12.4435132,18.6604613 C13.5518212,18.6604613 14.5262029,18.5438452 15.3680249,18.3675546 L15.9301507,19.1478799 C16.3985663,19.7985454 17.2036296,20.1159775 17.9900638,19.9600924 C19.4108663,19.6735631 21.7295212,18.9547346 22.7977423,17.0583573 C22.8554602,16.9561916 22.8858952,16.8408836 22.8861154,16.7235417 C22.8861154,14.4768608 22.409174,12.2101364 21.8283715,10.3875552 C21.5377424,9.47649238 21.2206926,8.67703475 20.9163976,8.04156845 C20.6111915,7.40610212 20.364749,6.95558154 20.0071569,6.62167702 C19.9955313,6.61078346 19.9835283,6.60029983 19.9711699,6.59024535 C18.8378077,5.6700719 17.4001506,5.25690489 16.3929706,5.04417171 C16.269483,5.01795697 16.1438195,5.00331657 16.0176127,5.0004407 L16.0176127,5.0004407 Z M15.9829923,6.3661239 C16.0244457,6.36749049 16.0672657,6.37250134 16.1100856,6.38115643 C17.000194,6.56974644 18.2501722,6.97015855 19.0851613,7.63751207 C19.1411917,7.69445351 19.4176992,8.0770999 19.6841851,8.63239268 C19.9547708,9.19725163 20.2522328,9.94523423 20.5255516,10.8025444 C21.0535125,12.4579455 21.4698682,14.5251471 21.4990223,16.5117196 C20.7428401,17.6610254 18.8961157,18.3830426 17.7194781,18.6203745 C17.4589912,18.6742468 17.1915025,18.5673947 17.0398252,18.3488778 L16.775617,17.9830861 C17.0489359,17.8901576 17.3063111,17.7940405 17.5354434,17.6965568 C18.6806494,17.2100493 19.3138381,16.6798107 19.3138381,16.6798107 C19.4996123,16.5213777 19.5867518,16.2758703 19.5424319,16.0357686 C19.4981121,15.795667 19.3290661,15.5974482 19.0989721,15.5157795 C18.868878,15.4341108 18.6126926,15.4813995 18.4269184,15.6398325 C18.4269184,15.6398325 17.9950746,16.017468 17.0011051,16.4397456 C16.0080466,16.8615677 14.4956823,17.293867 12.4435132,17.293867 C10.3908887,17.293867 8.87943544,16.8615677 7.8854659,16.4397456 C6.89195188,16.017468 6.4601081,15.6398325 6.4601081,15.6398325 C6.33907897,15.5334577 6.18435084,15.4732767 6.02325347,15.4699192 C5.73239139,15.4636021 5.46942591,15.6421497 5.36799375,15.9148256 C5.26656159,16.1875016 5.34890927,16.4945015 5.57318843,16.6798107 C5.57318843,16.6798107 6.20637709,17.2100493 7.35158307,17.6965568 C7.58071538,17.7940405 7.83809063,17.8901577 8.11140948,17.9835416 L7.84720126,18.3497889 C7.69537988,18.5687013 7.42757586,18.6758946 7.16663733,18.6221966 C5.98999968,18.3848648 4.14281978,17.6619364 3.38709316,16.5126306 C3.41624717,14.5260581 3.83260289,12.4588566 4.36056379,10.8029999 C4.63388264,9.94614528 4.93225571,9.19770716 5.20329692,8.63330375 C5.46932727,8.07801097 5.74537931,7.69490903 5.80095413,7.63842314 C6.63594321,6.97106962 7.88637695,6.57020196 8.77602981,6.38206748 C9.11303121,6.30482509 9.45301129,6.49867512 9.55817726,6.82803275 C9.58733126,6.91549478 9.60828572,6.99657937 9.63106228,7.0781195 C8.61294957,7.27991992 7.47639868,7.63113465 6.40043348,8.27024521 C6.183264,8.39129674 6.04898595,8.62075618 6.04982217,8.86938313 C6.0506584,9.11801007 6.18647692,9.34656107 6.40445576,9.46614904 C6.6224346,9.585737 6.88816784,9.57748608 7.09830761,9.44460519 C9.08305799,8.26568988 11.5360947,8.17777232 12.4435132,8.17777232 C13.3509318,8.17777232 15.8039685,8.26568988 17.7887189,9.44460519 C17.9988586,9.57748608 18.2645919,9.585737 18.4825707,9.46614904 C18.7005496,9.34656107 18.8363681,9.11801007 18.8372043,8.86938313 C18.8380405,8.62075618 18.7037625,8.39129674 18.486593,8.27024521 C17.4097167,7.6306791 16.2736214,7.2799199 15.2550531,7.0781195 C15.2778297,6.99612385 15.2987842,6.91503926 15.3279382,6.82712168 C15.4175753,6.54348559 15.6857465,6.35475873 15.9829923,6.3661239 L15.9829923,6.3661239 Z M9.49850264,11.8183794 C8.62676737,11.8183794 7.92008633,12.6260149 7.92008633,13.6222838 C7.92008633,14.6185527 8.62676737,15.4261882 9.49850264,15.4261882 C10.0624165,15.4261882 10.5834944,15.082366 10.8654513,14.524236 C11.1474082,13.966106 11.1474082,13.2784616 10.8654513,12.7203316 C10.5834944,12.1622016 10.0624165,11.8183794 9.49850264,11.8183794 L9.49850264,11.8183794 Z M15.3794132,11.8183794 C14.4988725,11.8183794 13.7850532,12.6341728 13.7850532,13.6405051 C13.7850532,14.6468373 14.4988725,15.4626307 15.3794132,15.4626307 C16.2599539,15.4626307 16.9737732,14.6468373 16.9737732,13.6405051 C16.9737732,12.6341728 16.2599539,11.8183794 15.3794132,11.8183794 L15.3794132,11.8183794 Z" fill="#183B56" fill-rule="nonzero" mask="url(#mask-2)"></path>
                    </g>
                </g>
            </g>
        </g>
    </g>
</svg>