<?xml version="1.0" encoding="UTF-8"?>
<svg width="37px" height="36px" viewBox="0 0 37 36" version="1.1" xmlns="http://www.w3.org/2000/svg" xmlns:xlink="http://www.w3.org/1999/xlink">
    <title>修改个人信息</title>
    <g id="页面-1" stroke="none" stroke-width="1" fill="none" fill-rule="evenodd">
        <g id="Profile创作者" transform="translate(-263.000000, -362.000000)" fill-rule="nonzero">
            <g id="编组-17" transform="translate(0.000000, 158.000000)">
                <g id="编组-3" transform="translate(150.000000, 90.000000)">
                    <g id="修改个人信息" transform="translate(113.974548, 114.000000)">
                        <path d="M30.7210616,5.27207793 C23.6931938,-1.75735932 12.2987687,-1.75735931 5.27090086,5.27207795 C-1.75696696,12.3015152 -1.75696695,23.6984848 5.27090088,30.7279221 C12.2987687,37.7573593 23.6931938,37.7573593 30.7210616,30.7279221 C37.7489295,23.6984848 37.7489294,12.3015152 30.7210616,5.27207793 Z" id="路径" fill="#566FFE"></path>
                        <path d="M19.5890622,20.5476848 L17.9501647,22.2151128 C17.4056154,22.749759 16.9126098,23.2404879 16.4763977,23.686822 L15.3920718,24.7847562 C15.0881657,25.1053452 14.7594284,25.4014345 14.4089241,25.6702641 C14.2393097,25.8025166 14.0536064,25.9127124 13.8562615,25.9982123 C13.5820111,26.1299791 13.3011734,26.2475653 13.0148589,26.350506 C12.258567,26.630877 11.4911392,26.8779918 10.7125754,27.0918503 C10.3512925,27.1873228 10.0825972,27.2465158 9.9045807,27.2751575 C9.53566171,27.3162107 9.29035206,27.2622688 9.16626546,27.1123768 C9.04217887,26.9624849 9.01163446,26.7070959 9.06317813,26.3485965 C9.11164686,26.0671006 9.17698972,25.7887735 9.25885314,25.5151212 C9.36480401,25.1332311 9.47314116,24.7585013 9.58672812,24.384249 C9.70270136,23.9918568 9.81628833,23.63288 9.9208074,23.302545 C10.0253265,22.9722101 10.1193459,22.7473722 10.1895026,22.6232579 C10.266307,22.4406732 10.3585952,22.264999 10.4653567,22.0981589 C10.5936879,21.9088021 10.7407913,21.7328783 10.9044323,21.5730599 L11.4771397,20.9868585 L12.6053732,19.841188 L20.1603378,12.2511208 L23.9879321,16.1177588 L19.5890622,20.5476848 Z" id="路径" fill="#FFFFFF"></path>
                        <path d="M26.6123635,13.5333171 C26.4472329,13.6984846 26.3026243,13.8431255 26.1737651,13.9629435 C26.044906,14.0827616 25.9284555,14.1954192 25.8330042,14.2932785 C25.7246671,14.4016399 25.6211025,14.4999766 25.5256513,14.5796962 L21.6980571,10.73263 L22.2812641,10.1879592 C22.4635759,10.0126079 22.6511376,9.84314417 22.8439491,9.67956789 C23.1806986,9.4040941 23.6067036,9.26160785 24.0413847,9.27906056 C24.2355141,9.2869359 24.4279026,9.31900782 24.6140921,9.37453311 C24.7794009,9.42182929 24.9400951,9.4839804 25.0942118,9.56022721 C25.3805654,9.71011911 25.6987362,9.97441893 26.048724,10.3531267 C26.3778946,10.702842 26.6505039,11.1017812 26.8567187,11.5355541 L26.8567187,11.5379409 C26.9773904,11.8384631 27.0395926,12.1592649 27.039986,12.4831191 C27.0404378,12.8756883 26.886898,13.2527677 26.6123635,13.5333171 L26.6123635,13.5333171 Z" id="路径" fill="#FFFFFF"></path>
                    </g>
                </g>
            </g>
        </g>
    </g>
</svg>