<?xml version="1.0" encoding="UTF-8"?>
<svg width="30px" height="30px" viewBox="0 0 30 30" version="1.1" xmlns="http://www.w3.org/2000/svg" xmlns:xlink="http://www.w3.org/1999/xlink">
    <title>ETH</title>
    <g id="页面-1" stroke="none" stroke-width="1" fill="none" fill-rule="evenodd">
        <g id="Item-details" transform="translate(-1142.000000, -608.000000)" fill-rule="nonzero">
            <g id="编组-4" transform="translate(1112.000000, 533.000000)">
                <g id="编组" transform="translate(30.000000, 30.000000)">
                    <g id="编组-3" transform="translate(0.000000, 35.000000)">
                        <g id="ETH" transform="translate(0.000000, 10.000000)">
                            <path d="M0,14.9993318 C0,20.3584748 2.85869291,25.3106293 7.4998071,27.9902697 C12.1409213,30.6699101 17.8590787,30.6699101 22.5001929,27.9902697 C27.1413071,25.3106293 30,20.3584748 30,14.9993318 C29.999631,6.71532152 23.2840103,0 15,0 C6.71598968,0 0.00036901588,6.71532152 0,14.9993318 Z" id="路径" fill="#627EEA"></path>
                            <polygon id="路径" fill-opacity="0.602" fill="#FFFFFF" points="15.4680697 3.75042035 15.4680697 12.0668209 22.4956459 15.2061533"></polygon>
                            <polygon id="路径" fill="#FFFFFF" points="15.4680697 3.75042035 8.43613931 15.2061533 15.4680697 12.0646438"></polygon>
                            <polygon id="路径" fill-opacity="0.602" fill="#FFFFFF" points="15.4680697 20.5943971 15.4680697 26.2460662 22.5 16.5145713"></polygon>
                            <polygon id="路径" fill="#FFFFFF" points="15.4680697 26.2460662 15.4680697 20.5943971 8.43613931 16.5145713"></polygon>
                            <polygon id="路径" fill-opacity="0.2" fill="#FFFFFF" points="15.4680697 19.2881562 22.4956459 15.2061533 15.4680697 12.0668209"></polygon>
                            <polygon id="路径" fill-opacity="0.602" fill="#FFFFFF" points="8.43831639 15.2061533 15.4680697 19.2881562 15.4680697 12.0668209"></polygon>
                        </g>
                    </g>
                </g>
            </g>
        </g>
    </g>
</svg>