<?xml version="1.0" encoding="UTF-8"?>
<svg width="24px" height="24px" viewBox="0 0 24 24" version="1.1" xmlns="http://www.w3.org/2000/svg" xmlns:xlink="http://www.w3.org/1999/xlink">
    <title>Facebook</title>
    <defs>
        <filter color-interpolation-filters="auto" id="filter-1">
            <feColorMatrix in="SourceGraphic" type="matrix" values="0 0 0 0 0.337255 0 0 0 0 0.435294 0 0 0 0 0.996078 0 0 0 1.000000 0"></feColorMatrix>
        </filter>
    </defs>
    <g id="页面-1" stroke="none" stroke-width="1" fill="none" fill-rule="evenodd">
        <g id="Profile" transform="translate(-1895.000000, -534.000000)">
            <g id="Facebook" transform="translate(1895.000000, 534.000000)" filter="url(#filter-1)">
                <g>
                    <path d="M12,0 C5.37264,0 0,5.37264 0,12 C0,18.62736 5.37264,24 12,24 L12,15 L9,15 L9,12 L12,12 L12,9.74976 C12,7.67856 13.67904,5.99952 15.75024,5.99952 L19.50048,5.99952 L19.50048,8.99952 L15.75024,8.99952 C15.336,8.99952 15,9.33552 15,9.74976 L15,12 L19.12512,12 L18.37488,15 L15,15 L15,23.62176 C20.17584,22.28976 24,17.59152 24,12 C24,5.37264 18.62736,0 12,0 L12,0 Z" id="路径" fill="#000000" fill-rule="nonzero"></path>
                </g>
            </g>
        </g>
    </g>
</svg>