<?xml version="1.0" encoding="UTF-8"?>
<svg width="70px" height="70px" viewBox="0 0 70 70" version="1.1" xmlns="http://www.w3.org/2000/svg" xmlns:xlink="http://www.w3.org/1999/xlink">
    <title>files备份</title>
    <defs>
        <linearGradient x1="-73.1153112%" y1="-20.5320088%" x2="-21.3874358%" y2="143.677195%" id="linearGradient-1">
            <stop stop-color="#36FDDE" offset="0%"></stop>
            <stop stop-color="#F4FDD0" offset="56.1%"></stop>
            <stop stop-color="#F5DAF8" offset="97.5%"></stop>
            <stop stop-color="#F5D8FA" offset="100%"></stop>
        </linearGradient>
    </defs>
    <g id="页面-1" stroke="none" stroke-width="1" fill="none" fill-rule="evenodd">
        <g id="创建Collection" transform="translate(-2099.000000, -535.000000)" fill="url(#linearGradient-1)">
            <g id="编组" transform="translate(2054.000000, 490.000000)">
                <g id="files备份" transform="translate(45.000000, 45.000000)">
                    <path d="M36.4891003,23.8315991 C36.4891003,18.4858991 40.8227003,14.1522991 46.1684003,14.1522991 C51.5140003,14.1522991 55.8476003,18.4858991 55.8476003,23.8315991 C55.8476003,29.1772991 51.5140003,33.5107991 46.1684003,33.5107991 C40.8227003,33.5107991 36.4891003,29.1772991 36.4891003,23.8315991 Z M46.1684002,18.6196991 C43.2899003,18.6196991 40.9565002,20.9530991 40.9565002,23.8315991 C40.9565002,26.7099991 43.2899003,29.0434991 46.1684002,29.0434991 C49.0468002,29.0434991 51.3802003,26.7099991 51.3802003,23.8315991 C51.3802003,20.9530991 49.0468002,18.6196991 46.1684002,18.6196991 Z M67.1203002,51.2959991 C67.7605002,49.7759991 68.2789002,48.1902991 68.6634002,46.5509991 C70.4455003,38.9533991 70.4455003,31.0465991 68.6634002,23.4489991 C66.0898002,12.4771991 57.5229002,3.91024913 46.5510003,1.33660913 C38.9534003,-0.445536875 31.0466003,-0.445535875 23.4490003,1.33660913 C12.4772002,3.91024913 3.91026025,12.4771991 1.33661025,23.4489991 C-0.44553675,31.0465991 -0.44553675,38.9534991 1.33661025,46.5509991 C1.52557025,47.3565991 1.74685025,48.1491991 1.99901025,48.9273991 L4.34708025,46.5797991 C12.8394002,38.0890991 26.6081002,38.0890991 35.1005002,46.5797991 L41.6753002,53.1533991 L43.3990003,51.4300991 C50.0028002,44.8275991 60.6034002,44.9049991 67.1203002,51.2959991 Z M64.9485002,55.5336991 L64.8529003,55.4189991 C60.1847002,49.8182991 51.7138002,49.4339991 46.5575002,54.5892991 L44.8345002,56.3119991 L54.2196002,65.6951991 C58.5592002,63.2764991 62.2193003,59.8056991 64.8642002,55.6187991 C64.8930003,55.5908991 64.9211002,55.5625991 64.9485002,55.5336991 Z M49.8806003,67.6741991 L31.9419002,49.7389991 C25.1941002,42.9924991 14.2535003,42.9924991 7.50565025,49.7389991 L3.85759025,53.3863991 C7.78449025,60.9929991 14.8840002,66.6542991 23.4490003,68.6633991 C31.0466003,70.4454991 38.9534003,70.4454991 46.5510003,68.6633991 C47.6880003,68.3966991 48.7992002,68.0655991 49.8806003,67.6741991 Z" id="形状"></path>
                </g>
            </g>
        </g>
    </g>
</svg>