<?xml version="1.0" encoding="UTF-8"?>
<svg width="34px" height="34px" viewBox="0 0 34 34" version="1.1" xmlns="http://www.w3.org/2000/svg" xmlns:xlink="http://www.w3.org/1999/xlink">
    <title>固定价格1</title>
    <g id="页面-1" stroke="none" stroke-width="1" fill="none" fill-rule="evenodd">
        <g id="报价" transform="translate(-674.000000, -473.000000)">
            <g id="编组-21" transform="translate(433.000000, 359.000000)">
                <g id="编组-2" transform="translate(60.000000, 60.000000)">
                    <g id="编组" transform="translate(0.000000, 34.000000)">
                        <g id="固定价格1" transform="translate(181.000000, 20.000000)">
                            <rect id="矩形" x="0" y="0" width="34" height="34"></rect>
                            <path d="M30.8228354,11.1583607 C28.4693338,5.60931762 23.0275017,2.00384752 16.9999951,2.00003886 C13.0204058,1.99096273 9.20207276,3.57199713 6.3938038,6.39172043 C3.57351246,9.19977762 1.99174586,13.0180677 2.00003888,16.9979118 C1.99095807,20.9785234 3.57280271,24.7977519 6.3938038,27.6061864 C9.20416887,30.4227776 13.0211375,32.003247 16.9999951,31.9978729 C20.9803061,32.0075003 24.799492,30.4264233 27.6082698,27.6061864 C30.4285067,24.7974086 32.0095836,20.9782227 31.9999563,16.9979118 C31.9999563,14.972923 31.604081,13.0083505 30.8228354,11.1583607 L30.8228354,11.1583607 Z" id="路径" stroke="#183B56" stroke-width="3" fill-rule="nonzero"></path>
                            <path d="M22.2110018,20.1640777 C22.0980018,19.1340777 21.7480018,18.3710777 21.0790018,17.6900777 C20.4820018,17.0870777 19.6200018,16.5200777 18.0990018,15.7300777 L17.6550018,15.5020777 C15.7470018,14.5120777 15.3590018,14.0870777 15.3110018,13.6490777 C15.3000018,13.4680777 15.3740018,13.2680777 15.5170018,13.1220777 C15.8610018,12.7380777 16.4710018,12.5100777 17.1230018,12.5100777 C17.7090018,12.5110777 18.2800018,12.6800777 18.7740018,12.9980777 C18.9950018,13.1300777 19.1830018,13.2790777 19.3500018,13.4500777 C19.6500018,13.7820777 20.0970018,13.9800777 20.5640018,13.9800777 C20.9630018,13.9800777 21.3490018,13.8360777 21.6500018,13.5730777 C22.3240018,12.9850777 22.4050018,11.9490777 21.8310018,11.2640777 C21.6000018,11.0000777 21.1940018,10.6100777 20.5350018,10.1980777 C19.9860018,9.85207772 19.3940018,9.59207772 18.7730018,9.42207772 L18.7730018,8.08907772 C18.7190018,7.18507772 17.9920018,6.50007772 17.1160018,6.50007772 C16.2400018,6.50007772 15.5130018,7.18507772 15.4610018,8.05907772 L15.4600018,9.43707772 C14.4360018,9.73807772 13.5380018,10.3160777 12.9160018,11.0820777 C12.2140018,11.9430777 11.9060018,12.9560777 12.0250018,14.0120777 C12.1370018,15.0420777 12.4860018,15.8060777 13.1560018,16.4860777 C13.7440018,17.0820777 14.6070018,17.6490777 16.1360018,18.4430777 L16.5820018,18.6720777 C18.4870018,19.6610777 18.8750018,20.0870777 18.9230018,20.5240777 C18.9360018,20.7070777 18.8620018,20.9060777 18.7200018,21.0510777 C18.3750018,21.4340777 17.7660018,21.6620777 17.1140018,21.6620777 C16.5360018,21.6620777 15.9780018,21.4970777 15.4560018,21.1710777 C15.1360018,20.9700777 14.9520018,20.7950777 14.9080018,20.7440777 C14.5940018,20.3830777 14.1390018,20.1760777 13.6600018,20.1760777 C13.2600018,20.1760777 12.8750018,20.3200777 12.5730018,20.5830777 C12.2400018,20.8730777 12.0400018,21.2750777 12.0090018,21.7170777 C11.9790018,22.1570777 12.1220018,22.5840777 12.4120018,22.9170777 C12.7960018,23.3390777 13.2300018,23.6930777 13.7100018,23.9800777 C14.2470018,24.3220777 14.8390018,24.5830777 15.4640018,24.7520777 L15.4640018,26.0870777 C15.4640018,26.9990777 16.2060018,27.7410777 17.1180018,27.7410777 C18.0300018,27.7410777 18.7730018,26.9990777 18.7730018,26.0870777 L18.7730018,24.7390777 C19.7530018,24.4610777 20.6490018,23.8850777 21.3110018,23.1010777 C22.0170018,22.2320777 22.3260018,21.2200777 22.2110018,20.1640777" id="Fill-1" fill="#183B56" fill-rule="nonzero"></path>
                        </g>
                    </g>
                </g>
            </g>
        </g>
    </g>
</svg>