<?xml version="1.0" encoding="UTF-8"?>
<svg width="34px" height="34px" viewBox="0 0 34 34" version="1.1" xmlns="http://www.w3.org/2000/svg" xmlns:xlink="http://www.w3.org/1999/xlink">
    <title>刷新</title>
    <g id="页面-1" stroke="none" stroke-width="1" fill="none" fill-rule="evenodd">
        <g id="Home1首页" transform="translate(-1686.000000, -1171.000000)">
            <g id="刷新" transform="translate(1686.000000, 1171.000000)">
                <circle id="椭圆形" fill="#183B56" cx="17" cy="17" r="17"></circle>
                <rect id="矩形" x="9" y="9" width="16" height="16"></rect>
                <path d="M17,9 C21.418278,9 25,12.581722 25,17 C25,17.7791702 24.7927593,18.7672306 24.3863679,19.9901176 L24.2706024,20.3294739 L23.6206624,22.1885236 L20.2281676,17.2653648 L22.987,17.265 L22.9957797,17.1519373 L23,17 C23,13.6862915 20.3137085,11 17,11 C13.6862915,11 11,13.6862915 11,17 C11,20.3137085 13.6862915,23 17,23 C18.0474171,23 19.0532008,22.7319861 19.9422422,22.2305135 L20.1817572,22.087986 L21.2440547,23.7825432 C19.981928,24.5737553 18.521163,25 17,25 C12.581722,25 9,21.418278 9,17 C9,12.581722 12.581722,9 17,9 Z" id="路径" fill="#FFFFFF" fill-rule="nonzero"></path>
            </g>
        </g>
    </g>
</svg>