<?xml version="1.0" encoding="UTF-8"?>
<svg width="60px" height="60px" viewBox="0 0 60 60" version="1.1" xmlns="http://www.w3.org/2000/svg" xmlns:xlink="http://www.w3.org/1999/xlink">
    <title>NoData备份</title>
    <defs>
        <rect id="path-1" x="0" y="0" width="60" height="60"></rect>
    </defs>
    <g id="导航" stroke="none" stroke-width="1" fill="none" fill-rule="evenodd">
        <g transform="translate(-544.000000, -2078.000000)" id="NoData备份">
            <g transform="translate(544.000000, 2078.000000)">
                <mask id="mask-2" fill="white">
                    <use xlink:href="#path-1"></use>
                </mask>
                <g id="蒙版"></g>
                <g id="编组-27" mask="url(#mask-2)">
                    <g transform="translate(1.165049, 0.103382)">
                        <g id="编组-26" stroke-width="1" fill="none">
                            <path d="M1.30157767,4.25826873 L4.77487864,4.25826873 C5.01315198,4.25826873 5.20631068,4.45142743 5.20631068,4.68970077 C5.20631068,4.9279741 5.01315198,5.1211328 4.77487864,5.1211328 L1.30157767,5.1211328 C1.06330433,5.1211328 0.870145631,4.9279741 0.870145631,4.68970077 C0.870145631,4.45142743 1.06330433,4.25826873 1.30157767,4.25826873 L1.30157767,4.25826873 Z" id="路径" fill="#CEDCE7" fill-rule="nonzero"></path>
                            <path d="M3.04004854,2.51797746 C3.27851942,2.51797746 3.47330097,2.71275902 3.47330097,2.95122989 L3.47330097,6.42271047 C3.47330097,6.6614865 3.27973476,6.85505271 3.04095874,6.85505271 C2.80218272,6.85505271 2.6086165,6.6614865 2.6086165,6.42271047 L2.6086165,2.95122989 C2.6086165,2.71275902 2.80157767,2.51797746 3.04004854,2.51797746 Z" id="路径" fill="#CEDCE7" fill-rule="nonzero"></path>
                            <path d="M22.6074029,2.76372989 L24.2821602,3.21336581 C24.4323938,3.25368827 24.5497037,3.37109644 24.5899002,3.52136383 C24.6300968,3.67163121 24.5870733,3.8319286 24.4770362,3.94187354 C24.3669991,4.05181847 24.2066657,4.09470768 24.056432,4.05438523 L22.3798544,3.60474931 C22.1476133,3.54191351 22.0102831,3.30270643 22.0731189,3.07046533 C22.1359547,2.83822423 22.3751618,2.7008941 22.6074029,2.76372989 L22.6074029,2.76372989 Z" id="路径" fill="#CEDCE7" fill-rule="nonzero"></path>
                            <path d="M25.6984223,0.324409503 L26.1480583,2.00280756 C26.1887059,2.15304121 26.1461171,2.31354808 26.0363348,2.42386679 C25.9265525,2.53418549 25.7662551,2.577556 25.6158251,2.53764106 C25.4653951,2.49772612 25.3476865,2.38058975 25.3070388,2.23035611 L24.8574029,0.54831727 C24.8268279,0.436536647 24.8421117,0.317177066 24.899865,0.21670673 C24.9576184,0.116236395 25.0530683,0.0429586957 25.1650485,0.0131230955 C25.3983847,-0.0447913644 25.6352572,0.0942600272 25.6984223,0.326229892 L25.6984223,0.324409503 Z" id="路径" fill="#CEDCE7" fill-rule="nonzero"></path>
                            <path d="M29.3537621,1.78072018 L28.125,3.00766193 C28.0439591,3.08959576 27.9335068,3.13570152 27.8182646,3.13570152 C27.7030223,3.13570152 27.59257,3.08959576 27.5115291,3.00766193 C27.4295953,2.92662106 27.3834895,2.81616874 27.3834895,2.70092649 C27.3834895,2.58568425 27.4295953,2.47523192 27.5115291,2.39419106 L28.7384709,1.16724931 C28.8195803,1.08475181 28.9304248,1.03828672 29.0461165,1.03828672 C29.1618083,1.03828672 29.2726527,1.08475181 29.3537621,1.16724931 C29.435696,1.24829018 29.4818017,1.3587425 29.4818017,1.47398475 C29.4818017,1.58922699 29.435696,1.69967932 29.3537621,1.78072018 L29.3537621,1.78072018 Z" id="路径" fill="#CEDCE7" fill-rule="nonzero"></path>
                            <path d="M53.3592233,6.34261083 C54.4137383,6.34114086 55.3652719,6.97513487 55.7700081,7.94888669 C56.1747442,8.92263851 55.9529508,10.0443213 55.2080771,10.7907577 C54.4632035,11.537194 53.3419879,11.7613376 52.36739,11.3586431 C51.3927921,10.9559485 50.7568054,10.0057456 50.756068,8.95122989 C50.756068,7.50766193 51.9211165,6.34261083 53.3592233,6.34261083 Z M53.3592233,7.20729785 C52.3985897,7.20729785 51.6198422,7.98604528 51.6198422,8.94667892 C51.6198422,9.90731256 52.3985897,10.68606 53.3592233,10.68606 L53.3592233,10.68606 C54.3193543,10.6842396 55.0976942,9.90589968 55.0976942,8.94576873 C55.0976942,7.98563777 54.3193543,7.20729785 53.3592233,7.20729785 Z" id="形状结合" fill="#CEDCE7" fill-rule="nonzero"></path>
                            <polygon id="路径" fill="#CBD8E2" fill-rule="nonzero" points="52.1140777 23.6636085 26.0570388 20.1921279 26.0570388 33.9615454 52.1140777 36.6957687"></polygon>
                            <polygon id="路径" fill="#BCC9D3" fill-rule="nonzero" points="5.21177184 24.6994095 26.0570388 20.1921279 26.0570388 35.8256231 5.21177184 40.3329046"></polygon>
                            <path d="M28.2706311,10.090793 C21.3434845,10.090793 15.7281553,15.7061222 15.7281553,22.6326999 C15.7281553,29.5592775 21.3434845,35.1746067 28.2706311,35.1746067 C35.1977776,35.1746067 40.8131068,29.5592775 40.8131068,22.6326999 C40.8131068,15.7061222 35.1977776,10.090793 28.2706311,10.090793 Z" id="路径" fill="#566FFE" fill-rule="nonzero"></path>
                            <path d="M28.2427564,14.2008886 C29.2035801,14.2008886 30.1894342,14.9791046 30.1894342,15.9393594 L29.6848453,23.1879183 C29.6848453,24.1481732 29.1916338,24.926958 28.2308101,24.926958 C27.271693,24.926958 26.8302488,24.1476043 26.8302488,23.1879183 L26.3256589,15.9393594 C26.3245221,14.9791046 27.2813638,14.2008886 28.2427564,14.2008886 L28.2427564,14.2008886 Z" id="路径" fill="#FFFFFF" fill-rule="nonzero"></path>
                            <path d="M28.3007812,30.3818655 C27.2153747,30.3818655 26.3370373,29.5029593 26.3370373,28.4175527 C26.3370373,27.3321462 27.2153747,26.4503955 28.3007812,26.4503955 C29.3861878,26.4503955 30.2679384,27.3321462 30.2679384,28.4175527 C30.2679384,29.5029593 29.3861878,30.3818655 28.3007812,30.3818655 Z" id="路径" fill="#FFFFFF" fill-rule="nonzero"></path>
                            <polygon id="路径" fill="#CFDAE2" fill-rule="nonzero" points="29.5303398 29.909361 52.1140777 23.6636085 52.1140777 53.1939483 29.5303398 59.4397008"></polygon>
                            <polygon id="路径" fill="#D9E3EB" fill-rule="nonzero" points="5.21177184 24.6994095 29.5303398 29.909361 29.5303398 59.281327 5.21177184 53.3650648"></polygon>
                            <polygon id="路径" fill="#EAF3F8" fill-rule="nonzero" points="29.5303398 29.8638513 5.21177184 24.6994095 0 35.1211328 25.1887136 41.0373949"></polygon>
                            <polygon id="路径" fill="#DDE8F0" fill-rule="nonzero" points="29.5303398 29.909361 52.1140777 23.6636085 58.1959951 34.0871522 36.4805825 41.2030503"></polygon>
                            <path d="M41.7487864,24.4372736 C41.7487864,24.4372736 42.7135922,18.3444338 47.7615291,15.3098464 C47.7615291,15.3098464 48.2057039,15.8104532 49.0794903,16.9354532 C49.0794903,16.9354532 46.7839806,16.5713755 41.7487864,24.4372736 Z" id="路径" fill="#CFDAE2" fill-rule="nonzero"></path>
                            <path d="M33.0254854,16.3238027 C33.0254854,16.3238027 33.121966,12.9870309 35.5649272,5.45608426 C35.5649272,5.45608426 36.0091019,5.95669106 36.8847087,7.08169106 C36.8847087,7.08169106 35.9635922,7.88266193 33.0254854,16.3238027 Z" id="路径" fill="#D5E1EA" fill-rule="nonzero"></path>
                            <path d="M19.0012136,19.2163998 C19.0012136,19.2163998 16.2506068,11.1338755 9.5151699,7.48581727 C9.5151699,7.48581727 8.3901699,9.06045319 7.15594372,9.56105999 C7.15048544,9.56105999 14.9035194,12.2588755 19.0012136,19.2163998 L19.0012136,19.2163998 Z" id="路径" fill="#D5E1EA" fill-rule="nonzero"></path>
                        </g>
                        <path d="M14.8286599,46.1777621 C14.804595,46.1946665 14.7816205,46.2130986 14.7594636,46.2326201 C14.7354766,46.2495515 14.7124242,46.2679366 14.6903063,46.2874337 C14.6663582,46.3042991 14.6433058,46.3226526 14.6211489,46.3421098 C14.5971619,46.3589792 14.5741484,46.3772661 14.5520305,46.396699 C14.5280435,46.41358 14.50503,46.4318353 14.4828732,46.4512284 C14.4588862,46.4680357 14.4359116,46.4862671 14.4137159,46.5056204 C14.3897289,46.5224393 14.3667153,46.5406313 14.3445585,46.5599603 C14.3206105,46.5767134 14.2975969,46.5948738 14.2754401,46.6141707 C14.2514531,46.6308851 14.2284396,46.6490562 14.2062828,46.6682787 C14.1822958,46.6850044 14.1592823,46.7031015 14.1371644,46.7223421 C14.1131384,46.7389866 14.0901639,46.7571023 14.0679681,46.7762528 C14.0439811,46.7929164 14.0210065,46.8109582 13.9988497,46.8301267 C13.9748627,46.8467171 13.9518881,46.8647695 13.9296923,46.8838981 C13.9057053,46.9004574 13.8827308,46.9184781 13.860535,46.9375325 C13.836548,46.9540608 13.8135345,46.9720419 13.7914166,46.99108 C13.7674296,47.0075774 13.7444161,47.025569 13.7222982,47.0445751 C13.6982333,47.0610255 13.6752587,47.0789513 13.6531019,47.0979174 C13.6291149,47.1143948 13.6061403,47.1322889 13.5839835,47.1511809 C13.5599965,47.1676273 13.5370219,47.1854898 13.5147872,47.2043758 C13.4908002,47.2207911 13.4678257,47.238622 13.4456688,47.25745 C13.4216818,47.2738342 13.3987073,47.2916334 13.3765504,47.3104714 C13.3525245,47.3267746 13.3295499,47.3445841 13.3073541,47.36334 C13.2833671,47.3796622 13.2603926,47.3973981 13.2382357,47.4161301 C13.2142487,47.4324212 13.1912742,47.4501255 13.1690395,47.4688512 C13.1450914,47.4851193 13.1221168,47.5027502 13.0999211,47.5214518 C13.075973,47.537689 13.0529984,47.55533 13.0308027,47.5739996 C13.0067767,47.5901895 12.9838411,47.6078069 12.9616453,47.6264028 C12.9376583,47.6425697 12.9146837,47.6601474 12.892488,47.6787529 C12.8685399,47.694897 12.8455264,47.7124349 12.8233306,47.7309667 C12.7993436,47.7470715 12.776369,47.7645859 12.7541733,47.7831273 C12.7302252,47.7992093 12.7072506,47.8166921 12.6850549,47.8351598 C12.6611068,47.8512108 12.6381322,47.8687035 12.6158975,47.887131 C12.5919105,47.9031427 12.568936,47.9205621 12.5467402,47.9389659 C12.539108,47.9440668 12.5317873,47.9495646 12.5243497,47.9548707 C12.5243497,47.9535851 12.5242718,47.9522415 12.5242718,47.9509144 C12.5257126,47.9253004 12.5266472,47.8993709 12.5266472,47.8730361 C12.5266472,47.8660688 12.5262578,47.8591023 12.5261799,47.8521186 C12.5276207,47.8264605 12.5285942,47.8005374 12.5285942,47.7742019 C12.5285942,47.7672344 12.5281658,47.7603015 12.528088,47.7533177 C12.5295287,47.7276572 12.5305022,47.7016907 12.5305022,47.675313 C12.5305022,47.6683868 12.5301128,47.661421 12.529996,47.6544705 C12.5314368,47.6288074 12.5324103,47.6028389 12.5324103,47.5764606 C12.5324103,47.5695343 12.5320209,47.5626102 12.531943,47.5557092 C12.5333838,47.5299606 12.5343573,47.5040317 12.5343573,47.4775698 C12.5343573,47.4706847 12.533929,47.463753 12.5338511,47.4568519 C12.5352918,47.4311008 12.5362653,47.4051285 12.5362653,47.3787074 C12.5362653,47.3718221 12.5358759,47.3649402 12.5357591,47.3580726 C12.5371999,47.3322775 12.5381734,47.3062618 12.5381734,47.27984 C12.5381734,47.2729546 12.5378229,47.2661224 12.5377061,47.2592547 C12.5391469,47.2334571 12.5400815,47.2073901 12.5400815,47.1809261 C12.5400815,47.174082 12.5396921,47.1672422 12.5396142,47.1603824 C12.5410939,47.1345901 12.5420285,47.1085212 12.5420285,47.0820566 C12.5420285,47.0752123 12.5416001,47.068365 12.5415222,47.0615467 C12.542963,47.0357439 12.5439365,47.0096395 12.5439365,46.9831327 C12.5439365,46.9763297 12.5435471,46.9694906 12.5434303,46.9626644 C12.5448711,46.9368177 12.5458835,46.9107605 12.5458835,46.884253 C12.5458835,46.8774499 12.5454941,46.8706526 12.5453773,46.8638678 C12.5468181,46.8379771 12.5477526,46.8119025 12.5477526,46.7853115 C12.5477526,46.7785496 12.5474022,46.7718018 12.5473243,46.7650247 C12.5487651,46.7391314 12.5496607,46.7129643 12.5496607,46.6864141 C12.5496607,46.6796521 12.5492713,46.672897 12.5491934,46.6661198 C12.5506731,46.6402315 12.5516077,46.6140703 12.5516077,46.5875193 C12.5516077,46.5807572 12.5512183,46.5740438 12.5511015,46.567259 C12.5525422,46.5413607 12.5535547,46.5151711 12.5535547,46.488578 C12.5535547,46.4818571 12.5531653,46.4751441 12.5530485,46.4684008 C12.5544892,46.4424584 12.5554627,46.4162593 12.5554627,46.3896656 C12.5554627,46.3829445 12.5550733,46.3762319 12.5549955,46.3695375 C12.5564362,46.3435511 12.5573319,46.3173352 12.5573319,46.2906993 C12.5573319,46.2840196 12.5569814,46.2773562 12.5569035,46.2706617 C12.5583443,46.2446727 12.5592789,46.2184209 12.5592789,46.1917843 C12.5592789,46.1850629 12.5589284,46.1784413 12.5588116,46.1717394 C12.5602524,46.1457479 12.5612259,46.1195016 12.5612259,46.0928643 C12.5612259,46.0861842 12.5608365,46.0795556 12.5607196,46.0728951 C12.5621994,46.0468669 12.5631339,46.0206113 12.5631339,45.9938904 C12.5631339,45.9872517 12.5627445,45.9806234 12.5626666,45.9739702 C12.5641074,45.9479321 12.565042,45.9216331 12.565042,45.894953 C12.565042,45.8883141 12.5646526,45.8817277 12.5645747,45.8750744 C12.5660155,45.8490338 12.566989,45.8226986 12.566989,45.7959763 C12.566989,45.7893787 12.5665996,45.7827926 12.5664827,45.7761736 C12.5679235,45.750089 12.568897,45.7237519 12.568897,45.6970289 C12.568897,45.6904312 12.5685466,45.6838525 12.5684297,45.677275 C12.5698705,45.6511463 12.5708051,45.6248002 12.5708051,45.598035 C12.5708051,45.5914786 12.5704157,45.5849347 12.5703378,45.5783642 C12.5718175,45.55224 12.5727131,45.5258435 12.5727131,45.4990777 C12.5727131,45.4925211 12.5723237,45.4859775 12.5722459,45.4794485 C12.5736866,45.4532732 12.5746601,45.4268888 12.5746601,45.4001223 C12.5746601,45.3935655 12.5742707,45.3870638 12.5741539,45.3805277 C12.5755947,45.3543499 12.5766071,45.3279705 12.5766071,45.3011203 C12.5766071,45.2960159 12.5762567,45.2908908 12.5762177,45.2857795 C12.5771134,45.2705833 12.5776974,45.2552071 12.5781258,45.2397617 C12.5795666,45.2256981 12.5804622,45.2114135 12.5814746,45.1971907 C12.5836553,45.1817202 12.5854465,45.1660974 12.5871599,45.1503772 C12.5899246,45.1352971 12.5927283,45.1202643 12.5949868,45.1048859 C12.5979462,45.0919537 12.6009446,45.0789858 12.6035146,45.0658176 C12.6068635,45.053656 12.6101344,45.0414383 12.6131717,45.0290128 C12.6169879,45.0171784 12.6206871,45.0052395 12.6241917,44.9931826 C12.6285141,44.9817231 12.6325638,44.9700906 12.6365746,44.958367 C12.6414811,44.9470462 12.6459592,44.9354424 12.6505151,44.9238506 C12.6566677,44.9112034 12.6623918,44.8982311 12.668116,44.8852985 C12.6747747,44.8730649 12.6813166,44.8607675 12.687547,44.8482068 C12.6939721,44.8374231 12.7004751,44.8267341 12.7065887,44.8156441 C12.7130138,44.8060192 12.719361,44.7963793 12.7255135,44.7864967 C12.732289,44.7772596 12.7389478,44.7679178 12.7454507,44.7584646 C12.7526157,44.7496636 12.7595859,44.7406198 12.7665172,44.7315677 C12.7741105,44.7230844 12.7814312,44.7142619 12.7888688,44.7054575 C12.7982144,44.6960605 12.8071705,44.6861788 12.8161657,44.6763847 C12.8259007,44.6674218 12.8354799,44.6583886 12.8448644,44.6490704 C12.85421,44.6412012 12.8635556,44.6334551 12.8725897,44.6252794 C12.8813511,44.6185558 12.8901126,44.6118307 12.8986794,44.6048627 C12.9077914,44.5986108 12.9167865,44.5922543 12.9256259,44.5857033 C12.9350104,44.5799518 12.9441613,44.5739094 12.9533511,44.5678304 C12.9633197,44.5623822 12.9730158,44.5565111 12.9827897,44.5507353 C12.9945885,44.5450078 13.0061147,44.5388152 13.0176799,44.5326693 C13.0297123,44.5274772 13.0417448,44.5222001 13.0535436,44.5165898 C13.0647972,44.5123061 13.0761287,44.5082015 13.0871877,44.5035903 C13.0977015,44.5001813 13.1082153,44.4967716 13.1186512,44.4930553 C13.1293597,44.4901366 13.1399903,44.4871204 13.1505819,44.4839297 C13.1614851,44.4815852 13.1722325,44.4789631 13.1830578,44.4762698 C13.1949735,44.4743454 13.2067723,44.4718569 13.2186489,44.4695482 C13.2321222,44.4680524 13.2454786,44.4660759 13.258796,44.4640506 C13.272425,44.4631662 13.286054,44.4622398 13.2995272,44.4608262 C13.3117933,44.4605494 13.3240983,44.4604051 13.3362086,44.459725 C13.3478517,44.4599722 13.3594947,44.4602614 13.370982,44.4601892 C13.3827419,44.4610439 13.3944239,44.461718 13.406028,44.4622535 C13.4178657,44.4636681 13.4296256,44.4647343 13.4413465,44.4658364 C13.4420864,44.4659617 13.4428651,44.4661774 13.4436439,44.4663092 C13.4563773,44.468465 13.4690328,44.4699367 13.4816493,44.4716964 C13.4957845,44.4747645 13.5100366,44.4774756 13.5243275,44.4800685 C13.538307,44.4837444 13.5522864,44.4874639 13.5663827,44.4907004 C13.5785319,44.4944061 13.5907201,44.4982879 13.6029473,44.5016731 C13.6143177,44.5057128 13.6256882,44.5097119 13.6371365,44.513431 C13.6482734,44.517982 13.6594491,44.5223306 13.6707028,44.5265677 C13.6816838,44.5315596 13.6927038,44.5362649 13.7037238,44.5409717 C13.7154837,44.5469861 13.7274383,44.5524882 13.739315,44.5581895 C13.7518147,44.5652217 13.7644702,44.5719039 13.7771646,44.5785529 C13.7859261,44.5839377 13.7947654,44.5892529 13.8036437,44.5944496 C13.8407535,44.6188578 13.87872,44.6416663 13.9175041,44.6627825 C13.9325739,44.6721975 13.9477994,44.6813477 13.9631028,44.6902195 C13.9706961,44.6951327 13.9783673,44.699976 13.9860384,44.7047357 C13.9947221,44.7107721 14.0036004,44.7164633 14.0124008,44.7222692 C14.0210065,44.7286346 14.0296122,44.7351283 14.0383737,44.7412702 C14.0455776,44.7468448 14.0528983,44.7522718 14.0601412,44.7576863 C14.0685522,44.7646183 14.07708,44.7713608 14.0856079,44.7780625 C14.0937463,44.7851207 14.101729,44.7924071 14.1099843,44.7992773 C14.1169156,44.805662 14.1240416,44.8117435 14.1310897,44.8179394 C14.1390724,44.8257413 14.1472109,44.8334029 14.1553493,44.8410238 C14.1624753,44.8482981 14.1694845,44.8557227 14.1766884,44.8628864 C14.1836976,44.8704409 14.1910183,44.8777552 14.1981054,44.8851568 C14.2119291,44.9008771 14.2259085,44.9163764 14.2401995,44.9315552 C14.2626289,44.9576932 14.2859928,44.9829106 14.309863,45.0075553 C14.3275807,45.0276718 14.3456878,45.0473158 14.3642621,45.0665012 C14.3819798,45.0866037 14.4000869,45.1062762 14.4185444,45.1254689 C14.4362621,45.1455999 14.4544081,45.1653079 14.4729435,45.1845433 C14.4906612,45.2047453 14.5088461,45.2244889 14.5273426,45.2437457 C14.5450214,45.2639691 14.5631674,45.2836915 14.5817028,45.3030265 C14.5994205,45.3232429 14.6175665,45.3430365 14.6360629,45.3623501 C14.6537806,45.3825951 14.6718877,45.4024099 14.6903842,45.421752 C14.7081018,45.4420681 14.7262868,45.4618832 14.7448222,45.4813037 C14.762462,45.5015911 14.7805691,45.5214629 14.7991434,45.5408765 C14.8168222,45.5612422 14.8349682,45.5811071 14.8535036,45.6005419 C14.8712213,45.6209435 14.8893283,45.6408723 14.9079027,45.660343 C14.9255814,45.6807229 14.9437275,45.7006875 14.9622239,45.720172 C14.9799027,45.7406231 14.9980487,45.7605734 15.0165841,45.7800937 C15.0343018,45.8005808 15.0524088,45.820595 15.0709443,45.8401438 C15.088623,45.8606519 15.106769,45.8806592 15.1253434,45.9002869 C15.1321189,45.9080743 15.1387776,45.9158833 15.1456311,45.9236026 C15.1318853,45.9343695 15.1183342,45.9455565 15.1051725,45.9572441 C15.0812244,45.9743381 15.058172,45.9928388 15.0360541,46.0124961 C15.0120671,46.0295516 14.9890535,46.0480282 14.9668967,46.0676459 C14.9429097,46.0846703 14.9198962,46.1031582 14.8977783,46.1227514 M19.787176,48.5335165 C19.7514155,48.481212 19.7130402,48.4313793 19.6724348,48.3844822 C19.6366743,48.3322667 19.598299,48.2825702 19.5576551,48.2357997 C19.5218946,48.1837192 19.4835194,48.1341589 19.442914,48.087534 C19.4071535,48.0355885 19.3687782,47.9861643 19.3280959,47.939657 C19.2923738,47.8878557 19.254037,47.838577 19.2133162,47.7921967 C19.1775942,47.7405304 19.1392574,47.6913878 19.098575,47.645153 C19.062853,47.5936216 19.0245162,47.5445695 18.9837954,47.4985075 C18.9703372,47.4790945 18.9565713,47.4599796 18.942344,47.441309 C18.9220028,47.4083862 18.9005465,47.3762653 18.878052,47.3451922 C18.8625558,47.3211275 18.8463675,47.2975927 18.8297177,47.2745962 C18.814183,47.25055 18.7979947,47.2270883 18.7813449,47.2040743 C18.7657718,47.1800467 18.7496219,47.1566216 18.7329721,47.1336354 C18.7174374,47.1096895 18.7012875,47.0862467 18.6845993,47.0633249 C18.6690647,47.0393611 18.6529148,47.0159914 18.6362265,46.993052 C18.6206919,46.9691157 18.6045035,46.9457649 18.5878537,46.9228622 C18.5723191,46.8989534 18.5561307,46.8756303 18.5395194,46.8527641 C18.5239463,46.8288741 18.5077579,46.8055787 18.4911466,46.7827404 C18.4756119,46.7589318 18.4593851,46.7356554 18.4427738,46.7128449 C18.4272392,46.6890185 18.4110124,46.6657699 18.394401,46.6429871 C18.3788664,46.6191882 18.3626396,46.5959674 18.3460282,46.5732124 C18.3304551,46.5494325 18.3142668,46.5262931 18.2976554,46.5035208 C18.2820823,46.4798135 18.265894,46.4566566 18.2492827,46.4339122 C18.2337095,46.4102324 18.2175596,46.3871116 18.2009099,46.3644317 C18.1853367,46.3407343 18.1691868,46.3176412 18.1525371,46.2949891 C18.136964,46.2713192 18.1208141,46.2482989 18.1041258,46.2256212 C18.0893602,46.2031445 18.0740178,46.1811815 18.0582524,46.1596305 C18.0631358,46.1561396 18.0680193,46.1526933 18.0728258,46.1490949 C18.0960509,46.134615 18.1188145,46.1193069 18.1408092,46.1026531 C18.1639958,46.0881404 18.1867595,46.0728523 18.2086772,46.0561562 C18.2319407,46.0416355 18.2547044,46.0262774 18.2766606,46.009609 C18.2998472,45.9950021 18.3226109,45.9796641 18.3445671,45.9629701 C18.3678306,45.948355 18.3905943,45.9329469 18.412512,45.916219 C18.4357371,45.9016163 18.4585007,45.8861831 18.4804569,45.8694378 C18.503682,45.8547653 18.5264457,45.8393072 18.5483634,45.8225733 C18.5715885,45.8078762 18.5943521,45.792393 18.6163468,45.7756046 C18.6395334,45.7608747 18.6622971,45.7453666 18.6842533,45.7285897 C18.7074783,45.7138433 18.7302805,45.6983183 18.7521982,45.6814623 C18.7753848,45.6666832 18.7981485,45.6511704 18.8201047,45.6342969 C18.8440219,45.6190573 18.8674008,45.6029224 18.8900106,45.5855245 C18.9204647,45.5658653 18.9498806,45.5443801 18.9782199,45.521287 C18.9886019,45.5141022 18.9988687,45.5067091 19.00902,45.4991078 C19.0190176,45.4928384 19.0291305,45.4867286 19.0389358,45.4800969 C19.0473568,45.4753585 19.0557394,45.4706111 19.0640066,45.4656107 C19.0725045,45.461387 19.0809255,45.456964 19.0893081,45.4524409 C19.1000362,45.4478186 19.1104568,45.4426743 19.1210311,45.4376981 C19.1323745,45.4333842 19.1437179,45.4289325 19.154869,45.424211 C19.1654049,45.420773 19.1760561,45.4174954 19.1865151,45.4137659 C19.1953591,45.4112928 19.2042415,45.4088729 19.2129702,45.4061919 C19.2290047,45.4027204 19.244847,45.3986136 19.2606508,45.3944059 C19.3146376,45.3853526 19.3670479,45.3718413 19.4178432,45.3544966 C19.4335701,45.3513557 19.4491432,45.347861 19.4645241,45.3439583 C19.4855958,45.3418942 19.5064753,45.3391932 19.5270857,45.3358388 C19.5458503,45.3355773 19.5643843,45.3347629 19.5828028,45.3335114 C19.6039131,45.3351664 19.6248695,45.3362395 19.6456721,45.3366385 C19.666667,45.340062 19.687508,45.3428122 19.7082722,45.3450427 C19.7227302,45.3486509 19.7371882,45.3524901 19.7518,45.3555823 C19.7577601,45.3568439 19.7636817,45.3576381 19.7696418,45.3588082 C19.7916364,45.3662251 19.8137848,45.3730811 19.8361255,45.3792921 C19.8549286,45.3872395 19.8738086,45.394701 19.8928424,45.4017385 C19.9142218,45.4128234 19.9357935,45.4232644 19.9575958,45.4331155 C19.9762836,45.4444265 19.995202,45.4552391 20.0142358,45.4656666 C20.0331927,45.478987 20.0524188,45.4919102 20.0717987,45.5043191 C20.0906787,45.5194868 20.1098279,45.5342119 20.1291693,45.5484314 C20.1457037,45.5634842 20.1624688,45.5781311 20.1794262,45.5924099 C20.1977679,45.6113357 20.2164172,45.6297821 20.2353741,45.6477028 C20.2503704,45.6649113 20.265559,45.6817517 20.2810552,45.6982954 C20.2968975,45.7188515 20.3131243,45.7389906 20.3296203,45.7587337 C20.343886,45.7793853 20.3584594,45.7997412 20.3733788,45.8197172 C20.3864141,45.8410462 20.3998339,45.862096 20.4135613,45.8828035 C20.4265197,45.9068221 20.439901,45.930571 20.4537053,45.9539578 C20.4639721,45.9755962 20.4746233,45.9970472 20.4856206,46.0182559 C20.4963488,46.044556 20.5076921,46.0705824 20.5194585,46.0963393 C20.5278026,46.1200411 20.5365312,46.1435552 20.5456444,46.166882 C20.5533733,46.1934291 20.5616405,46.2197772 20.5703307,46.2459008 C20.576483,46.2722936 20.5831352,46.2985245 20.5903258,46.3246492 C20.5949016,46.3507903 20.6000157,46.3767778 20.6056297,46.4026961 C20.6089751,46.4315375 20.6128587,46.4603179 20.6175114,46.4889514 C20.6190495,46.5143239 20.6210875,46.5397187 20.6236638,46.5650058 C20.6236638,46.5660736 20.6235869,46.5671238 20.6235869,46.568238 C20.6235869,46.6100675 20.6253557,46.6517927 20.6281242,46.6933786 C20.6274321,46.7135545 20.6268169,46.7337943 20.6268169,46.7543616 C20.6268169,46.7959141 20.6286241,46.8373288 20.6313158,46.8786259 C20.6306236,46.8988011 20.6300468,46.9190492 20.6300468,46.9396173 C20.6300468,46.981125 20.6318541,47.0224988 20.6345457,47.063757 C20.6338536,47.0839779 20.6332768,47.104272 20.6332768,47.1248873 C20.6332768,47.1663037 20.6350456,47.207674 20.6377757,47.2489023 C20.6370836,47.2691689 20.6365068,47.2895089 20.6365068,47.310125 C20.6365068,47.351543 20.6382371,47.3928632 20.6410057,47.4341083 C20.6402751,47.4544113 20.6396983,47.4747508 20.6396983,47.4953677 C20.6396983,47.5367873 20.6414671,47.5780756 20.6441972,47.6192727 C20.6434666,47.6395749 20.6428899,47.6599604 20.6428899,47.6806709 C20.6428899,47.7220456 20.6446971,47.7633488 20.6473888,47.8044976 C20.6466966,47.8248083 20.6461198,47.8452397 20.6461198,47.8659975 C20.6461198,47.9073274 20.6479271,47.9485432 20.6506187,47.9896996 C20.6499266,48.0101024 20.6493498,48.0305333 20.6493498,48.0512919 C20.6493498,48.0925769 20.6511186,48.1338352 20.6538487,48.1749157 C20.6531181,48.1953547 20.6525798,48.2158412 20.6525798,48.2366005 C20.6525798,48.2778871 20.6543101,48.3190949 20.6570787,48.3601925 C20.6563481,48.3806307 20.6557713,48.4011535 20.6557713,48.4219601 C20.6557713,48.4632018 20.6575401,48.5043782 20.6603087,48.5454371 C20.6595396,48.5659112 20.6589629,48.5864335 20.6589629,48.6073338 C20.6589629,48.6484841 20.6607701,48.6896293 20.6635002,48.7306861 C20.6627696,48.751169 20.6621928,48.7717838 20.6621928,48.7926849 C20.6621928,48.8338832 20.6639616,48.8749776 20.6666917,48.9159955 C20.6659996,48.936534 20.6654228,48.9571483 20.6654228,48.9780502 C20.6654228,49.0192501 20.6671916,49.0603035 20.6699217,49.1012825 C20.6691911,49.1218567 20.6686528,49.142527 20.6686528,49.1634761 C20.6686528,49.2045847 20.6703831,49.2456336 20.6731517,49.2866302 C20.6723826,49.3071935 20.6718443,49.3279098 20.6718443,49.3489062 C20.6718443,49.3899699 20.6736131,49.4309878 20.6763817,49.4718991 C20.6756126,49.4925545 20.6750358,49.5132602 20.6750358,49.5343039 C20.6750358,49.5753691 20.6768431,49.6164026 20.6796117,49.6572752 C20.6790349,49.6722202 20.6787657,49.6872933 20.6786119,49.7024435 C20.6506187,49.6630431 20.6212413,49.6249264 20.590518,49.5884751 C20.5547191,49.5352624 20.5163439,49.4845228 20.4757769,49.4365439 C20.4399395,49.3834561 20.4015642,49.3328526 20.3610357,49.28502 C20.3251983,49.2320671 20.2868231,49.1815998 20.2462176,49.1339296 C20.2104571,49.0810854 20.1720819,49.0307542 20.1314764,48.9832203 C20.0956775,48.9305012 20.0573022,48.88026 20.0166968,48.8329084 C19.9809363,48.780334 19.942561,48.730229 19.9019171,48.6830039 M23.0097087,47.5350391 C23.0097087,47.4900953 23.0079146,47.4452779 23.0050585,47.4005804 C23.005681,47.3793838 23.0062669,47.3581302 23.0062669,47.3365409 C23.0062669,47.2526619 23.0009942,47.1690632 22.9911811,47.0863678 C22.988618,46.984155 22.9785121,46.8826503 22.9616322,46.7828273 C22.9535035,46.676612 22.9374657,46.5715827 22.9142879,46.4689494 C22.9008499,46.3679986 22.8804183,46.2686772 22.8536888,46.1718843 C22.8348316,46.0697477 22.808871,45.9696797 22.7766491,45.8728001 C22.7528122,45.772917 22.7223479,45.6755766 22.6858053,45.5817778 C22.6573914,45.4849952 22.622643,45.3911813 22.582329,45.3011883 C22.5484594,45.2039344 22.5082186,45.1100508 22.462339,45.020898 C22.4251373,44.9300822 22.3822968,44.8430021 22.3345132,44.7605287 C22.2917459,44.6692021 22.2430835,44.5822902 22.1894413,44.5008002 C22.1434885,44.4151815 22.0922996,44.3341268 22.0365337,44.2586761 C21.9862602,44.1759398 21.9308605,44.0983208 21.8711401,44.0267414 C21.8166924,43.9473632 21.7574846,43.8734671 21.6939562,43.8062701 C21.6372017,43.7331259 21.5760166,43.6657617 21.51117,43.6049849 C21.4488865,43.5335813 21.3821725,43.468619 21.3117237,43.411398 C21.2487811,43.3481759 21.1821037,43.2913278 21.1121675,43.2418714 C21.0441354,43.1814121 20.9721853,43.1283594 20.8971961,43.0834278 C20.8276261,43.0298548 20.7546508,42.9835797 20.678856,42.9456742 C20.6063567,42.89762 20.5306352,42.8575281 20.4524605,42.8260339 C20.3767756,42.7836554 20.2981981,42.749416 20.2173137,42.7246961 C20.1412627,42.6898136 20.0626485,42.6632827 19.982167,42.6458992 C19.9214946,42.6236438 19.8594674,42.6064164 19.7963051,42.5950267 C19.7753609,42.5912551 19.7545265,42.5882395 19.7338752,42.5857634 C19.7039967,42.5777817 19.6739351,42.5705532 19.643544,42.565104 C19.5935268,42.5561478 19.5442785,42.5513689 19.4957992,42.5497537 C19.4949204,42.5495969 19.4940416,42.5493944 19.4931628,42.5492375 C19.4110702,42.5346072 19.3308816,42.5304372 19.2531462,42.5352438 C19.1729942,42.5282843 19.0948194,42.5307052 19.0194275,42.5422125 C18.9408499,42.5424295 18.864689,42.5521088 18.7914574,42.5701812 C18.7187018,42.5769021 18.6483262,42.591684 18.5808433,42.6139187 C18.4857154,42.6315803 18.395311,42.6633051 18.3108383,42.7075501 C18.2637503,42.7266941 18.2183101,42.7496651 18.1746275,42.7759372 C18.1359245,42.7951049 18.098613,42.8170638 18.0625465,42.841291 C18.0244294,42.8626664 17.9876671,42.8866423 17.9523329,42.9130945 C17.9158269,42.9361341 17.8805659,42.9614824 17.8468793,42.9893751 C17.8131928,43.012992 17.7807878,43.0388335 17.7497376,43.0667768 C17.7171495,43.0918311 17.685843,43.1190184 17.6559645,43.1482295 C17.6230103,43.1757967 17.5916305,43.2058138 17.561752,43.2378199 C17.529347,43.2675636 17.4985897,43.2996339 17.4695168,43.3338581 C17.4385764,43.365091 17.4091007,43.3983935 17.381529,43.4340228 C17.3729243,43.4435063 17.364466,43.4531482 17.3561542,43.4630373 C17.3374802,43.482125 17.3194286,43.5020743 17.3019994,43.5227516 C17.2826297,43.5423542 17.2638824,43.5629067 17.2458674,43.5842511 C17.226461,43.6038199 17.2077503,43.6243518 17.1896988,43.6457065 C17.170329,43.665255 17.1515817,43.6857084 17.1335667,43.7070425 C17.1141969,43.7266082 17.0954863,43.7470412 17.0774347,43.7682966 C17.0580649,43.787791 17.0393176,43.8082342 17.0213026,43.8295578 C17.0019329,43.849025 16.9831856,43.8693966 16.9651706,43.8906484 C16.9457642,43.9100818 16.9270535,43.9304329 16.9090019,43.9516948 C16.8896322,43.9710636 16.8708849,43.9914248 16.8528699,44.0126218 C16.8335001,44.0319636 16.8147528,44.0522976 16.7967379,44.0735114 C16.7773315,44.0928193 16.7586208,44.1130886 16.7406058,44.134275 C16.7211994,44.1535558 16.7024888,44.173842 16.6844738,44.1949568 C16.6650308,44.2142477 16.6463567,44.2344694 16.6283051,44.255594 C16.6258153,44.2581236 16.6231789,44.2604489 16.6206524,44.2629712 C16.6188949,44.2605209 16.6170275,44.2581382 16.6152333,44.2557253 C16.6003673,44.2331536 16.5849154,44.2110976 16.5691706,44.1893921 C16.5543046,44.1668907 16.5388527,44.1449052 16.5231079,44.1232262 C16.5082419,44.1007069 16.49279,44.0787038 16.4770818,44.0571022 C16.4621792,44.0346023 16.4467273,44.0126255 16.4309825,43.9910436 C16.4161165,43.9685767 16.4007012,43.9466772 16.3849198,43.925115 C16.3700904,43.9026811 16.3546386,43.8807572 16.3388938,43.8592282 C16.3239911,43.836807 16.3085759,43.8149603 16.2927945,43.7934071 C16.2779284,43.7710189 16.2625132,43.7491985 16.2467684,43.7276785 C16.2318657,43.7053538 16.2164505,43.6835159 16.2007057,43.6620663 C16.1858031,43.6397239 16.1703878,43.6179123 16.1546064,43.5964388 C16.1397404,43.5741731 16.1243251,43.5524318 16.1085437,43.5309848 C16.0936777,43.5087014 16.0782624,43.4869427 16.062481,43.4655661 C16.047615,43.4433089 16.0321631,43.4216139 16.0164549,43.4002329 C16.0015523,43.3780392 15.9861004,43.3563269 15.9703922,43.3349724 C15.9554896,43.3128049 15.9400743,43.2911254 15.9243295,43.2698347 C15.9094635,43.2476561 15.8940117,43.2259967 15.8782669,43.2046887 C15.8666963,43.1875201 15.8547595,43.1706867 15.8426763,43.1540519 C15.8261259,43.1289218 15.8091728,43.1042139 15.791524,43.0801839 C15.7684926,43.045817 15.744253,43.012618 15.7192078,42.9803506 C15.6957004,42.9471875 15.6712411,42.9150179 15.6457564,42.8839607 C15.6202352,42.8498252 15.5937986,42.8166923 15.5661903,42.7849548 C15.5410718,42.7533935 15.5148183,42.7231011 15.4879057,42.6937652 C15.4620183,42.6629237 15.4352888,42.6331824 15.4076438,42.6046596 C15.3797426,42.5732062 15.3509992,42.5429421 15.3211939,42.5141351 C15.2938053,42.4850918 15.265428,42.4573853 15.2363551,42.4308022 C15.2081975,42.402567 15.1793442,42.3754553 15.149539,42.3497723 C15.119514,42.321305 15.0886469,42.2941988 15.0568277,42.2685225 C15.027352,42.2422873 14.9969609,42.2174855 14.9658741,42.193935 C14.9284161,42.1625423 14.8897864,42.1332012 14.8500216,42.1060455 C14.7866763,42.0569528 14.7202186,42.0135858 14.6511245,41.9765684 C14.6146552,41.954311 14.5773437,41.9338837 14.5393365,41.9153929 C14.4951778,41.8899378 14.4498108,41.8674238 14.403565,41.8474678 C14.3578685,41.8237639 14.3110735,41.8030987 14.2633631,41.7852382 C14.216861,41.7638609 14.1693337,41.7453129 14.1209276,41.729868 C14.0737298,41.7108665 14.02558,41.6944851 13.9765515,41.6815835 C13.9303057,41.6655286 13.8832544,41.6521496 13.8353975,41.6419106 C13.7890419,41.628162 13.741954,41.6172206 13.6941748,41.6092995 C13.6564194,41.5999068 13.6182657,41.5920819 13.5796361,41.5865336 C13.5701892,41.5851781 13.5608155,41.5844276 13.5513687,41.5833276 C13.5303512,41.579086 13.5091872,41.5754203 13.4878768,41.5723725 C13.4589503,41.5682396 13.4303534,41.5656834 13.4019029,41.5638292 C13.3998524,41.5635371 13.3978386,41.5630808 13.3957881,41.5627886 C13.3473087,41.555889 13.2995251,41.552569 13.2524738,41.5520664 C13.2024932,41.5473539 13.1532449,41.546006 13.1049121,41.5480839 C13.0556272,41.5460682 13.007038,41.5471037 12.9595107,41.5517078 C12.9122397,41.5522214 12.8657742,41.5557111 12.820334,41.5624121 C12.7744178,41.5652218 12.7293803,41.5709673 12.6853315,41.5796168 C12.6401476,41.5845389 12.5959157,41.5924831 12.5526724,41.6031143 C12.5065365,41.610321 12.4616089,41.6209957 12.4177065,41.6341873 C12.3720466,41.6437812 12.327595,41.6566255 12.2843517,41.6722141 C12.2396072,41.6841187 12.1961076,41.6989375 12.1538896,41.7166706 C12.1101337,41.7308017 12.0675129,41.7475748 12.02643,41.7673748 C11.9844682,41.7833772 11.9437148,41.8018186 11.9044993,41.8231153 C11.8645515,41.8406396 11.8258485,41.8606036 11.7886103,41.883035 C11.7496144,41.9022592 11.71201,41.9240221 11.6758336,41.9480774 C11.6365448,41.9696472 11.5989404,41.9940808 11.5627639,42.0206776 C11.5242075,42.0443957 11.4872988,42.0709261 11.4519279,42.0996315 C11.4145798,42.1252273 11.3788793,42.153384 11.3448999,42.1838627 C11.3088333,42.2113001 11.2743412,42.2409966 11.2417531,42.2731625 C11.207554,42.3019045 11.174856,42.3327702 11.144172,42.3659967 C11.1122064,42.3954803 11.0818885,42.4269853 11.0534014,42.4605377 C11.0226441,42.4913975 10.9936444,42.5244168 10.9664388,42.5592726 C10.9359012,42.5926329 10.9074141,42.6282753 10.8807945,42.6658043 C10.8513187,42.7010444 10.8240033,42.7385414 10.7987018,42.7779467 C10.7708006,42.8146908 10.7449132,42.8535072 10.7211861,42.8942958 C10.694896,42.93251 10.6705098,42.9726178 10.6485037,43.0147328 C10.6242641,43.05367 10.6018918,43.0943754 10.5819362,43.1369747 C10.5598935,43.1760528 10.539828,43.2168379 10.5219961,43.2592488 C10.5013082,43.2994881 10.4828904,43.3414415 10.4665598,43.3849199 C10.4465675,43.4280124 10.429175,43.4731162 10.4140161,43.5196483 C10.3957082,43.5641604 10.3799268,43.6105549 10.3665986,43.6584168 C10.3501581,43.70414 10.3360976,43.7515239 10.3246735,43.8004915 C10.3101004,43.8473929 10.2977975,43.8958209 10.2884239,43.9458861 C10.2760477,43.9926881 10.266015,44.0409539 10.2586552,44.0906604 C10.2483662,44.1375198 10.2404205,44.1857279 10.2350014,44.2352787 C10.2262868,44.2833393 10.2202086,44.3328848 10.2166202,44.383652 C10.2093703,44.4345673 10.2051961,44.4870889 10.2036216,44.5408176 C10.199008,44.5873721 10.1964449,44.6349617 10.1964449,44.6836786 C10.1964449,44.689398 10.1967745,44.6950931 10.1968111,44.7007784 C10.1952366,44.7284144 10.1941748,44.756219 10.1941748,44.7845721 C10.1941748,44.80895 10.1948705,44.8332463 10.1960422,44.8575449 C10.1958957,44.866565 10.1954197,44.8754057 10.1954197,44.8844918 C10.1954197,44.9106955 10.1962985,44.9368507 10.1976533,44.9628873 C10.19758,44.9692836 10.1972505,44.975513 10.1972505,44.9819221 C10.1972505,45.0081265 10.1980926,45.0341958 10.1994474,45.0602755 C10.1993742,45.0666312 10.1990447,45.0729009 10.1990447,45.0793102 C10.1990447,45.1054746 10.1999234,45.1315928 10.2012782,45.1576344 C10.2011684,45.1640242 10.2008022,45.1702871 10.2008022,45.1766965 C10.2008022,45.2028616 10.2017542,45.2289542 10.203109,45.2549981 C10.2029992,45.261388 10.202633,45.2676911 10.202633,45.2741413 C10.202633,45.3002664 10.2035484,45.3263543 10.2049032,45.3523602 C10.20483,45.3587972 10.2044638,45.3651 10.2044638,45.3715503 C10.2044638,45.3976761 10.205306,45.423712 10.2066974,45.4497269 C10.2066241,45.4561641 10.206258,45.4625071 10.206258,45.4689981 C10.206258,45.495084 10.2071368,45.5211283 10.2084915,45.5471037 C10.2083817,45.5535695 10.2080521,45.559919 10.2080521,45.5664102 C10.2080521,45.5925372 10.2089675,45.6185495 10.2103223,45.6445222 C10.2102125,45.6509932 10.2098463,45.6573356 10.2098463,45.6638675 C10.2098463,45.6899141 10.2107617,45.7159283 10.2121165,45.7418628 C10.2120433,45.7483812 10.2116771,45.7547233 10.2116771,45.7612959 C10.2116771,45.7873431 10.2125559,45.8133523 10.2139107,45.8392892 C10.2138374,45.8458078 10.2134713,45.8521901 10.2134713,45.8587223 C10.2134713,45.8847702 10.2143867,45.9107475 10.2157415,45.9366463 C10.2156316,45.9431985 10.2152655,45.9496211 10.2152655,45.956194 C10.2152655,45.982202 10.2161809,46.0081811 10.2175356,46.0340824 C10.2174258,46.0406346 10.2170963,46.0470638 10.2170963,46.053637 C10.2170963,46.0796455 10.217975,46.1056196 10.2193298,46.1314827 C10.2192566,46.1380826 10.218927,46.1445114 10.218927,46.1511253 C10.218927,46.177094 10.2197692,46.2030222 10.221124,46.2288878 C10.2210508,46.2354877 10.2206846,46.2419498 10.2206846,46.2485638 C10.2206846,46.2745331 10.2216,46.3004773 10.2229548,46.3263453 C10.2228449,46.3329382 10.2224788,46.3393999 10.2224788,46.3460142 C10.2224788,46.3719841 10.2234308,46.3978967 10.2247856,46.4237265 C10.2246757,46.43036 10.2243096,46.4368215 10.2243096,46.443517 C10.2243096,46.469447 10.2251883,46.4953471 10.2265798,46.5211866 C10.2265065,46.5278273 10.2261037,46.5343218 10.2261037,46.5409769 C10.2261037,46.5669075 10.2269825,46.5927689 10.2283373,46.6186036 C10.2282641,46.6252444 10.2279345,46.6317936 10.2279345,46.6384895 C10.2279345,46.6643802 10.2288133,46.6902433 10.2301681,46.7160805 C10.2300583,46.722714 10.2296921,46.7292556 10.2296921,46.7359517 C10.2296921,46.761843 10.2306441,46.7877226 10.2319989,46.8135216 C10.231889,46.8201958 10.2314863,46.8267297 10.2314863,46.8334665 C10.2314863,46.8593178 10.2324383,46.8851588 10.2337931,46.9109197 C10.2337198,46.9176418 10.2333171,46.924216 10.2333171,46.9309529 C10.2333171,46.9568455 10.2341958,46.9826329 10.2355872,47.0084037 C10.235514,47.0151259 10.2351479,47.0217071 10.2351479,47.0284442 C10.2351479,47.0542969 10.2360266,47.0800861 10.2373814,47.1058113 C10.2372716,47.1125666 10.236942,47.119155 10.236942,47.1259735 C10.236942,47.1517862 10.2378574,47.1775847 10.2392122,47.2033123 C10.2391024,47.2100677 10.2387362,47.2166889 10.2387362,47.2234669 C10.2387362,47.2492802 10.2396516,47.2750806 10.2410064,47.3007701 C10.2409331,47.3075737 10.2405304,47.3141869 10.2405304,47.3210057 C10.2405304,47.3467791 10.2414458,47.3725408 10.2428006,47.3982327 C10.2427273,47.4050363 10.2423612,47.4116974 10.2423612,47.4185164 C10.2423612,47.4442904 10.2432766,47.4700539 10.2446313,47.4957077 C10.2445215,47.5025443 10.2441553,47.5092051 10.2441553,47.5160648 C10.2441553,47.5417988 10.2450707,47.5675236 10.2464255,47.5931798 C10.2463523,47.6000242 10.2459495,47.6066769 10.2459495,47.6135774 C10.2459495,47.6393121 10.2468649,47.6650387 10.2482197,47.6906973 C10.2481098,47.697534 10.2477803,47.7042425 10.2477803,47.7111026 C10.2477803,47.7368379 10.2486591,47.7625179 10.2500139,47.788179 C10.2499406,47.7950235 10.2495745,47.8017239 10.2495745,47.8086653 C10.2495745,47.8343607 10.2504899,47.8600505 10.2518447,47.8856328 C10.2517348,47.8925506 10.2513687,47.8992507 10.2513687,47.9061923 C10.2513687,47.9318883 10.2523207,47.9575472 10.2536755,47.9831726 C10.2535656,47.9900499 10.2531628,47.9968229 10.2531628,48.003724 C10.2531628,48.0294207 10.2540782,48.0550329 10.2554696,48.0806687 C10.2553598,48.087546 10.2549936,48.0943673 10.2549936,48.1013092 C10.2549936,48.1269658 10.2558724,48.1525719 10.2572272,48.1781615 C10.257154,48.1850875 10.2568244,48.1919165 10.2568244,48.1988992 C10.2568244,48.2245159 10.2577032,48.2501238 10.259058,48.2756752 C10.2589481,48.2826338 10.2586186,48.2894625 10.2586186,48.2964453 C10.2586186,48.3220627 10.259534,48.3476399 10.2608888,48.3731938 C10.2607423,48.3801442 10.2603761,48.3869645 10.2603761,48.3939881 C10.2603761,48.4196061 10.2613282,48.4452339 10.2626829,48.4707496 C10.2625731,48.4777082 10.2622069,48.4845282 10.2622069,48.4915926 C10.2622069,48.5171706 10.2631223,48.5427109 10.2644771,48.568229 C10.2644039,48.5752365 10.2640011,48.5820885 10.2640011,48.5891531 C10.2640011,48.6147317 10.2649165,48.6403144 10.2662713,48.6657944 C10.2661981,48.672802 10.2658319,48.6797025 10.2658319,48.6867266 C10.2658319,48.7123059 10.2667107,48.7378416 10.2681021,48.7633323 C10.2679556,48.7703639 10.2676261,48.7772724 10.2676261,48.7843373 C10.2676261,48.8098766 10.2685415,48.8353819 10.2698963,48.8608667 C10.2697864,48.8679066 10.2693836,48.8747981 10.2693836,48.8819038 C10.2693836,48.9074437 10.2703356,48.9329592 10.2716904,48.9584464 C10.2716172,48.9654948 10.2712144,48.9724266 10.2712144,48.9795324 C10.2712144,49.0050324 10.2721664,49.0305092 10.2735212,49.0559582 C10.2734114,49.0630388 10.2730452,49.0699787 10.2730452,49.0771254 C10.2730452,49.1026259 10.273924,49.1280876 10.275352,49.1535561 C10.2752055,49.1606282 10.2748394,49.1675678 10.2748394,49.1747146 C10.2748394,49.2002158 10.2757548,49.2256878 10.2771096,49.2511011 C10.2769997,49.2582224 10.2766336,49.2651616 10.2766336,49.2723492 C10.2766336,49.2978104 10.277549,49.3232437 10.2789037,49.3486188 C10.2788305,49.3557893 10.2784644,49.3628095 10.2784644,49.3699567 C10.2784644,49.3954185 10.2793798,49.4208536 10.2807345,49.4462312 C10.2806247,49.4533931 10.2802585,49.4604129 10.2802585,49.4676009 C10.2802585,49.4930227 10.2811739,49.5184191 10.2825653,49.5438078 C10.2824189,49.550961 10.2820527,49.5579805 10.2820527,49.5652093 C10.2820527,49.5906318 10.2830047,49.6160387 10.2843595,49.6414211 C10.2842497,49.6485831 10.2838469,49.6555935 10.2838469,49.6628224 C10.2838469,49.6882455 10.2847623,49.7136456 10.2861537,49.7389986 C10.2860804,49.7461695 10.2856777,49.7532201 10.2856777,49.7604898 C10.2856777,49.785873 10.2865931,49.8112342 10.2879479,49.8365402 C10.287838,49.8437835 10.2875085,49.8508516 10.2875085,49.8581215 C10.2875085,49.8835053 10.2883872,49.9088594 10.2897786,49.9341768 C10.2896322,49.9414112 10.289266,49.9484701 10.289266,49.9557808 C10.289266,49.9811245 10.290218,50.0064578 10.2915728,50.0317687 C10.291463,50.039012 10.2910602,50.0461022 10.2910602,50.0534131 C10.2910602,50.0787575 10.2920122,50.1040926 10.2934036,50.1293743 C10.2932938,50.1366583 10.292891,50.1437482 10.292891,50.1510998 C10.292891,50.1764042 10.2938064,50.2016916 10.2951978,50.2269758 C10.2950879,50.2342598 10.2947218,50.241399 10.2947218,50.2487508 C10.2947218,50.9185417 10.7841653,51.591805 11.3879234,51.7545084 C11.4350846,51.7673079 11.4814402,51.7761868 11.5269903,51.7820462 C11.799119,51.8282051 12.0421748,51.7532993 12.219615,51.5882767 C12.2413648,51.5719048 12.2621626,51.5540975 12.282228,51.5353308 C12.3039412,51.5189184 12.324739,51.5011217 12.3448044,51.4823237 C12.3665542,51.4658905 12.3873154,51.448011 12.4074175,51.4291916 C12.4291673,51.4127277 12.4499284,51.3948589 12.4699939,51.3759983 C12.4917437,51.3595037 12.5125049,51.3416039 12.5325703,51.3227119 C12.5543201,51.3061448 12.5751179,51.2882237 12.59522,51.2693102 C12.6169331,51.2527445 12.6376943,51.2347825 12.6577964,51.2158377 C12.6795462,51.199251 12.7003074,51.1812161 12.7203728,51.1622301 C12.7421226,51.1456128 12.7628838,51.1275887 12.7829492,51.1085714 C12.804699,51.0919234 12.8254968,51.073878 12.8455623,51.0548294 C12.8673121,51.0381087 12.8880732,51.0200225 12.9081753,51.0009522 C12.9299251,50.9842428 12.9506863,50.9661256 12.9707517,50.9470142 C12.9925015,50.9302321 13.0132993,50.9120934 13.0333282,50.8929411 C13.0550779,50.8761704 13.0758757,50.8580007 13.0959046,50.8387748 C13.1176544,50.8220156 13.1384521,50.8038148 13.1585176,50.7845673 C13.1802674,50.7677352 13.2010652,50.7495033 13.2211307,50.7302244 C13.2428438,50.7133943 13.2636416,50.6951313 13.2837071,50.6758633 C13.3054202,50.658918 13.3262546,50.6406335 13.3463201,50.6212918 C13.3680333,50.6044005 13.3888311,50.5860753 13.4088965,50.5667023 C13.4306097,50.5497803 13.4514075,50.5314241 13.4715096,50.5120292 C13.4932227,50.4950766 13.5140205,50.4766469 13.534086,50.4572111 C13.5557992,50.4402279 13.5766336,50.421819 13.5966624,50.4023424 C13.6183756,50.3852861 13.63921,50.366846 13.6592755,50.3473475 C13.6809886,50.330303 13.701823,50.3118319 13.7218519,50.2922926 C13.7436017,50.2751844 13.7643994,50.2567152 13.7844283,50.2371446 C13.8061781,50.2200057 13.8270125,50.2014723 13.8470047,50.181861 C13.8687545,50.1646914 13.8895889,50.1461695 13.9095811,50.1265268 C13.9313675,50.1093359 13.9522019,50.0907404 13.9721942,50.0710663 C13.9939806,50.0538874 14.014815,50.0352607 14.0348072,50.0155553 C14.056557,49.9982937 14.0773548,49.9796693 14.0973836,49.9598992 C14.1191334,49.9426497 14.1399312,49.9239515 14.1599601,49.9041928 C14.1817465,49.8868791 14.2025442,49.8681926 14.2225731,49.8484025 C14.2443229,49.8310488 14.2651207,49.8122885 14.2851495,49.7924671 C14.3069359,49.7751348 14.3277337,49.7563434 14.3477626,49.7364477 C14.3695123,49.7190756 14.3903101,49.700253 14.410339,49.6803689 C14.4320888,49.6629661 14.4529232,49.6441217 14.4729154,49.624197 C14.4947018,49.6067298 14.5154996,49.5878881 14.5355284,49.5678983 C14.5573148,49.5504434 14.5781126,49.5315706 14.5981415,49.5115494 C14.6198913,49.4940117 14.640689,49.4751078 14.6607179,49.4550553 C14.6825043,49.437539 14.7033021,49.418561 14.7232943,49.398468 C14.7450807,49.3809641 14.7659151,49.3619642 14.7859074,49.3418398 C14.8076938,49.3242622 14.8284915,49.305222 14.8485204,49.2851185 C14.8702702,49.2675011 14.891068,49.2484731 14.9110968,49.228295 C14.9328466,49.2106039 14.953681,49.1915538 14.9736732,49.1713353 C14.9954596,49.1536657 15.016294,49.1345846 15.0362863,49.1142915 C15.0580727,49.0965912 15.0788705,49.07747 15.0988993,49.0571977 C15.1206491,49.0394578 15.1414469,49.0202622 15.1614757,48.9999586 C15.1832255,48.9822314 15.2040599,48.9630137 15.2240521,48.9426697 C15.2458386,48.9248775 15.266673,48.905672 15.2866286,48.8852878 C15.3084516,48.8674738 15.3292494,48.8482284 15.3492416,48.8277783 C15.371028,48.8099247 15.3918258,48.7906482 15.4118546,48.7702191 C15.4336044,48.7523259 15.4544388,48.7329838 15.4744311,48.7125144 C15.4962175,48.6945994 15.5170519,48.6752697 15.5370075,48.6547601 C15.5587939,48.6368145 15.5796283,48.6174537 15.5996205,48.596878 C15.6213703,48.5789365 15.6422413,48.5595099 15.6622336,48.5389464 C15.6839467,48.5209219 15.7048178,48.5015077 15.72481,48.4809129 C15.7465232,48.4628577 15.7674308,48.4434213 15.7873864,48.4227426 C15.8091728,48.4046743 15.8300072,48.3851893 15.8499628,48.3644793 C15.8717492,48.346424 15.8925836,48.3269079 15.9125759,48.3061752 C15.9343257,48.2880806 15.9551967,48.2685421 15.9751889,48.2477781 C15.9969387,48.2296091 16.0178097,48.2100395 16.0377653,48.1892354 C16.0595151,48.1710796 16.0803861,48.1514789 16.1003417,48.1306434 C16.1221282,48.1124217 16.1429626,48.0927813 16.1629182,48.0719144 C16.1847046,48.053706 16.2055756,48.0340432 16.2254946,48.0131363 C16.247281,47.9948972 16.2681886,47.975168 16.2881076,47.9542297 C16.3099307,47.9359686 16.330765,47.916235 16.350684,47.8952214 C16.3725071,47.8769737 16.3933049,47.8572004 16.4132605,47.836208 C16.4350835,47.8178416 16.4559179,47.7980458 16.4758735,47.7770221 C16.4840755,47.7701231 16.4920943,47.7628717 16.5000766,47.7555663 C16.5035551,47.7597681 16.5071068,47.7638992 16.5106219,47.7680221 C16.5272089,47.7895575 16.5443085,47.8105164 16.5617376,47.830944 C16.5783245,47.8525064 16.5953875,47.8734836 16.6128899,47.8939995 C16.6294768,47.9155447 16.6465398,47.9365931 16.6640055,47.9571273 C16.6805559,47.9786909 16.6976189,47.9997221 16.7151212,48.020292 C16.7317082,48.0418911 16.7487712,48.0629935 16.7662735,48.0835904 C16.7827872,48.1051991 16.7998868,48.126293 16.8173526,48.1468639 C16.8339395,48.1685612 16.8509659,48.1896646 16.8684682,48.2102713 C16.8850186,48.2319867 16.9020816,48.2531701 16.9196205,48.2738126 C16.9361709,48.295555 16.9532338,48.3167654 16.9707362,48.337426 C16.9872865,48.3591954 17.0043495,48.3803885 17.0218519,48.4010761 C17.0384022,48.4228724 17.0554652,48.4440925 17.0729309,48.4648426 C17.0895179,48.4866304 17.1065442,48.5078684 17.1240832,48.528619 C17.1405969,48.5505046 17.1576599,48.5717786 17.1751989,48.5925562 C17.1917126,48.6144243 17.2088122,48.6357787 17.2263146,48.6565743 C17.2428649,48.6784784 17.2599279,48.6998063 17.2773936,48.7206199 C17.2894036,48.7365339 17.3017065,48.7521692 17.3142291,48.7675521 C17.3453892,48.8167683 17.3789659,48.8639519 17.4147029,48.9086839 C17.4472544,48.960682 17.4823323,49.0104576 17.5197903,49.0574845 C17.5523417,49.1096095 17.5874197,49.1595136 17.6248777,49.2067144 C17.6574291,49.2589664 17.6925437,49.3089637 17.7300017,49.3563385 C17.7625531,49.4086727 17.7976311,49.4588339 17.8350524,49.5062838 C17.8676039,49.5587 17.9027184,49.6089992 17.9401398,49.6565783 C17.9726546,49.7091117 18.0077692,49.7594946 18.0451906,49.8072478 C18.0777054,49.8599079 18.11282,49.9104193 18.1502413,49.9583016 C18.1827928,50.0111431 18.2179074,50.0617831 18.2552921,50.1097399 C18.2878802,50.162718 18.3229581,50.2134316 18.3603429,50.2615625 C18.3928943,50.3146125 18.4280089,50.3655095 18.4653936,50.4138147 C18.4979451,50.4669463 18.5330596,50.5179718 18.5704444,50.5664061 C18.6030325,50.6197197 18.638147,50.6708285 18.6755318,50.7193921 C18.7080466,50.772767 18.7431978,50.8240597 18.7805825,50.8727525 C18.8130974,50.926254 18.8482485,50.9776299 18.8855967,51.026487 C18.9181847,51.0801356 18.9533359,51.1316401 18.990684,51.1806718 C19.0232721,51.2344473 19.0584233,51.2860348 19.0956982,51.3351295 C19.1283229,51.3890876 19.1634741,51.4408037 19.200749,51.4900729 C19.2333736,51.5440668 19.2685248,51.5959569 19.3057997,51.6453095 C19.3383878,51.6994653 19.3735756,51.7514946 19.4108871,51.8010325 C19.4434752,51.8553151 19.4786264,51.9074166 19.5159012,51.9570729 C19.5485259,52.011493 19.5836771,52.063723 19.620952,52.1135084 C19.6536133,52.1680662 19.6887645,52.2204246 19.726076,52.2703959 C19.7587007,52.3250697 19.7938885,52.3775677 19.8311634,52.4277031 C19.8638247,52.4824689 19.8990125,52.5350955 19.9362508,52.5853491 C19.9689487,52.640253 20.0041365,52.6930541 20.0413748,52.743437 C20.0740727,52.7984679 20.1092239,52.8513405 20.1464621,52.9018525 C20.1791601,52.9570104 20.2143479,53.0100228 20.2516227,53.0606752 C20.284284,53.1159489 20.3194352,53.1691247 20.3567101,53.2199064 C20.3893714,53.2752608 20.4245592,53.3285767 20.4618341,53.3794876 C20.4944954,53.4350151 20.5296832,53.4884134 20.5669215,53.5394884 C20.5996194,53.595108 20.6347706,53.6486234 20.6720089,53.6998276 C20.7047434,53.7555858 20.7398946,53.8092761 20.7771329,53.8606096 C20.8098674,53.9164948 20.8450186,53.9702673 20.8822569,54.02173 C20.9149914,54.0777423 20.9501426,54.1316433 20.9873442,54.1832699 C21.1862413,54.5248591 21.4723573,54.7932346 21.7904388,54.8987127 C22.2709115,55.0591701 22.678299,54.7921618 22.8222358,54.2789465 C22.8778918,54.1269554 22.9087223,53.949724 22.9087223,53.7530223 C22.9087223,53.7308862 22.9082097,53.7087284 22.9074408,53.6865839 C22.9101503,53.6467979 22.9117981,53.6063842 22.9117981,53.5648716 C22.9117981,53.5427347 22.9112854,53.5206248 22.9105165,53.4985289 C22.9131895,53.4587238 22.9148738,53.4182214 22.9148738,53.3766597 C22.9148738,53.3546173 22.9143245,53.3324962 22.9135922,53.3104603 C22.9162652,53.2706003 22.9179495,53.2300452 22.9179495,53.1884344 C22.9179495,53.1663912 22.9174003,53.1443181 22.916668,53.122283 C22.9193043,53.0824043 22.9209886,53.0418441 22.9209886,53.0002318 C22.9209886,52.9782354 22.9204394,52.9562104 22.9197071,52.9342237 C22.92238,52.894254 22.9240277,52.8536296 22.9240277,52.8119683 C22.9240277,52.7900187 22.9235151,52.768053 22.9227828,52.7461148 C22.9254558,52.7060902 22.9271035,52.6654607 22.9271035,52.6237503 C22.9271035,52.6017999 22.9265908,52.5798822 22.9258219,52.5579336 C22.9284949,52.5179016 22.9301792,52.4772307 22.9301792,52.4354712 C22.9301792,52.4135677 22.92963,52.3916391 22.9288976,52.3697502 C22.931534,52.3296998 22.9332549,52.2889873 22.9332549,52.2472262 C22.9332549,52.2253696 22.9326691,52.2034779 22.9319734,52.1816009 C22.9346097,52.1414957 22.936294,52.1007193 22.936294,52.0589092 C22.936294,52.0370517 22.9357448,52.0152192 22.9350491,51.9934382 C22.9376854,51.9532782 22.9393331,51.912438 22.9393331,51.8706264 C22.9393331,51.8488157 22.9388205,51.8270423 22.9380882,51.8052511 C22.9407612,51.7650471 22.9424089,51.7242019 22.9424089,51.6822935 C22.9424089,51.6605297 22.9418596,51.6387934 22.9411639,51.6170138 C22.9438003,51.5767918 22.9454846,51.5359047 22.9454846,51.4939948 C22.9454846,51.4722302 22.9449354,51.4504943 22.9442031,51.4288 C22.9468394,51.3885231 22.9485603,51.347594 22.9485603,51.305635 C22.9485603,51.2839173 22.9479745,51.2622187 22.9472788,51.2405359 C22.9499151,51.2002041 22.9515994,51.1592591 22.9515994,51.1172987 C22.9515994,51.0956278 22.9510502,51.0739404 22.9503545,51.052306 C22.9529908,51.011967 22.9546386,50.970911 22.9546386,50.9289014 C22.9546386,50.9072774 22.9541259,50.8856486 22.9534302,50.8640149 C22.9560666,50.8236211 22.9577143,50.78256 22.9577143,50.7405489 C22.9577143,50.7189242 22.957165,50.6973328 22.9564693,50.6757476 C22.9591057,50.6353465 22.96079,50.5942432 22.96079,50.5521353 C22.96079,50.5305574 22.9602042,50.5090038 22.9595451,50.4874773 C22.9621448,50.4469634 22.9638657,50.4058652 22.9638657,50.3637559 C22.9638657,50.3422248 22.9632799,50.3206717 22.9625842,50.2991832 C22.9652205,50.2586249 22.9669049,50.2174636 22.9669049,50.1753051 C22.9669049,50.1537733 22.9663556,50.1323262 22.9656599,50.1108385 C22.9682963,50.0702729 22.969944,50.0290486 22.969944,49.9868409 C22.969944,49.9654037 22.9693947,49.943957 22.9687356,49.9225278 C22.971372,49.8819074 22.9730197,49.840678 22.9730197,49.7984212 C22.9730197,49.7769832 22.9724705,49.7555846 22.9718114,49.7342037 C22.9744111,49.6935184 22.9760954,49.6522463 22.9760954,49.609988 C22.9760954,49.5885492 22.9755096,49.5671887 22.9748505,49.5458085 C22.9774502,49.505116 22.9791712,49.4638011 22.9791712,49.4214937 C22.9791712,49.4001017 22.9785853,49.3787418 22.9779262,49.3574099 C22.9805259,49.3166626 22.9822103,49.2753326 22.9822103,49.232976 C22.9822103,49.2116786 22.981661,49.1903767 22.9809653,49.1690357 C22.9836017,49.128291 22.985286,49.0868605 22.985286,49.0445024 C22.985286,49.0232043 22.9847001,49.0019407 22.9840411,48.9807055 C22.9866774,48.9398583 22.9883251,48.8984129 22.9883251,48.8560057 C22.9883251,48.8347068 22.9877393,48.8134437 22.9871168,48.7922189 C22.9897165,48.7513548 22.9914008,48.709914 22.9914008,48.6674576 C22.9914008,48.6462056 22.990815,48.6249907 22.9901925,48.6038141 C22.9927556,48.5628857 22.9944766,48.5214016 22.9944766,48.478896 C22.9944766,48.4577385 22.9938907,48.4365718 22.9932316,48.4153863 C22.9958313,48.3744127 22.9975157,48.3328662 22.9975157,48.2903591 C22.9975157,48.2692009 22.9969298,48.2480347 22.9963074,48.2269547 C22.9989071,48.1859262 23.0005914,48.1443269 23.0005914,48.1018183 C23.0005914,48.0806593 22.9999689,48.059532 22.9993465,48.0384049 C23.0019462,47.9973693 23.0036305,47.9558125 23.0036305,47.9132071 C23.0036305,47.892095 23.0030447,47.8710252 23.0024222,47.849994 C23.0050219,47.8089036 23.0067062,47.7672463 23.0067062,47.7245917 C23.0067062,47.7030976 23.0061204,47.6815994 23.0054613,47.6601308" id="Fill-1" fill="#C8D5E0"></path>
                    </g>
                </g>
            </g>
        </g>
    </g>
</svg>