<?xml version="1.0" encoding="UTF-8"?>
<svg width="16px" height="17px" viewBox="0 0 16 17" version="1.1" xmlns="http://www.w3.org/2000/svg" xmlns:xlink="http://www.w3.org/1999/xlink">
    <title>hammer</title>
    <g id="页面-1" stroke="none" stroke-width="1" fill="none" fill-rule="evenodd">
        <g id="Home1" transform="translate(-633.000000, -1672.000000)">
            <g id="1备份" transform="translate(433.000000, 1238.000000)">
                <g id="编组-16" transform="translate(20.000000, 344.000000)">
                    <g id="编组-8" transform="translate(0.000000, 66.000000)">
                        <g id="编组-7" transform="translate(164.000000, 12.000000)">
                            <g id="编组-6" transform="translate(16.000000, 10.000000)">
                                <g id="hammer" transform="translate(0.000000, 2.000000)">
                                    <rect id="矩形" x="0" y="0" width="16" height="16"></rect>
                                    <path d="M15.7805,12.6725 L11.069,7.961 C10.7775,7.6695 10.3,7.6695 10.0085,7.961 L9.655,8.3145 L6.78,5.4395 L11.4995,0.72 L6.4995,0.72 L4.28,2.9395 L4.0605,2.72 L3,2.72 L3,3.7805 L3.2195,4 L2.07389661e-12,7.2195 L2.5,9.7195 L5.7195,6.5 L8.5945,9.375 L8.241,9.7285 C7.9495,10.02 7.9495,10.4975 8.241,10.789 L12.9525,15.5005 C13.244,15.792 13.7215,15.792 14.013,15.5005 L15.7805,13.733 C16.072,13.4415 16.072,12.964 15.7805,12.6725 Z" id="路径" fill="#FFFFFF" fill-rule="nonzero" transform="translate(7.999563, 8.219563) scale(-1, 1) rotate(-270.000000) translate(-7.999563, -8.219563) "></path>
                                </g>
                            </g>
                        </g>
                    </g>
                </g>
            </g>
        </g>
    </g>
</svg>