<?xml version="1.0" encoding="UTF-8"?>
<svg width="20px" height="20px" viewBox="0 0 20 20" version="1.1" xmlns="http://www.w3.org/2000/svg" xmlns:xlink="http://www.w3.org/1999/xlink">
    <title>HECO</title>
    <g id="页面-1" stroke="none" stroke-width="1" fill="none" fill-rule="evenodd">
        <g id="Home1" transform="translate(-803.000000, -1760.000000)" fill-rule="nonzero">
            <g id="1备份-2" transform="translate(783.000000, 1238.000000)">
                <g id="编组-16" transform="translate(20.000000, 344.000000)">
                    <g id="编组-15" transform="translate(0.000000, 176.000000)">
                        <g id="HECO" transform="translate(0.000000, 2.000000)">
                            <path d="M10,0 C4.49304175,0.0198807191 0.0198807191,4.49304175 0,10 C0.0198807191,15.526839 4.49304175,20 10,20 C15.526839,19.9801193 20,15.5069582 20,10 C20,4.49304175 15.526839,0.0198807191 10,0 Z" id="路径" fill="#01943F"></path>
                            <path d="M7.53996024,6.88190854 L7.55984096,6.88190854 C7.63936382,6.84214711 7.7188867,6.80238569 7.79840955,6.78250497 L7.79840955,5.19204771 C7.79840955,4.91371769 7.55984096,4.67514912 7.28151093,4.67514912 L5.13439364,4.67514912 L5.13439364,9.20795229 C5.65129226,8.19403579 6.50616303,7.37892644 7.53996024,6.88190854 Z" id="路径" fill="#FFFFFF"></path>
                            <path d="M9.73300199,9.65367794 L10.2101392,9.65367794 C10.9059642,9.65367794 11.4626243,9.0970179 11.482505,8.40119285 L11.482505,7.04930417 C11.2240557,6.98966203 10.0312127,6.96978131 9.75288271,6.96978131 C7.32743539,6.96978131 5.29960239,8.85844931 5.14055666,11.2838966 C5.12067594,11.4031809 5.12067594,11.5025845 5.12067594,11.6019881 C5.12067594,11.7013917 5.12067594,11.8206759 5.14055666,11.9200795 L5.14055666,14.8027833 C5.14055666,15.0811133 5.37912525,15.3196819 5.65745528,15.3196819 L7.80457257,15.3196819 L7.80457257,11.5821074 C7.80457257,10.5085487 8.67932405,9.65367794 9.73300199,9.65367794 L9.73300199,9.65367794 Z M12.466004,13.1264413 L12.4461233,13.1264413 C12.3666004,13.1662028 12.2870775,13.2059642 12.2075547,13.2258449 L12.2075547,14.8163022 C12.2075547,15.0946322 12.4461233,15.3332008 12.7244533,15.3332008 L14.8715706,15.3332008 L14.8715706,10.8003976 C14.354672,11.8143141 13.4998012,12.6294235 12.466004,13.1264413 L12.466004,13.1264413 Z" id="形状" fill="#FFFFFF"></path>
                            <path d="M14.8890656,8.07475149 L14.8890656,5.19204771 C14.8890656,4.91371769 14.650497,4.67514912 14.3522863,4.67514912 L12.205169,4.67514912 L12.205169,8.43260438 C12.205169,9.50616303 11.3304175,10.3610338 10.2767396,10.3610338 L9.79960238,10.3610338 C9.10377733,10.3610338 8.54711729,10.9176938 8.52723658,11.6135189 L8.52723658,12.9654076 C8.78568588,13.005169 9.97852881,13.0449304 10.2568588,13.0449304 L10.3562624,13.0449304 C11.012326,13.0250497 11.6485089,12.8858847 12.2250497,12.6075547 L12.2449304,12.6075547 C13.7757455,11.8918489 14.789662,10.4007952 14.9089463,8.73081511 C14.9089463,8.63141153 14.928827,8.51212724 14.928827,8.41272366 C14.928827,8.31332008 14.8890656,8.19403579 14.8890656,8.07475149 L14.8890656,8.07475149 Z" id="路径" fill="#FFFFFF"></path>
                        </g>
                    </g>
                </g>
            </g>
        </g>
    </g>
</svg>