<?xml version="1.0" encoding="UTF-8"?>
<svg width="190px" height="60px" viewBox="0 0 190 60" version="1.1" xmlns="http://www.w3.org/2000/svg" xmlns:xlink="http://www.w3.org/1999/xlink">
    <title>HyperPay</title>
    <defs>
        <rect id="path-1" x="0" y="0" width="190" height="60"></rect>
    </defs>
    <g id="NFT交易市场" stroke="none" stroke-width="1" fill="none" fill-rule="evenodd">
        <g id="Home首页" transform="translate(-906.000000, -3432.000000)">
            <g id="编组-33" transform="translate(0.000000, 3191.000000)">
                <g id="编组-32" transform="translate(432.000000, 70.000000)">
                    <g id="编组-29" transform="translate(0.000000, 81.000000)">
                        <g id="HyperPay" transform="translate(474.000000, 90.000000)">
                            <mask id="mask-2" fill="white">
                                <use xlink:href="#path-1"></use>
                            </mask>
                            <g id="蒙版"></g>
                            <g mask="url(#mask-2)">
                                <g transform="translate(0.000000, 14.000000)">
                                    <path d="M16,0 C24.8365559,0 32,7.163444 32,16 C32,17.5181952 31.7885483,18.9870033 31.3934892,20.3785801 C29.4891321,27.0865852 23.3183608,32 16,32 C7.163444,32 0,24.8365559 0,16 C0,7.163444 7.163444,0 16,0 Z M20.7859042,9.02564103 L9.14661329,9.02564103 L8.20971461,12.5317152 L14.2419911,12.5317152 L13.4696158,16.0228211 C14.7096969,16.0372595 15.6537547,16.0447838 16.3017893,16.0453938 L16.4664138,16.0453938 C17.062209,16.0447838 17.3619809,16.0372595 17.3657295,16.0228211 C17.6286654,13.2061433 18.9882553,12.5285996 19.9723815,12.5285996 C21.3239721,12.5063284 22.1404006,13.4968806 22.1522379,14.5066038 C22.1522379,15.8292287 20.9711099,16.6452842 19.7013029,16.6153846 L19.7013029,16.6153846 L6.82841463,16.6153846 L5.94871795,19.9411803 L12.5007349,19.9411803 L11.4858736,24.2051282 L15.8456757,24.2051282 L16.837462,19.9411803 L16.837462,19.9411803 L19.0052583,19.9411803 C22.049503,19.9411803 26.8467011,18.3959412 26.4369085,13.0511357 C26.2876845,10.8452524 24.7549854,9.02564103 20.7859042,9.02564103 L20.7859042,9.02564103 Z" id="形状结合备份-2" fill="#006EFF" fill-rule="nonzero"></path>
                                    <g id="编组-6备份" stroke-width="1" fill="none" fill-rule="evenodd" transform="translate(39.384615, 7.384615)">
                                        <g id="编组-7" transform="translate(0.000000, 0.000000)" fill="#111622" fill-rule="nonzero">
                                            <path d="M40.1188402,3.32958671 C41.9634164,3.32958671 44.7039789,4.95548267 43.7921764,9.85427877 C42.8803739,14.7530749 39.1156851,15.7355769 37.7700673,15.7375426 C36.2638956,15.7233137 35.0657268,15.1564809 34.175561,14.037044 L34.1191602,13.9648401 L32.7321315,19.181798 L28.4529668,19.181798 L32.7321315,3.64373725 L36.5151206,3.64373725 L36.2003567,4.96254049 C37.5829614,3.87390464 38.8891227,3.32958671 40.1188402,3.32958671 Z M22.9282656,3.83037727 L23.1797705,10.7214938 L27.1716931,3.83037727 L31.5673678,3.83037727 C29.6668098,6.87914985 28.308311,9.05355448 27.4918716,10.3535912 C24.3955003,15.2840197 22.2259481,18.3472212 20.2091023,18.8765195 C18.4135044,19.2904286 16.8489099,19.0220076 15.5153189,18.0712564 L15.5153189,18.0712564 L16.9641876,15.7375426 C18.5034635,15.8926181 19.4057063,15.8926181 19.6709158,15.7375426 C19.9361254,15.5824671 20.0359057,15.2397308 19.9702568,14.7093338 L19.9702568,14.7093338 L18.5759462,3.83037727 L22.9282656,3.83037727 Z M8.95255881,0 L7.11226146,5.99936718 L12.3272029,5.99936718 L14.0280243,0 L18.5759462,0 L14.2316927,15.7375426 L9.97000453,15.7375426 L11.4891153,9.57947208 L6.1798456,9.57947208 L4.47028587,15.7375426 L0,15.7375426 L4.27255502,0 L8.95255881,0 Z M56.196119,5.78620794 C56.8097495,7.46847565 56.8230894,9.07774966 56.2361385,10.6140299 L56.196119,10.7163405 L55.8966552,10.7164907 C55.7484349,10.7165642 55.6024821,10.7166355 55.4587967,10.7167045 L55.0345432,10.7169045 L54.9651569,10.7169364 L54.9651569,10.7169364 L54.6238946,10.7170906 C54.5790228,10.7171106 54.5344029,10.7171302 54.4900351,10.7171496 L54.0975262,10.7173174 L54.0334308,10.7173441 L54.0334308,10.7173441 L53.5953444,10.7175197 L53.5342722,10.7175433 L53.5342722,10.7175433 L53.0016293,10.7177381 L53.0016293,10.7177381 L52.4457056,10.7179182 C52.4099038,10.7179289 52.3743538,10.7179394 52.3390558,10.7179496 L49.3126213,10.7179496 C49.2974788,10.7179394 49.2825881,10.7179289 49.2679495,10.7179182 L49.0672646,10.7177381 L48.9339266,10.7175665 C48.9238228,10.7175511 48.9139709,10.7175356 48.9043711,10.7175197 L48.8247748,10.7173703 C48.8166866,10.7173529 48.8088505,10.7173353 48.8012661,10.7173174 L48.7398096,10.7171496 L48.7308896,10.7171203 L48.7308896,10.7171203 L48.6919582,10.716968 C48.6873971,10.7169471 48.6830882,10.7169259 48.679031,10.7169045 L48.6493194,10.7167045 C48.6416829,10.7166355 48.6363141,10.7165642 48.6332125,10.7164907 L48.630033,10.7163405 C48.75308,11.4073017 49.1038913,12.4740835 50.7988281,12.4740835 C51.7365284,12.4740835 52.5569912,12.2336739 53.2602164,11.7528546 C54.4557639,13.5026421 55.053295,14.3732601 55.0528094,14.3647085 C54.5901865,15.0367134 52.2790624,15.6509858 50.2526291,15.6509858 C48.2261959,15.6509858 44.5263781,13.9071567 44.8773288,9.66066681 C45.5134283,4.94318937 49.1393844,3.66356743 50.4035569,3.53966347 C52.6179001,3.2418119 54.9789259,3.47822322 56.196119,5.78620794 Z M63.4200722,5.53786057 C64.9170018,3.88973257 66.2710199,3.16364295 67.4821847,3.35959173 C67.4846125,3.37429906 67.4082357,3.65505208 67.2529955,4.20185083 L67.2256103,4.29819393 C67.0144277,5.04031331 66.672879,6.22222256 66.2009645,7.84392164 C64.6112053,7.91041604 63.3528976,8.41749582 62.4260414,9.36516094 C61.4991852,10.3128261 60.8645834,12.408101 60.5222355,15.6509858 L60.5222355,15.6509858 L56.2636724,15.4754367 L59.372136,3.74064008 L63.9107584,3.6275431 L63.4200722,5.53786057 Z M35.2387143,9.05757941 C34.6627104,10.5396635 35.4046219,12.0257546 36.414079,12.3054979 C37.4235358,12.5852411 38.9149686,12.0305479 39.4623411,10.3108977 C40.0097134,8.59124747 39.3760874,7.30744113 38.0784433,6.98041828 C36.7807992,6.65339543 35.7176767,7.7848279 35.2387143,9.05757941 Z M48.8608773,8.60298978 L53.4919674,8.60298978 C53.4796392,7.14809087 52.923072,6.4134905 51.8222656,6.3991887 C50.4318911,6.36102765 49.4447616,7.095628 48.8608773,8.60298978 Z" id="形状结合"></path>
                                        </g>
                                        <path d="M99.714721,3.67096027 L101.109032,14.5499168 C101.174645,14.9473946 101.022867,15.2948632 100.653696,15.5923227 C100.284525,15.8897822 99.6295272,15.8426794 98.6887019,15.4510144 L96.8094952,18.148738 C97.6806944,19.1641954 99.0140929,19.4649695 100.809691,19.0510604 C103.624228,18.3124171 107.654838,13.185717 112.901521,3.67096027 L108.310468,3.67096027 L104.318545,10.5620768 L104.067041,3.67096027 L99.714721,3.67096027 Z" id="路径-26备份" fill="#0057FC" fill-rule="nonzero"></path>
                                        <path d="M70.0041188,0 L82.7557988,0 C86.4276554,0.161097438 88.2636791,1.90788809 88.2636791,5.24037196 C88.2892127,9.53861177 83.1494892,11.110794 81.5919471,11.110794 C80.5535856,11.110794 79.4798964,11.110794 78.370879,11.110794 L77.2919294,15.4510144 L72.5489653,15.4510144 L73.6840412,11.110794 L66.5251758,11.110794 L67.4821848,7.72550718 C76.0040775,7.72550718 80.6138572,7.72550718 81.3115235,7.72550718 C82.3580228,7.72550718 83.8340595,7.15115719 83.8340595,5.24037196 C83.8340595,3.32958671 82.0594277,3.04311899 80.8385376,3.56878999 C80.0246109,3.91923731 79.394785,5.10375532 78.9490597,7.12234404 L74.7828199,7.12234404 L75.5473046,3.56878999 L68.9848806,3.56878999 L70.0041188,0 Z" id="路径-32" fill="#0057FC" fill-rule="nonzero"></path>
                                        <path d="M95.5073668,3.85681606 C98.1109165,4.07639255 99.5418605,5.76141797 99.0189102,7.72550718 C98.6702763,9.0349 97.969312,11.7648555 96.9160172,15.9153738 L92.6260976,15.9153738 L92.8751378,14.8647676 C91.4021828,15.8747447 90.0958521,16.2249468 88.9561456,15.9153738 C87.2465858,15.4510144 86.5539118,13.7911954 86.5539118,12.3456876 C86.5539118,10.9001798 87.9840716,8.72850119 90.5656638,8.36283912 C92.2867251,8.11906443 93.6893257,8.24476076 94.7734661,8.73992812 C94.9247797,7.83705054 94.713904,7.23989961 94.1408394,6.94847532 C93.5677746,6.65705102 92.0800693,6.65705102 89.6777233,6.94847532 L89.2766601,4.32464841 C91.6947647,3.86637586 93.7716671,3.71043175 95.5073668,3.85681606 Z M91.7808962,10.6568532 C90.9432568,11.0359587 90.2787579,12.2989156 91.5594154,13.0581909 C92.0888898,13.3721053 93.0414123,13.1919967 93.6272433,12.4471297 C93.8664531,12.1429813 94.1042156,11.4763725 94.3405307,10.4473033 C93.1925342,10.3342662 92.3393227,10.4041162 91.7808962,10.6568532 Z" id="形状结合" fill="#0057FC" fill-rule="nonzero"></path>
                                    </g>
                                </g>
                            </g>
                        </g>
                    </g>
                </g>
            </g>
        </g>
    </g>
</svg>