<?xml version="1.0" encoding="UTF-8"?>
<svg width="24px" height="24px" viewBox="0 0 24 24" version="1.1" xmlns="http://www.w3.org/2000/svg" xmlns:xlink="http://www.w3.org/1999/xlink">
    <title>Instagram</title>
    <defs>
        <filter color-interpolation-filters="auto" id="filter-1">
            <feColorMatrix in="SourceGraphic" type="matrix" values="0 0 0 0 0.337255 0 0 0 0 0.435294 0 0 0 0 0.996078 0 0 0 1.000000 0"></feColorMatrix>
        </filter>
    </defs>
    <g id="页面-1" stroke="none" stroke-width="1" fill="none" fill-rule="evenodd">
        <g id="Profile创作者" transform="translate(-2027.000000, -534.000000)">
            <g id="Instagram" transform="translate(1895.000000, 534.000000)" filter="url(#filter-1)">
                <g transform="translate(132.000000, 0.000000)">
                    <path d="M12,0 C18.627417,0 24,5.372583 24,12 C24,18.627417 18.627417,24 12,24 C5.372583,24 0,18.627417 0,12 C0,5.372583 5.372583,0 12,0 Z M9.13846153,5.07692309 C7.01538462,4.98461538 5.16923077,6.64615385 5.07692309,8.76923077 L5.07692309,9.13846153 C4.98461538,10.2461538 4.98461538,13.7538461 5.07692309,14.8615385 C4.98461538,16.9846154 6.64615385,18.8307692 8.76923077,18.9230769 L9.13846153,18.9230769 C10.2461538,19.0153846 13.7538461,19.0153846 14.8615385,18.9230769 C16.9846154,19.0153846 18.8307692,17.3538461 18.9230769,15.2307692 L18.9230769,9.13846153 C19.0153846,7.01538462 17.3538461,5.16923077 15.2307692,5.07692309 L14.8615385,5.07692309 C13.7538462,4.98461538 10.2461539,4.98461538 9.13846153,5.07692309 Z M16.1538461,6.64615385 C16.8,6.92307694 17.2615384,7.38461538 17.4461539,7.93846153 C17.7230769,9.32307691 17.8153846,10.7076923 17.7230769,12 C17.8153846,13.3846154 17.7230769,14.7692308 17.4461539,16.0615385 C17.1692308,16.7076923 16.7076923,17.1692308 16.1538461,17.3538461 C13.4769231,17.7230769 10.7076923,17.7230769 7.93846153,17.3538461 C7.29230768,17.0769231 6.83076923,16.6153846 6.64615385,16.0615385 C6.36923077,14.6769231 6.27692309,13.2923077 6.36923077,12 C6.27692306,10.6153846 6.36923077,9.23076923 6.64615385,7.93846153 C6.92307694,7.29230768 7.38461538,6.83076923 7.93846153,6.64615385 C10.6153846,6.27692309 13.3846154,6.27692309 16.1538461,6.64615385 Z M12,8.4 C10.0615385,8.4 8.4,9.96923077 8.4,12 C8.4,13.9384615 9.96923077,15.6 12,15.6 C13.9384615,15.6 15.6,14.0307692 15.6,12 C15.6,10.0615385 13.9384615,8.4 12,8.4 Z M12,9.6923077 C13.2923077,9.6923077 14.3076923,10.7076923 14.3076923,12 C14.3076923,13.2923077 13.2923077,14.3076923 12,14.3076923 C10.7076923,14.3076923 9.6923077,13.2923077 9.6923077,12 C9.6923077,10.7076923 10.7076923,9.6923077 12,9.6923077 Z M15.6923077,7.47692309 C15.2307692,7.47692309 14.8615385,7.84615385 14.8615385,8.3076923 C14.8615385,8.76923074 15.2307692,9.13846153 15.6923077,9.13846153 C16.1538462,9.13846153 16.5230769,8.76923077 16.5230769,8.3076923 C16.5230769,7.84615383 16.1538461,7.47692309 15.6923077,7.47692309 Z" id="形状结合" fill="#080405" fill-rule="nonzero"></path>
                </g>
            </g>
        </g>
    </g>
</svg>