<?xml version="1.0" encoding="UTF-8"?>
<svg width="190px" height="60px" viewBox="0 0 190 60" version="1.1" xmlns="http://www.w3.org/2000/svg" xmlns:xlink="http://www.w3.org/1999/xlink">
    <title>iToken</title>
    <defs>
        <rect id="path-1" x="0" y="0" width="190" height="60"></rect>
    </defs>
    <g id="NFT交易市场" stroke="none" stroke-width="1" fill="none" fill-rule="evenodd">
        <g id="Home首页" transform="translate(-1320.000000, -3522.000000)">
            <g id="编组-33" transform="translate(0.000000, 3191.000000)">
                <g id="编组-32" transform="translate(432.000000, 70.000000)">
                    <g id="编组-29" transform="translate(0.000000, 81.000000)">
                        <g id="iToken" transform="translate(888.000000, 180.000000)">
                            <mask id="mask-2" fill="white">
                                <use xlink:href="#path-1"></use>
                            </mask>
                            <g id="蒙版"></g>
                            <g id="colour_01" mask="url(#mask-2)">
                                <g transform="translate(0.000000, 12.000000)">
                                    <path d="M21.8978587,21.2849361 L12.115288,21.2849361 C11.0830027,21.285496 10.0931493,21.7006813 9.36321467,22.4392747 C8.63328,23.1778 8.222968,24.17944 8.222424,25.22392 L8.222424,30.0507867 C8.222968,31.0952667 8.63328,32.0969067 9.36321467,32.8353867 C10.0931493,33.5740933 11.0830027,33.9893467 12.115288,33.9898 L19.2353867,33.9898 C19.236384,33.5731867 19.122756,33.1645067 18.9072413,32.80932 C18.6917267,32.45436 18.3828253,32.1669467 18.0150813,31.9794933 L19.0235893,29.9691867 C19.759576,30.3461333 20.3775147,30.9227733 20.808476,31.6345067 C21.2394373,32.34624 21.466444,33.1651867 21.4642,34 L21.887772,34 C22.92008,33.9995467 23.9099333,33.5842933 24.6398,32.8455867 C25.3698933,32.1071067 25.78016,31.1054667 25.780632,30.0609867 L25.780632,25.21372 C25.7822,24.6973733 25.6826933,24.1857867 25.4879867,23.7084267 C25.2935067,23.2312933 25.0074533,22.7974533 24.6466,22.432384 C24.2857467,22.0672693 23.85712,21.7779293 23.3854267,21.5810013 C22.9137333,21.384096 22.4081533,21.2834787 21.8978587,21.2849361 Z M12.2665653,28.05068 C12.0268427,28.05068 11.7894773,28.0028533 11.568024,27.9101467 C11.346548,27.8172133 11.1453133,27.6812133 10.975812,27.5096267 C10.8063107,27.3382667 10.671852,27.1344933 10.58012,26.9105467 C10.4883653,26.6863733 10.4411507,26.4461067 10.4411507,26.2035733 C10.4411507,25.96104 10.4883653,25.7207733 10.58012,25.4968267 C10.671852,25.2726533 10.8063107,25.0691067 10.975812,24.89752 C11.1453133,24.72616 11.346548,24.5899333 11.568024,24.4972267 C11.7894773,24.4042933 12.0268427,24.3564667 12.2665653,24.3564667 C12.506288,24.3564667 12.7436533,24.4042933 12.9651293,24.4972267 C13.1865827,24.5899333 13.3878173,24.72616 13.5573187,24.89752 C13.72682,25.0691067 13.8612787,25.2726533 13.9530333,25.4968267 C14.0447653,25.7207733 14.09198,25.96104 14.09198,26.2035733 C14.0906427,26.6931733 13.8973187,27.1621467 13.5544853,27.50736 C13.2116293,27.8528 12.7473253,28.0463733 12.2635507,28.0454667 L12.2665653,28.05068 Z M21.7465813,28.05068 C21.5068587,28.05068 21.2694933,28.0028533 21.0480173,27.9101467 C20.826564,27.8172133 20.6253293,27.6812133 20.455828,27.5096267 C20.2863267,27.3382667 20.151868,27.1344933 20.0601133,26.9105467 C19.9683813,26.6863733 19.9211667,26.4461067 19.9211667,26.2035733 C19.9211667,25.96104 19.9683813,25.7207733 20.0601133,25.4968267 C20.151868,25.2726533 20.2863267,25.0691067 20.455828,24.89752 C20.6253293,24.72616 20.826564,24.5899333 21.0480173,24.4972267 C21.2694933,24.4042933 21.5068587,24.3564667 21.7465813,24.3564667 C21.986304,24.3564667 22.2236693,24.4042933 22.4451227,24.4972267 C22.6665987,24.5899333 22.86772,24.72616 23.0372667,24.89752 C23.2068133,25.0691067 23.3412267,25.2726533 23.4330267,25.4968267 C23.5248267,25.7207733 23.5719733,25.96104 23.5719733,26.2035733 C23.5706133,26.6931733 23.3772667,27.1621467 23.0345467,27.50736 C22.6916,27.8528 22.2273413,28.0463733 21.743544,28.0454667 L21.7465813,28.05068 Z" id="形状" fill="#1FB75C" fill-rule="evenodd"></path>
                                    <path d="M34.0000186,22.1503427 C34.0000186,23.27164 33.8936933,24.3920533 33.6792667,25.4922933 C33.6792667,27.5055467 31.5962,30.00296 30.2031067,31.2326267 C28.49404,32.7410933 26.3704,33.68516 24.1166533,33.9388 C27.7485333,32.7605867 30.4560667,29.2567733 30.4560667,25.2495333 C30.4572,23.89384 30.1582267,22.5550333 29.58068,21.331736 C29.0031333,20.1084387 28.1619733,19.031704 27.1188533,18.1807067 C27.2888533,18.4033613 27.38088,18.676948 27.3802,18.9583093 C27.38088,19.2820573 27.2593867,19.5938373 27.0402,19.8297973 C26.9223333,19.958612 26.7795333,20.0613827 26.62064,20.1316267 C26.46152,20.2018933 26.2899333,20.238092 26.1165333,20.2379787 C25.9506133,20.2381147 25.78628,20.2051573 25.6328267,20.1410107 C25.4796,20.076864 25.3404267,19.9827747 25.2230133,19.8641373 C25.1056,19.7454773 25.01244,19.6045813 24.9489733,19.4495187 C24.8855067,19.2944333 24.8528667,19.1282187 24.8528667,18.9603493 C24.8528667,18.9236067 24.8528667,18.8858667 24.8578533,18.850144 L24.8326933,18.843004 C24.7894,18.105204 24.6570267,17.375564 24.4382933,16.6704267 C24.3798133,16.483336 24.3158933,16.2996453 24.24676,16.1193773 C23.5513467,14.3051147 22.3002827,12.7637813 20.6765333,11.72116 C19.239308,10.7967 17.5709733,10.3070547 15.8679587,10.3098427 C15.5472253,10.3096387 15.2267187,10.3270013 14.907844,10.3618853 C15.446064,10.642816 15.9224493,11.0311413 16.3082813,11.5034693 C16.6941133,11.9757747 16.9814133,12.5222907 17.152796,13.1100147 C17.1739667,13.1814373 17.1921227,13.2528827 17.2092813,13.3253253 C17.635392,15.1112547 16.9231827,17.0301013 15.4431853,18.0894733 C13.650524,19.3726333 11.0990733,19.1185627 9.588748,17.488376 C9.145116,17.0095427 8.80937733,16.439068 8.604652,15.8163013 C8.17681867,15.9999693 7.76288,16.2151893 7.36619067,16.460216 C5.590008,17.5588013 4.22057867,19.2184547 3.46931467,21.1829293 C3.051772,22.2770947 2.83741333,23.4398267 2.83696,24.6128267 C2.83319733,28.9952 5.909404,33.558 10.4270293,33.9827733 C7.97649067,33.8254667 5.64613067,32.8526133 3.79900133,31.2156267 C1.17000573,28.88572 3.22112707e-15,25.60744 3.22112707e-15,22.1503427 C-0.00386604933,19.8197333 0.4641272,17.484772 1.37866147,15.3448347 C2.83371867,11.9389867 5.333784,9.097652 8.50884,7.24129733 C8.10718667,7.49913067 7.77643467,7.85545067 7.54722933,8.27718667 C7.318024,8.6989 7.19782267,9.172384 7.19777733,9.653688 C7.19757333,10.0800253 7.29168533,10.5009907 7.47315467,10.8857573 C7.65464667,11.270524 7.91891733,11.6093 8.246632,11.877288 C8.442608,12.0396947 8.65982267,12.1739493 8.89206533,12.2762893 C9.24176667,12.4319867 9.61937067,12.5132693 10.00144,12.5150827 L10.03068,12.5150827 C10.4327867,12.5151733 10.830292,12.4283827 11.1965853,12.2604907 C11.5628787,12.0925987 11.8895053,11.8474813 12.1546147,11.5415493 C12.3119893,11.3612813 12.4458587,11.1613387 12.5529813,10.9466173 C12.586256,10.9323373 12.6195307,10.9190547 12.6538253,10.9068147 C12.843228,10.5705093 13.0116413,10.2225307 13.158068,9.86491867 C13.640868,8.691488 13.888388,7.43269467 13.8862347,6.16163867 C13.8862347,5.85142267 13.8717733,5.545264 13.8428507,5.243208 C13.6644187,3.32449733 12.9198187,1.50441387 11.7058147,0.0194377319 C11.935768,0.0058314986 12.167716,-0.000631720066 12.401704,0 C14.5318267,-0.0014904286 16.626204,0.5541184 18.481584,1.61296 C20.336964,2.67181067 21.890356,4.19793467 22.9910267,6.04327333 C24.01012,7.743636 24.61124,9.666608 24.74384,11.6507347 L24.7882667,11.6578747 C24.92132,12.835612 25.9363333,13.7518667 27.1077467,13.7518893 C29.14276,13.7580547 30.1908667,11.171992 28.7556133,9.71797067 C30.4164,11.3229293 31.7374133,13.252452 32.6388667,15.3895333 C33.54032,17.5266373 34.0034,19.8267373 34.0000186,22.1503427 Z" id="路径" fill="#1FB75C" fill-rule="nonzero"></path>
                                    <path d="M45.2086667,13.9123013 C44.6041467,13.9123013 44.1548933,13.792848 43.8609067,13.5539187 C43.58324,13.315012 43.4442933,12.990788 43.4442933,12.581224 C43.4442933,12.4276347 43.4606133,12.2569773 43.4932533,12.0692747 C43.5258933,11.8815493 43.55876,11.710892 43.5914,11.5573027 C43.64036,11.335464 43.7138,11.1136253 43.8119467,10.8917867 C43.9098667,10.6699253 44.0488133,10.4736773 44.2283333,10.30302 C44.40808,10.1323853 44.6367867,9.995864 44.9144533,9.89347867 C45.1923467,9.77402533 45.5352933,9.714276 45.9437467,9.714276 C46.5482667,9.714276 46.98936,9.833752 47.2670267,10.0726587 C47.5610133,10.3115653 47.70812,10.6357893 47.70812,11.0453533 C47.70812,11.1989427 47.6918,11.3696 47.65916,11.5573027 C47.6262933,11.745028 47.5936533,11.9156853 47.5610133,12.0692747 C47.5120533,12.2911133 47.4386133,12.512952 47.3404667,12.7348133 C47.2425467,12.956652 47.1036,13.1529 46.9238533,13.3235573 C46.7443333,13.494192 46.5156267,13.6392587 46.2377333,13.758712 C45.9600667,13.8610973 45.61712,13.9123013 45.2086667,13.9123013 Z M43.2482267,28.8356267 C42.5784267,28.8356267 42.0394133,28.6479467 41.63096,28.2725867 C41.2388267,27.897 41.04276,27.4021867 41.04276,26.78792 C41.04276,26.61724 41.0674667,26.4039467 41.1164267,26.14804 L43.1747867,15.3969453 L46.6053867,15.3969453 L44.5715067,25.9687467 L46.0171867,25.9687467 L45.4781733,28.8356267 L43.2482267,28.8356267 Z" id="形状" fill="#1A1A1A" fill-rule="nonzero"></path>
                                    <polygon id="路径" fill="#1A1A1A" fill-rule="nonzero" points="56.8543467 14.2450707 54.0609067 28.8356267 50.50768 28.8356267 53.30112 14.2450707 48.7924933 14.2450707 49.4294267 10.9685587 62.00036 10.9685587 61.3632 14.2450707"></polygon>
                                    <path d="M64.30148,29.14276 C62.7168533,29.14276 61.4670133,28.65656 60.5521867,27.6837067 C59.63736,26.69408 59.1799467,25.31164 59.1799467,23.5370667 C59.1799467,22.3253747 59.3433733,21.2076133 59.67,20.183692 C60.0131733,19.1427253 60.4787467,18.2468253 61.0669467,17.4959467 C61.65492,16.7450907 62.3492,16.1563467 63.1497867,15.7297147 C63.9664667,15.3031053 64.8568133,15.0897893 65.8208267,15.0897893 C67.4054533,15.0897893 68.6550667,15.5846707 69.5698933,16.5744333 C70.48472,17.5471507 70.9421333,18.9208867 70.9421333,20.695664 C70.9421333,21.9072653 70.7705467,23.03364 70.4276,24.0744933 C70.1007467,25.0983467 69.6433333,25.9857467 69.05536,26.7366933 C68.46716,27.48764 67.76472,28.0762933 66.94804,28.50288 C66.1311333,28.9294667 65.2489467,29.14276 64.30148,29.14276 Z M64.42388,26.2502667 C65.76348,26.2502667 66.6211867,25.2690267 66.997,23.3065467 L67.4625733,20.9004347 C67.4788933,20.8151173 67.4952133,20.7041867 67.5115333,20.5676653 C67.5278533,20.431144 67.5360133,20.2775547 67.5360133,20.1068973 C67.5360133,19.4584267 67.3807467,18.9464773 67.07044,18.5710493 C66.7601333,18.1785533 66.30272,17.9823053 65.6982,17.9823053 C64.3586,17.9823053 63.5008933,18.9635453 63.1253067,20.9260253 L62.6597333,23.33216 C62.6434133,23.4176133 62.6270933,23.5284533 62.6105467,23.6649067 C62.5942267,23.8015867 62.5860667,23.95504 62.5860667,24.12572 C62.5860667,24.7742133 62.7413333,25.29464 63.05164,25.6872267 C63.3621733,26.0625867 63.8195867,26.2502667 64.42388,26.2502667 Z" id="形状" fill="#1A1A1A" fill-rule="nonzero"></path>
                                    <path d="M75.1322933,9.89347867 L78.5628933,9.89347867 L76.4310933,21.0284333 L76.6024533,21.0284333 L78.3668267,18.7246387 L81.45448,15.3969453 L85.4485733,15.3969453 L80.22912,20.8492307 L81.9934933,25.9687467 L83.48836,25.9687467 L82.90016,28.8356267 L81.0623467,28.8356267 C79.8535333,28.8356267 79.0447867,28.16152 78.6363333,26.8135333 L77.5583067,23.3065467 L75.6223467,25.2008 L74.9362267,28.8356267 L71.5056267,28.8356267 L75.1322933,9.89347867 Z" id="路径" fill="#1A1A1A" fill-rule="nonzero"></path>
                                    <path d="M89.8889733,29.14276 C88.05932,29.14276 86.69524,28.6309467 85.7967333,27.6070933 C84.8982267,26.5660133 84.4489733,25.1495733 84.4489733,23.3577733 C84.4489733,22.282716 84.6124,21.250272 84.9390267,20.2604867 C85.2656533,19.253656 85.7314533,18.3748013 86.3357467,17.6239453 C86.9402667,16.8560213 87.6753467,16.241664 88.5412133,15.7809187 C89.40708,15.3201507 90.3708667,15.0897893 91.4328,15.0897893 C91.9228533,15.0897893 92.4373867,15.149516 92.9766267,15.2689693 C93.51564,15.3884227 94.0056933,15.5931933 94.4467867,15.883304 C94.9042,16.1563467 95.2800133,16.5317747 95.574,17.0096107 C95.8843067,17.487424 96.0395733,18.093236 96.0395733,18.827024 C96.0395733,19.5266987 95.8843067,20.1581013 95.574,20.7212547 C95.2636933,21.26734 94.7815733,21.7451533 94.12832,22.1547173 C93.47484,22.5472133 92.6334533,22.86296 91.60416,23.1018667 C90.5750933,23.3237733 89.3415733,23.4602267 87.9040533,23.5114533 C87.8714133,23.6649067 87.8550933,23.78436 87.8550933,23.8698133 C87.8550933,23.95504 87.8550933,24.03188 87.8550933,24.1001067 C87.8550933,24.7486 88.01852,25.2690267 88.3451467,25.6616133 C88.68832,26.0539733 89.2844533,26.2502667 90.134,26.2502667 C90.6893333,26.2502667 91.2040933,26.1308133 91.6778267,25.8919067 C92.16788,25.636 92.6987333,25.1325733 93.2706133,24.3816267 L95.3779333,26.1224267 C94.5775733,27.2315067 93.7361867,28.0164533 92.854,28.4772667 C91.9881333,28.92108 90.9998667,29.14276 89.8889733,29.14276 Z M91.2367333,17.828716 C90.5016533,17.828716 89.8726533,18.0846907 89.34996,18.59664 C88.84336,19.091544 88.5167333,19.7741507 88.3696267,20.64446 L88.2717067,21.233204 C89.1865333,21.182 89.9297733,21.0966827 90.5016533,20.9772293 C91.0896267,20.857776 91.54704,20.7127093 91.8738933,20.5420747 C92.20052,20.3543493 92.4210667,20.1495787 92.5355333,19.9277173 C92.6497733,19.7058787 92.7068933,19.4584267 92.7068933,19.1854067 C92.7068933,18.895296 92.6579333,18.664912 92.5600133,18.4942547 C92.4618667,18.306552 92.3394667,18.1700307 92.19236,18.0846907 C92.0452533,17.9823053 91.8820533,17.914056 91.7023067,17.87992 C91.53888,17.845784 91.3836133,17.828716 91.2367333,17.828716 Z" id="形状" fill="#1A1A1A" fill-rule="nonzero"></path>
                                    <path d="M96.1044,28.8356267 L98.67752,15.3969453 L102.10812,15.3969453 L101.51992,18.519868 L101.667027,18.519868 C102.15708,17.4447653 102.73712,16.6085693 103.40692,16.0113027 C104.076493,15.3969453 104.91788,15.0897893 105.930853,15.0897893 C106.92728,15.0897893 107.68684,15.3969453 108.20976,16.0113027 C108.748773,16.6085693 109.01828,17.4618333 109.01828,18.5710493 C109.01828,18.895296 108.9938,19.2109973 108.94484,19.5181533 C108.9122,19.808264 108.86324,20.1239653 108.797733,20.46528 L107.744187,25.9687467 L109.04276,25.9687467 L108.503747,28.8356267 L106.2738,28.8356267 C105.62032,28.8356267 105.113947,28.6649467 104.754453,28.3238133 C104.395187,27.9654533 104.21544,27.48764 104.21544,26.8903733 C104.21544,26.7366933 104.2236,26.60024 104.23992,26.4807867 C104.25624,26.3441067 104.27256,26.24188 104.28888,26.1734267 L105.293693,20.8492307 C105.342653,20.610324 105.383453,20.37994 105.416093,20.1581013 C105.44896,19.9191947 105.46528,19.6717427 105.46528,19.415768 C105.46528,19.023272 105.367133,18.7075707 105.171067,18.468664 C104.975,18.2126893 104.640213,18.0846907 104.16648,18.0846907 C103.741707,18.0846907 103.357733,18.204144 103.014787,18.4430733 C102.671613,18.68198 102.361307,18.9720907 102.08364,19.3133827 C101.789427,19.6717427 101.53624,20.072784 101.323853,20.5164613 C101.111467,20.9430933 100.956427,21.412384 100.85828,21.9243333 L99.535,28.8356267 L96.1044,28.8356267 Z" id="路径" fill="#1A1A1A" fill-rule="nonzero"></path>
                                </g>
                            </g>
                        </g>
                    </g>
                </g>
            </g>
        </g>
    </g>
</svg>