<?xml version="1.0" encoding="UTF-8"?>
<svg width="190px" height="60px" viewBox="0 0 190 60" version="1.1" xmlns="http://www.w3.org/2000/svg" xmlns:xlink="http://www.w3.org/1999/xlink">
    <title>KingData</title>
    <defs>
        <rect id="path-1" x="0" y="0" width="190" height="60"></rect>
    </defs>
    <g id="NFT交易市场" stroke="none" stroke-width="1" fill="none" fill-rule="evenodd">
        <g id="Home首页" transform="translate(-1380.000000, -3432.000000)">
            <g id="编组-33" transform="translate(0.000000, 3191.000000)">
                <g id="编组-32" transform="translate(432.000000, 70.000000)">
                    <g id="编组-29" transform="translate(0.000000, 81.000000)">
                        <g id="KingData" transform="translate(948.000000, 90.000000)">
                            <mask id="mask-2" fill="white">
                                <use xlink:href="#path-1"></use>
                            </mask>
                            <g id="蒙版"></g>
                            <g mask="url(#mask-2)" fill-rule="nonzero">
                                <g transform="translate(0.000000, 6.000000)">
                                    <path d="M20.6980813,3.00305881 C20.6980813,2.70308662 20.798072,2.50310516 21.0980442,2.40311443 L25.1976642,0.103327617 C25.6976178,-0.196644575 26.1975715,0.203318348 26.1975715,0.703272003 L26.1975715,30.1005469 C26.1975715,30.4005191 26.0975808,30.6005005 25.7976086,30.7004913 L21.6979886,32.9002873 C21.1980349,33.1002688 20.6980813,32.8002966 20.6980813,32.300343 L20.6980813,3.00305881 L20.6980813,3.00305881 Z" id="路径" fill="#2B8DFF"></path>
                                    <path d="M0,32.300343 C0,32.8002966 0.599944385,33.2002595 0.999907309,32.9002873 L5.09952727,30.7004913 C5.29950874,30.6005005 5.4994902,30.3005283 5.4994902,30.1005469 L5.4994902,9.1024934 C5.4994902,8.60253974 4.89954581,8.20257682 4.49958289,8.50254901 L0.399962923,10.7023451 C0.0999907309,10.8023358 0,11.102308 0,11.3022895 L0,32.300343 Z" id="路径" fill="#2B8DFF" opacity="0.5"></path>
                                    <path d="M18.9982389,14.9019558 L14.1986838,14.9019558 C13.9987023,14.9019558 13.7987209,15.0019465 13.6987301,15.1019372 L6.29941604,22.7012328 C5.99944385,23.001205 5.99944385,23.4011679 6.29941604,23.7011401 L13.6987301,31.3004356 C13.7987209,31.4004264 13.9987023,31.5004171 14.1986838,31.5004171 L18.9982389,31.5004171 C19.5981833,31.5004171 19.8981554,30.7004913 19.4981925,30.3005283 L13.0987857,23.7011401 C12.7988136,23.4011679 12.7988136,23.001205 13.0987857,22.7012328 L19.4981925,16.1018446 C19.8981554,15.7018816 19.5981833,14.9019558 18.9982389,14.9019558 Z" id="路径" fill="#2B8DFF"></path>
                                    <path d="M32.696969,31.3004356 C32.5969783,31.3004356 32.5969783,31.3004356 32.4969875,31.2004449 C32.4969875,31.1004542 32.3969968,31.1004542 32.3969968,31.0004635 L32.3969968,15.5019002 C32.3969968,15.4019094 32.3969968,15.4019094 32.4969875,15.3019187 C32.5969783,15.201928 32.5969783,15.201928 32.696969,15.201928 L34.7967743,15.201928 C34.8967651,15.201928 34.8967651,15.201928 34.9967558,15.3019187 C35.0967465,15.3019187 35.0967465,15.4019094 35.0967465,15.5019002 L35.0967465,22.1012884 C35.0967465,22.1012884 35.0967465,22.2012791 35.0967465,22.2012791 C35.0967465,22.2012791 35.1967373,22.2012791 35.1967373,22.2012791 L39.8963016,15.4019094 C39.9962923,15.3019187 40.0962831,15.201928 40.1962738,15.201928 L42.4960606,15.201928 C42.5960514,15.201928 42.6960421,15.201928 42.6960421,15.3019187 C42.6960421,15.4019094 42.6960421,15.4019094 42.6960421,15.5019002 L38.3964407,22.0012977 C38.3964407,22.0012977 38.3964407,22.1012884 38.3964407,22.2012791 L43.096005,31.0004635 C43.096005,31.1004542 43.096005,31.1004542 43.096005,31.1004542 C43.096005,31.2004449 42.9960143,31.3004356 42.8960235,31.3004356 L40.5962367,31.3004356 C40.3962553,31.3004356 40.2962645,31.2004449 40.2962645,31.1004542 L36.6965982,24.2010938 C36.6965982,24.2010938 36.6965982,24.101103 36.5966075,24.101103 C36.4966168,24.101103 36.4966168,24.101103 36.4966168,24.101103 L35.0967465,26.0009269 C35.0967465,26.1009176 35.0967465,26.1009176 35.0967465,26.1009176 L35.0967465,31.0004635 C35.0967465,31.1004542 35.0967465,31.1004542 34.9967558,31.2004449 C34.9967558,31.2004449 34.8967651,31.3004356 34.7967743,31.3004356 L32.696969,31.3004356 Z" id="路径" fill="#272C33"></path>
                                    <path d="M46.2957084,17.9016777 C45.7957547,17.9016777 45.3957918,17.7016963 45.0958196,17.4017241 C44.7958474,17.1017519 44.6958567,16.7017889 44.6958567,16.2018353 C44.6958567,15.7018816 44.7958474,15.3019187 45.0958196,15.0019465 C45.3957918,14.7019743 45.7957547,14.5019929 46.2957084,14.5019929 C46.795662,14.5019929 47.195625,14.7019743 47.4955972,15.0019465 C47.7955694,15.3019187 47.9955508,15.7018816 47.9955508,16.2018353 C47.9955508,16.7017889 47.7955694,17.1017519 47.4955972,17.4017241 C47.195625,17.7016963 46.795662,17.9016777 46.2957084,17.9016777 Z M45.1958104,31.3004356 C45.0958196,31.3004356 45.0958196,31.3004356 44.9958289,31.2004449 C44.9958289,31.1004542 44.8958382,31.1004542 44.8958382,31.0004635 L44.8958382,19.8015016 C44.8958382,19.7015109 44.8958382,19.7015109 44.9958289,19.6015201 C45.0958196,19.5015294 45.0958196,19.5015294 45.1958104,19.5015294 L47.2956157,19.5015294 C47.3956064,19.5015294 47.3956064,19.5015294 47.4955972,19.6015201 C47.5955879,19.6015201 47.5955879,19.7015109 47.5955879,19.8015016 L47.5955879,31.1004542 C47.5955879,31.2004449 47.5955879,31.2004449 47.4955972,31.3004356 C47.4955972,31.3004356 47.3956064,31.4004264 47.2956157,31.4004264 L45.1958104,31.4004264 L45.1958104,31.3004356 Z" id="形状" fill="#272C33"></path>
                                    <path d="M55.5948464,19.4015387 C56.6947444,19.4015387 57.594661,19.8015016 58.1946054,20.5014367 C58.7945498,21.2013718 59.0945219,22.2012791 59.0945219,23.4011679 L59.0945219,31.1004542 C59.0945219,31.2004449 59.0945219,31.2004449 58.9945312,31.3004356 C58.9945312,31.3004356 58.8945405,31.4004264 58.7945498,31.4004264 L56.6947444,31.4004264 C56.5947537,31.4004264 56.5947537,31.4004264 56.4947629,31.3004356 C56.4947629,31.2004449 56.3947722,31.2004449 56.3947722,31.1004542 L56.3947722,23.8011308 C56.3947722,23.2011864 56.1947907,22.7012328 55.8948186,22.3012699 C55.5948464,21.9013069 55.1948834,21.7013255 54.5949391,21.7013255 C53.9949947,21.7013255 53.5950317,21.9013069 53.2950596,22.3012699 C52.9950874,22.7012328 52.7951059,23.2011864 52.7951059,23.8011308 L52.7951059,31.1004542 C52.7951059,31.2004449 52.7951059,31.2004449 52.6951152,31.3004356 C52.6951152,31.3004356 52.5951244,31.4004264 52.4951337,31.4004264 L50.3953284,31.4004264 C50.2953376,31.4004264 50.2953376,31.4004264 50.1953469,31.3004356 C50.1953469,31.2004449 50.0953562,31.2004449 50.0953562,31.1004542 L50.0953562,19.8015016 C50.0953562,19.7015109 50.0953562,19.7015109 50.1953469,19.6015201 C50.2953376,19.5015294 50.2953376,19.5015294 50.3953284,19.5015294 L52.4951337,19.5015294 C52.5951244,19.5015294 52.5951244,19.5015294 52.6951152,19.6015201 C52.7951059,19.6015201 52.7951059,19.7015109 52.7951059,19.8015016 L52.7951059,20.401446 C52.7951059,20.401446 52.7951059,20.5014367 52.7951059,20.5014367 C52.7951059,20.5014367 52.8950966,20.5014367 52.8950966,20.5014367 C53.6950225,19.7015109 54.4949483,19.4015387 55.5948464,19.4015387 Z" id="路径" fill="#272C33"></path>
                                    <path d="M67.7937155,19.8015016 C67.7937155,19.7015109 67.7937155,19.7015109 67.8937063,19.6015201 C67.993697,19.5015294 67.993697,19.5015294 68.0936877,19.5015294 L70.1934931,19.5015294 C70.2934838,19.5015294 70.2934838,19.5015294 70.3934745,19.6015201 C70.4934653,19.6015201 70.4934653,19.7015109 70.4934653,19.8015016 L70.4934653,30.7004913 C70.4934653,32.5003244 69.9935116,33.8002039 68.9936043,34.7001205 C67.993697,35.6000371 66.5938268,36 64.7939936,36 C64.5940121,36 64.1940492,36 63.7940863,36 C63.5941048,36 63.4941141,35.9000093 63.4941141,35.7000278 L63.5941048,33.9001947 C63.5941048,33.7002132 63.6940956,33.6002225 63.894077,33.6002225 C64.0940585,33.6002225 64.2940399,33.6002225 64.5940121,33.6002225 C65.7939009,33.6002225 66.5938268,33.400241 67.0937804,32.9002873 C67.5937341,32.4003337 67.7937155,31.7003986 67.7937155,30.6005005 L67.7937155,30.4005191 C67.7937155,30.4005191 67.7937155,30.3005283 67.7937155,30.3005283 C67.7937155,30.3005283 67.6937248,30.3005283 67.6937248,30.3005283 C67.0937804,31.0004635 66.2938546,31.3004356 65.2939473,31.3004356 C64.2940399,31.3004356 63.4941141,31.0004635 62.794179,30.4005191 C62.0942439,29.8005747 61.6942809,29.0006488 61.4942995,27.9007508 C61.3943088,27.4007971 61.3943088,26.6008713 61.3943088,25.4009825 C61.3943088,24.101103 61.4942995,23.2011864 61.5942902,22.8012235 C61.7942717,21.8013162 62.1942346,20.9013996 62.794179,20.3014553 C63.3941234,19.7015109 64.2940399,19.4015387 65.2939473,19.4015387 C66.3938453,19.4015387 67.1937711,19.7015109 67.7937155,20.401446 C67.7937155,20.401446 67.8937063,20.401446 67.8937063,20.401446 C67.8937063,20.401446 67.8937063,20.401446 67.8937063,20.3014553 L67.8937063,19.8015016 L67.7937155,19.8015016 Z M67.6937248,27.4007971 C67.6937248,26.8008528 67.7937155,26.1009176 67.7937155,25.4009825 C67.7937155,24.5010659 67.7937155,23.8011308 67.6937248,23.3011772 C67.5937341,22.8012235 67.3937526,22.4012606 67.0937804,22.1012884 C66.7938082,21.8013162 66.3938453,21.6013348 65.8938916,21.6013348 C65.393938,21.6013348 64.9939751,21.8013162 64.6940029,22.1012884 C64.3940307,22.4012606 64.1940492,22.8012235 64.0940585,23.3011772 C63.9940678,23.9011216 63.9940678,24.6010567 63.9940678,25.4009825 C63.9940678,26.2009084 63.9940678,26.8008528 64.0940585,27.4007971 C64.1940492,27.9007508 64.3940307,28.3007137 64.6940029,28.6006859 C64.9939751,28.9006581 65.4939287,29.1006396 65.8938916,29.1006396 C66.3938453,29.1006396 66.7938082,28.9006581 67.0937804,28.6006859 C67.4937433,28.3007137 67.6937248,27.9007508 67.6937248,27.4007971 Z" id="形状" fill="#272C33"></path>
                                    <path d="M73.3931965,31.3004356 C73.2932057,31.3004356 73.2932057,31.3004356 73.193215,31.2004449 C73.193215,31.1004542 73.0932243,31.1004542 73.0932243,31.0004635 L73.0932243,15.5019002 C73.0932243,15.4019094 73.0932243,15.4019094 73.193215,15.3019187 C73.2932057,15.201928 73.2932057,15.201928 73.3931965,15.201928 L78.1927515,15.201928 C79.6926125,15.201928 80.8925013,15.6018909 81.7924179,16.4018167 C82.6923344,17.2017426 83.1922881,18.3016406 83.1922881,19.7015109 L83.1922881,26.700862 C83.1922881,28.1007323 82.6923344,29.2006303 81.7924179,30.0005561 C80.8925013,30.800482 79.6926125,31.2004449 78.1927515,31.2004449 L73.3931965,31.2004449 L73.3931965,31.3004356 Z M75.6929833,28.9006581 C75.6929833,29.0006488 75.6929833,29.0006488 75.792974,29.0006488 L78.0927608,29.0006488 C78.7926959,29.0006488 79.2926496,28.8006674 79.6926125,28.3007137 C80.0925754,27.8007601 80.2925569,27.2008157 80.2925569,26.4008898 L80.2925569,20.0014831 C80.2925569,19.2015572 80.0925754,18.6016128 79.6926125,18.1016592 C79.2926496,17.6017055 78.7926959,17.4017241 78.0927608,17.4017241 L75.792974,17.4017241 C75.6929833,17.4017241 75.6929833,17.4017241 75.6929833,17.5017148 L75.6929833,28.9006581 Z" id="形状" fill="#272C33"></path>
                                    <path d="M89.5916949,19.4015387 C90.4916114,19.4015387 91.1915466,19.6015201 91.8914817,19.9014923 C92.5914168,20.2014645 93.0913704,20.7014182 93.4913334,21.3013626 C93.8912963,21.9013069 94.0912777,22.6012421 94.0912777,23.3011772 L94.0912777,31.1004542 C94.0912777,31.2004449 94.0912777,31.2004449 93.991287,31.3004356 C93.991287,31.3004356 93.8912963,31.4004264 93.7913056,31.4004264 L91.6915002,31.4004264 C91.5915095,31.4004264 91.5915095,31.4004264 91.4915187,31.3004356 C91.4915187,31.2004449 91.391528,31.2004449 91.391528,31.1004542 L91.391528,30.5005098 C91.391528,30.5005098 91.391528,30.4005191 91.391528,30.4005191 C91.391528,30.4005191 91.2915373,30.4005191 91.2915373,30.4005191 C90.6915929,31.1004542 89.6916856,31.5004171 88.4917968,31.5004171 C87.4918895,31.5004171 86.5919729,31.2004449 85.8920378,30.7004913 C85.1921027,30.1005469 84.7921398,29.300621 84.7921398,28.0007415 C84.7921398,26.700862 85.1921027,25.7009547 85.9920285,25.1010103 C86.7919544,24.5010659 87.9918432,24.2010938 89.3917134,24.2010938 L91.1915466,24.2010938 C91.2915373,24.2010938 91.2915373,24.2010938 91.2915373,24.101103 L91.2915373,23.5011586 C91.2915373,22.9012143 91.0915558,22.5012513 90.7915836,22.2012791 C90.4916114,21.9013069 90.0916485,21.7013255 89.4917041,21.7013255 C89.0917412,21.7013255 88.6917783,21.8013162 88.3918061,22.0012977 C88.0918339,22.2012791 87.8918524,22.5012513 87.8918524,22.8012235 C87.8918524,23.001205 87.691871,23.1011957 87.5918802,23.1011957 L85.3920842,23.001205 C85.2920934,23.001205 85.2920934,23.001205 85.1921027,22.9012143 C85.1921027,22.8012235 85.092112,22.8012235 85.1921027,22.7012328 C85.2920934,21.7013255 85.6920564,20.9013996 86.5919729,20.3014553 C87.2919081,19.7015109 88.3918061,19.4015387 89.5916949,19.4015387 Z M89.0917412,29.4006118 C89.6916856,29.4006118 90.1916392,29.2006303 90.6915929,28.9006581 C91.0915558,28.5006952 91.391528,28.1007323 91.391528,27.5007879 L91.391528,26.3008991 C91.391528,26.2009084 91.391528,26.2009084 91.2915373,26.2009084 L89.7916763,26.2009084 C89.0917412,26.2009084 88.5917876,26.3008991 88.1918246,26.6008713 C87.7918617,26.9008435 87.5918802,27.3008064 87.5918802,27.9007508 C87.5918802,28.4007045 87.691871,28.8006674 87.9918432,29.0006488 C88.2918154,29.2006303 88.6917783,29.4006118 89.0917412,29.4006118 Z" id="形状" fill="#272C33"></path>
                                    <path d="M101.790564,21.3013626 C101.790564,21.4013533 101.790564,21.4013533 101.690573,21.501344 C101.690573,21.501344 101.590583,21.6013348 101.490592,21.6013348 L99.5907679,21.6013348 C99.4907772,21.6013348 99.4907772,21.6013348 99.4907772,21.7013255 L99.4907772,27.5007879 C99.4907772,28.1007323 99.5907679,28.5006952 99.7907494,28.7006766 C99.9907309,28.9006581 100.390694,29.0006488 100.890647,29.0006488 L101.29061,29.0006488 C101.390601,29.0006488 101.390601,29.0006488 101.490592,29.1006396 C101.590583,29.1006396 101.590583,29.2006303 101.590583,29.300621 L101.590583,31.1004542 C101.590583,31.3004356 101.490592,31.4004264 101.29061,31.4004264 L100.290703,31.4004264 C99.190805,31.4004264 98.2908884,31.2004449 97.6909441,30.800482 C97.0909997,30.4005191 96.7910275,29.6005932 96.7910275,28.5006952 L96.7910275,21.7013255 C96.7910275,21.6013348 96.7910275,21.6013348 96.6910368,21.6013348 L95.5911387,21.6013348 C95.491148,21.6013348 95.491148,21.6013348 95.3911573,21.501344 C95.3911573,21.4013533 95.2911665,21.4013533 95.2911665,21.3013626 L95.2911665,19.8015016 C95.2911665,19.7015109 95.2911665,19.7015109 95.3911573,19.6015201 C95.491148,19.5015294 95.491148,19.5015294 95.5911387,19.5015294 L96.6910368,19.5015294 C96.7910275,19.5015294 96.7910275,19.5015294 96.7910275,19.4015387 L96.7910275,16.8017797 C96.7910275,16.7017889 96.7910275,16.7017889 96.8910182,16.6017982 C96.9910089,16.5018075 96.9910089,16.5018075 97.0909997,16.5018075 L99.0908143,16.5018075 C99.190805,16.5018075 99.190805,16.5018075 99.2907958,16.6017982 C99.3907865,16.6017982 99.3907865,16.7017889 99.3907865,16.8017797 L99.3907865,19.4015387 C99.3907865,19.5015294 99.3907865,19.5015294 99.4907772,19.5015294 L101.390601,19.5015294 C101.490592,19.5015294 101.490592,19.5015294 101.590583,19.6015201 C101.690573,19.6015201 101.690573,19.7015109 101.690573,19.8015016 L101.690573,21.3013626 L101.790564,21.3013626 Z" id="路径" fill="#272C33"></path>
                                    <path d="M107.989989,19.4015387 C108.889906,19.4015387 109.689832,19.6015201 110.289776,19.9014923 C110.989711,20.2014645 111.489665,20.7014182 111.889628,21.3013626 C112.289591,21.9013069 112.489572,22.6012421 112.489572,23.3011772 L112.489572,31.1004542 C112.489572,31.2004449 112.489572,31.2004449 112.389581,31.3004356 C112.389581,31.3004356 112.289591,31.4004264 112.1896,31.4004264 L110.089795,31.4004264 C109.989804,31.4004264 109.989804,31.4004264 109.889813,31.3004356 C109.889813,31.2004449 109.789822,31.2004449 109.789822,31.1004542 L109.789822,30.5005098 C109.789822,30.5005098 109.789822,30.4005191 109.789822,30.4005191 C109.789822,30.4005191 109.689832,30.4005191 109.689832,30.4005191 C109.089887,31.1004542 108.08998,31.5004171 106.890091,31.5004171 C105.890184,31.5004171 104.990267,31.2004449 104.290332,30.7004913 C103.590397,30.1005469 103.190434,29.300621 103.190434,28.0007415 C103.190434,26.700862 103.590397,25.7009547 104.390323,25.1010103 C105.190249,24.5010659 106.390138,24.2010938 107.790008,24.2010938 L109.589841,24.2010938 C109.689832,24.2010938 109.689832,24.2010938 109.689832,24.101103 L109.689832,23.5011586 C109.689832,22.9012143 109.48985,22.5012513 109.189878,22.2012791 C108.889906,21.9013069 108.489943,21.7013255 107.889999,21.7013255 C107.490036,21.7013255 107.090073,21.8013162 106.790101,22.0012977 C106.490128,22.2012791 106.290147,22.5012513 106.290147,22.8012235 C106.290147,23.001205 106.090165,23.1011957 105.990175,23.1011957 L103.790379,23.001205 C103.690388,23.001205 103.690388,23.001205 103.590397,22.9012143 C103.590397,22.8012235 103.490406,22.8012235 103.590397,22.7012328 C103.690388,21.7013255 104.090351,20.9013996 104.990267,20.3014553 C105.790193,19.7015109 106.790101,19.4015387 107.989989,19.4015387 Z M107.590026,29.4006118 C108.189971,29.4006118 108.689924,29.2006303 109.189878,28.9006581 C109.589841,28.5006952 109.889813,28.1007323 109.889813,27.5007879 L109.889813,26.3008991 C109.889813,26.2009084 109.889813,26.2009084 109.789822,26.2009084 L108.289962,26.2009084 C107.590026,26.2009084 107.090073,26.3008991 106.69011,26.6008713 C106.290147,26.9008435 106.090165,27.3008064 106.090165,27.9007508 C106.090165,28.4007045 106.190156,28.8006674 106.490128,29.0006488 C106.69011,29.2006303 107.090073,29.4006118 107.590026,29.4006118 Z" id="形状" fill="#272C33"></path>
                                </g>
                            </g>
                        </g>
                    </g>
                </g>
            </g>
        </g>
    </g>
</svg>