<?xml version="1.0" encoding="UTF-8"?>
<svg width="190px" height="60px" viewBox="0 0 190 60" version="1.1" xmlns="http://www.w3.org/2000/svg" xmlns:xlink="http://www.w3.org/1999/xlink">
    <title>Math Wallet</title>
    <defs>
        <rect id="path-1" x="0" y="0" width="190" height="60"></rect>
    </defs>
    <g id="NFT交易市场" stroke="none" stroke-width="1" fill="none" fill-rule="evenodd">
        <g id="Home首页" transform="translate(-1143.000000, -3432.000000)">
            <g id="编组-33" transform="translate(0.000000, 3191.000000)">
                <g id="编组-32" transform="translate(432.000000, 70.000000)">
                    <g id="编组-29" transform="translate(0.000000, 81.000000)">
                        <g id="Math-Wallet" transform="translate(711.000000, 90.000000)">
                            <mask id="mask-2" fill="white">
                                <use xlink:href="#path-1"></use>
                            </mask>
                            <g id="蒙版"></g>
                            <g mask="url(#mask-2)" fill="#000000" fill-rule="nonzero" id="Combined-Shape">
                                <g transform="translate(0.000000, 21.000000)">
                                    <path d="M49.5573065,17.0504657 L49.5573065,2.41807671 L52.2963744,2.41807671 L56.7473597,9.33782715 L61.201949,2.41807671 L63.9374129,2.41807671 L63.9374129,17.0504657 L61.3677347,17.0504657 L61.3677347,6.55551082 L56.7473597,13.453637 L56.6644668,13.453637 L52.0873402,6.60596734 L52.0873402,17.0576737 L49.5573065,17.0504657 Z M70.5508202,17.281124 C68.4821031,17.281124 66.6404404,16.0881879 66.6404404,13.8717053 L66.6404404,13.8320609 C66.6404404,11.4497926 68.5001233,10.2784807 71.1995468,10.2784807 C72.2065671,10.2687252 73.2084337,10.4233267 74.165669,10.7361934 L74.165669,10.4658906 C74.165669,8.89813467 73.2033912,8.06199816 71.4266011,8.06199816 C70.3384817,8.0650398 69.2634772,8.29969792 68.273069,8.75036917 L67.6027182,6.76454495 C68.9028679,6.15325865 70.3252432,5.84635099 71.7617765,5.86713982 C73.4124253,5.86713982 74.6450059,6.30683229 75.4198738,7.09972036 C76.1947417,7.89260844 76.6128099,9.06392036 76.6128099,10.5091391 L76.6128099,17.0504657 L74.1440448,17.0504657 L74.1440448,15.6701196 C73.2616316,16.7370007 71.9345626,17.3346476 70.5508202,17.2883321 L70.5508202,17.281124 Z M71.2716275,15.4394613 C72.9439006,15.4394613 74.2197296,14.4807875 74.2197296,13.0788172 L74.2197296,12.3255736 C73.4125785,12.026607 72.5576043,11.8775972 71.6969039,11.8858811 C70.0642753,11.8858811 69.1056015,12.5778561 69.1056015,13.7275438 L69.1056015,13.7671882 C69.1092055,14.8339831 70.0498591,15.4394613 71.2608154,15.4394613 L71.2716275,15.4394613 Z M83.2118011,17.2414796 C81.3521182,17.2414796 80.0366448,16.4269673 80.0366448,13.9978466 L80.0366448,8.18813945 L78.6346745,8.18813945 L78.6346745,6.02571743 L80.0114165,6.02571743 L80.0114165,2.98391047 L82.5342422,2.98391047 L82.5342422,6.01490532 L85.5003644,6.01490532 L85.5003644,8.17732733 L82.5342422,8.17732733 L82.5342422,13.5833824 C82.5342422,14.5672844 83.0352033,14.9637284 83.892964,14.9637284 C84.4383429,14.9652047 84.9760675,14.8354091 85.46072,14.5853046 L85.46072,16.6756458 C84.771561,17.0624016 83.991033,17.2565999 83.200989,17.2378756 L83.2118011,17.2414796 Z M88.0700425,17.0540697 L88.0700425,1.79097432 L90.5928682,1.79097432 L90.5928682,7.70519853 C91.3136756,6.68165211 92.3300139,5.78424697 94.0419313,5.78424697 C96.5323207,5.78424697 97.9739354,7.45652 97.9739354,10.0045739 L97.9739354,17.0504657 L95.4511097,17.0504657 L95.4511097,10.7794418 C95.4511097,9.06392036 94.593349,8.08362238 93.0904657,8.08362238 C91.5875824,8.08362238 90.6000763,9.1071688 90.6000763,10.8226903 L90.6000763,17.0504657 L88.0700425,17.0540697 Z M111.496281,17.1585868 L106.382153,2.41807671 L109.160865,2.41807671 L112.653177,13.2662271 L116.257213,2.37482827 L118.419636,2.37482827 L122.023672,13.2662271 L125.515984,2.41807671 L128.211803,2.41807671 L123.130111,17.1549827 L120.895609,17.1549827 L117.291572,6.64200771 L113.687535,17.1549827 L111.496281,17.1585868 Z M132.237512,17.284728 C130.154379,17.2883321 128.305508,16.0881879 128.305508,13.8717053 L128.305508,13.8320609 C128.305508,11.4497926 130.168795,10.2784807 132.864615,10.2784807 C133.871658,10.2684023 134.873577,10.4230119 135.830737,10.7361934 L135.830737,10.4658906 C135.830737,8.89813467 134.872063,8.06199816 133.095273,8.06199816 C132.00595,8.06463849 130.929687,8.29930322 129.938137,8.75036917 L129.267786,6.76454495 C130.568058,6.15362008 131.990349,5.84673063 133.426844,5.86713982 C135.081097,5.86713982 136.310074,6.30683229 137.084942,7.09972036 C137.859809,7.89260844 138.277878,9.06392036 138.277878,10.5091391 L138.277878,17.0504657 L135.812717,17.0504657 L135.812717,15.6701196 C134.92973,16.7341992 133.605153,17.3313225 132.223096,17.2883321 L132.237512,17.284728 Z M132.95832,15.4430653 C134.630593,15.4430653 135.906422,14.4843915 135.906422,13.0824213 L135.906422,12.3255736 C135.09927,12.026607 134.244296,11.8775972 133.383596,11.8858811 C131.754571,11.8858811 130.792293,12.5778561 130.792293,13.7275438 L130.792293,13.7671882 C130.781481,14.8339831 131.722135,15.4394613 132.933091,15.4394613 L132.95832,15.4430653 Z M141.453034,17.0540697 L141.453034,1.79097432 L143.97586,1.79097432 L143.97586,17.0504657 L141.453034,17.0540697 Z M147.392486,17.0540697 L147.392486,1.79097432 L149.915312,1.79097432 L149.915312,17.0504657 L147.392486,17.0540697 Z M158.219013,17.2883321 C155.022232,17.2883321 152.553467,14.9673325 152.553467,11.5579137 L152.553467,11.5218734 C152.553467,8.36473724 154.791574,5.75541468 157.959522,5.75541468 C161.469854,5.75541468 163.246644,8.51250275 163.246644,11.6912631 C163.246644,11.9219215 163.22502,12.1525798 163.206999,12.4120704 L155.087105,12.4120704 C155.361012,14.2140888 156.633237,15.212407 158.265865,15.212407 C159.403525,15.218699 160.490053,14.7403121 161.253612,13.8969336 L162.738475,15.212407 C161.640453,16.5742696 159.967546,17.3426861 158.219013,17.2883321 L158.219013,17.2883321 Z M155.061877,10.7434015 L160.741838,10.7434015 C160.576053,9.11437687 159.613775,7.83854789 157.941502,7.83854789 C156.384558,7.85296403 155.296139,9.04590018 155.065481,10.7578176 L155.061877,10.7434015 Z M169.449191,17.2306675 C167.589508,17.2306675 166.274035,16.4161552 166.274035,13.9870345 L166.274035,8.18813945 L164.872064,8.18813945 L164.872064,6.02571743 L166.274035,6.02571743 L166.274035,2.98391047 L168.79686,2.98391047 L168.79686,6.01490532 L171.762983,6.01490532 L171.762983,8.17732733 L168.79686,8.17732733 L168.79686,13.5833824 C168.79686,14.5672844 169.297821,14.9637284 170.155582,14.9637284 C170.700961,14.9652047 171.238686,14.8354091 171.723338,14.5853046 L171.723338,16.6756458 C171.031005,17.0642919 170.246485,17.2585539 169.452795,17.2378756 L169.449191,17.2306675 Z M29.3206405,7.29073431 C28.7192008,6.69000382 28.5389806,5.78606587 28.8640539,5.00061433 C29.1891272,4.21516278 29.9554408,3.70296493 30.8055036,3.70296493 C31.6555664,3.70296493 32.42188,4.21516278 32.7469533,5.00061433 C33.0720266,5.78606587 32.8918064,6.69000382 32.2903667,7.29073431 C31.8968648,7.6851248 31.362628,7.90676592 30.8055036,7.90676592 C30.2483792,7.90676592 29.7141424,7.6851248 29.3206405,7.29073431 L29.3206405,7.29073431 Z M22.2603326,14.3474381 C21.6467198,13.7318574 21.6477833,12.7355624 22.2627087,12.1212929 C22.8776342,11.5070235 23.8739297,11.5070235 24.4888552,12.1212929 C25.1037807,12.7355624 25.1048441,13.7318574 24.4912313,14.3474381 C23.874938,14.9628856 22.876626,14.9628856 22.2603326,14.3474381 L22.2603326,14.3474381 Z M33.4076181,10.6352804 C32.9571696,10.1848483 32.8224117,9.5074237 33.0661829,8.91889289 C33.309954,8.33036208 33.8842467,7.94662817 34.5212654,7.94662817 C35.1582842,7.94662817 35.7325769,8.33036208 35.976348,8.91889289 C36.2201191,9.5074237 36.0853613,10.1848483 35.6349128,10.6352804 C35.0190358,11.2483323 34.023495,11.2483323 33.4076181,10.6352804 Z M29.6918563,14.3474381 C29.2414077,13.8970061 29.1066499,13.2195815 29.350421,12.6310507 C29.5941922,12.0425199 30.1684849,11.658786 30.8055036,11.658786 C31.4425223,11.658786 32.016815,12.0425199 32.2605862,12.6310507 C32.5043573,13.2195815 32.3695995,13.8970061 31.9191509,14.3474381 C31.6242607,14.6436749 31.2234946,14.8102126 30.8055036,14.8102126 C30.3875126,14.8102126 29.9867465,14.6436749 29.6918563,14.3474381 L29.6918563,14.3474381 Z M37.4909917,13.9870345 C37.0800849,13.5760289 37.0801383,12.9097456 37.4911109,12.4988059 C37.9020836,12.0878662 38.5683669,12.0878662 38.9793395,12.4988059 C39.3903122,12.9097456 39.3903656,13.5760289 38.9794588,13.9870345 C38.7808443,14.1861463 38.5105829,14.297147 38.229355,14.295114 C37.9481272,14.293081 37.6794987,14.1781848 37.4837836,13.9762224 L37.4909917,13.9870345 Z M33.7788339,17.6919842 C33.3699415,17.2821685 33.3704405,16.6185513 33.7799486,16.2093509 C34.1894567,15.8001506 34.8530742,15.8001506 35.2625823,16.2093509 C35.6720904,16.6185513 35.6725893,17.2821685 35.263697,17.6919842 C35.066946,17.8891794 34.7998276,18 34.5212654,18 C34.2427032,18 33.9755848,17.8891794 33.7788339,17.6919842 L33.7788339,17.6919842 Z M25.5904625,11.0064961 C24.7706633,10.1856748 24.7712156,8.85577401 25.5916964,8.03563391 C26.4121772,7.21549381 27.7420781,7.21549381 28.5625589,8.03563391 C29.3830397,8.85577401 29.383592,10.1856748 28.5637928,11.0064961 C28.1696751,11.4011052 27.6348418,11.6228356 27.0771276,11.6228356 C26.5194135,11.6228356 25.9845802,11.4011052 25.5904625,11.0064961 L25.5904625,11.0064961 Z M25.5904625,3.59299267 C24.7706633,2.77217131 24.7712156,1.44227054 25.5916964,0.622130442 C26.4121772,-0.198009657 27.7420781,-0.198009657 28.5625589,0.622130442 C29.3830397,1.44227054 29.383592,2.77217131 28.5637928,3.59299267 C28.170147,3.98848889 27.6351369,4.21083257 27.0771276,4.21083257 C26.5191184,4.21083257 25.9841083,3.98848889 25.5904625,3.59299267 L25.5904625,3.59299267 Z M21.8891168,7.29073431 C21.0693176,6.46991295 21.0698699,5.14001218 21.8903507,4.31987208 C22.7108315,3.49973199 24.0407324,3.49973199 24.8612132,4.31987208 C25.681694,5.14001218 25.6822464,6.46991295 24.8624471,7.29073431 C24.0408609,8.11053142 22.710703,8.11053142 21.8891168,7.29073431 L21.8891168,7.29073431 Z M14.4179488,7.29073431 C13.5981495,6.46991295 13.5987019,5.14001218 14.4191827,4.31987208 C15.2396635,3.49973199 16.5695643,3.49973199 17.3900451,4.31987208 C18.2105259,5.14001218 18.2110783,6.46991295 17.391279,7.29073431 C16.9976332,7.68623053 16.4626231,7.90857421 15.9046139,7.90857421 C15.3466047,7.90857421 14.8115946,7.68623053 14.4179488,7.29073431 L14.4179488,7.29073431 Z M7.36845301,14.3474381 C6.91800448,13.8970061 6.78324666,13.2195815 7.02701779,12.6310507 C7.27078892,12.0425199 7.84508161,11.658786 8.48210035,11.658786 C9.11911909,11.658786 9.69341178,12.0425199 9.93718291,12.6310507 C10.180954,13.2195815 10.0461962,13.8970061 9.59574768,14.3474381 C9.30085741,14.6436749 8.90009136,14.8102126 8.48210035,14.8102126 C8.06410934,14.8102126 7.66334329,14.6436749 7.36845301,14.3474381 Z M18.5121345,10.6352804 C18.0616859,10.1848483 17.9269281,9.5074237 18.1706992,8.91889289 C18.4144704,8.33036208 18.988763,7.94662817 19.6257818,7.94662817 C20.2628005,7.94662817 20.8370932,8.33036208 21.0808643,8.91889289 C21.3246355,9.5074237 21.1898777,10.1848483 20.7394291,10.6352804 C20.1235522,11.2483323 19.1280114,11.2483323 18.5121345,10.6352804 Z M14.7963726,14.3474381 C14.1827599,13.7318574 14.1838233,12.7355624 14.7987487,12.1212929 C15.4136742,11.5070235 16.4099698,11.5070235 17.0248952,12.1212929 C17.6398207,12.7355624 17.6408841,13.7318574 17.0272713,14.3474381 C16.7322393,14.6447833 16.3306991,14.8120258 15.911822,14.8120258 C15.4929449,14.8120258 15.0914047,14.6447833 14.7963726,14.3474381 Z M0.308145137,13.9870345 C-0.102761619,13.5760289 -0.102708221,12.9097456 0.308264408,12.4988059 C0.719237037,12.0878662 1.38552039,12.0878662 1.79649302,12.4988059 C2.20746565,12.9097456 2.20751905,13.5760289 1.79661229,13.9870345 C1.38182855,14.3931774 0.716985037,14.388348 0.308145137,13.9762224 L0.308145137,13.9870345 Z M4.02390696,17.6919842 C3.61501462,17.2821685 3.61551355,16.6185513 4.02502167,16.2093509 C4.43452979,15.8001506 5.09814725,15.8001506 5.50765537,16.2093509 C5.91716349,16.6185513 5.91766243,17.2821685 5.50877008,17.6919842 C5.31201911,17.8891794 5.04490074,18 4.76633852,18 C4.4877763,18 4.22065793,17.8891794 4.02390696,17.6919842 L4.02390696,17.6919842 Z M18.8833502,17.6919842 C18.4744579,17.2821685 18.4749568,16.6185513 18.8844649,16.2093509 C19.2939731,15.8001506 19.9575905,15.8001506 20.3670986,16.2093509 C20.7766068,16.6185513 20.7771057,17.2821685 20.3682133,17.6919842 C20.1714624,17.8891794 19.904344,18 19.6257818,18 C19.3472196,18 19.0801012,17.8891794 18.8833502,17.6919842 L18.8833502,17.6919842 Z M3.65269118,10.6352804 C3.20224266,10.1848483 3.06748484,9.5074237 3.31125596,8.91889289 C3.55502709,8.33036208 4.12931978,7.94662817 4.76633852,7.94662817 C5.40335726,7.94662817 5.97764995,8.33036208 6.22142108,8.91889289 C6.4651922,9.5074237 6.33043439,10.1848483 5.87998586,10.6352804 C5.26410894,11.2483323 4.2685681,11.2483323 3.65269118,10.6352804 L3.65269118,10.6352804 Z M10.709395,10.995684 C9.88959576,10.1748627 9.89014811,8.8449619 10.7106289,8.0248218 C11.5311097,7.2046817 12.8610106,7.2046817 13.6814914,8.0248218 C14.5019722,8.8449619 14.5025245,10.1748627 13.6827253,10.995684 C12.8632994,11.816502 11.5347688,11.821333 10.709395,11.0064961 L10.709395,10.995684 Z M10.709395,3.56416037 C9.90350691,2.73341586 9.9211984,1.40738247 10.7489627,0.598433593 C11.5767271,-0.210515286 12.9028167,-0.197718281 13.7148154,0.627054607 C14.526814,1.4518275 14.5189116,2.77795535 13.6971414,3.59299267 C13.3019776,3.99113908 12.7642272,4.21506784 12.2032682,4.21506784 C11.6423092,4.21506784 11.1045588,3.99113908 10.709395,3.59299267 L10.709395,3.56416037 Z M6.99723723,7.29073431 C6.39579758,6.69000382 6.21557736,5.78606587 6.54065066,5.00061433 C6.86572396,4.21516278 7.63203754,3.70296493 8.48210035,3.70296493 C9.33216316,3.70296493 10.0984767,4.21516278 10.42355,5.00061433 C10.7486233,5.78606587 10.5684031,6.69000382 9.96696346,7.29073431 C9.57346153,7.6851248 9.03922478,7.90676592 8.48210035,7.90676592 C7.92497591,7.90676592 7.39073917,7.6851248 6.99723723,7.29073431 Z"></path>
                                </g>
                            </g>
                        </g>
                    </g>
                </g>
            </g>
        </g>
    </g>
</svg>