<?xml version="1.0" encoding="UTF-8"?>
<svg width="30px" height="30px" viewBox="0 0 30 30" version="1.1" xmlns="http://www.w3.org/2000/svg" xmlns:xlink="http://www.w3.org/1999/xlink">
    <title>Mint</title>
    <defs>
        <rect id="path-1" x="0" y="0" width="30" height="30"></rect>
        <filter color-interpolation-filters="auto" id="filter-3">
            <feColorMatrix in="SourceGraphic" type="matrix" values="0 0 0 0 0.094118 0 0 0 0 0.231373 0 0 0 0 0.337255 0 0 0 1.000000 0"></feColorMatrix>
        </filter>
    </defs>
    <g id="页面-1" stroke="none" stroke-width="1" fill="none" fill-rule="evenodd">
        <g id="Item-details详情页" transform="translate(-531.000000, -3315.000000)">
            <g id="编组-14备份-4" transform="translate(431.000000, 3059.000000)">
                <g id="编组-17备份-2" transform="translate(50.000000, 241.000000)">
                    <g id="Mint" transform="translate(50.000000, 15.000000)">
                        <mask id="mask-2" fill="white">
                            <use xlink:href="#path-1"></use>
                        </mask>
                        <g id="蒙版"></g>
                        <g filter="url(#filter-3)" id="mining">
                            <g mask="url(#mask-2)">
                                <g transform="translate(0.201983, -0.000035)" fill="#000000" fill-rule="nonzero">
                                    <polygon id="路径" points="21.9670791 3.25427293 23.7248916 3.25427293 23.7248916 5.01208543 21.9670791 5.01208543"></polygon>
                                    <polygon id="路径备份-2" points="15.9670791 19.2542729 17.7248916 19.2542729 17.7248916 21.0120854 15.9670791 21.0120854"></polygon>
                                    <polygon id="路径" points="17.0245791 0.234409653 18.7823916 0.234409653 18.7823916 1.99222215 17.0245791 1.99222215"></polygon>
                                    <polygon id="路径" points="1.7980166 5.91804247 3.5558291 5.91804247 3.5558291 7.67585497 1.7980166 7.67585497"></polygon>
                                    <polygon id="路径" points="27.1612978 3.46529223e-05 28.9191103 3.46529223e-05 28.9191103 1.75784715 27.1612978 1.75784715"></polygon>
                                    <polygon id="路径备份-3" points="25.1612978 10.0000347 26.9191103 10.0000347 26.9191103 11.7578472 25.1612978 11.7578472"></polygon>
                                    <polygon id="路径" points="8.7980166 29.3420268 16.1861025 29.3420268 16.1861025 27.0000347 13.8644578 25.3076677 10.5669619 27.0000347"></polygon>
                                    <polygon id="路径" points="19.2405947 23.0000347 17.7980166 24.8305034 17.7980166 29.2109722 29.0843447 29.2109722 26.4614565 25.359019 22.0929385 25.359019"></polygon>
                                    <path d="M17.0245791,4.13317918 L20.7699711,8.02110719 L3.60691557,24.1051756 L0,20.1331792 L17.0245791,4.13317918 Z M21.6061047,9.17792879 C22.9299442,11.7625384 24.8399897,16.6898804 24.7973755,21.1762603 L24.7973755,21.1762603 L24.4519834,21.5218457 C24.4519834,21.5218457 21.543257,17.1960266 17.9034853,12.88538 L17.9034853,12.88538 Z M3.60691557,0.0006788086 C8.08805552,-0.0419592687 13.1028787,1.93354274 15.6911499,3.25427293 L15.6911499,3.25427293 L12.0389114,6.79694872 C7.89483124,3.29944962 3.60494751,0.563889946 3.28108675,0.358636095 L3.26152353,0.346264276 Z" id="形状结合"></path>
                                </g>
                            </g>
                        </g>
                    </g>
                </g>
            </g>
        </g>
    </g>
</svg>