<?xml version="1.0" encoding="UTF-8"?>
<svg width="90px" height="90px" viewBox="0 0 90 90" version="1.1" xmlns="http://www.w3.org/2000/svg" xmlns:xlink="http://www.w3.org/1999/xlink">
    <title>NoData</title>
    <defs>
        <rect id="path-1" x="0" y="0" width="90" height="90"></rect>
    </defs>
    <g id="导航" stroke="none" stroke-width="1" fill="none" fill-rule="evenodd">
        <g transform="translate(-390.000000, -2056.000000)" id="NoData">
            <g transform="translate(390.000000, 2056.000000)">
                <mask id="mask-2" fill="white">
                    <use xlink:href="#path-1"></use>
                </mask>
                <g id="蒙版"></g>
                <g id="编组-27" mask="url(#mask-2)">
                    <g transform="translate(1.747573, 0.155073)">
                        <g id="编组-26" stroke-width="1" fill="none">
                            <path d="M1.9523665,6.38740309 L7.16231796,6.38740309 C7.51972796,6.38740309 7.80946602,6.67714114 7.80946602,7.03455115 C7.80946602,7.39196115 7.51972796,7.68169921 7.16231796,7.68169921 L1.9523665,7.68169921 C1.5949565,7.68169921 1.30521845,7.39196115 1.30521845,7.03455115 C1.30521845,6.67714114 1.5949565,6.38740309 1.9523665,6.38740309 L1.9523665,6.38740309 Z" id="路径" fill="#CEDCE7" fill-rule="nonzero"></path>
                            <path d="M4.56007282,3.7769662 C4.91777913,3.7769662 5.20995146,4.06913853 5.20995146,4.42684484 L5.20995146,9.63406571 C5.20995146,9.99222974 4.91960214,10.2825791 4.56143811,10.2825791 C4.20327407,10.2825791 3.91292476,9.99222974 3.91292476,9.63406571 L3.91292476,4.42684484 C3.91292476,4.06913853 4.2023665,3.7769662 4.56007282,3.7769662 Z" id="路径" fill="#CEDCE7" fill-rule="nonzero"></path>
                            <path d="M33.9111044,4.14559484 L36.4232403,4.82004872 C36.6485908,4.8805324 36.8245555,5.05664467 36.8848504,5.28204574 C36.9451452,5.50744681 36.8806099,5.74789291 36.7155543,5.9128103 C36.5504986,6.0777277 36.3099985,6.14206152 36.0846481,6.08157785 L33.5697816,5.40712396 C33.2214199,5.31287027 33.0154247,4.95405964 33.1096784,4.60569799 C33.2039321,4.25733634 33.5627427,4.05134114 33.9111044,4.14559484 L33.9111044,4.14559484 Z" id="路径" fill="#CEDCE7" fill-rule="nonzero"></path>
                            <path d="M38.5476335,0.486614255 L39.2220874,3.00421134 C39.2830588,3.22956182 39.2191757,3.47032212 39.0545022,3.63580018 C38.8898287,3.80127824 38.6493826,3.866334 38.4237376,3.80646159 C38.1980927,3.74658918 38.0215297,3.57088463 37.9605583,3.34553416 L37.2861044,0.822475905 C37.2402419,0.654804971 37.2631675,0.475765598 37.3497976,0.325060096 C37.4364276,0.174354593 37.5796024,0.0644380436 37.7475728,0.0196846432 C38.0975771,-0.0671870466 38.4528857,0.141390041 38.5476335,0.489344837 L38.5476335,0.486614255 Z" id="路径" fill="#CEDCE7" fill-rule="nonzero"></path>
                            <path d="M44.0306432,2.67108027 L42.1875,4.5114929 C42.0659387,4.63439364 41.9002602,4.70355229 41.7273968,4.70355229 C41.5545335,4.70355229 41.388855,4.63439364 41.2672937,4.5114929 C41.1443929,4.38993159 41.0752343,4.22425311 41.0752343,4.05138974 C41.0752343,3.87852637 41.1443929,3.71284789 41.2672937,3.59128658 L43.1077063,1.75087396 C43.2293705,1.62712772 43.3956371,1.55743008 43.5691748,1.55743008 C43.7427124,1.55743008 43.908979,1.62712772 44.0306432,1.75087396 C44.153544,1.87243526 44.2227026,2.03811375 44.2227026,2.21097712 C44.2227026,2.38384049 44.153544,2.54951897 44.0306432,2.67108027 L44.0306432,2.67108027 Z" id="路径" fill="#CEDCE7" fill-rule="nonzero"></path>
                            <path d="M80.038835,9.51391624 C81.6206074,9.51171129 83.0479079,10.4627023 83.6550121,11.92333 C84.2621163,13.3839578 83.9294262,15.066482 82.8121157,16.1861365 C81.6948052,17.305791 80.0129819,17.6420065 78.551085,17.0379646 C77.0891882,16.4339228 76.1352081,15.0086184 76.1341019,13.4268448 C76.1341019,11.2614929 77.8816748,9.51391624 80.038835,9.51391624 Z M80.038835,10.8109468 C78.5978845,10.8109468 77.4297633,11.9790679 77.4297633,13.4200184 C77.4297633,14.8609688 78.5978845,16.02909 80.038835,16.02909 L80.038835,16.02909 C81.4790314,16.0263594 82.6465413,14.8588495 82.6465413,13.4186531 C82.6465413,11.9784567 81.4790314,10.8109468 80.038835,10.8109468 Z" id="形状结合" fill="#CEDCE7" fill-rule="nonzero"></path>
                            <polygon id="路径" fill="#CBD8E2" fill-rule="nonzero" points="78.1711165 35.4954128 39.0855583 30.2881919 39.0855583 50.9423181 78.1711165 55.0436531"></polygon>
                            <polygon id="路径" fill="#BCC9D3" fill-rule="nonzero" points="7.81765777 37.0491143 39.0855583 30.2881919 39.0855583 53.7384346 7.81765777 60.499357"></polygon>
                            <path d="M42.4059466,15.1361895 C32.0152268,15.1361895 23.592233,23.5591833 23.592233,33.9490498 C23.592233,44.3389163 32.0152268,52.7619101 42.4059466,52.7619101 C52.7966664,52.7619101 61.2196602,44.3389163 61.2196602,33.9490498 C61.2196602,23.5591833 52.7966664,15.1361895 42.4059466,15.1361895 Z" id="路径" fill="#566FFE" fill-rule="nonzero"></path>
                            <path d="M42.3641346,21.3013329 C43.8053701,21.3013329 45.2841512,22.4686569 45.2841512,23.9090392 L44.5272679,34.7818775 C44.5272679,36.2222597 43.7874507,37.3904371 42.3462151,37.3904371 C40.9075394,37.3904371 40.2453732,36.2214064 40.2453732,34.7818775 L39.4884883,23.9090392 C39.4867832,22.4686569 40.9220457,21.3013329 42.3641346,21.3013329 L42.3641346,21.3013329 Z" id="路径" fill="#FFFFFF" fill-rule="nonzero"></path>
                            <path d="M42.4511719,45.5727983 C40.823062,45.5727983 39.505556,44.2544389 39.505556,42.6263291 C39.505556,40.9982192 40.823062,39.6755933 42.4511719,39.6755933 C44.0792817,39.6755933 45.4019076,40.9982192 45.4019076,42.6263291 C45.4019076,44.2544389 44.0792817,45.5727983 42.4511719,45.5727983 Z" id="路径" fill="#FFFFFF" fill-rule="nonzero"></path>
                            <polygon id="路径" fill="#CFDAE2" fill-rule="nonzero" points="44.2955097 44.8640414 78.1711165 35.4954128 78.1711165 79.7909225 44.2955097 89.1595511"></polygon>
                            <polygon id="路径" fill="#D9E3EB" fill-rule="nonzero" points="7.81765777 37.0491143 44.2955097 44.8640414 44.2955097 88.9219905 7.81765777 80.0475973"></polygon>
                            <polygon id="路径" fill="#EAF3F8" fill-rule="nonzero" points="44.2955097 44.7957769 7.81765777 37.0491143 0 52.6816992 37.7830704 61.5560924"></polygon>
                            <polygon id="路径" fill="#DDE8F0" fill-rule="nonzero" points="44.2955097 44.8640414 78.1711165 35.4954128 87.2939927 51.1307283 54.7208738 61.8045754"></polygon>
                            <path d="M62.6231796,36.6559104 C62.6231796,36.6559104 64.0703883,27.5166507 71.6422937,22.9647696 C71.6422937,22.9647696 72.3085558,23.7156798 73.6192354,25.4031798 C73.6192354,25.4031798 70.1759709,24.8570633 62.6231796,36.6559104 Z" id="路径" fill="#CFDAE2" fill-rule="nonzero"></path>
                            <path d="M49.5382282,24.4857041 C49.5382282,24.4857041 49.682949,19.4805463 53.3473908,8.18412639 C53.3473908,8.18412639 54.0136529,8.93503658 55.3270631,10.6225366 C55.3270631,10.6225366 53.9453883,11.8239929 49.5382282,24.4857041 Z" id="路径" fill="#D5E1EA" fill-rule="nonzero"></path>
                            <path d="M28.5018204,28.8245997 C28.5018204,28.8245997 24.3759102,16.7008133 14.2727549,11.2287259 C14.2727549,11.2287259 12.5852549,13.5906798 10.7339156,14.34159 C10.7257282,14.34159 22.3552791,18.3883133 28.5018204,28.8245997 L28.5018204,28.8245997 Z" id="路径" fill="#D5E1EA" fill-rule="nonzero"></path>
                        </g>
                        <path d="M22.2429899,69.2666431 C22.2068925,69.2919998 22.1724307,69.319648 22.1391954,69.3489301 C22.1032149,69.3743272 22.0686363,69.401905 22.0354594,69.4311505 C21.9995373,69.4564486 21.9649587,69.4839788 21.9317234,69.5131648 C21.8957429,69.5384688 21.8612227,69.5658992 21.8280458,69.5950485 C21.7920653,69.62037 21.757545,69.6477529 21.7243098,69.6768426 C21.6883293,69.7020536 21.6538674,69.7294007 21.6205738,69.7584307 C21.5845933,69.783659 21.550073,69.810947 21.5168378,69.8399404 C21.4809157,69.8650701 21.4463954,69.8923107 21.4131602,69.921256 C21.3771797,69.9463276 21.3426594,69.9735844 21.3094242,70.002418 C21.2734436,70.0275066 21.2389234,70.0546523 21.2057466,70.0835131 C21.1697076,70.1084799 21.1352458,70.1356534 21.1019521,70.1643792 C21.0659716,70.1893746 21.0315098,70.2164372 20.9982745,70.2451901 C20.962294,70.2700756 20.9278322,70.2971542 20.8945385,70.3258471 C20.858558,70.3506861 20.8240962,70.3777172 20.7908025,70.4062987 C20.754822,70.4310911 20.7203017,70.4580629 20.6871249,70.4866201 C20.6511444,70.511366 20.6166241,70.5383535 20.5834473,70.5668626 C20.54735,70.5915383 20.5128881,70.618427 20.4796529,70.6468761 C20.4436724,70.6715922 20.4092105,70.6984334 20.3759753,70.7267714 C20.3399948,70.7514409 20.3055329,70.7782347 20.2721808,70.8065637 C20.2362003,70.8311867 20.2017385,70.8579329 20.1685032,70.8861749 C20.1325227,70.9107513 20.0980609,70.9374501 20.0648256,70.965707 C20.0287867,70.9901619 19.9943249,71.0168761 19.9610312,71.0450101 C19.9250507,71.0694933 19.8905888,71.0960972 19.8573536,71.1241952 C19.8213731,71.1486318 19.7869112,71.1751883 19.7535592,71.2032768 C19.7176371,71.227679 19.6831752,71.2541252 19.6498816,71.2821778 C19.6139595,71.3065335 19.5794976,71.332995 19.546204,71.3609994 C19.5101651,71.3852842 19.4757616,71.4117104 19.442468,71.4396042 C19.4064875,71.4638546 19.3720256,71.4902211 19.3387319,71.5181294 C19.3028098,71.5423455 19.2682896,71.5686523 19.2349959,71.59645 C19.1990154,71.6206073 19.1645536,71.6468789 19.1312599,71.674691 C19.0953378,71.6988139 19.060876,71.7250381 19.0275823,71.7527397 C18.9916602,71.7768162 18.9571984,71.8030552 18.9238463,71.8306964 C18.8878658,71.854714 18.8534039,71.8808432 18.8201103,71.9084488 C18.8086619,71.9161002 18.7976809,71.9243469 18.7865246,71.932306 C18.7865246,71.9303776 18.7864078,71.9283622 18.7864078,71.9263716 C18.7885689,71.8879506 18.7899708,71.8490564 18.7899708,71.8095542 C18.7899708,71.7991032 18.7893867,71.7886534 18.7892699,71.7781779 C18.791431,71.7396908 18.7928913,71.7008061 18.7928913,71.6613029 C18.7928913,71.6508516 18.7922488,71.6404523 18.7921319,71.6299766 C18.7942931,71.5914858 18.7957534,71.552536 18.7957534,71.5129696 C18.7957534,71.5025803 18.7951693,71.4921315 18.794994,71.4817057 C18.7971552,71.4432111 18.7986154,71.4042584 18.7986154,71.364691 C18.7986154,71.3543014 18.7980313,71.3439153 18.7979145,71.3335638 C18.8000757,71.294941 18.8015359,71.2560476 18.8015359,71.2163547 C18.8015359,71.2060271 18.8008934,71.1956295 18.8007766,71.1852779 C18.8029378,71.1466512 18.804398,71.1076928 18.804398,71.0680611 C18.804398,71.0577332 18.8038139,71.0474103 18.8036387,71.0371089 C18.8057999,70.9984162 18.8072601,70.9593927 18.8072601,70.91976 C18.8072601,70.9094319 18.8067344,70.8991836 18.8065592,70.8888821 C18.8087204,70.8501856 18.8101222,70.8110851 18.8101222,70.7713892 C18.8101222,70.761123 18.8095381,70.7508634 18.8094213,70.7405737 C18.8116409,70.7018852 18.8130427,70.6627818 18.8130427,70.6230849 C18.8130427,70.6128184 18.8124002,70.6025476 18.8122834,70.59232 C18.8144445,70.5536159 18.8159048,70.5144592 18.8159048,70.4746991 C18.8159048,70.4644946 18.8153207,70.4542359 18.8151454,70.4439966 C18.8173066,70.4052265 18.8188253,70.3661407 18.8188253,70.3263796 C18.8188253,70.3161748 18.8182412,70.3059789 18.8180659,70.2958017 C18.8202271,70.2569656 18.8216289,70.2178538 18.8216289,70.1779672 C18.8216289,70.1678244 18.8211033,70.1577027 18.8209864,70.147537 C18.8231476,70.1086971 18.824491,70.0694465 18.824491,70.0296212 C18.824491,70.0194781 18.8239069,70.0093455 18.8237901,69.9991797 C18.8260097,69.9603473 18.8274115,69.9211054 18.8274115,69.881279 C18.8274115,69.8711357 18.8268274,69.8610658 18.8266522,69.8508885 C18.8288134,69.812041 18.830332,69.7727566 18.830332,69.732867 C18.830332,69.7227857 18.8297479,69.7127162 18.8295727,69.7026012 C18.8317339,69.6636876 18.8331941,69.624389 18.8331941,69.5844984 C18.8331941,69.5744168 18.83261,69.5643479 18.8324932,69.5543062 C18.8346544,69.5153266 18.8359978,69.4760028 18.8359978,69.4360489 C18.8359978,69.4260294 18.8354721,69.4160343 18.8353553,69.4059925 C18.8375164,69.3670091 18.8389183,69.3276314 18.8389183,69.2876765 C18.8389183,69.2775944 18.8383926,69.267662 18.8382174,69.2576091 C18.8403785,69.2186219 18.8418388,69.1792523 18.8418388,69.1392964 C18.8418388,69.1292763 18.8412547,69.1193334 18.8410794,69.1093427 C18.843299,69.0703004 18.8447009,69.030917 18.8447009,68.9908356 C18.8447009,68.9808775 18.8441168,68.970935 18.8439999,68.9609552 C18.8461611,68.9218981 18.847563,68.8824497 18.847563,68.8424295 C18.847563,68.8324712 18.8469789,68.8225915 18.846862,68.8126116 C18.8490232,68.7735506 18.8504834,68.7340479 18.8504834,68.6939645 C18.8504834,68.6840681 18.8498993,68.6741889 18.8497241,68.6642604 C18.8518853,68.6251335 18.8533455,68.5856278 18.8533455,68.5455434 C18.8533455,68.5356468 18.8528198,68.5257787 18.8526446,68.5159125 C18.8548058,68.4767194 18.8562076,68.4372003 18.8562076,68.3970526 C18.8562076,68.3872179 18.8556235,68.377402 18.8555067,68.3675463 C18.8577263,68.32836 18.8590697,68.2887652 18.8590697,68.2486165 C18.8590697,68.2387816 18.8584856,68.2289662 18.8583688,68.2191727 C18.86053,68.1799098 18.8619902,68.1403332 18.8619902,68.1001834 C18.8619902,68.0903483 18.8614061,68.0805957 18.8612309,68.0707916 C18.863392,68.0315249 18.8649107,67.9919558 18.8649107,67.9516805 C18.8649107,67.9440238 18.864385,67.9363362 18.8643266,67.9286693 C18.86567,67.9058749 18.8665462,67.8828106 18.8671887,67.8596425 C18.8693499,67.8385472 18.8706933,67.8171203 18.8722119,67.795786 C18.8754829,67.7725803 18.8781697,67.7491461 18.8807398,67.7255659 C18.8848869,67.7029457 18.8890924,67.6803964 18.8924802,67.6573289 C18.8969193,67.6379306 18.9014169,67.6184787 18.9052719,67.5987264 C18.9102952,67.580484 18.9152016,67.5621574 18.9197576,67.5435192 C18.9254818,67.5257676 18.9310307,67.5078592 18.9362876,67.4897739 C18.9427711,67.4725847 18.9488457,67.4551359 18.954862,67.4375505 C18.9622216,67.4205694 18.9689388,67.4031635 18.9757727,67.3857758 C18.9850015,67.3668051 18.9935877,67.3473467 19.002174,67.3279477 C19.0121621,67.3095973 19.021975,67.2911512 19.0313206,67.2723101 C19.0409582,67.2561346 19.0507126,67.2401012 19.059883,67.2234661 C19.0695206,67.2090287 19.0790415,67.194569 19.0882702,67.1797451 C19.0984335,67.1658895 19.1084216,67.1518767 19.1181761,67.137697 C19.1289235,67.1244954 19.1393789,67.1109296 19.1497759,67.0973515 C19.1611658,67.0846266 19.1721469,67.0713928 19.1833032,67.0581863 C19.1973215,67.0440907 19.2107558,67.0292681 19.2242485,67.014577 C19.238851,67.0011327 19.2532198,66.9875829 19.2672966,66.9736056 C19.281315,66.9618018 19.2953334,66.9501826 19.3088845,66.9379191 C19.3220267,66.9278337 19.3351689,66.917746 19.3480191,66.9072941 C19.361687,66.8979162 19.3751797,66.8883814 19.3884388,66.8785549 C19.4025156,66.8699277 19.4162419,66.8608641 19.4300266,66.8517456 C19.4449796,66.8435733 19.4595237,66.8347667 19.4741845,66.8261029 C19.4918828,66.8175116 19.5091721,66.8082229 19.5265198,66.799004 C19.5445685,66.7912158 19.5626172,66.7833002 19.5803154,66.7748847 C19.5971958,66.7684591 19.6141931,66.7623022 19.6307815,66.7553854 C19.6465522,66.750272 19.6623229,66.7451574 19.6779767,66.739583 C19.6940395,66.7352049 19.7099854,66.7306806 19.7258729,66.7258945 C19.7422277,66.7223779 19.7583488,66.7184447 19.7745868,66.7144047 C19.7924602,66.7115181 19.8101584,66.7077853 19.8279734,66.7043224 C19.8481832,66.7020785 19.8682179,66.6991139 19.888194,66.6960759 C19.9086375,66.6947493 19.929081,66.6933597 19.9492908,66.6912393 C19.9676899,66.6908242 19.9861475,66.6906077 20.004313,66.6895876 C20.0217775,66.6899582 20.0392421,66.6903922 20.056473,66.6902838 C20.0741128,66.6915658 20.0916358,66.6925771 20.1090419,66.6933803 C20.1267986,66.6955021 20.1444384,66.6971015 20.1620197,66.6987546 C20.1631295,66.6989425 20.1642977,66.6992661 20.1654659,66.6994639 C20.184566,66.7026975 20.2035492,66.7049051 20.222474,66.7075446 C20.2436768,66.7121467 20.2650548,66.7162134 20.2864913,66.7201027 C20.3074604,66.7256166 20.3284296,66.7311959 20.349574,66.7360506 C20.3677979,66.7416091 20.3860802,66.7474319 20.4044209,66.7525096 C20.4214766,66.7585693 20.4385323,66.7645678 20.4557048,66.7701464 C20.47241,66.7769729 20.4891737,66.7834959 20.5060542,66.7898515 C20.5225257,66.7973393 20.5390558,66.8043973 20.5555858,66.8114575 C20.5732256,66.8204791 20.5911574,66.8287323 20.6089724,66.8372842 C20.627722,66.8478326 20.6467052,66.8578558 20.6657469,66.8678293 C20.6788891,66.8759065 20.6921481,66.8838793 20.7054656,66.8916743 C20.7611303,66.9282867 20.8180799,66.9624995 20.8762562,66.9941738 C20.8988608,67.0082962 20.9216991,67.0220216 20.9446542,67.0353293 C20.9560442,67.0426991 20.9675509,67.0499639 20.9790577,67.0571035 C20.9920831,67.0661581 21.0054005,67.0746949 21.0186012,67.0834038 C21.0315098,67.0929519 21.0444184,67.1026925 21.0575606,67.1119052 C21.0683664,67.1202673 21.0793475,67.1284078 21.0902117,67.1365294 C21.1028283,67.1469275 21.1156201,67.1570412 21.1284118,67.1670938 C21.1406195,67.1776811 21.1525935,67.1886107 21.1649764,67.198916 C21.1753734,67.2084931 21.1860624,67.2176152 21.1966346,67.2269091 C21.2086086,67.2386119 21.2208163,67.2501044 21.233024,67.2615358 C21.243713,67.2724472 21.2542268,67.283584 21.2650326,67.2943296 C21.2755464,67.3056613 21.2865275,67.3166329 21.2971581,67.3277352 C21.3178936,67.3513156 21.3388628,67.3745646 21.3602992,67.3973329 C21.3939433,67.4365399 21.4289893,67.474366 21.4647945,67.5113329 C21.4913711,67.5415077 21.5185317,67.5709737 21.5463932,67.5997517 C21.5729697,67.6299056 21.6001303,67.6594142 21.6278166,67.6882034 C21.6543931,67.7183999 21.6816122,67.7479619 21.7094153,67.7768149 C21.7359918,67.8071179 21.7632692,67.8367334 21.7910139,67.8656185 C21.817532,67.8959536 21.8447511,67.9255373 21.8725542,67.9545397 C21.8991307,67.9848644 21.9263497,68.0145547 21.9540944,68.0435252 C21.9806709,68.0738926 22.0078315,68.1036149 22.0355763,68.132628 C22.0621528,68.1631021 22.0894302,68.1928248 22.1172333,68.2219556 C22.143693,68.2523866 22.1708536,68.2821943 22.1987152,68.3113147 C22.2252333,68.3418634 22.2524523,68.3716607 22.2802554,68.4008129 C22.3068319,68.4314153 22.3339925,68.4613084 22.3618541,68.4905145 C22.3883722,68.5210843 22.4155912,68.5510313 22.4433359,68.5802579 C22.469854,68.6109346 22.497073,68.6408601 22.5248761,68.6701406 C22.5514526,68.7008712 22.5786133,68.7308925 22.6064164,68.7602157 C22.6329345,68.7909779 22.6601535,68.8209888 22.688015,68.8504304 C22.6981784,68.8621114 22.7081665,68.8738249 22.7184466,68.8854039 C22.6978279,68.9015542 22.6775012,68.9183348 22.6577587,68.9358662 C22.6218366,68.9615072 22.5872579,68.9892582 22.5540811,69.0187442 C22.5181006,69.0443274 22.4835803,69.0720424 22.4503451,69.1014689 C22.4143646,69.1270055 22.3798443,69.1547373 22.3466675,69.184127 M29.6807639,72.8002747 C29.6271232,72.721818 29.5695603,72.6470689 29.5086522,72.5767232 C29.4550114,72.4984 29.3974486,72.4238552 29.3364827,72.3536995 C29.282842,72.2755788 29.2252791,72.2012383 29.1643709,72.131301 C29.1107302,72.0533827 29.0531673,71.9792465 28.9921438,71.9094855 C28.9385607,71.8317836 28.8810556,71.7578655 28.8199743,71.6882951 C28.7663913,71.6107956 28.7088861,71.5370817 28.6478626,71.4677295 C28.5942795,71.3904324 28.5367743,71.3168543 28.4756931,71.2477613 C28.4555057,71.2186417 28.4348569,71.1899694 28.413516,71.1619635 C28.3830042,71.1125793 28.3508198,71.0643979 28.317078,71.0177883 C28.2938337,70.9816912 28.2695512,70.946389 28.2445765,70.9118943 C28.2212745,70.875825 28.196992,70.8406325 28.1720174,70.8061114 C28.1486577,70.77007 28.1244328,70.7349324 28.0994582,70.7004531 C28.0761562,70.6645343 28.0519313,70.6293701 28.026899,70.5949873 C28.003597,70.5590417 27.9793721,70.523987 27.9543398,70.4895781 C27.9310378,70.4536736 27.9067553,70.4186474 27.8817806,70.3842933 C27.8584786,70.3484301 27.8341961,70.3134455 27.8092791,70.2791462 C27.7859194,70.2433112 27.7616369,70.2083681 27.7367199,70.1741106 C27.7134179,70.1383976 27.6890777,70.1034831 27.6641607,70.0692673 C27.6408587,70.0335277 27.6165185,69.9986548 27.5916015,69.9644807 C27.5682995,69.9287823 27.5439593,69.8939511 27.5190424,69.8598187 C27.4956827,69.8241487 27.4714002,69.7894396 27.4464832,69.7552812 C27.4231235,69.7197202 27.398841,69.6849849 27.373924,69.6508682 C27.3505643,69.6153486 27.3263395,69.5806674 27.3013648,69.5466475 C27.2780051,69.5111014 27.2537803,69.4764618 27.2288056,69.4424836 C27.2054459,69.4069788 27.1812211,69.3724483 27.1561887,69.3384318 C27.1340403,69.3047168 27.1110267,69.2717722 27.0873786,69.2394457 C27.0947038,69.2342094 27.1020289,69.2290399 27.1092387,69.2236423 C27.1440763,69.2019226 27.1782218,69.1789603 27.2112138,69.1539796 C27.2459937,69.1322105 27.2801392,69.1092784 27.3130158,69.0842343 C27.3479111,69.0624533 27.3820566,69.039416 27.4149909,69.0144135 C27.4497708,68.9925031 27.4839163,68.9694961 27.5168506,68.9444551 C27.5517459,68.9225325 27.5858914,68.8994203 27.618768,68.8743285 C27.6536056,68.8524244 27.6877511,68.8292747 27.7206854,68.8041568 C27.755523,68.782148 27.7896685,68.7589607 27.8225451,68.7338599 C27.8573827,68.7118143 27.8915282,68.6885895 27.9245202,68.663407 C27.9593001,68.6413121 27.9934456,68.6180498 28.0263799,68.5928845 C28.0612175,68.570765 28.0954207,68.5474775 28.1282973,68.5221934 C28.1630772,68.5000248 28.1972227,68.4767556 28.230157,68.4514454 C28.2660328,68.428586 28.3011012,68.4043836 28.335016,68.3782868 C28.3806971,68.348798 28.4248209,68.3165701 28.4673298,68.2819306 C28.4829029,68.2711533 28.498303,68.2600637 28.51353,68.2486617 C28.5285264,68.2392576 28.5436957,68.2300928 28.5584037,68.2201453 C28.5710352,68.2130378 28.583609,68.2059167 28.5960099,68.198416 C28.6087567,68.1920805 28.6213883,68.1854461 28.6339621,68.1786614 C28.6500543,68.1717278 28.6656851,68.1640115 28.6815466,68.1565471 C28.6985617,68.1500764 28.7155768,68.1433987 28.7323035,68.1363165 C28.7481073,68.1311596 28.7640842,68.1262432 28.7797726,68.1206488 C28.7930386,68.1169392 28.8063623,68.1133094 28.8194552,68.1092879 C28.8435071,68.1040806 28.8672705,68.0979204 28.8909762,68.0916089 C28.9719564,68.078029 29.0505718,68.0577619 29.1267647,68.0317449 C29.1503551,68.0270336 29.1737148,68.0217915 29.1967861,68.0159375 C29.2283937,68.0128413 29.259713,68.0087898 29.2906285,68.0037582 C29.3187755,68.0033659 29.3465764,68.0021444 29.3742043,68.0002672 C29.4058696,68.0027495 29.4373042,68.0043592 29.4685081,68.0049577 C29.5000004,68.0100929 29.531262,68.0142183 29.5624082,68.0175641 C29.5840953,68.0229763 29.6057823,68.0287351 29.6277,68.0333734 C29.6366401,68.0352658 29.6455225,68.0364571 29.6544627,68.0382122 C29.6874546,68.0493376 29.7206773,68.0596217 29.7541883,68.0689381 C29.7823929,68.0808593 29.8107129,68.0920515 29.8392637,68.1026078 C29.8713327,68.1192351 29.9036902,68.1348966 29.9363938,68.1496733 C29.9644254,68.1666398 29.992803,68.1828586 30.0213538,68.1985 C30.0497891,68.2184805 30.0786282,68.2378653 30.107698,68.2564786 C30.136018,68.2792302 30.1647418,68.3013178 30.1937539,68.3226471 C30.2185555,68.3452262 30.2437032,68.3671966 30.2691393,68.3886148 C30.2966518,68.4170035 30.3246258,68.4446731 30.3530611,68.4715542 C30.3755556,68.4973669 30.3983385,68.5226276 30.4215828,68.5474431 C30.4453463,68.5782773 30.4696865,68.6084859 30.4944304,68.6381005 C30.515829,68.669078 30.5376891,68.6996118 30.5600682,68.7295759 C30.5796211,68.7615693 30.5997508,68.793144 30.620342,68.8242052 C30.6397795,68.8602332 30.6598515,68.8958566 30.680558,68.9309367 C30.6959581,68.9633944 30.7119349,68.9955708 30.7284309,69.0273839 C30.7445231,69.066834 30.7615382,69.1058737 30.7791877,69.144509 C30.7917039,69.1800616 30.8047969,69.2153328 30.8184666,69.250323 C30.8300599,69.2901436 30.8424607,69.3296658 30.855496,69.3688512 C30.8647245,69.4084404 30.8747029,69.4477868 30.8854887,69.4869738 C30.8923524,69.5261855 30.9000236,69.5651666 30.9084446,69.6040441 C30.9134626,69.6473062 30.9192881,69.6904769 30.9262672,69.7334271 C30.9285743,69.7714859 30.9316312,69.8095781 30.9354957,69.8475087 C30.9354957,69.8491104 30.9353803,69.8506857 30.9353803,69.852357 C30.9353803,69.9151012 30.9380335,69.9776891 30.9421864,70.0400679 C30.9411481,70.0703318 30.9402253,70.1006914 30.9402253,70.1315424 C30.9402253,70.1938712 30.9429362,70.2559932 30.9469736,70.3179389 C30.9459354,70.3482016 30.9450703,70.3785738 30.9450703,70.409426 C30.9450703,70.4716875 30.9477811,70.5337483 30.9518186,70.5956356 C30.9507804,70.6259668 30.9499152,70.6564079 30.9499152,70.6873309 C30.9499152,70.7494555 30.9525684,70.811511 30.9566636,70.8733535 C30.9556254,70.9037533 30.9547602,70.9342633 30.9547602,70.9651875 C30.9547602,71.0273145 30.9573557,71.0892947 30.9615086,71.1511624 C30.9604127,71.181617 30.9595475,71.2121262 30.9595475,71.2430516 C30.9595475,71.3051809 30.9622007,71.3671135 30.9662958,71.4289091 C30.9652,71.4593623 30.9643348,71.4899405 30.9643348,71.5210064 C30.9643348,71.5830684 30.9670457,71.6450231 30.9710831,71.7067464 C30.9700449,71.7372125 30.9691798,71.7678596 30.9691798,71.7989963 C30.9691798,71.860991 30.9718906,71.9228148 30.9759281,71.9845494 C30.9748899,72.0151536 30.9740247,72.0458 30.9740247,72.0769379 C30.9740247,72.1388653 30.9766779,72.2007529 30.9807731,72.2623736 C30.9796772,72.2930321 30.9788697,72.3237617 30.9788697,72.3549008 C30.9788697,72.4168306 30.9814652,72.4786423 30.985618,72.5402888 C30.9845222,72.5709461 30.983657,72.6017303 30.983657,72.6329402 C30.983657,72.6948027 30.9863102,72.7565673 30.990463,72.8181556 C30.9893095,72.8488668 30.9884443,72.8796503 30.9884443,72.9110007 C30.9884443,72.9727262 30.9911552,73.0344439 30.9952503,73.0960291 C30.9941544,73.1267535 30.9932892,73.1576757 30.9932892,73.1890273 C30.9932892,73.2508249 30.9959424,73.3124665 31.0000376,73.3739933 C30.9989994,73.404801 30.9981342,73.4357224 30.9981342,73.4670752 C30.9981342,73.5288752 31.0007874,73.5904553 31.0048826,73.6519238 C31.0037867,73.6827851 31.0029792,73.7137904 31.0029792,73.7452141 C31.0029792,73.8068771 31.0055747,73.8684504 31.0097275,73.9299453 C31.008574,73.9607903 31.0077665,73.9918647 31.0077665,74.0233593 C31.0077665,74.0849549 31.0104197,74.1464817 31.0145725,74.2078487 C31.0134189,74.2388317 31.0125538,74.2698903 31.0125538,74.3014558 C31.0125538,74.3630537 31.0152646,74.424604 31.0194175,74.4859128 C31.0185523,74.5083303 31.0181486,74.53094 31.0179178,74.5536652 C30.9759281,74.4945647 30.931862,74.4373895 30.8857771,74.3827126 C30.8320787,74.3028936 30.7745158,74.2267843 30.7136653,74.1548159 C30.6599092,74.0751841 30.6023463,73.9992789 30.5415535,73.9275299 C30.4877974,73.8481007 30.4302346,73.7723997 30.3693264,73.7008944 C30.3156857,73.6216281 30.2581228,73.5461313 30.1972146,73.4748304 C30.1435162,73.3957517 30.0859533,73.3203899 30.0250452,73.2493626 C29.9714044,73.1705011 29.9138416,73.0953435 29.8528757,73.0245059 M34.5145631,71.3025586 C34.5145631,71.2351429 34.5118718,71.1679168 34.5075878,71.1008707 C34.5085215,71.0690758 34.5094003,71.0371953 34.5094003,71.0048113 C34.5094003,70.8789929 34.5014913,70.7535948 34.4867717,70.6295517 C34.482927,70.4762325 34.4677681,70.3239755 34.4424483,70.1742409 C34.4302552,70.0149181 34.4061986,69.857374 34.3714319,69.7034241 C34.3512749,69.5519978 34.3206275,69.4030158 34.2805331,69.2578265 C34.2522474,69.1046215 34.2133065,68.9545196 34.1649736,68.8092001 C34.1292183,68.6593755 34.0835218,68.5133649 34.0287079,68.3726667 C33.9860871,68.2274928 33.9339645,68.0867719 33.8734935,67.9517824 C33.822689,67.8059017 33.7623279,67.6650762 33.6935085,67.531347 C33.637706,67.3951234 33.5734452,67.2645031 33.5017698,67.140793 C33.4376189,67.0038031 33.3646252,66.8734352 33.284162,66.7512004 C33.2152327,66.6227723 33.1384494,66.5011902 33.0548006,66.3880142 C32.9793903,66.2639097 32.8962907,66.1474812 32.8067101,66.0401121 C32.7250386,65.9210448 32.6362269,65.8102006 32.5409343,65.7094051 C32.4558025,65.5996889 32.364025,65.4986426 32.2667551,65.4074773 C32.1733298,65.300372 32.0732588,65.2029285 31.9675856,65.1170971 C31.8731717,65.0222639 31.7731556,64.9369918 31.6682513,64.8628071 C31.5662031,64.7721181 31.4582779,64.692539 31.3457942,64.6251417 C31.2414391,64.5447822 31.1319761,64.4753696 31.018284,64.4185113 C30.9095351,64.34643 30.7959528,64.2862922 30.6786907,64.2390509 C30.5651634,64.1754831 30.4472971,64.1241241 30.3259706,64.0870442 C30.211894,64.0347204 30.0939728,63.994924 29.9732505,63.9688488 C29.8822419,63.9354657 29.7892011,63.9096246 29.6944577,63.89254 C29.6630413,63.8868826 29.6317897,63.8823593 29.6008128,63.8786451 C29.555995,63.8666726 29.5109026,63.8558297 29.465316,63.8476561 C29.3902902,63.8342217 29.3164178,63.8270533 29.2436988,63.8246306 C29.2423806,63.8243954 29.2410624,63.8240915 29.2397442,63.8238563 C29.1166053,63.8019108 28.9963223,63.7956558 28.8797193,63.8028656 C28.7594913,63.7924265 28.6422291,63.7960579 28.5291412,63.8133187 C28.4112749,63.8136442 28.2970336,63.8281632 28.1871861,63.8552719 C28.0780527,63.8653532 27.9724893,63.8875261 27.8712649,63.920878 C27.7285731,63.9473704 27.5929664,63.9949576 27.4662574,64.0613252 C27.3956255,64.0900412 27.3274652,64.1244976 27.2619412,64.1639059 C27.2038868,64.1926574 27.1479196,64.2255957 27.0938197,64.2619364 C27.0366441,64.2939996 26.9815007,64.3299635 26.9284993,64.3696418 C26.8737404,64.4042011 26.8208488,64.4422235 26.770319,64.4840626 C26.7197892,64.5194879 26.6711817,64.5582502 26.6246064,64.6001651 C26.5757243,64.6377467 26.5287645,64.6785277 26.4839467,64.7223443 C26.4345154,64.7636951 26.3874458,64.8087207 26.342628,64.8567298 C26.2940205,64.9013454 26.2478846,64.9494509 26.2042752,65.0007872 C26.1578646,65.0476365 26.113651,65.0975902 26.0722935,65.1510342 C26.0593864,65.1652595 26.046699,65.1797222 26.0342313,65.194556 C26.0062202,65.2231875 25.9791429,65.2531114 25.9529992,65.2841274 C25.9239445,65.3135313 25.8958236,65.3443601 25.8688011,65.3763766 C25.8396915,65.4057299 25.8116255,65.4365277 25.7845481,65.4685598 C25.7554935,65.4978825 25.7273725,65.5285626 25.7003501,65.5605637 C25.6712954,65.5899124 25.6432294,65.6205617 25.616152,65.652445 C25.5870974,65.6816865 25.5589764,65.7123513 25.531954,65.7443367 C25.5028993,65.7735375 25.4747784,65.8040949 25.4477559,65.8359726 C25.4186463,65.8651227 25.3905803,65.8956493 25.3635029,65.9275421 C25.3344483,65.9565953 25.3063273,65.9871373 25.2793049,66.0189328 C25.2502502,66.0479454 25.2221293,66.0784464 25.1951068,66.1102671 C25.1659972,66.1392289 25.1379312,66.1696328 25.1109087,66.2014124 C25.0817992,66.2303336 25.0537331,66.260763 25.0267107,66.2924352 C24.9975462,66.3213716 24.9695351,66.3517042 24.9424577,66.3833911 C24.9387229,66.3871854 24.9347684,66.3906733 24.9309786,66.3944568 C24.9283423,66.3907814 24.9255412,66.3872073 24.9228499,66.383588 C24.9005509,66.3497304 24.8773731,66.3166463 24.8537559,66.2840882 C24.8314569,66.250336 24.8082791,66.2173577 24.7846619,66.1848393 C24.7623628,66.1510603 24.739185,66.1180556 24.7156227,66.0856533 C24.6932688,66.0519034 24.670091,66.0189383 24.6464738,65.9865654 C24.6241748,65.9528651 24.6010519,65.9200158 24.5773798,65.8876725 C24.5551356,65.8540216 24.5319578,65.8211358 24.5083406,65.7888423 C24.4859867,65.7552106 24.4628638,65.7224404 24.4391917,65.6901107 C24.4168926,65.6565283 24.3937698,65.6237978 24.3701526,65.5915178 C24.3477986,65.5580307 24.3246757,65.5252738 24.3010585,65.4930994 C24.2787046,65.4595858 24.2555817,65.4268685 24.2319096,65.3946582 C24.2096105,65.3612596 24.1864877,65.3286477 24.1628155,65.2964772 C24.1405165,65.2630521 24.1173936,65.230414 24.0937215,65.1983491 C24.0714225,65.1649633 24.0482447,65.1324208 24.0246824,65.1003493 C24.0023284,65.0670589 23.9791506,65.0344904 23.9555883,65.0024585 C23.9332344,64.9692074 23.9101115,64.9366881 23.8864943,64.904752 C23.8641953,64.8714842 23.8410175,64.838995 23.8174003,64.807033 C23.8000444,64.7812801 23.7821393,64.7560301 23.7640144,64.7310778 C23.7391889,64.6933827 23.7137592,64.6563209 23.687286,64.6202759 C23.652739,64.5687255 23.6163795,64.518927 23.5788117,64.4705259 C23.5435506,64.4207812 23.5068616,64.3725269 23.4686347,64.3259411 C23.4303528,64.2747378 23.3906979,64.2250384 23.3492854,64.1774322 C23.3116078,64.1300902 23.2722275,64.0846517 23.2318585,64.0406477 C23.1930275,63.9943855 23.1529331,63.9497736 23.1114657,63.9069894 C23.0696139,63.8598093 23.0264988,63.8144131 22.9817908,63.7712026 C22.9407079,63.7276377 22.898142,63.6860779 22.8545326,63.6462033 C22.8122963,63.6038505 22.7690164,63.563183 22.7243085,63.5246585 C22.679271,63.4819574 22.6329703,63.4412982 22.5852416,63.4027838 C22.541028,63.3634309 22.4954413,63.3262282 22.4488111,63.2909025 C22.3926241,63.2438135 22.3346796,63.1998019 22.2750325,63.1590682 C22.1800144,63.0854292 22.0803279,63.0203787 21.9766868,62.9648527 C21.9219828,62.9314666 21.8660155,62.9008256 21.8090047,62.8730893 C21.7427667,62.8349067 21.6747162,62.8011358 21.6053476,62.7712017 C21.5368028,62.7356459 21.4666103,62.7046481 21.3950447,62.6778573 C21.3252915,62.6457914 21.2540006,62.6179694 21.1813914,62.594802 C21.1105947,62.5662998 21.03837,62.5417276 20.9648272,62.5223753 C20.8954585,62.4982929 20.8248816,62.4782244 20.7530963,62.4628658 C20.6835628,62.442243 20.6129309,62.4258309 20.5412555,62.4139492 C20.4846291,62.3998601 20.4273986,62.3881228 20.3694541,62.3798004 C20.3552838,62.3777672 20.3412233,62.3766414 20.327053,62.3749915 C20.2955268,62.3686291 20.2637809,62.3631305 20.2318153,62.3585587 C20.1884255,62.3523594 20.1455301,62.3485252 20.1028544,62.3457439 C20.0997786,62.3453056 20.0967578,62.3446212 20.0936821,62.344183 C20.0209631,62.3338335 19.9492877,62.3288536 19.8787107,62.3280996 C19.8037398,62.3210309 19.7298674,62.319009 19.6573681,62.3221258 C19.5834408,62.3191022 19.510557,62.3206555 19.439266,62.3275616 C19.3683595,62.3283321 19.2986613,62.3335667 19.230501,62.3436182 C19.1616266,62.3478327 19.0940705,62.356451 19.0279972,62.3694252 C18.9602214,62.3768084 18.8938735,62.3887247 18.8290086,62.4046714 C18.7598047,62.4154815 18.6924133,62.4314936 18.6265598,62.451281 C18.5580699,62.4656719 18.4913925,62.4849383 18.4265276,62.5083211 C18.3594108,62.5261781 18.2941614,62.5484062 18.2308344,62.575006 C18.1652006,62.5962025 18.1012693,62.6213622 18.0396449,62.6510622 C17.9767024,62.6750658 17.9155723,62.7027279 17.856749,62.7346729 C17.7968272,62.7609593 17.7387728,62.7909053 17.6829154,62.8245525 C17.6244216,62.8533889 17.568015,62.8860331 17.5137503,62.9221161 C17.4548172,62.9544708 17.3984105,62.9911211 17.3441459,63.0310164 C17.2863112,63.0665935 17.2309481,63.1063891 17.1778918,63.1494473 C17.1218696,63.1878409 17.068319,63.2300759 17.0173498,63.275794 C16.9632499,63.3169501 16.9115118,63.3614949 16.8626297,63.4097438 C16.8113309,63.4528568 16.762284,63.4991554 16.716258,63.548995 C16.6683096,63.5932204 16.6228327,63.640478 16.5801021,63.6908065 C16.5339662,63.7370963 16.4904666,63.7866253 16.4496583,63.8389089 C16.4038519,63.8889494 16.3611212,63.942413 16.3211917,63.9987064 C16.2769781,64.0515667 16.236005,64.1078121 16.1980527,64.16692 C16.1562008,64.2220362 16.1173698,64.2802608 16.0817792,64.3414437 C16.042344,64.398765 16.0057648,64.4589267 15.9727556,64.5220992 C15.9363961,64.580505 15.9028377,64.641563 15.8729043,64.705462 C15.8398402,64.7640792 15.809742,64.8252568 15.7829942,64.8888732 C15.7519623,64.9492322 15.7243356,65.0121622 15.6998397,65.0773799 C15.6698513,65.1420185 15.6437626,65.2096743 15.6210241,65.2794724 C15.5935623,65.3462406 15.5698902,65.4158323 15.5498979,65.4876252 C15.5252372,65.55621 15.5041465,65.6272859 15.4870103,65.7007372 C15.4651506,65.7710893 15.4466963,65.8437313 15.4326358,65.9188292 C15.4140716,65.9890321 15.3990225,66.0614308 15.3879828,66.1359906 C15.3725492,66.2062797 15.3606308,66.2785919 15.3525021,66.352918 C15.3394302,66.425009 15.3303129,66.4993273 15.3249304,66.575478 C15.3140555,66.6518509 15.3077942,66.7306334 15.3054325,66.8112264 C15.2985121,66.8810581 15.2946674,66.9524426 15.2946674,67.0255179 C15.2946674,67.0340971 15.2951617,67.0426397 15.2952166,67.0511675 C15.2928549,67.0926216 15.2912621,67.1343285 15.2912621,67.1768581 C15.2912621,67.213425 15.2923057,67.2498694 15.2940632,67.2863174 C15.2938436,67.2998474 15.2931295,67.3131086 15.2931295,67.3267378 C15.2931295,67.3660433 15.2944477,67.405276 15.2964799,67.444331 C15.29637,67.4539254 15.2958757,67.4632695 15.2958757,67.4728832 C15.2958757,67.5121897 15.297139,67.5512937 15.2991712,67.5904132 C15.2990613,67.5999468 15.298567,67.6093514 15.298567,67.6189653 C15.298567,67.658212 15.2998852,67.6973892 15.3019173,67.7364516 C15.3017526,67.7460363 15.3012033,67.7554307 15.3012033,67.7650448 C15.3012033,67.8042924 15.3026313,67.8434312 15.3046635,67.8824972 C15.3044988,67.892082 15.3039495,67.9015367 15.3039495,67.9112119 C15.3039495,67.9503996 15.3053226,67.9895314 15.3073548,68.0285402 C15.3072449,68.0381958 15.3066957,68.04765 15.3066957,68.0573255 C15.3066957,68.0965142 15.3079589,68.1355679 15.310046,68.1745904 C15.3099362,68.1842461 15.309387,68.1937607 15.309387,68.2034972 C15.309387,68.242626 15.3107051,68.2816925 15.3127373,68.3206555 C15.3125725,68.3303543 15.3120782,68.3398784 15.3120782,68.3496152 C15.3120782,68.3888058 15.3134513,68.4278243 15.3154835,68.4667833 C15.3153187,68.4764898 15.3147695,68.4860034 15.3147695,68.4958013 C15.3147695,68.5348711 15.3161426,68.5738924 15.3181748,68.6127941 C15.3180649,68.6225718 15.3175157,68.6320849 15.3175157,68.6419439 C15.3175157,68.6810147 15.3188338,68.7200285 15.320866,68.7589339 C15.3207562,68.7687117 15.3202069,68.7782851 15.3202069,68.7880835 C15.3202069,68.8271553 15.32158,68.8661212 15.3236122,68.9049695 C15.3234474,68.9147978 15.3228982,68.9244316 15.3228982,68.9342911 C15.3228982,68.973303 15.3242713,69.0122717 15.3263035,69.0511236 C15.3261387,69.060952 15.3256444,69.0705957 15.3256444,69.0804554 C15.3256444,69.1194683 15.3269626,69.1584294 15.3289947,69.197224 C15.3288849,69.2071238 15.3283906,69.2167672 15.3283906,69.226688 C15.3283906,69.265641 15.3296538,69.3045333 15.331686,69.3433316 C15.3315761,69.3532315 15.3310269,69.3629247 15.3310269,69.3728458 C15.3310269,69.4117997 15.3324,69.4507159 15.3344322,69.4895179 C15.3342674,69.4994072 15.3337182,69.5090999 15.3337182,69.5190212 C15.3337182,69.5579761 15.3351462,69.596845 15.3371784,69.6355898 C15.3370136,69.64554 15.3364644,69.6552322 15.3364644,69.6652755 C15.3364644,69.7041705 15.3377825,69.7430206 15.3398696,69.7817799 C15.3397598,69.791741 15.3391556,69.8014827 15.3391556,69.8114654 C15.3391556,69.8503613 15.3404738,69.8891533 15.342506,69.9279054 C15.3423961,69.9378665 15.3419018,69.9476904 15.3419018,69.9577342 C15.3419018,69.9965702 15.34322,70.0353649 15.3452521,70.0741207 C15.3450874,70.084071 15.3445381,70.0938834 15.3445381,70.1039275 C15.3445381,70.1427644 15.3459662,70.1815839 15.3479983,70.2202825 C15.3478336,70.2302937 15.3472294,70.2400945 15.3472294,70.2501997 C15.3472294,70.2889767 15.3486574,70.3277382 15.3506896,70.3663795 C15.3505798,70.3764627 15.3499756,70.386324 15.3499756,70.3964294 C15.3499756,70.4352683 15.3512938,70.4739493 15.3533809,70.5126055 C15.353271,70.5226888 15.3527218,70.5325607 15.3527218,70.5426663 C15.3527218,70.5814453 15.3540399,70.6201291 15.3560721,70.6587169 C15.3559074,70.6688499 15.355413,70.6787325 15.355413,70.6889602 C15.355413,70.7276793 15.3567861,70.7663771 15.3588183,70.8049685 C15.3586535,70.8151016 15.3581043,70.8250333 15.3581043,70.8352004 C15.3581043,70.8739204 15.3594774,70.912621 15.3615096,70.9511552 C15.3613997,70.9613606 15.3607956,70.9712804 15.3607956,70.9815086 C15.3607956,71.0201686 15.3621687,71.0588111 15.3642008,71.097349 C15.364091,71.1075545 15.3635417,71.1175461 15.3635417,71.1277746 C15.3635417,71.1664356 15.3649148,71.2050809 15.366947,71.2435615 C15.3667822,71.2538164 15.366233,71.2638076 15.366233,71.2740972 C15.366233,71.3126983 15.3676061,71.3512854 15.3696383,71.3897697 C15.3695284,71.4000363 15.3689243,71.4100154 15.3689243,71.4203661 C15.3689243,71.4589681 15.3702974,71.497558 15.3723295,71.536046 C15.3721648,71.5463009 15.3716705,71.5563638 15.3716705,71.5666538 C15.3716705,71.6052568 15.3729886,71.6437769 15.3750208,71.6822685 C15.374911,71.6925353 15.3743617,71.7025859 15.3743617,71.712998 C15.3743617,71.7515411 15.3757348,71.7900757 15.377767,71.8284491 C15.3776022,71.838826 15.377053,71.8488761 15.377053,71.8592885 C15.377053,71.8978324 15.378481,71.9363209 15.3805132,71.9747589 C15.3803484,71.9850748 15.3797442,71.9952343 15.3797442,72.0055861 C15.3797442,72.044131 15.3811173,72.0825494 15.3832044,72.121003 C15.3830397,72.131319 15.3824904,72.1415509 15.3824904,72.1519638 C15.3824904,72.1904488 15.3838086,72.2288579 15.3858408,72.2672422 C15.3857309,72.2776313 15.3852366,72.2878747 15.3852366,72.2983488 C15.3852366,72.3367738 15.3865548,72.3751856 15.388587,72.4135128 C15.3884222,72.4239506 15.3879279,72.4341937 15.3879279,72.444668 C15.3879279,72.483094 15.389301,72.5214598 15.3913331,72.5597906 C15.3911135,72.5702163 15.3905642,72.5804467 15.3905642,72.5909822 C15.3905642,72.6294091 15.3919922,72.6678508 15.3940244,72.7061244 C15.3938596,72.7165623 15.3933104,72.7267923 15.3933104,72.7373889 C15.3933104,72.7757559 15.3946835,72.8140663 15.3967157,72.8523435 C15.3966058,72.8628548 15.3960017,72.8731328 15.3960017,72.8837296 C15.3960017,72.9220975 15.3973748,72.9604717 15.3994069,72.9986916 C15.3992971,73.009203 15.3987479,73.0195538 15.3987479,73.03009 C15.3987479,73.0684589 15.400066,73.1067624 15.4021531,73.1449984 C15.4019334,73.1555458 15.4014391,73.1659086 15.4014391,73.176506 C15.4014391,73.2148149 15.4028122,73.2530728 15.4048444,73.2913 C15.4046796,73.3018599 15.4040755,73.3121972 15.4040755,73.3228557 C15.4040755,73.3611655 15.4055035,73.3994388 15.4075356,73.4376696 C15.4074258,73.4482423 15.4068216,73.4586399 15.4068216,73.4692987 C15.4068216,73.5075486 15.4082497,73.5457638 15.4102818,73.5839374 C15.4101171,73.5945583 15.4095678,73.6049681 15.4095678,73.615688 C15.4095678,73.6539389 15.410886,73.6921314 15.413028,73.7303342 C15.4128083,73.7409423 15.4122591,73.7513517 15.4122591,73.7620719 C15.4122591,73.8003237 15.4136322,73.8385317 15.4156644,73.8766517 C15.4154996,73.8873336 15.4149503,73.8977424 15.4149503,73.9085238 C15.4149503,73.9467157 15.4163234,73.9848655 15.4183556,74.0229282 C15.4182458,74.033684 15.4176965,74.0442142 15.4176965,74.054935 C15.4176965,74.0931278 15.4190696,74.1312804 15.4211018,74.1693468 C15.420937,74.1800897 15.4203878,74.1906194 15.4203878,74.2014013 C15.4203878,74.2395341 15.4217609,74.2776286 15.423848,74.3157117 C15.4236283,74.3264415 15.4230791,74.3369708 15.4230791,74.3478139 C15.4230791,74.3859476 15.4245071,74.424058 15.4265393,74.4621317 C15.4263745,74.4728747 15.4257703,74.4833903 15.4257703,74.4942337 C15.4257703,74.5323683 15.4271434,74.5704683 15.4292305,74.6084979 C15.4291207,74.6192542 15.4285165,74.6298302 15.4285165,74.6407348 C15.4285165,74.6788095 15.4298896,74.7168513 15.4319218,74.7548104 C15.431757,74.7656753 15.4312627,74.7762774 15.4312627,74.7871823 C15.4312627,74.8252579 15.4325809,74.8632892 15.434668,74.9012652 C15.4344483,74.9121168 15.433899,74.9227051 15.433899,74.9336712 C15.433899,74.9716868 15.435327,75.0096867 15.4373592,75.047653 C15.4371945,75.058518 15.4365903,75.0691533 15.4365903,75.0801196 C15.4365903,75.1181362 15.4380183,75.1561389 15.4401054,75.1940615 C15.4399406,75.2049875 15.4393365,75.2156222 15.4393365,75.2266498 C15.4393365,75.2646063 15.4407096,75.3025374 15.4427967,75.3404637 C15.4426319,75.3513897 15.4420827,75.3620985 15.4420827,75.3731263 C15.4420827,76.3778125 16.176248,77.3877075 17.0818852,77.6317625 C17.1526269,77.6509619 17.2221603,77.6642802 17.2904854,77.6730693 C17.6986785,77.7423076 18.0632621,77.629949 18.3294225,77.382415 C18.3620472,77.3578572 18.3932438,77.3311462 18.423342,77.3029962 C18.4559118,77.2783776 18.4871085,77.2516825 18.5172067,77.2234855 C18.5498313,77.1988357 18.5809731,77.1720166 18.6111262,77.1437874 C18.6437509,77.1190915 18.6748926,77.0922884 18.7049908,77.0639974 C18.7376155,77.0392556 18.7687573,77.0124059 18.7988555,76.9840679 C18.8314802,76.9592172 18.8626768,76.9323356 18.89283,76.9039653 C18.9253997,76.8791167 18.9565415,76.8521738 18.9866946,76.8237565 C19.0193193,76.7988766 19.050461,76.7718242 19.0805592,76.7433451 C19.1131839,76.7184192 19.1443257,76.6913831 19.1744239,76.6628571 C19.2070485,76.6378851 19.2382452,76.6108171 19.2683434,76.582244 C19.3009681,76.557163 19.3321098,76.5300337 19.362263,76.5014283 C19.3948877,76.4763642 19.4260294,76.4491884 19.4561276,76.4205213 C19.4887523,76.3953481 19.519949,76.3681402 19.5499922,76.3394116 C19.5826169,76.3142556 19.6138136,76.287001 19.6438569,76.2581623 C19.6764816,76.2330234 19.7076782,76.2057222 19.7377764,76.1768509 C19.7704011,76.1516028 19.8015978,76.1242549 19.831696,76.0953366 C19.8642657,76.0700914 19.8954624,76.0426969 19.9255606,76.0137949 C19.9581304,75.988377 19.989382,75.9609502 20.0194802,75.9319377 C20.0520499,75.9066007 20.0832466,75.879113 20.1133448,75.8500534 C20.1459146,75.8246705 20.1771112,75.7971361 20.2072644,75.7680438 C20.2398341,75.7426149 20.2710308,75.7149703 20.301129,75.6858167 C20.3336988,75.6603418 20.3649503,75.6327284 20.3949936,75.6035135 C20.4275634,75.5779291 20.458815,75.550269 20.4889132,75.5210213 C20.5214829,75.4954545 20.5527345,75.4677478 20.5827778,75.4384389 C20.6154025,75.4127765 20.6465992,75.3850728 20.6766424,75.3557169 C20.7092671,75.3300086 20.7405187,75.3022085 20.7705071,75.2727914 C20.8031318,75.2470371 20.8343834,75.2192543 20.8643717,75.1897902 C20.8970513,75.1640039 20.9283029,75.1361105 20.9582913,75.1065995 C20.9909709,75.0808311 21.0222225,75.0528911 21.0522108,75.023333 C21.0848355,74.9974406 21.1160322,74.969504 21.1460755,74.9398489 C21.1787001,74.9139745 21.2098968,74.8859272 21.2399401,74.8562891 C21.2726197,74.8303186 21.3038164,74.8022889 21.3338596,74.7726037 C21.3664843,74.7465733 21.397681,74.7184327 21.4277243,74.6887006 C21.4604039,74.6627022 21.4916006,74.634515 21.5216438,74.6046716 C21.5542685,74.5786133 21.5854652,74.5503796 21.6155085,74.5205534 C21.6481331,74.4944492 21.6793847,74.4661826 21.7093731,74.4362956 C21.7420527,74.4100948 21.7732494,74.3818321 21.8032926,74.3518475 C21.8359723,74.3256651 21.8671689,74.2973559 21.8972122,74.2673241 C21.9298369,74.2410175 21.9610336,74.2126617 21.9910768,74.1825829 C22.0237564,74.1563085 22.0549531,74.1278416 22.0849415,74.097702 C22.1176211,74.0714462 22.1488727,74.0429463 22.178861,74.0127597 C22.2115406,73.9863933 22.2427373,73.9578331 22.2727806,73.9276777 C22.3054053,73.9012517 22.3366019,73.8727096 22.3666452,73.8424425 C22.3992699,73.8159058 22.4305215,73.7873307 22.4605098,73.757003 C22.4931895,73.7304985 22.5244411,73.7018768 22.5544294,73.6714372 C22.587109,73.6448868 22.6183057,73.6162049 22.648349,73.5857966 C22.6809736,73.5591867 22.7121703,73.5303934 22.7422136,73.4999379 C22.7748383,73.4733471 22.8060899,73.4445205 22.8360782,73.4140046 C22.8687578,73.3873162 22.9000094,73.358508 22.9299429,73.3279317 C22.9626774,73.3012107 22.9938741,73.2723426 23.0238624,73.2416674 C23.056542,73.214887 23.0877387,73.1859723 23.117782,73.1553286 C23.1504067,73.1284889 23.1816583,73.0994757 23.2116466,73.0687716 C23.2443262,73.0418991 23.2755778,73.0129046 23.3055112,72.9821402 C23.3381908,72.9552217 23.3694424,72.9261806 23.3994308,72.8953171 C23.4320555,72.8684048 23.463362,72.8392648 23.4933503,72.8084196 C23.5259201,72.7813828 23.5572266,72.7522616 23.587215,72.7213693 C23.6197847,72.6942866 23.6511462,72.6651319 23.6810796,72.634114 C23.7137592,72.6070115 23.7450108,72.5777839 23.7749442,72.5467189 C23.8076239,72.519636 23.8388755,72.4903618 23.8688638,72.4592629 C23.9014885,72.432121 23.932795,72.4028132 23.9627834,72.3716671 C23.995408,72.3444137 24.0267146,72.3150593 24.056648,72.2838531 C24.0892727,72.2566193 24.1205792,72.2272183 24.1505126,72.1959651 C24.1831922,72.1686326 24.2144438,72.139172 24.2443773,72.1078717 C24.2770569,72.080559 24.3083634,72.0510647 24.3382419,72.0197044 C24.3709215,71.9923459 24.4022829,71.9627519 24.4321614,71.9313446 C24.464896,71.9039529 24.4961476,71.8743525 24.5260261,71.8428322 C24.5587606,71.8154605 24.5899573,71.7858006 24.6198907,71.754312 C24.6526252,71.7267624 24.6838768,71.6970688 24.7138103,71.6655331 C24.7261132,71.6551846 24.7381415,71.6443076 24.7501148,71.6333495 C24.7553326,71.6396522 24.7606602,71.6458488 24.7659329,71.6520332 C24.7908133,71.6843363 24.8164627,71.7157745 24.8426064,71.746416 C24.8674868,71.7787596 24.8930813,71.8102254 24.9193348,71.8409992 C24.9442153,71.8733171 24.9698097,71.9048896 24.9960083,71.935691 C25.0208338,71.9680363 25.0464283,71.9995831 25.0726818,72.030438 C25.0975623,72.0628367 25.1231567,72.0944902 25.1494103,72.1253856 C25.1741809,72.1577987 25.1998302,72.1894394 25.2260288,72.2202959 C25.2509093,72.2528418 25.2764488,72.2844969 25.3027024,72.3154069 C25.3275279,72.3479801 25.3531223,72.3797551 25.3794308,72.4107188 C25.4042563,72.4433325 25.4298508,72.475148 25.4561043,72.5061391 C25.4809298,72.5387931 25.5065243,72.5705827 25.5327778,72.6016142 C25.5576033,72.6343087 25.5831978,72.6661387 25.6093964,72.6972639 C25.6342768,72.7299455 25.6598164,72.7618026 25.6861248,72.7929285 C25.7108954,72.825757 25.7364899,72.8576679 25.7627983,72.8888343 C25.7875689,72.9216365 25.8132183,72.953668 25.8394718,72.9848615 C25.8642974,73.0177176 25.8898918,73.0497095 25.9160904,73.0809298 C25.9341054,73.1048009 25.9525598,73.1282538 25.9713437,73.1513281 C26.0180838,73.2251525 26.0684488,73.2959278 26.1220544,73.3630258 C26.1708816,73.441023 26.2234985,73.5156863 26.2796854,73.5862267 C26.3285126,73.6644143 26.3811295,73.7392704 26.4373165,73.8100716 C26.4861437,73.8884496 26.5388155,73.9634455 26.5950025,74.0345077 C26.6438297,74.113009 26.6964466,74.1882508 26.7525786,74.2594257 C26.8014058,74.33805 26.8540777,74.4134988 26.9102097,74.4848675 C26.958982,74.5636676 27.0116538,74.639242 27.0677859,74.7108717 C27.1165581,74.7898618 27.16923,74.8656289 27.225362,74.9374524 C27.2741892,75.0167147 27.326861,75.0926746 27.3829381,75.1646098 C27.4318202,75.2440769 27.4844372,75.3201474 27.5405143,75.3923437 C27.5893415,75.4719187 27.6420133,75.5482642 27.6980904,75.620722 C27.7469176,75.7004194 27.7995895,75.7769577 27.8556666,75.8496092 C27.9045487,75.9295796 27.9572205,76.0062428 28.0132976,76.0790882 C28.0620699,76.1591506 28.1147967,76.2360896 28.1708738,76.3091287 C28.219646,76.389381 28.2723728,76.4664449 28.328395,76.5397304 C28.3772771,76.6202034 28.4300039,76.6974602 28.4860261,76.7710076 C28.5349082,76.8516709 28.587635,76.9290523 28.6435473,77.0026942 C28.6924843,77.0836314 28.7452111,77.1612055 28.8011234,77.2351093 C28.8500605,77.3161002 28.9027872,77.3939354 28.9586996,77.4679643 C29.0075817,77.549198 29.0603634,77.6272418 29.1163307,77.7015487 C29.1652128,77.7829726 29.2179395,77.8611249 29.2738519,77.9356094 C29.3227889,78.0172395 29.3755157,78.0955845 29.431428,78.1702626 C29.48042,78.2520993 29.5331467,78.330637 29.589114,78.4055938 C29.638051,78.4876046 29.6908327,78.5663515 29.7467451,78.6415546 C29.795737,78.7237034 29.8485187,78.8026432 29.9043761,78.8780237 C29.953423,78.9603795 30.0062047,79.0395812 30.0620621,79.1151555 C30.111109,79.1977018 30.1638358,79.2770108 30.2196932,79.3527788 C30.2687401,79.4355156 30.3215218,79.5150342 30.3774341,79.5910128 C30.4264261,79.6739233 30.4791528,79.7536871 30.5350652,79.8298596 C30.5840571,79.9128912 30.6368388,79.992865 30.6927512,80.0692314 C30.7417431,80.1525227 30.7945248,80.2326201 30.8503822,80.3092326 C30.8994291,80.3926621 30.9521559,80.4729351 31.0080133,80.5497414 C31.0571151,80.6333787 31.1098419,80.7139142 31.1656993,80.7909143 C31.2148011,80.8747422 31.2675279,80.9554009 31.3233853,81.0325949 C31.3724871,81.1166134 31.4252139,81.1974649 31.4810164,81.2749049 C31.779362,81.7872887 32.2085359,82.1898519 32.6856583,82.348069 C33.4063673,82.5887552 34.0174485,82.1882427 34.2333537,81.4184197 C34.3168377,81.1904331 34.3630835,80.924586 34.3630835,80.6295334 C34.3630835,80.5963293 34.3623146,80.5630927 34.3611612,80.5298759 C34.3652255,80.4701968 34.3676971,80.4095762 34.3676971,80.3473073 C34.3676971,80.314102 34.3669282,80.2809373 34.3657748,80.2477933 C34.3697842,80.1880857 34.3723107,80.1273321 34.3723107,80.0649896 C34.3723107,80.0319259 34.3714868,79.9987443 34.3703883,79.9656904 C34.3743978,79.9059005 34.3769243,79.8450678 34.3769243,79.7826517 C34.3769243,79.7495868 34.3761004,79.7164772 34.3750019,79.6834246 C34.3789564,79.6236065 34.3814829,79.5627661 34.3814829,79.5003477 C34.3814829,79.4673531 34.3806591,79.4343155 34.3795606,79.4013356 C34.38357,79.341381 34.3860416,79.2804444 34.3860416,79.2179524 C34.3860416,79.185028 34.3852727,79.1520795 34.3841742,79.1191722 C34.3881836,79.0591353 34.3906552,78.9981911 34.3906552,78.9356254 C34.3906552,78.9026999 34.3898863,78.8698233 34.3887329,78.8369003 C34.3927423,78.7768525 34.3952688,78.7158461 34.3952688,78.6532068 C34.3952688,78.6203515 34.3944449,78.5874587 34.3933465,78.5546253 C34.397301,78.4945497 34.3998824,78.4334809 34.3998824,78.3708394 C34.3998824,78.3380543 34.3990036,78.3052169 34.3979601,78.2724014 C34.4019146,78.2122436 34.4044411,78.1510789 34.4044411,78.0883637 C34.4044411,78.0555775 34.4036172,78.0228288 34.4025736,77.9901573 C34.4065282,77.9299172 34.4089997,77.868657 34.4089997,77.8059395 C34.4089997,77.7732236 34.4082308,77.7405634 34.4071323,77.7078766 C34.4111417,77.6475707 34.4136133,77.5863028 34.4136133,77.5234403 C34.4136133,77.4907946 34.4127895,77.4581901 34.4117459,77.4255208 C34.4157004,77.3651876 34.4182269,77.303857 34.4182269,77.2409922 C34.4182269,77.2083454 34.4174031,77.1757415 34.4163046,77.1432 C34.4202591,77.0827846 34.4228405,77.021391 34.4228405,76.9584525 C34.4228405,76.9258759 34.4219617,76.893328 34.4209182,76.8608039 C34.4248727,76.8003062 34.4273992,76.7388887 34.4273992,76.675948 C34.4273992,76.6434417 34.4265753,76.6109106 34.4255318,76.578459 C34.4294863,76.5179505 34.4319578,76.4563665 34.4319578,76.3933521 C34.4319578,76.3609161 34.4311889,76.3284729 34.4301454,76.2960224 C34.4340999,76.2354316 34.4365714,76.17384 34.4365714,76.1108234 C34.4365714,76.0783862 34.4357476,76.0459993 34.434704,76.0136214 C34.4386585,75.9530198 34.441185,75.8913648 34.441185,75.828203 C34.441185,75.7958361 34.4403062,75.7635057 34.4393176,75.731216 C34.4432172,75.6704451 34.4457986,75.6087979 34.4457986,75.5456338 C34.4457986,75.5133373 34.4449198,75.4810076 34.4438763,75.4487749 C34.4478308,75.3879373 34.4503573,75.3261953 34.4503573,75.2629576 C34.4503573,75.2306599 34.4495334,75.1984893 34.4484899,75.1662577 C34.4524444,75.1054093 34.454916,75.0435728 34.454916,74.9802614 C34.454916,74.9481055 34.4540921,74.9159355 34.4531035,74.8837918 C34.457058,74.8228611 34.4595295,74.761017 34.4595295,74.6976318 C34.4595295,74.6654748 34.4587057,74.6333769 34.4577171,74.6013056 C34.4616166,74.5402775 34.4641431,74.4783694 34.4641431,74.414982 C34.4641431,74.3828238 34.4632644,74.3507831 34.4622757,74.3187128 C34.4661753,74.257674 34.4687567,74.1957017 34.4687567,74.1322405 C34.4687567,74.1001526 34.4678779,74.0681127 34.4668893,74.0361149 C34.4707889,73.9749939 34.4733154,73.9129989 34.4733154,73.849464 C34.4733154,73.8175179 34.4724915,73.785565 34.471448,73.7535535 C34.4754025,73.6924365 34.477929,73.6302908 34.477929,73.5667537 C34.477929,73.5348064 34.4770502,73.502911 34.4760616,73.4710582 C34.4800161,73.4097875 34.4824877,73.3476194 34.4824877,73.2840085 C34.4824877,73.2520602 34.4816089,73.2201655 34.4806752,73.1883283 C34.4845748,73.1270322 34.4871012,73.064871 34.4871012,73.0011864 C34.4871012,72.9693084 34.4862225,72.937486 34.4852888,72.9057211 C34.4891334,72.8443285 34.4917148,72.7821024 34.4917148,72.718344 C34.4917148,72.6866078 34.4908361,72.6548577 34.4898474,72.6230795 C34.493747,72.561619 34.4962735,72.4992993 34.4962735,72.4355387 C34.4962735,72.4038014 34.4953947,72.3720521 34.494461,72.340432 C34.4983606,72.2788893 34.5008871,72.2164904 34.5008871,72.1527275 C34.5008871,72.120989 34.4999534,72.0892979 34.4990197,72.0576073 C34.5029193,71.9960539 34.5054458,71.9337187 34.5054458,71.8698106 C34.5054458,71.8381425 34.504567,71.8065378 34.5036333,71.774991 C34.5075329,71.7133554 34.5100594,71.6508694 34.5100594,71.5868876 C34.5100594,71.5546464 34.5091806,71.5223991 34.508192,71.4901961" id="Fill-1" fill="#C8D5E0"></path>
                    </g>
                </g>
            </g>
        </g>
    </g>
</svg>