<?xml version="1.0" encoding="UTF-8"?>
<svg width="30px" height="30px" viewBox="0 0 30 30" version="1.1" xmlns="http://www.w3.org/2000/svg" xmlns:xlink="http://www.w3.org/1999/xlink">
    <title>add-cart</title>
    <defs>
        <rect id="path-1" x="0" y="0" width="30" height="30"></rect>
    </defs>
    <g id="页面-1" stroke="none" stroke-width="1" fill="none" fill-rule="evenodd">
        <g id="Item-details详情页" transform="translate(-531.000000, -3375.000000)">
            <g id="编组-14备份-4" transform="translate(431.000000, 3059.000000)">
                <g id="编组-17备份-6" transform="translate(50.000000, 301.000000)">
                    <g id="形状" transform="translate(50.000000, 15.000000)">
                        <mask id="mask-2" fill="white">
                            <use xlink:href="#path-1"></use>
                        </mask>
                        <g id="蒙版"></g>
                        <path d="M6.86398472,6.1968272 C7.02239852,6.1928514 7.16169266,6.30110411 7.19684541,6.45562248 L10.6873418,20.0285577 C10.7772239,20.3772232 11.0918435,20.6207405 11.4519078,20.6203361 L28.3931752,20.6203361 L28.3931752,22.340419 L26.7730501,22.340419 C27.8688452,22.7802781 28.4986559,23.9355826 28.2746589,25.0949222 C28.050662,26.2542618 27.0358125,27.0918002 25.8550319,27.0918002 C24.6742512,27.0918002 23.6594017,26.2542618 23.4354048,25.0949222 C23.2114079,23.9355826 23.8412186,22.7802781 24.9370137,22.340419 L13.2988422,22.340419 C14.4609508,22.7033157 15.1838568,23.8605075 15.0003105,25.0640445 C14.8167642,26.2675814 13.7817863,27.1566858 12.5643339,27.1566858 C11.3468815,27.1566858 10.3119036,26.2675814 10.1283573,25.0640445 C9.94481104,23.8605075 10.667717,22.7033157 11.8298256,22.340419 L9.50753492,22.340419 L5.95100544,8.50874191 C5.8611837,8.16006136 5.54656179,7.91652356 5.18649808,7.91696353 L0.860012187,7.91696353 C0.385040572,7.91696353 0,7.53192296 0,7.05695135 C0,6.58197973 0.385040572,6.1968272 0.860012187,6.1968272 L6.86398472,6.1968272 Z M12.6748969,10.8356028 L12.7401097,11.0035272 C13.8987366,14.0009126 16.7814079,15.9771658 19.9949318,15.9771658 C23.2084557,15.9771658 26.091127,14.0009126 27.2497539,11.0035272 L27.3149081,10.8356028 L28.7328326,10.8356028 L26.6224102,19.0413425 L12.0641933,19.0413425 L9.95353661,10.8356028 L12.6748969,10.8356028 Z M12.2389144,7.53635043 L12.2260828,7.81173245 C12.2200283,7.94098622 12.217001,8.07006422 12.217001,8.19896644 C12.2170792,8.45587247 12.2296569,8.71205587 12.2547342,8.96751664 L12.2547342,8.96751664 L12.2831513,9.2563748 L9.54767039,9.2563748 L9.10612168,7.53635043 L12.2389144,7.53635043 Z M30,7.53635043 L30,9.2563748 L27.7063607,9.2563748 L27.7352466,8.9670479 C27.7607145,8.71158714 27.7734485,8.45555998 27.7734485,8.19896644 C27.7735266,8.07002516 27.7703431,7.94125965 27.763898,7.81266992 L27.763898,7.81266992 L27.7500703,7.53635043 L30,7.53635043 Z" id="形状结合" fill="#183B56" mask="url(#mask-2)"></path>
                        <path d="M19.9951369,2 C23.4187105,2.00022651 26.1939028,4.77572485 26.1937518,8.19929844 C26.1936007,11.622872 23.4181636,14.39805 19.99459,14.39805 C16.5710164,14.39805 13.7957017,11.6225986 13.7957017,8.19902503 C13.7985451,4.7764164 16.5725281,2.00261698 19.9951369,2 Z M19.5136871,4.33746602 L17.1332146,6.17039702 C16.9671466,6.29789298 16.8586143,6.48621089 16.8315531,6.69381985 C16.8044918,6.90142881 16.8611244,7.11127552 16.9889613,7.27708118 C17.1166839,7.44312452 17.3050933,7.55163662 17.512781,7.57873491 C17.7204686,7.60583321 17.930413,7.5492968 18.0964071,7.42156886 L19.2054936,6.57016968 L19.2054936,11.4324201 C19.2054936,11.8684957 19.5590027,12.2220048 19.9950783,12.2220048 C20.4311539,12.2220048 20.784663,11.8684957 20.784663,11.4324201 L20.784663,6.56999391 L21.8934565,7.42151027 C22.2390571,7.68551282 22.7330682,7.62037308 22.9984242,7.2758105 C23.2637801,6.93124792 23.2005784,6.43698509 22.8570592,6.17027984 L20.4765867,4.33746602 C20.1928402,4.11886683 19.7974335,4.11886683 19.5136871,4.33746602 Z" id="形状结合" fill="#49B47E" mask="url(#mask-2)"></path>
                    </g>
                </g>
            </g>
        </g>
    </g>
</svg>