<?xml version="1.0" encoding="UTF-8"?>
<svg width="190px" height="60px" viewBox="0 0 190 60" version="1.1" xmlns="http://www.w3.org/2000/svg" xmlns:xlink="http://www.w3.org/1999/xlink">
    <title>ONTO</title>
    <defs>
        <rect id="path-1" x="0" y="0" width="190" height="60"></rect>
    </defs>
    <g id="NFT交易市场" stroke="none" stroke-width="1" fill="none" fill-rule="evenodd">
        <g id="Home首页" transform="translate(-906.000000, -3342.000000)">
            <g id="编组-33" transform="translate(0.000000, 3191.000000)">
                <g id="编组-32" transform="translate(432.000000, 70.000000)">
                    <g id="编组-29" transform="translate(0.000000, 81.000000)">
                        <g id="ONTO" transform="translate(474.000000, 0.000000)">
                            <mask id="mask-2" fill="white">
                                <use xlink:href="#path-1"></use>
                            </mask>
                            <g id="蒙版"></g>
                            <g mask="url(#mask-2)" fill="#23262F" fill-rule="nonzero" id="形状">
                                <g transform="translate(0.000000, 13.000000)">
                                    <path d="M0,0 L5.27164638,5.26815516 C7.40675507,3.56055449 9.97538789,2.48159134 12.6894362,2.15229463 C15.4035468,1.82299791 18.1556868,2.25638697 20.6371535,3.4038445 C23.1186201,4.55130203 25.2314307,6.36745258 26.7383695,8.64858979 C28.2454121,10.9296958 29.0869412,13.5856195 29.1688186,16.3183292 L29.1688186,16.7482894 L29.1688186,34 L23.9042482,28.7318968 C21.7710722,30.4414509 19.2036758,31.5225857 16.4901886,31.8540436 C13.7767014,32.1853976 11.0245614,31.7539828 8.54260637,30.6082189 C6.06068254,29.4623511 3.9472485,27.6474371 2.43950969,25.367235 C0.931778156,23.086929 0.0894210152,20.4316288 0.00699157022,17.6991269 L0.00699157022,17.2691667 L0,0 Z M3.60415316,8.70101002 L3.60415316,17.2517106 C3.60495323,19.2642526 4.15262773,21.2388691 5.18862604,22.9643207 C6.22462434,24.6897724 7.71001311,26.1012221 9.48602504,27.0480073 C11.2620889,27.9946886 13.2619545,28.4409619 15.2718988,28.3392386 C17.2819471,28.2374114 19.226535,27.5913282 20.8978519,26.470086 L21.1845267,26.2743284 L4.30681283,9.40366969 L3.60415316,8.70101002 Z M8.27802189,7.52992442 L7.99136791,7.72918364 L24.8655801,24.5963615 L25.5646551,25.2955403 L25.5646551,16.7482894 C25.5642395,14.7363708 25.0170741,12.7623777 23.9816577,11.0372378 C22.9463451,9.31218106 21.4616421,7.90086639 19.686316,6.95416431 C17.9109898,6.00745184 15.9118516,5.56094994 13.9024268,5.66236152 C11.8931059,5.76377311 9.94898555,6.40928486 8.27802189,7.52992442 Z M51.2132657,8.26041773 C52.8200574,8.25154681 54.3933916,8.71983766 55.7337701,9.60604607 C57.0740448,10.4922545 58.1210986,11.7564704 58.7420367,13.2384719 C59.3630788,14.7204733 59.5300546,16.3534492 59.2217676,17.9304201 C58.9135844,19.507391 58.1440617,20.9573897 57.0108703,22.0965036 C55.8775751,23.2356175 54.4316288,24.0126214 52.8563203,24.3290131 C51.280908,24.6454048 49.6471009,24.4869492 48.1618784,23.8735961 C46.6767597,23.260347 45.4071407,22.2198392 44.5139707,20.8841364 C43.6208006,19.5484336 43.1443948,17.9775931 43.144981,16.3708014 C43.1417971,15.3083696 43.3479453,14.2557049 43.7518252,13.2729684 C44.1556013,12.2903359 44.7491084,11.3968541 45.4984735,10.6436445 C46.2477347,9.8904349 47.1380993,9.29229359 48.1187577,8.88338462 C49.0993121,8.47448605 50.1508338,8.26284132 51.2132657,8.26041773 Z M95.7461471,8.26041773 C97.3529388,8.25154681 98.9262731,8.71983766 100.266548,9.60604607 C101.606926,10.4922545 102.653876,11.7564704 103.274918,13.2384719 C103.895856,14.7204733 104.063248,16.3534492 103.754649,17.9304201 C103.446466,19.507391 102.676943,20.9573897 101.543752,22.0965036 C100.410457,23.2356175 98.9645102,24.0126214 97.3890979,24.3290131 C95.8137895,24.6454048 94.1799823,24.4869492 92.6947598,23.8735961 C91.2095373,23.260347 89.9399183,22.2198392 89.0467482,20.8841364 C88.1536821,19.5484336 87.6771723,17.9775931 87.6778495,16.3708014 C87.6741591,15.3090969 87.8796838,14.2570556 88.2827325,13.2748387 C88.6856773,12.2926218 89.2782493,11.3994517 90.0265753,10.646346 C90.7747975,9.89315722 91.664123,9.29481849 92.6437423,8.88546273 C93.6233616,8.47610697 94.6739482,8.26375569 95.7356527,8.26041773 L95.7461471,8.26041773 Z M63.9939307,8.4772811 L70.8281987,19.2268467 L70.8281987,8.48427393 L73.7716283,8.48427393 L73.7716283,24.2747745 L70.6253755,24.2747745 L63.5953499,13.1791419 L63.5953499,24.2747745 L60.6519203,24.2747745 L60.6519203,8.48427393 L63.9939307,8.4772811 Z M86.6395739,8.4772811 L86.6395739,11.2739341 L82.3887037,11.2739341 L82.3887037,24.2747745 L79.4488068,24.2747745 L79.4488068,11.294923 L75.2328487,11.294923 L75.2328487,8.49825959 L86.6395739,8.4772811 Z M51.2132657,11.1655609 C50.1795117,11.1557938 49.1662271,11.4535864 48.3020466,12.0209094 C47.4378662,12.5882324 46.7616504,13.399629 46.3595368,14.3519212 C45.9573194,15.3043173 45.8472836,16.3546961 46.0432491,17.3697471 C46.2392145,18.384798 46.7323491,19.318699 47.4602058,20.0528939 C48.1879586,20.7870888 49.1174955,21.288432 50.1307801,21.4933333 C51.1441686,21.6981306 52.1954826,21.5972386 53.1513075,21.2034374 C54.1071325,20.8096363 54.9243478,20.1406939 55.4992559,19.281397 C56.0741639,18.422204 56.3806846,17.411517 56.3800612,16.377763 C56.3870228,15.695209 56.2583881,15.0180581 56.0018458,14.3854826 C55.7451997,13.7529071 55.3655297,13.1775833 54.8849677,12.6928651 C54.4044056,12.2080429 53.8325107,11.8233854 53.2022211,11.5612323 C52.5719315,11.2990792 51.8959236,11.1646257 51.2132657,11.1655609 Z M95.7461471,11.1655609 C94.7124971,11.1565211 93.6995242,11.4548333 92.8357593,12.0225719 C91.9720984,12.5904144 91.296506,13.4020188 90.8948081,14.3544149 C90.4932141,15.306811 90.383594,16.3570859 90.579975,17.3719291 C90.776356,18.3867722 91.2698024,19.3203615 91.997763,20.0542447 C92.7257236,20.788024 93.6552605,21.2890554 94.6684412,21.493645 C95.6817258,21.6981306 96.7328319,21.5970308 97.6884491,21.2031257 C98.6440662,20.8092207 99.4610737,20.1401744 100.035878,19.2810853 C100.610578,18.4218922 100.917099,17.4114131 100.916372,16.377763 C100.923333,15.6939622 100.794387,15.0156683 100.536805,14.3822615 C100.279328,13.7487508 99.8985151,13.1728037 99.4163944,12.6878776 C98.9343777,12.2028476 98.3607165,11.8185019 97.7288683,11.55718 C97.0970201,11.2958582 96.4194535,11.1627554 95.7356527,11.1655609 L95.7461471,11.1655609 Z"></path>
                                </g>
                            </g>
                        </g>
                    </g>
                </g>
            </g>
        </g>
    </g>
</svg>