<?xml version="1.0" encoding="UTF-8"?>
<svg width="24px" height="24px" viewBox="0 0 24 24" version="1.1" xmlns="http://www.w3.org/2000/svg" xmlns:xlink="http://www.w3.org/1999/xlink">
    <title>Pinterest</title>
    <defs>
        <filter color-interpolation-filters="auto" id="filter-1">
            <feColorMatrix in="SourceGraphic" type="matrix" values="0 0 0 0 0.094118 0 0 0 0 0.231373 0 0 0 0 0.337255 0 0 0 1.000000 0"></feColorMatrix>
        </filter>
    </defs>
    <g id="页面-1" stroke="none" stroke-width="1" fill="none" fill-rule="evenodd">
        <g id="Profile" transform="translate(-1983.000000, -371.000000)">
            <g id="编组-17" transform="translate(0.000000, 158.000000)">
                <g id="编组-16" transform="translate(1633.000000, 93.000000)">
                    <g id="编组-13" transform="translate(29.000000, 120.000000)">
                        <g id="Pinterest" transform="translate(233.000000, 0.000000)" filter="url(#filter-1)">
                            <g transform="translate(88.000000, 0.000000)">
                                <path d="M12,0 C5.37499999,0 0,5.372 0,12 C0,16.913 2.95499999,21.135 7.184,22.991 C7.15000001,22.154 7.17900001,21.147 7.39199999,20.235 L8.93600001,13.697 C8.93600001,13.697 8.55300001,12.931 8.55300001,11.797 C8.55300001,10.019 9.58500002,8.69100001 10.868,8.69100001 C11.958,8.69100001 12.486,9.511 12.486,10.494 C12.486,11.59 11.786,13.231 11.426,14.751 C11.126,16.025 12.064,17.063 13.32,17.063 C15.594,17.063 17.125,14.143 17.125,10.683 C17.125,8.05300002 15.354,6.08500002 12.132,6.085 C8.49199999,6.085 6.225,8.79899999 6.225,11.83 C6.225,12.877 6.532,13.614 7.015,14.184 C7.238,14.448 7.26800001,14.552 7.187,14.854 C7.131,15.073 6.99799999,15.606 6.94300001,15.817 C6.86300001,16.12 6.61700002,16.23 6.343,16.117 C4.66499999,15.433 3.885,13.597 3.885,11.532 C3.885,8.124 6.75999999,4.03499999 12.461,4.03499999 C17.043,4.03499999 20.059,7.35199999 20.059,10.91 C20.059,15.618 17.442,19.134 13.583,19.134 C12.289,19.134 11.069,18.434 10.652,17.64 C10.652,17.64 9.954,20.404 9.80800001,20.938 C9.55400002,21.862 9.05600001,22.788 8.6,23.508 C9.68,23.826 10.82,24 12,24 C18.628,24 24,18.628 24,12 C24,5.372 18.628,0 12,0" id="路径" fill="#000000" fill-rule="nonzero"></path>
                            </g>
                        </g>
                    </g>
                </g>
            </g>
        </g>
    </g>
</svg>