<?xml version="1.0" encoding="UTF-8"?>
<svg width="120px" height="120px" viewBox="0 0 120 120" version="1.1" xmlns="http://www.w3.org/2000/svg" xmlns:xlink="http://www.w3.org/1999/xlink">
    <title>警告</title>
    <defs>
        <rect id="path-1" x="0" y="0" width="120" height="120"></rect>
    </defs>
    <g id="NFT交易市场" stroke="none" stroke-width="1" fill="none" fill-rule="evenodd">
        <g id="弹窗" transform="translate(-257.000000, -211.000000)">
            <g id="链接钱包备份-8" transform="translate(85.000000, 142.000000)">
                <g id="警告" transform="translate(172.000000, 69.000000)">
                    <mask id="mask-2" fill="white">
                        <use xlink:href="#path-1"></use>
                    </mask>
                    <g id="蒙版"></g>
                    <g id="编组-18" mask="url(#mask-2)">
                        <g transform="translate(1.991701, 13.443983)">
                            <g id="编组">
                                <path d="M79.2502686,0 L23.7401428,0 C20.0133411,0.00258575163 16.9926354,3.0227668 16.9894024,6.74956799 L16.9894024,24.948418 L6.866809,24.948418 C3.1400182,24.9593861 0.12303397,27.9805628 0.117241105,31.7073653 L0.117241105,75.0717971 C0.117241105,82.3243293 1.54758208,88.2285891 8.80128656,88.2285891 L71.1852559,88.2285891 C79.3475786,88.2285891 85.9916734,81.5833658 85.9916734,73.4128361 L85.9916734,6.75894726 C85.9953651,4.96826722 85.2868782,3.24959813 84.022324,1.98174504 C82.7577697,0.713891948 81.0409523,0.000929884869 79.2502686,0 Z" id="路径" fill="#DDE8F0" fill-rule="nonzero"></path>
                                <path d="M0,74.6227639 L0,26.6245626 C0,25.5764274 0.636618992,24.7170505 1.42096171,24.7170505 L17.0163678,24.5787061 L17.0163678,74.4820746 C17.0093333,79.3147512 16.2484388,88.0785207 8.50818393,88.1350782 C0.767928997,88.1922445 0,79.4566129 0,74.6227639 Z" id="路径" fill="#CFDCE7" fill-rule="nonzero"></path>
                                <path d="M29.646886,36.846473 L71.8536685,36.846473 C73.1023809,36.846473 74.1146624,37.8587545 74.1146624,39.1074669 C74.1146624,40.3561794 73.1023809,41.3684608 71.8536685,41.3684608 L29.646886,41.3684608 C28.3981736,41.3684608 27.3858921,40.3561794 27.3858921,39.1074669 C27.3858921,37.8587545 28.3981736,36.846473 29.646886,36.846473 Z" id="路径" fill="#CFDCE7" fill-rule="nonzero"></path>
                                <path d="M29.646886,52.2821577 L65.4568484,52.2821577 C66.7055609,52.2821577 67.7178423,53.2944391 67.7178423,54.5431516 C67.7178423,55.791864 66.7055609,56.8041455 65.4568484,56.8041455 L29.646886,56.8041455 C28.3981736,56.8041455 27.3858921,55.791864 27.3858921,54.5431516 C27.3858921,53.2944391 28.3981736,52.2821577 29.646886,52.2821577 Z" id="路径" fill="#CFDCE7" fill-rule="nonzero"></path>
                                <path d="M29.646886,68.2157676 L52.5107904,68.2157676 C53.7595028,68.2157676 54.7717842,69.2280491 54.7717842,70.4767615 C54.7717842,71.7254739 53.7595028,72.7377554 52.5107904,72.7377554 L29.646886,72.7377554 C28.3981735,72.7377554 27.3858921,71.7254739 27.3858921,70.4767615 C27.3858921,69.2280491 28.3981735,68.2157676 29.646886,68.2157676 Z" id="路径" fill="#CFDCE7" fill-rule="nonzero"></path>
                                <path d="M36.8734699,16.8612971 C36.8279081,16.898658 36.7841954,16.938156 36.7421839,16.9794226 C36.6965481,17.0167099 36.6529094,17.0562816 36.6108239,17.0974744 C36.5651881,17.1348354 36.5215494,17.1744071 36.4794639,17.2156 C36.4339021,17.2528873 36.3901894,17.292459 36.34803,17.3336518 C36.3025421,17.3710128 36.2588294,17.4105845 36.216744,17.4517037 C36.1712561,17.4891384 36.1274695,17.5286364 36.0854579,17.5698292 C36.0398222,17.6071902 35.9961835,17.6466882 35.954098,17.6878811 C35.9085362,17.7252421 35.8648235,17.7648137 35.822738,17.8060066 C35.7771762,17.8433676 35.7335375,17.8828656 35.691526,17.9240585 C35.6458162,17.9614194 35.6021775,18.0009911 35.560018,18.042184 C35.5145302,18.079545 35.4708175,18.119043 35.428732,18.1602359 C35.3832442,18.1975968 35.3394575,18.2371685 35.2973721,18.2783614 C35.2518103,18.3157224 35.2080976,18.3552204 35.166086,18.3964132 C35.1205243,18.4337742 35.0768116,18.4733459 35.0348,18.5144651 C34.9890903,18.5518261 34.9455256,18.5914715 34.9033661,18.6325906 C34.8578043,18.6699516 34.8141656,18.7095233 34.7720801,18.7506425 C34.7265183,18.7880035 34.6828056,18.8276488 34.6407201,18.868768 C34.5950844,18.906129 34.5514456,18.9457007 34.5093601,18.9868199 C34.4637983,19.0242545 34.4200857,19.0638262 34.3780002,19.1049454 C34.3324384,19.1423064 34.2887996,19.1818781 34.2467142,19.2229973 C34.2010784,19.2603582 34.1574397,19.2999299 34.1153542,19.3410491 C34.0697924,19.3784838 34.0261537,19.4180555 33.9839942,19.4591747 C33.9384324,19.4965356 33.8948676,19.536181 33.8526342,19.5772265 C33.8070724,19.6146612 33.7634337,19.6542329 33.7213482,19.695352 C33.6757864,19.732713 33.6321477,19.7722847 33.5899882,19.8134039 C33.5444264,19.8508386 33.5007877,19.8904103 33.4586283,19.9315294 C33.4130665,19.9688904 33.3694277,20.0084621 33.3272683,20.0495813 C33.2817065,20.087016 33.2381417,20.1265876 33.1959083,20.1676331 C33.1504205,20.2050678 33.1067818,20.2447132 33.0646223,20.2857587 C33.0191345,20.3231933 32.9754957,20.362765 32.9333363,20.4038105 C32.8877005,20.4412452 32.8440618,20.4808906 32.8019024,20.5219361 C32.7563406,20.5593707 32.7127018,20.5989424 32.6705424,20.6400616 C32.6250545,20.6774226 32.5814158,20.717068 32.5391824,20.7580398 C32.4936946,20.7955481 32.4500558,20.8351198 32.4078964,20.8761653 C32.3933995,20.8881031 32.3794203,20.9006305 32.3653671,20.9128631 C32.3652932,20.9105787 32.3652192,20.9082206 32.3651452,20.9059362 C32.3678819,20.8598061 32.369731,20.8133812 32.369731,20.7665878 C32.369731,20.7542079 32.3690653,20.7419753 32.3688434,20.7295953 C32.3715801,20.6834652 32.3733552,20.6370403 32.3733552,20.590247 C32.3733552,20.577867 32.3726156,20.5657081 32.3724677,20.5533281 C32.3752783,20.507198 32.3770534,20.4606994 32.3770534,20.4138324 C32.3770534,20.4015261 32.3762398,20.3892935 32.3760919,20.3769873 C32.3788286,20.3308571 32.3806777,20.2843586 32.3806777,20.2374915 C32.3806777,20.2251853 32.379938,20.2130264 32.3797161,20.2007938 C32.3824528,20.1545163 32.3843759,20.1080914 32.3843759,20.061077 C32.3843759,20.0488444 32.3836362,20.0367592 32.3834143,20.0245266 C32.386151,19.9782491 32.3879261,19.9317505 32.3879261,19.8847361 C32.3879261,19.8725035 32.3872604,19.8604183 32.3871125,19.8481857 C32.3898492,19.8019082 32.3915504,19.7553359 32.3915504,19.7083952 C32.3915504,19.6961626 32.3908847,19.6841511 32.3907368,19.6719922 C32.3934734,19.625641 32.3952486,19.5789951 32.3952486,19.5319807 C32.3952486,19.5198218 32.3945089,19.5078102 32.394287,19.4956514 C32.3970977,19.4493002 32.3989468,19.4026542 32.3989468,19.3556398 C32.3989468,19.3434809 32.3982071,19.3314694 32.3979852,19.3193842 C32.4007219,19.273033 32.402571,19.2263133 32.402571,19.1792989 C32.402571,19.16714 32.4018313,19.1552022 32.4016834,19.143117 C32.4044201,19.0966921 32.4061952,19.0499725 32.4061952,19.0028844 C32.4061952,18.9907992 32.4054556,18.9788613 32.4053077,18.9667761 C32.4080443,18.9203512 32.4098195,18.8736316 32.4098195,18.8264698 C32.4098195,18.8144583 32.4091538,18.8025941 32.4089319,18.7905826 C32.4116686,18.7440841 32.4135177,18.6973644 32.4135177,18.6501289 C32.4135177,18.6381174 32.412778,18.6262533 32.4125561,18.6142418 C32.4153668,18.5677432 32.4171419,18.5209498 32.4171419,18.4737881 C32.4171419,18.4617765 32.4164022,18.4499861 32.4162543,18.4379746 C32.418991,18.391476 32.4207661,18.344609 32.4207661,18.2973735 C32.4207661,18.2854357 32.4200265,18.2736452 32.4198786,18.2617074 C32.4226152,18.2151351 32.4244643,18.1682681 32.4244643,18.1210326 C32.4244643,18.1090948 32.4237247,18.0973043 32.4235028,18.0854402 C32.4262395,18.0387943 32.4280885,17.9919272 32.4280885,17.9446918 C32.4280885,17.9327539 32.4274229,17.9210372 32.427201,17.909173 C32.4299376,17.8625271 32.4317128,17.81566 32.4317128,17.7682772 C32.4317128,17.7564131 32.4309731,17.7446963 32.4308992,17.7328322 C32.4336358,17.6861862 32.435337,17.6392455 32.435337,17.5919363 C32.435337,17.5800722 32.4345974,17.5684291 32.4344494,17.5566387 C32.4371861,17.509919 32.4390352,17.4629783 32.4390352,17.4155218 C32.4390352,17.4037313 32.4382956,17.3920882 32.4380737,17.3802978 C32.4408103,17.3335781 32.4427334,17.2865637 32.4427334,17.2391809 C32.4427334,17.2273904 32.4419938,17.2158211 32.4417719,17.2040306 C32.4445085,17.157311 32.4463576,17.1102229 32.4463576,17.0627663 C32.4463576,17.0510496 32.445618,17.0394802 32.4454701,17.0277634 C32.4482067,16.9809701 32.4499079,16.933882 32.4499079,16.8864254 C32.4499079,16.8747087 32.4492422,16.8631393 32.4490943,16.8514963 C32.451831,16.8046292 32.4535321,16.7575411 32.4535321,16.7100846 C32.4535321,16.6983678 32.4528665,16.6868721 32.4526446,16.6752291 C32.4554552,16.628362 32.4572303,16.5812739 32.4572303,16.53367 C32.4572303,16.5220269 32.4565647,16.510605 32.4563428,16.4989619 C32.4590794,16.4520949 32.4609285,16.4049331 32.4609285,16.3573291 C32.4609285,16.3456861 32.4601889,16.3342641 32.460041,16.322621 C32.4627776,16.275754 32.4645528,16.2285922 32.4645528,16.1809883 C32.4645528,16.1718507 32.4639611,16.1629342 32.4638131,16.1538702 C32.4655143,16.1265311 32.4666977,16.0990447 32.4675113,16.0714845 C32.470174,16.046135 32.4718752,16.0204908 32.4738722,15.9949203 C32.4780882,15.9667706 32.4814166,15.9383261 32.484671,15.9098817 C32.4899224,15.8823215 32.4952478,15.8546877 32.4995377,15.826759 C32.505085,15.8028834 32.5109282,15.778934 32.5157358,15.7547636 C32.5220228,15.7321407 32.5283837,15.7094441 32.5340049,15.6865264 C32.5414013,15.6642719 32.54828,15.6419438 32.5549367,15.6194682 C32.5632207,15.5978033 32.570839,15.5758436 32.5785312,15.5538839 C32.5877767,15.5322926 32.5962826,15.5103329 32.6049364,15.4883732 C32.6166966,15.4640554 32.6275693,15.4392955 32.638442,15.4146092 C32.6510159,15.3908809 32.6634418,15.367079 32.6752761,15.3429086 C32.6875541,15.3218331 32.6999061,15.3009051 32.7115184,15.2794612 C32.7237225,15.2603754 32.7358525,15.2413633 32.7473909,15.2219828 C32.7602606,15.2035602 32.7729824,15.1849903 32.7854084,15.1662729 C32.7989438,15.1485136 32.8121094,15.1303858 32.825275,15.112258 C32.8397719,15.0949407 32.8536771,15.0771077 32.8677303,15.0592746 C32.8854816,15.0398204 32.9024933,15.0196293 32.919653,14.9995855 C32.93807,14.9807945 32.956413,14.9619298 32.9741644,14.9425492 C32.9919157,14.9258952 33.0096671,14.9093886 33.0268267,14.8922187 C33.0435426,14.8777017 33.0601105,14.8631848 33.0763826,14.8482993 C33.0936162,14.8345192 33.1107018,14.8205918 33.1275656,14.8063695 C33.1453909,14.7934001 33.1628464,14.7799884 33.180228,14.7665031 C33.1990888,14.7539021 33.2175798,14.7406378 33.2360707,14.7275209 C33.2584818,14.7138882 33.2804491,14.6995186 33.3024164,14.6852227 C33.3252713,14.6724743 33.3481261,14.6595785 33.3706112,14.6461668 C33.3919867,14.6352607 33.4134363,14.6246493 33.4344421,14.6132273 C33.4544123,14.6040897 33.4743826,14.5949521 33.494131,14.5852987 C33.514471,14.5770454 33.5347372,14.5684973 33.5549293,14.5597281 C33.5755653,14.5523591 33.5959793,14.5445479 33.6164673,14.5366631 C33.6392482,14.5296625 33.6615853,14.5217776 33.6840704,14.5142612 C33.7098098,14.5075554 33.7350315,14.5001127 33.7603272,14.49267 C33.7862146,14.4869958 33.812102,14.4813217 33.8376195,14.4749106 C33.8609922,14.4707103 33.8844387,14.4668047 33.9075155,14.4620148 C33.9295567,14.4590672 33.951598,14.4560459 33.9735653,14.4525088 C33.9958284,14.4505928 34.0180176,14.4482347 34.0401328,14.4457292 C34.0625439,14.4447713 34.0848071,14.4430764 34.1070702,14.4415289 C34.1085495,14.4415289 34.1100288,14.4416763 34.1115081,14.4416763 C34.1356943,14.4416763 34.1596586,14.4404972 34.1836969,14.439834 C34.2106197,14.4410131 34.2376166,14.4415289 34.2647614,14.4418237 C34.2913884,14.4441081 34.3178675,14.4464662 34.3447164,14.44794 C34.3677931,14.4508139 34.3907959,14.4539826 34.4140946,14.456267 C34.435692,14.4599515 34.4572156,14.4635623 34.4790349,14.4666573 C34.5001886,14.4712998 34.5214163,14.4755738 34.5427918,14.4796268 C34.5635757,14.4850799 34.5845075,14.4900171 34.6054393,14.4950281 C34.6278504,14.5019549 34.6504834,14.5080712 34.6731903,14.5144086 C34.6968588,14.5229567 34.7208231,14.5308415 34.7450093,14.5386527 C34.7616512,14.5454322 34.778515,14.5520643 34.7953787,14.5584754 C34.8657924,14.5899412 34.9379073,14.6183119 35.0115014,14.6434403 C35.0401254,14.6553044 35.0690453,14.6666527 35.0981871,14.6774852 C35.1126101,14.6837489 35.127181,14.6898652 35.1417519,14.6959078 C35.1583198,14.703719 35.1750357,14.7109406 35.1916776,14.7183833 C35.2081715,14.726784 35.2244436,14.7355532 35.2411595,14.7435854 C35.2547688,14.7511018 35.268674,14.7583235 35.2825053,14.7656188 C35.2984815,14.7750512 35.3146796,14.7841888 35.3309517,14.7932527 C35.3464102,14.8030535 35.3615728,14.8132964 35.3771792,14.8227288 C35.3902708,14.831719 35.4038801,14.8401197 35.4171937,14.8487415 C35.4323563,14.8598687 35.4478147,14.8707012 35.4632732,14.88146 C35.4768086,14.891924 35.4901221,14.9026828 35.5038794,14.9129257 C35.5172669,14.9239056 35.5310242,14.9342959 35.5445596,14.9450547 C35.5707428,14.9681197 35.5972959,14.9907427 35.6244406,15.0127761 C35.6671918,15.0511687 35.7115702,15.0877191 35.7568361,15.1231641 C35.7904158,15.1524929 35.8249569,15.1809373 35.8600898,15.2084238 C35.8937434,15.2377525 35.9282106,15.266197 35.9633435,15.2936835 C35.9969971,15.3230859 36.0313903,15.3514566 36.0666711,15.3790168 C36.1003247,15.4083455 36.1347179,15.43679 36.1699248,15.4642765 C36.2035044,15.4936789 36.2379716,15.5220497 36.2731785,15.5496098 C36.3067581,15.5789386 36.3412253,15.607383 36.3763582,15.6348695 C36.4100118,15.6641982 36.444405,15.6926427 36.4796858,15.7201292 C36.5132654,15.7495316 36.5477326,15.7779024 36.5829395,15.8053888 C36.6164451,15.8347913 36.6509863,15.8632357 36.6861192,15.8907222 C36.7197728,15.9201246 36.7543139,15.9484954 36.7894468,15.9760556 C36.8230265,16.0053843 36.8574937,16.0338288 36.8927005,16.0613152 C36.9263541,16.090644 36.9607473,16.1190884 36.9959542,16.1465749 C37.0295338,16.1759773 37.064001,16.2043481 37.0991339,16.2318346 C37.1327875,16.261237 37.1672547,16.2896815 37.2024615,16.3171679 C37.2360412,16.3465704 37.2705823,16.3749411 37.3058631,16.4025013 C37.3185849,16.4137022 37.3313067,16.4249031 37.3443983,16.4358093 C37.3181411,16.4589481 37.2924017,16.4826026 37.2675498,16.5070678 C37.221914,16.5444288 37.1782013,16.5839268 37.1361898,16.6251197 C37.090628,16.6624806 37.0469153,16.7019786 37.0048298,16.7431715 C36.9592681,16.7805325 36.9154814,16.8201042 36.8734699,16.8612971 M47.8175051,19.6306202 C47.7495042,19.5622108 47.6766827,19.4986566 47.5994057,19.4404651 C47.5314779,19.3720556 47.4586564,19.3085015 47.3815255,19.2503824 C47.3135247,19.1819005 47.2407032,19.1183463 47.1634262,19.0602273 C47.0954984,18.9917453 47.0226769,18.9281912 46.9454729,18.8700721 C46.8775451,18.8015902 46.8047236,18.738036 46.7274466,18.679917 C46.6595919,18.611435 46.5867704,18.5478809 46.5094934,18.4897618 C46.4415656,18.4212799 46.3687441,18.3577257 46.2914671,18.2996067 C46.2236123,18.2311247 46.1507908,18.1674981 46.0734408,18.1094515 C46.0478766,18.0835806 46.021728,18.0582894 45.994776,18.0338678 C45.9559914,17.9890103 45.9153078,17.945892 45.8726521,17.9046579 C45.8431437,17.8720475 45.8123935,17.8405965 45.780767,17.8100876 C45.7512585,17.7774047 45.7205084,17.7459537 45.6889549,17.7153724 C45.6593734,17.6827619 45.6285503,17.651311 45.5969967,17.6207296 C45.5674883,17.5881916 45.5367382,17.5566682 45.5051116,17.5261593 C45.4756032,17.4935489 45.4448531,17.4620979 45.4132265,17.4315165 C45.3837181,17.3989061 45.352968,17.3674551 45.3212683,17.3368738 C45.2917599,17.3042633 45.2610828,17.2728124 45.2294562,17.242231 C45.1998748,17.2096206 45.1691977,17.1782421 45.1376442,17.1476607 C45.1081357,17.1150503 45.0773856,17.0835993 45.045759,17.0530179 C45.0161776,17.0204075 44.9854275,16.9889565 44.9538009,16.9583752 C44.9242925,16.9257647 44.8935424,16.8943138 44.8619158,16.8637324 C44.8324074,16.8311944 44.8016572,16.799671 44.7701037,16.7690896 C44.7405222,16.7365517 44.7096991,16.7051007 44.6782186,16.6745193 C44.6486371,16.6419089 44.617887,16.6104579 44.5863335,16.5798766 C44.556825,16.5472661 44.5260019,16.5158152 44.4944483,16.4852338 C44.4648669,16.4526234 44.4341168,16.4212449 44.4025632,16.390591 C44.3744426,16.3596473 44.3452994,16.3296457 44.3153527,16.3004413 C44.3245558,16.2930496 44.3339781,16.2858028 44.3431081,16.2783386 C44.3871516,16.2469601 44.4303917,16.2144222 44.4720979,16.18 C44.5162144,16.1486215 44.5594545,16.116156 44.6011607,16.0817339 C44.6452772,16.0503554 44.6884443,16.0178174 44.7302235,15.9834677 C44.77434,15.9520167 44.8175801,15.9195512 44.8592133,15.8852016 C44.9033298,15.8537506 44.9465699,15.8212126 44.9882761,15.7868629 C45.0323926,15.7554844 45.0756327,15.7229465 45.1172658,15.6885968 C45.1614554,15.6571458 45.2046955,15.6246078 45.2464017,15.5902582 C45.2905182,15.5588072 45.3336852,15.5263417 45.3754645,15.491992 C45.4194349,15.4605411 45.462748,15.4280031 45.5044542,15.3937259 C45.5485708,15.3622749 45.5918108,15.3297369 45.6335901,15.2953873 C45.6774875,15.2639363 45.7208006,15.2314708 45.7625068,15.1971936 C45.8079381,15.1647281 45.8523468,15.1311031 45.8952947,15.0957388 C45.9531429,15.0541424 46.0090189,15.0100096 46.0628499,14.9636303 C46.0825709,14.9487744 46.1020727,14.9335562 46.1212824,14.9181206 C46.140273,14.9047865 46.1595557,14.8915974 46.1782541,14.8777561 C46.1941769,14.8673932 46.2100998,14.8570304 46.2258035,14.8463051 C46.2420186,14.8367394 46.2579414,14.8268838 46.2737912,14.8169557 C46.2942426,14.8060131 46.3140366,14.7942734 46.3340498,14.7828235 C46.3556698,14.7721707 46.3771437,14.7613006 46.3983986,14.7500681 C46.4184847,14.7410821 46.4386439,14.732386 46.458438,14.7228927 C46.4752373,14.7160083 46.4921097,14.7091963 46.508763,14.702022 C46.5392939,14.6911519 46.5693136,14.6793397 46.5993333,14.6673825 C46.7018094,14.6349894 46.8014368,14.5960743 46.8979235,14.5516516 C46.9277971,14.5414337 46.9573055,14.5307085 46.9866678,14.5194035 C47.0266211,14.5091131 47.0662821,14.4978806 47.1055049,14.4857061 C47.1410757,14.479039 47.1762813,14.4715749 47.2112678,14.4634585 C47.2512941,14.459038 47.2911012,14.4537478 47.3306162,14.4475156 C47.3705694,14.4459213 47.4102305,14.44324 47.4495994,14.439834 C47.4771357,14.4407036 47.5045259,14.4419356 47.5322083,14.4419356 C47.5436027,14.4419356 47.5547779,14.4412109 47.5661722,14.441066 C47.6079515,14.445414 47.6500229,14.44882 47.6923864,14.451139 C47.7281033,14.4573712 47.7640393,14.4628063 47.8001214,14.4675891 C47.840805,14.4778071 47.8817078,14.4870105 47.9231218,14.4951993 C47.9586196,14.5067217 47.9945556,14.5173744 48.0307837,14.527375 C48.0668658,14.541941 48.10324,14.5557823 48.1401255,14.568754 C48.1759885,14.5862187 48.2123627,14.6028863 48.2491022,14.6186842 C48.2805827,14.6367287 48.3123554,14.6540484 48.3445663,14.670716 C48.3794067,14.6941955 48.4148314,14.7168054 48.4509134,14.7384733 C48.4793262,14.7603585 48.5081773,14.7815915 48.5376857,14.8022448 C48.5677785,14.8290578 48.5985286,14.8550737 48.629936,14.8803649 C48.656888,14.9079027 48.6846435,14.9347157 48.7129832,14.9608765 C48.7378171,14.9897911 48.7631622,15.018126 48.7893107,15.0458086 C48.8139254,15.0789988 48.8392705,15.1115368 48.8654921,15.1432776 C48.885067,15.1736416 48.9052992,15.2034258 48.9261158,15.2327752 C48.9465672,15.2701685 48.9681142,15.3069096 48.9904646,15.343071 C49.0063144,15.3772032 49.0228216,15.4109007 49.0402053,15.4441634 C49.0548134,15.4829336 49.0705902,15.5211965 49.0870974,15.5589521 C49.0987839,15.5980122 49.1114199,15.6366375 49.1250055,15.6749004 C49.1337703,15.7141054 49.1434847,15.7528756 49.1540756,15.7913559 C49.1605032,15.8352713 49.1678803,15.8787519 49.1766452,15.9217977 C49.1796399,15.9609303 49.183438,15.9997729 49.1883317,16.0383257 C49.1883317,16.0399925 49.1881856,16.0416592 49.1881856,16.0433985 C49.1881856,16.1086918 49.1916185,16.1731881 49.1968774,16.2371045 C49.1955627,16.2689178 49.1944671,16.3006587 49.1944671,16.3328343 C49.1944671,16.3976204 49.1977539,16.4616093 49.2029398,16.525091 C49.2016251,16.5568319 49.2005295,16.5886452 49.2005295,16.6207483 C49.2005295,16.6855344 49.2038893,16.7494509 49.2090752,16.8128601 C49.2076875,16.8446734 49.2065918,16.8765592 49.2065918,16.9087348 C49.2065918,16.9734485 49.2100248,17.0372925 49.2151376,17.1007017 C49.2138229,17.132515 49.2127273,17.1644732 49.2127273,17.1966489 C49.2127273,17.26129 49.2161602,17.325134 49.221273,17.3883983 C49.2199583,17.4203565 49.2188627,17.4523872 49.2188627,17.4845629 C49.2188627,17.549204 49.2222225,17.6129756 49.2274084,17.6762398 C49.2260937,17.7081981 49.2249981,17.7403013 49.2249981,17.7725494 C49.2249981,17.8371181 49.2282849,17.9008896 49.2335438,17.9640814 C49.2321561,17.9961121 49.2310605,18.0281428 49.2310605,18.0605359 C49.2310605,18.1250321 49.2344203,18.1887312 49.2396062,18.251923 C49.2382184,18.2839537 49.2371228,18.3160568 49.2371228,18.3484499 C49.2371228,18.4128736 49.2405557,18.4765002 49.2457416,18.5396196 C49.2443539,18.5717228 49.2432582,18.6039709 49.2432582,18.6364364 C49.2432582,18.7008601 49.2466181,18.7644143 49.251804,18.8274611 C49.2504893,18.8596368 49.2493937,18.8918849 49.2493937,18.9243504 C49.2493937,18.9887017 49.2527535,19.0522558 49.2579394,19.1152302 C49.2565516,19.1474783 49.2555291,19.1797264 49.2555291,19.2123369 C49.2555291,19.2766157 49.2588159,19.3400974 49.2640748,19.4030718 C49.262614,19.4353199 49.2615914,19.4676405 49.2615914,19.5002509 C49.2615914,19.5645297 49.2649513,19.6279389 49.2702102,19.6908409 C49.2687494,19.7231615 49.2676538,19.7555545 49.2676538,19.7881649 C49.2676538,19.8524438 49.2710867,19.9157805 49.2762726,19.97861 C49.2748848,20.011003 49.2737892,20.0434685 49.2737892,20.0761514 C49.2737892,20.1402853 49.2771491,20.2036221 49.282408,20.2664515 C49.2810203,20.2988446 49.2799246,20.3313825 49.2799246,20.3641379 C49.2799246,20.4281993 49.2832845,20.4914636 49.2884704,20.5542206 C49.2870826,20.5866861 49.2860601,20.6192241 49.2860601,20.652052 C49.2860601,20.7161134 49.2893469,20.7793052 49.2946058,20.8419897 C49.2935832,20.8655417 49.293072,20.8891661 49.2927798,20.9128631 C49.2395332,20.8630053 49.1838032,20.8156839 49.1254437,20.7715511 C49.0575159,20.7031417 48.9846214,20.63966 48.9074174,20.581396 C48.8394166,20.5129865 48.7665951,20.4495048 48.6894642,20.3911684 C48.6213903,20.3228314 48.5485688,20.2593497 48.4714379,20.2010857 C48.403437,20.1326762 48.3306155,20.0691945 48.2534846,20.0109305 C48.1854107,19.9425211 48.1125892,19.8789669 48.0354583,19.8207754 C47.9674575,19.7523659 47.894709,19.6888118 47.8175051,19.6306202 M54.2649475,16.4313118 C54.2703251,16.3662177 54.2738589,16.3006023 54.2738589,16.2341675 C54.2738589,16.1639344 54.2700946,16.094595 54.2640256,16.0258515 C54.2654084,15.9924851 54.2666376,15.9590443 54.2666376,15.9253801 C54.2666376,15.7942236 54.2555751,15.6655995 54.2349866,15.5401034 C54.2295322,15.3813154 54.2083291,15.2264748 54.1729906,15.0767733 C54.1560128,14.9137401 54.1222108,14.7554735 54.0737356,14.6035375 C54.045388,14.4505589 54.0025977,14.3026448 53.9465171,14.1609124 C53.9069534,14.0078593 53.8524861,13.8605411 53.784882,13.7203727 C53.7347936,13.5723842 53.6708771,13.4305773 53.5942079,13.2965162 C53.5346703,13.1547093 53.4616887,13.01968 53.3771836,12.8924709 C53.3061226,12.7514833 53.2217712,12.617869 53.1254354,12.4934901 C53.0473835,12.3634508 52.9575777,12.2409339 52.8571704,12.1273543 C52.7674414,11.9978364 52.6654207,11.8772559 52.5528754,11.766581 C52.456386,11.6467452 52.3490646,11.535698 52.2319867,11.4348542 C52.1265859,11.3205299 52.0103531,11.2158133 51.8850551,11.121896 C51.7708965,11.0137534 51.6465973,10.9156653 51.5133098,10.8294938 C51.3942345,10.7314058 51.2658637,10.6438192 51.1297337,10.5677023 C50.9990582,10.4737105 50.859164,10.3911885 50.7112801,10.321998 C50.5792986,10.2407421 50.4394044,10.1707324 50.2925961,10.1132351 C50.1499362,10.0374906 49.9989795,9.9746308 49.8416465,9.92562401 C49.6956064,9.86090229 49.5425755,9.80869293 49.3834755,9.77070895 C49.2314433,9.71529702 49.0726506,9.67351464 48.9085572,9.64625555 C48.7497646,9.60045134 48.5849029,9.56857459 48.4151246,9.55263621 C48.2556405,9.51874854 48.0907021,9.49901176 47.9217688,9.49454306 C47.7945503,9.47629585 47.6643357,9.46653918 47.5318165,9.46653918 C47.4879507,9.46653918 47.4443154,9.46773084 47.4009105,9.46974176 C47.3382231,9.46549649 47.2751516,9.46251735 47.2113119,9.46251735 C47.1064488,9.46251735 47.0031222,9.46907145 46.9014089,9.4806156 C46.8995651,9.4806156 46.8977214,9.48046664 46.8958777,9.48046664 C46.7235642,9.48046664 46.5553992,9.49692637 46.3923813,9.52731355 C46.2240626,9.53915562 46.0601228,9.56574441 45.9019448,9.60640961 C45.7370831,9.62949791 45.5772149,9.66740742 45.4235694,9.71827616 C45.2709994,9.75037635 45.1233461,9.79506339 44.9818385,9.8512201 C44.782253,9.90789815 44.5924239,9.98647286 44.4151938,10.0841885 C44.3163998,10.1294714 44.2210627,10.1807125 44.1294132,10.2369437 C44.0483651,10.2799922 43.9700828,10.327286 43.8943355,10.3780058 C43.8144398,10.4246293 43.7371561,10.4752001 43.663099,10.5294948 C43.5865067,10.5785761 43.5124496,10.6310089 43.4417726,10.6873146 C43.3710957,10.7366193 43.3031075,10.7891265 43.2380386,10.8447619 C43.1695896,10.896152 43.1039829,10.9508191 43.0412187,11.0084654 C42.9720782,11.0642497 42.9062411,11.123609 42.8435538,11.1860219 C42.7757193,11.2453067 42.7111881,11.308092 42.650114,11.3740054 C42.585122,11.4355245 42.5233565,11.5000973 42.4654321,11.5680216 C42.4473788,11.5865667 42.4297095,11.6052608 42.4122708,11.6242528 C42.3730912,11.6618644 42.3352175,11.7007421 42.2985731,11.7406625 C42.2579338,11.7793913 42.2187542,11.8195351 42.1808806,11.8607962 C42.1400877,11.8995249 42.1009849,11.9396688 42.0629577,11.9810043 C42.0223184,12.0197331 41.9831388,12.0598769 41.9451884,12.1011379 C41.9045491,12.1399412 41.8653695,12.1800106 41.8274959,12.2213461 C41.7867798,12.2600748 41.7476002,12.3001442 41.7097266,12.3415542 C41.6690106,12.380283 41.6297541,12.4203523 41.5918805,12.4616878 C41.5511644,12.5004166 41.5119848,12.540486 41.4741112,12.581896 C41.4333951,12.6205503 41.3941387,12.6606941 41.3563419,12.7020296 C41.3156258,12.7406839 41.2763694,12.7808278 41.2384958,12.8222378 C41.1978566,12.860892 41.1586001,12.9010359 41.1208033,12.9423714 C41.0800873,12.9811002 41.0408308,13.0211696 41.003034,13.0625795 C40.9622411,13.1012338 40.9230615,13.1413032 40.8852647,13.1827132 C40.8798871,13.1877032 40.8743559,13.1925443 40.8690551,13.1976089 C40.8654445,13.1940339 40.8614497,13.1906079 40.8576854,13.1871074 C40.8265721,13.1537411 40.7942298,13.1214175 40.7610423,13.0898386 C40.7298523,13.0564723 40.6975099,13.0242232 40.6643993,12.9925698 C40.6332092,12.9592035 40.6008669,12.9268799 40.5678331,12.8953011 C40.5365662,12.8619347 40.5042238,12.8296856 40.47119,12.7980323 C40.44,12.7647404 40.4075808,12.7324168 40.374547,12.7007635 C40.343357,12.6674717 40.3109378,12.635148 40.277904,12.6035692 C40.2467139,12.5702029 40.2142947,12.5379537 40.1812609,12.5063004 C40.1500709,12.4729341 40.1176517,12.4406849 40.0846947,12.4090316 C40.0534279,12.3757398 40.0210087,12.3434162 39.9879749,12.3117628 C39.956708,12.2783965 39.9244424,12.2461474 39.8913318,12.2144941 C39.8601418,12.1812022 39.8277994,12.1489531 39.7947656,12.1172997 C39.7634988,12.0839334 39.7311564,12.0516098 39.6980458,12.020031 C39.6668557,11.9866646 39.6345133,11.9544155 39.6014027,11.9227622 C39.5702127,11.8894703 39.5378703,11.8572212 39.5048365,11.8255679 C39.4734928,11.7922016 39.4412273,11.7598779 39.4081167,11.7282991 C39.3769266,11.6949328 39.3445842,11.6626836 39.3114736,11.6310303 C39.2873513,11.6051863 39.2622302,11.5800126 39.2368787,11.5552113 C39.2021548,11.5172273 39.1665091,11.4799881 39.1294805,11.444164 C39.081159,11.3922526 39.0303023,11.34265 38.9777555,11.2948348 C38.9284353,11.2450088 38.8771177,11.1971192 38.8237259,11.1513894 C38.7701804,11.1003717 38.7147144,11.051365 38.6568669,11.0049649 C38.6040128,10.958118 38.5490845,10.9136544 38.492543,10.8709783 C38.4382293,10.8255465 38.3820718,10.7820511 38.3240707,10.740939 C38.2656085,10.6949114 38.2052258,10.6511181 38.1427689,10.610006 C38.0853055,10.5677023 38.0257679,10.5280053 37.9646938,10.4903192 C37.9056939,10.449654 37.8450807,10.4109997 37.782547,10.3749522 C37.7195523,10.334287 37.6547908,10.2960796 37.5881854,10.2605534 C37.5262663,10.2233886 37.4625034,10.1889051 37.397204,10.156656 C37.3186912,10.1127137 37.2375663,10.0724954 37.1542905,10.0362989 C37.0213871,9.96844909 36.8818001,9.9111752 36.7368356,9.86544547 C36.6603201,9.83654785 36.5821913,9.81100176 36.5023725,9.78895616 C36.4098011,9.7564091 36.3145408,9.72922448 36.2175137,9.70665753 C36.1217157,9.677462 36.0233826,9.65362891 35.9232825,9.63493484 C35.8257944,9.60976114 35.7261553,9.58972645 35.6245956,9.57527764 C35.5254174,9.55427473 35.4244723,9.53803844 35.3216835,9.52805834 C35.2245027,9.51182205 35.1257086,9.50042685 35.0253012,9.49469202 C34.9281205,9.48240308 34.8293264,9.47517868 34.7291495,9.4733912 C34.6498684,9.46646471 34.5698959,9.46236839 34.4888479,9.46236839 C34.4689508,9.46236839 34.4494378,9.46341109 34.4296175,9.46385796 C34.3855213,9.46169809 34.3410409,9.46058091 34.2963301,9.46058091 C34.2356401,9.46058091 34.1756415,9.46326214 34.1158734,9.46713501 C34.1116481,9.46713501 34.1074229,9.4668371 34.1031208,9.4668371 C34.0014075,9.4668371 33.9011538,9.47294433 33.8023597,9.48381817 C33.6975734,9.48798896 33.5942468,9.49789459 33.4929176,9.51360953 C33.3893605,9.5223235 33.2874935,9.53625096 33.1877008,9.55621117 C33.0886762,9.5688725 32.9911881,9.58659836 32.8958511,9.60976114 C32.7994385,9.62614639 32.7048697,9.64752168 32.6124519,9.67381256 C32.5176526,9.69377277 32.4248507,9.71887199 32.3341231,9.74851439 C32.2374032,9.77286882 32.1431417,9.8029581 32.0509544,9.83736711 C31.9552332,9.86589234 31.8619704,9.89978001 31.7713195,9.93828534 C31.6773653,9.97075792 31.586023,10.0081461 31.4974464,10.0503008 C31.4056432,10.0864973 31.3162983,10.127237 31.2301031,10.1728923 C31.1421411,10.2120679 31.0566373,10.2553399 30.9742833,10.3033784 C30.8905465,10.3447884 30.8093449,10.3904437 30.7311393,10.4401208 C30.6492462,10.4845099 30.5704261,10.5332188 30.4944484,10.5856516 C30.4120944,10.6344349 30.3331974,10.6879104 30.2573733,10.7450353 C30.1763253,10.7976915 30.098888,10.8548165 30.024754,10.9157398 C29.9464716,10.9715241 29.8714158,11.0315537 29.8001242,11.0953817 C29.7245306,11.1542941 29.6520868,11.2169304 29.5837913,11.2835886 C29.5120389,11.3445119 29.4434362,11.4089357 29.3789819,11.4771579 C29.3120692,11.538975 29.2483832,11.6040691 29.1886151,11.6725148 C29.1240839,11.7366407 29.0632403,11.8041926 29.006161,11.8747236 C28.9420908,11.9434672 28.8823227,12.0159347 28.8263957,12.0912323 C28.7647071,12.1631784 28.7073973,12.2388485 28.6541591,12.3173487 C28.5956202,12.3919016 28.5413065,12.469657 28.4916021,12.5504661 C28.4364434,12.6273278 28.3852794,12.7071686 28.3391858,12.7900631 C28.2882523,12.8678185 28.2412368,12.9483297 28.1994452,13.031671 C28.1531979,13.109203 28.111099,13.1892673 28.0736095,13.2718638 C28.0303583,13.3512578 27.9916396,13.433184 27.9572998,13.5174191 C27.9154314,13.6018776 27.8790174,13.6893897 27.8470592,13.7789127 C27.8086478,13.8656801 27.775614,13.9552031 27.7475737,14.0467371 C27.7130803,14.1352919 27.6836571,14.22623 27.6596884,14.319328 C27.629113,14.4096703 27.6033774,14.5020235 27.5835571,14.596611 C27.5577446,14.6862086 27.5366184,14.7777425 27.521177,14.8711384 C27.499513,14.9601401 27.4828424,15.0509293 27.4716263,15.1434314 C27.4533425,15.2343695 27.4405899,15.3272441 27.4329076,15.4215338 C27.4177736,15.5172385 27.4090158,15.6149541 27.4057124,15.7140849 C27.3960327,15.8010012 27.3905783,15.8891836 27.3905783,15.9786321 C27.3905783,15.9891336 27.3913465,15.9994861 27.3915002,16.0099876 C27.38812,16.0611542 27.3858921,16.1126188 27.3858921,16.1646047 C27.3858921,16.2093662 27.3872749,16.2537553 27.3898101,16.2979955 C27.389426,16.3146042 27.3885041,16.3309894 27.3885041,16.3477471 C27.3885041,16.3958601 27.390271,16.4435263 27.3931135,16.4908946 C27.3929598,16.5026621 27.3922684,16.5142063 27.3922684,16.5259739 C27.3922684,16.5740869 27.3941122,16.6217531 27.3969546,16.6691214 C27.3968009,16.6808889 27.3961095,16.6924331 27.3961095,16.7042007 C27.3961095,16.7523137 27.3979533,16.7999054 27.4007957,16.8472737 C27.4006421,16.8590413 27.3998739,16.8706599 27.3998739,16.882502 C27.3998739,16.930466 27.4017176,16.9780577 27.40456,17.025426 C27.4044064,17.0371936 27.4036382,17.0488867 27.4036382,17.0607288 C27.4036382,17.1086928 27.4054819,17.1562845 27.4083244,17.2035783 C27.4081707,17.2154204 27.4074025,17.2271135 27.4074025,17.2389556 C27.4074025,17.2869196 27.4092462,17.3345113 27.4121655,17.3817306 C27.4120119,17.3936472 27.4112436,17.4053403 27.4112436,17.4172568 C27.4112436,17.4651464 27.4130874,17.5126637 27.4159298,17.559883 C27.4157762,17.5717995 27.4150848,17.5835671 27.4150848,17.5954836 C27.4150848,17.6434477 27.4168517,17.6908905 27.4196941,17.7381098 C27.4195405,17.7500263 27.4187723,17.7617939 27.4187723,17.7737849 C27.4187723,17.8216 27.420616,17.8690428 27.4234584,17.9161876 C27.4233048,17.9281786 27.4225366,17.9400207 27.4225366,17.9520117 C27.4225366,17.9999013 27.4244571,18.0472696 27.4272996,18.0944144 C27.4271459,18.1064054 27.4263777,18.1182475 27.4263777,18.130313 C27.4263777,18.1780536 27.4282215,18.2254219 27.4311407,18.2725667 C27.4309103,18.2845577 27.430142,18.2964743 27.430142,18.3085398 C27.430142,18.3562804 27.4319858,18.4036487 27.4348282,18.450719 C27.4346746,18.4627845 27.4339832,18.4747011 27.4339832,18.4867666 C27.4339832,18.5345072 27.4357501,18.5818755 27.4386694,18.6288714 C27.4384389,18.6410113 27.4377475,18.6529279 27.4377475,18.6650679 C27.4377475,18.712734 27.4395912,18.7600278 27.4424337,18.8070237 C27.44228,18.8191637 27.441435,18.8311547 27.441435,18.8432947 C27.441435,18.8910353 27.4434324,18.9382546 27.4462748,18.9852505 C27.4460443,18.9973905 27.4452761,19.0093815 27.4452761,19.0215215 C27.4452761,19.0691876 27.4471967,19.1164069 27.4500391,19.1633283 C27.4498855,19.1755428 27.4491172,19.1876083 27.4491172,19.1998227 C27.4491172,19.2474144 27.4508842,19.2946337 27.4538034,19.3415551 C27.4536498,19.3537696 27.4528816,19.3658351 27.4528816,19.378124 C27.4528816,19.4256412 27.4547253,19.4728605 27.4575678,19.5197074 C27.4573373,19.5319219 27.4566459,19.5440619 27.4566459,19.5563508 C27.4566459,19.603868 27.4585664,19.6510129 27.4614089,19.6978598 C27.4611784,19.7101487 27.4604102,19.7222887 27.4604102,19.7345776 C27.4604102,19.7820948 27.4623308,19.8292397 27.4651732,19.8760866 C27.4650196,19.8883755 27.4642513,19.9005155 27.4642513,19.9128789 C27.4642513,19.9603216 27.4660951,20.007392 27.4690143,20.0541644 C27.4687839,20.0665278 27.4680156,20.0787423 27.4680156,20.0911057 C27.4680156,20.1386229 27.4698594,20.1856188 27.4728555,20.2323912 C27.4725482,20.2447546 27.47178,20.2569691 27.47178,20.2693325 C27.47178,20.3168497 27.4737005,20.3637711 27.476543,20.4105435 C27.4763125,20.4229069 27.4756211,20.4351959 27.4756211,20.4476338 C27.4756211,20.495002 27.4774648,20.5419979 27.4803073,20.5886214 C27.4801536,20.6010593 27.4793854,20.6134227 27.4793854,20.6258606 C27.4793854,20.6732288 27.4812292,20.7202247 27.4841484,20.7668482 C27.483918,20.7793605 27.4831497,20.7916495 27.4831497,20.8041619 C27.4831497,20.8514556 27.4850703,20.898377 27.4879896,20.9450005 C27.4876823,20.9575129 27.486914,20.9698763 27.486914,20.9823887 C27.486914,21.0296824 27.4889114,21.0766038 27.4917539,21.1232273 C27.4915234,21.1357397 27.4907552,21.1481031 27.4907552,21.1606899 C27.4907552,21.2079092 27.4925989,21.2547561 27.4954414,21.3013796 C27.4953646,21.313892 27.4945963,21.3263299 27.4945963,21.3389167 C27.4945963,21.386136 27.4963632,21.4329085 27.4992825,21.4794575 C27.499052,21.4920443 27.4983606,21.5044822 27.4983606,21.5171435 C27.4983606,21.5644373 27.5002044,21.6111353 27.5031237,21.6576843 C27.5028164,21.6702711 27.5020481,21.6827835 27.5020481,21.6954448 C27.5020481,21.7425896 27.5040455,21.7893621 27.506888,21.8358366 C27.5066575,21.8484979 27.5058124,21.8609358 27.5058124,21.8736716 C27.5058124,21.9208164 27.5078098,21.9675144 27.5106523,22.0139889 C27.5104986,22.0267247 27.5096536,22.0392371 27.5096536,22.0518984 C27.5096536,22.0990432 27.5114973,22.1457412 27.5144934,22.1921412 C27.514263,22.204877 27.5134947,22.2174639 27.5134947,22.2301997 C27.5134947,22.27727 27.5153385,22.3238935 27.5182577,22.3702935 C27.5179504,22.3830294 27.517259,22.3956907 27.517259,22.408501 C27.517259,22.4554968 27.5191796,22.5021203 27.5220221,22.5484459 C27.5217916,22.5612562 27.5210234,22.5739175 27.5210234,22.5867278 C27.5210234,22.6337236 27.5229439,22.6802726 27.5257864,22.7265982 C27.5256327,22.7394085 27.5247877,22.7520698 27.5247877,22.7649546 C27.5247877,22.8120249 27.5267082,22.8585739 27.5296275,22.904825 C27.529397,22.9176353 27.5286288,22.9303711 27.5286288,22.9432558 C27.5286288,22.9901772 27.5305494,23.0367262 27.5334686,23.0829773 C27.5331614,23.0958621 27.5323931,23.1085234 27.5323931,23.1214826 C27.5323931,23.168404 27.5343137,23.2148785 27.5371561,23.2611296 C27.5370025,23.2740144 27.5361574,23.2868247 27.5361574,23.2997094 C27.5361574,23.3466308 27.538078,23.3931053 27.5409205,23.439282 C27.5407668,23.4522412 27.5399986,23.4650515 27.5399986,23.4780107 C27.5399986,23.5248576 27.5418423,23.5712577 27.5447616,23.6174343 C27.5445311,23.6303935 27.5437629,23.6432783 27.5437629,23.6562375 C27.5437629,23.7030844 27.5456835,23.7494845 27.5486027,23.7956611 C27.5482954,23.8086203 27.5475272,23.8215051 27.5475272,23.8345388 C27.5475272,23.8813112 27.5495246,23.9277113 27.552367,23.9738134 C27.5521366,23.9867726 27.5512915,23.9997319 27.5512915,24.0127656 C27.5512915,24.059538 27.5532121,24.1058636 27.5561314,24.1518912 C27.5559777,24.1649994 27.5551327,24.1778842 27.5551327,24.1910669 C27.5551327,24.2377648 27.5569764,24.2840904 27.5598957,24.330118 C27.5596652,24.3432262 27.5589738,24.356111 27.5589738,24.3692937 C27.5589738,24.4159916 27.5608175,24.4622427 27.5637368,24.5081959 C27.5634295,24.5213786 27.5626613,24.5344123 27.5626613,24.5475205 C27.5626613,24.5942184 27.5646587,24.6404695 27.5675011,24.6864227 C27.5672707,24.6996054 27.5664256,24.7126391 27.5664256,24.7258218 C27.5664256,24.7724452 27.568423,24.8186218 27.5712654,24.8646495 C27.5711118,24.8777577 27.5702667,24.8908659 27.5702667,24.9040486 C27.5702667,24.950672 27.5721873,24.9967742 27.5751066,25.0427273 C27.5748761,25.05591 27.5740311,25.0690182 27.5740311,25.0822754 C27.5740311,25.1288988 27.5759516,25.1750754 27.5788709,25.2209541 C27.5786404,25.2341368 27.5778722,25.247245 27.5778722,25.2605766 C27.5778722,25.3071256 27.5797928,25.3532278 27.5826352,25.399032 C27.5824047,25.4123636 27.5816365,25.4254718 27.5816365,25.4388779 C27.5816365,25.4853524 27.5835571,25.5314546 27.5863995,25.5772588 C27.5862459,25.5905904 27.585324,25.6036986 27.585324,25.6171047 C27.585324,25.6635792 27.5873214,25.7096069 27.5902407,25.7554111 C27.5900102,25.7687427 27.5891651,25.7819254 27.5891651,25.7953315 C27.5891651,25.841806 27.5911625,25.8878337 27.5940818,25.9335634 C27.5937745,25.9469695 27.5930063,25.9602267 27.5930063,25.9736328 C27.5930063,26.0200328 27.5949269,26.065986 27.5978461,26.1117157 C27.5976156,26.1251218 27.5967706,26.138379 27.5967706,26.1518596 C27.5967706,27.3800083 28.6236605,28.375561 29.8904678,28.375561 C29.9893387,28.375561 30.0866731,28.368858 30.1823175,28.3570904 C30.7531874,28.3066685 31.2631369,28.053293 31.6354969,27.6718147 C31.6810528,27.6320432 31.7246113,27.5901864 31.766787,27.5470634 C31.8123429,27.5072919 31.8559014,27.465435 31.8980771,27.4222376 C31.9437098,27.3824661 31.9872683,27.3406837 32.029444,27.2974863 C32.0749999,27.2576403 32.1186352,27.2158579 32.1607341,27.1726605 C32.20629,27.132889 32.2499253,27.0911066 32.292101,27.0479092 C32.3376569,27.0081377 32.3812154,26.9662808 32.4233911,26.9230834 C32.4690238,26.8833119 32.5125823,26.8415295 32.5546812,26.7983321 C32.6003139,26.7585606 32.6439493,26.7167037 32.6860481,26.6735063 C32.731604,26.6337348 32.7752394,26.5919524 32.8173382,26.548755 C32.8628941,26.5089835 32.9065295,26.4672011 32.9487052,26.4240036 C32.9943379,26.3841577 33.0378964,26.3423753 33.0799953,26.2991779 C33.125628,26.2594064 33.1692633,26.217624 33.2112854,26.1744265 C33.2569181,26.1346551 33.3005534,26.0928727 33.3427291,26.0496007 C33.388285,26.0098293 33.4318435,25.9680469 33.4740192,25.9248494 C33.5195751,25.885078 33.5632104,25.8432956 33.6053093,25.8000981 C33.6508652,25.7602522 33.6945774,25.7184698 33.7365994,25.6752723 C33.7821553,25.6355009 33.8258675,25.5937185 33.8679663,25.5504465 C33.9135222,25.5106751 33.9572344,25.4688927 33.9993333,25.4256952 C34.0448892,25.3859238 34.0885245,25.3441414 34.1306234,25.3008694 C34.1761793,25.2611725 34.2198146,25.2193901 34.2619135,25.1761181 C34.3074694,25.1364211 34.3511815,25.0945643 34.3932804,25.0512923 C34.4388363,25.0115954 34.4825484,24.969813 34.5246473,24.926541 C34.5702032,24.8867696 34.6138385,24.8449872 34.6559374,24.8017897 C34.7014933,24.7620183 34.7452055,24.7202359 34.7872275,24.6769639 C34.8327834,24.6371925 34.8764956,24.5954846 34.9185176,24.5521381 C34.9641503,24.5124412 35.0077857,24.4706588 35.0498077,24.4273868 C35.0955172,24.3876154 35.1392294,24.3459075 35.1811746,24.302561 C35.2268074,24.262864 35.2705195,24.2210817 35.3124647,24.1778097 C35.3580975,24.1381127 35.4018096,24.0963304 35.4437548,24.0530584 C35.4893876,24.0132869 35.5330997,23.9715046 35.5751218,23.9282326 C35.6207545,23.8885356 35.6643898,23.8468277 35.7064119,23.8034813 C35.7521214,23.7637098 35.7957567,23.7220019 35.8377788,23.6786555 C35.8834115,23.6389585 35.9270468,23.5971762 35.9690689,23.5539042 C36.0147016,23.5142072 36.0583369,23.4724248 36.100359,23.4291529 C36.1460685,23.3893814 36.1897807,23.347599 36.2318027,23.3043271 C36.2774354,23.2646301 36.3210708,23.2228477 36.3630928,23.1795758 C36.4087255,23.1398043 36.4523609,23.0980964 36.4943829,23.05475 C36.5400156,23.015053 36.583651,22.9733451 36.625673,22.9299987 C36.6713826,22.8903017 36.7150179,22.8485193 36.75704,22.8051729 C36.8027495,22.7654759 36.8463848,22.7236935 36.8884069,22.6803471 C36.9340396,22.6407246 36.9776749,22.5989422 37.019697,22.5555958 C37.0653297,22.5158988 37.1090418,22.4741909 37.1509871,22.4308445 C37.1966966,22.3911475 37.2404088,22.3493651 37.282354,22.3060187 C37.3280635,22.2663217 37.3716989,22.2246138 37.4136441,22.1812674 C37.4593536,22.1415704 37.502989,22.0998625 37.545011,22.0564416 C37.5906437,22.0168191 37.6343559,21.9750367 37.6763011,21.9316903 C37.7220107,21.8919933 37.7657228,21.8502854 37.8075912,21.8068645 C37.8533776,21.767242 37.8970129,21.7254596 37.9389582,21.6821132 C37.9846677,21.6424162 38.028303,21.6007083 38.0702483,21.5573619 C38.1159578,21.5176649 38.1596699,21.475957 38.2016152,21.4325361 C38.2473247,21.3928391 38.2910369,21.3511312 38.3329053,21.3077848 C38.3786148,21.2680878 38.422327,21.2263799 38.4641954,21.182959 C38.5099049,21.1433365 38.5536171,21.1015541 38.5956391,21.0581332 C38.641195,21.0185107 38.684984,20.9768028 38.7269292,20.9333819 C38.7725619,20.8937594 38.8163509,20.8520515 38.8582193,20.8086306 C38.903852,20.7689336 38.947641,20.7272257 38.9895094,20.6838048 C39.035219,20.6441823 39.0789311,20.6024744 39.1208763,20.5590535 C39.1665091,20.5194309 39.2102212,20.477723 39.2521664,20.4343021 C39.2977992,20.3946052 39.341665,20.3528973 39.3835334,20.3094764 C39.4291661,20.2698538 39.4729551,20.2281459 39.5148235,20.184725 C39.560533,20.1450281 39.6042452,20.1033202 39.6461904,20.0598992 C39.6918231,20.0202767 39.7356121,19.9785688 39.7774805,19.9351479 C39.8231132,19.895451 39.8669022,19.8537431 39.9087706,19.8103221 C39.9544801,19.7706996 39.9982691,19.7289917 40.0400607,19.6855708 C40.0858471,19.6459483 40.1295592,19.6042404 40.1713508,19.5608195 C40.2171372,19.5211225 40.2608493,19.4794146 40.3027945,19.4359193 C40.3485041,19.3962967 40.3922162,19.3546633 40.4340846,19.3112424 C40.4797942,19.2715454 40.5235063,19.2298375 40.5653747,19.1864166 C40.5826599,19.171521 40.5994072,19.1561039 40.6161546,19.1406124 C40.6234528,19.1463473 40.6309046,19.1519331 40.6383564,19.1575935 C40.6731571,19.1873848 40.7088797,19.216059 40.7455241,19.2436905 C40.7803248,19.2735564 40.8161242,19.302305 40.8529223,19.330011 C40.8876462,19.3598023 40.9234456,19.3884765 40.9600133,19.416108 C40.994814,19.4459738 41.0305366,19.474648 41.0673347,19.5022795 C41.1020586,19.5321453 41.137858,19.560894 41.1745793,19.5886 C41.20938,19.6183913 41.2451025,19.6470655 41.2818238,19.674697 C41.3165477,19.7045628 41.3523471,19.7333115 41.3891452,19.7610174 C41.4237923,19.7908088 41.4596685,19.819483 41.496313,19.8471145 C41.5311137,19.8769803 41.5668363,19.905729 41.6035576,19.9333605 C41.6382814,19.9632263 41.6740809,19.9919005 41.7108021,20.019532 C41.745526,20.0493978 41.7813254,20.078072 41.8180467,20.1057779 C41.8527706,20.1355693 41.8886468,20.164318 41.9252913,20.1919494 C41.960092,20.2218153 41.9957378,20.250415 42.0325359,20.2781209 C42.0672598,20.3079868 42.103136,20.3367354 42.1398573,20.3643669 C42.1745811,20.3942328 42.2103037,20.4229069 42.247025,20.450464 C42.2722229,20.4722116 42.2979585,20.493289 42.3242319,20.5138451 C42.3896849,20.5832589 42.4601314,20.6482041 42.5351104,20.7080847 C42.603329,20.781297 42.677002,20.8498171 42.7555917,20.9126769 C42.8238871,20.9858891 42.8975602,21.0543348 42.976073,21.1171945 C43.0443685,21.1904813 43.1180415,21.2588525 43.1965544,21.3217867 C43.2648498,21.394999 43.3385228,21.4634446 43.4171125,21.5263044 C43.4853311,21.5995166 43.5589273,21.6678878 43.637517,21.7307476 C43.7057356,21.8038854 43.7793318,21.872331 43.8579215,21.9351908 C43.9261401,22.0083285 43.9997363,22.0766997 44.0782492,22.139634 C44.1466215,22.2128462 44.2202945,22.2812174 44.2987305,22.3441516 C44.3671028,22.4172894 44.440699,22.4855861 44.519135,22.5485948 C44.5875073,22.6217326 44.6611803,22.6900293 44.7394627,22.753038 C44.8079118,22.8261013 44.8815848,22.8944725 44.9598672,22.9574812 C45.0283163,23.030619 45.1019893,23.0989157 45.1803485,23.1619244 C45.2487208,23.2350622 45.3223938,23.3033589 45.4007531,23.3663676 C45.4691253,23.4395054 45.5427983,23.5078021 45.6211576,23.5708108 C45.6896066,23.6438741 45.7632797,23.7121708 45.8415621,23.775254 C45.9100111,23.8483918 45.9836842,23.916614 46.0619666,23.9797717 C46.1304156,24.052835 46.2040887,24.1210572 46.2823711,24.1841404 C46.3508202,24.2572037 46.4244932,24.3255004 46.5027756,24.3886581 C46.5712247,24.4616469 46.6448977,24.5298691 46.7232569,24.5931013 C46.7916292,24.6661646 46.8653022,24.7343868 46.9436614,24.7975444 C47.0120337,24.8706078 47.0857835,24.93883 47.1640659,25.0019876 C47.2324382,25.0750509 47.3062648,25.1432732 47.3845472,25.2065053 C47.4530731,25.2795686 47.526823,25.3477908 47.6050286,25.411023 C47.6735545,25.4840863 47.7473043,25.5523085 47.8255099,25.6156151 C47.8940358,25.6886784 47.9678625,25.7569007 48.046068,25.8202073 C48.114594,25.8931961 48.1884206,25.9614183 48.2665494,26.024725 C48.3351521,26.0977138 48.4089788,26.165936 48.4871844,26.2292426 C48.5557103,26.3022315 48.6294601,26.3704537 48.7076657,26.4338348 C48.7761916,26.5067491 48.8499414,26.5750458 48.928147,26.6383525 C48.9967497,26.7113413 49.0704996,26.7795635 49.1487052,26.8429446 C49.2172311,26.915859 49.2910577,26.9840812 49.3691865,27.0474623 C49.437866,27.1203766 49.5116159,27.1886733 49.5897446,27.2520544 C49.6584242,27.3249688 49.7322509,27.393191 49.810226,27.4565721 C49.8789823,27.5294865 49.9527322,27.5977087 50.0307841,27.6610898 C50.4480854,28.1039383 51.0483784,28.3817427 51.7157378,28.3817427 C52.723806,28.3817427 53.5785361,27.7477826 53.8805264,26.8688631 C53.997297,26.6024539 54.0620586,26.3094559 54.0620586,26.0017111 C54.0620586,25.9670787 54.0609062,25.9326697 54.0593698,25.8984096 C54.064901,25.8348795 54.0684349,25.7707536 54.0684349,25.7058085 C54.0684349,25.671176 54.0672825,25.6368415 54.0657461,25.6026559 C54.0713541,25.5390514 54.0748111,25.474851 54.0748111,25.4098313 C54.0748111,25.3753478 54.0737356,25.3410133 54.0721992,25.3069022 C54.0778072,25.2432232 54.0812643,25.1789483 54.0812643,25.1138542 C54.0812643,25.0793707 54.0801887,25.0451106 54.0785755,25.0109995 C54.0841835,24.9473205 54.0877174,24.8830456 54.0877174,24.8179515 C54.0877174,24.7835425 54.086565,24.7493569 54.0850286,24.7153203 C54.0906366,24.6514923 54.0941705,24.587143 54.0941705,24.5219744 C54.0941705,24.4876398 54.0930181,24.4535287 54.0914817,24.4195666 C54.0970129,24.3557386 54.1005468,24.2913148 54.1005468,24.2260717 C54.1005468,24.1917372 54.0993944,24.1577006 54.0979348,24.1237384 C54.103466,24.0598359 54.1069231,23.9954121 54.1069231,23.9300946 C54.1069231,23.8958345 54.1058475,23.8617979 54.1043111,23.8279102 C54.1099191,23.7640078 54.1133762,23.6995095 54.1133762,23.6341919 C54.1133762,23.6000063 54.1123007,23.5660442 54.1107642,23.5321565 C54.1162954,23.4681796 54.1198293,23.4036068 54.1198293,23.3382148 C54.1198293,23.3041037 54.1186769,23.270216 54.1171405,23.2364028 C54.1227485,23.1723514 54.1262824,23.1077786 54.1262824,23.0423121 C54.1262824,23.008201 54.1250532,22.9743878 54.1235936,22.9406491 C54.1291248,22.8765232 54.1326587,22.811876 54.1326587,22.746335 C54.1326587,22.7122983 54.1315063,22.6785596 54.1300467,22.6448209 C54.1355779,22.580695 54.139035,22.5159733 54.139035,22.4504323 C54.139035,22.4163957 54.1379595,22.382657 54.1364998,22.3490672 C54.1420311,22.2848668 54.1454881,22.2200706 54.1454881,22.1544552 C54.1454881,22.120493 54.1443357,22.0868288 54.1428761,22.0533135 C54.1484074,21.9890386 54.1519412,21.924168 54.1519412,21.8585525 C54.1519412,21.8246648 54.150712,21.7910006 54.1493292,21.7574853 C54.1547836,21.6932105 54.1583943,21.6282653 54.1583943,21.5625754 C54.1583943,21.5287622 54.1571651,21.4951724 54.1557055,21.4616571 C54.1612368,21.3973078 54.1647706,21.3323626 54.1647706,21.2666727 C54.1647706,21.2328595 54.1636183,21.1993442 54.1621586,21.1659034 C54.1676899,21.1015541 54.1711469,21.0365344 54.1711469,20.9706955 C54.1711469,20.9369568 54.1700714,20.903516 54.1686117,20.8701497 C54.174143,20.8056514 54.1776,20.7406318 54.1776,20.6747929 C54.1776,20.6411286 54.1764477,20.6076878 54.1750648,20.574396 C54.1805193,20.5098232 54.1840531,20.4447291 54.1840531,20.3788157 C54.1840531,20.3451515 54.1828239,20.3118597 54.1814411,20.2785678 C54.1868956,20.213995 54.1905062,20.1488265 54.1905062,20.0828386 C54.1905062,20.0493233 54.1892771,20.0160315 54.1878174,19.9828141 C54.1933487,19.9181669 54.1968825,19.8529983 54.1968825,19.7869359 C54.1968825,19.7534207 54.1957302,19.7202033 54.1942705,19.6870604 C54.1998018,19.6223387 54.2033356,19.5570956 54.2033356,19.4910333 C54.2033356,19.457518 54.2021065,19.4243751 54.2007237,19.3912322 C54.2062549,19.3265105 54.2097119,19.2611929 54.2097119,19.1950561 C54.2097119,19.1616153 54.2084828,19.1284724 54.2071768,19.0954785 C54.2126312,19.0306823 54.216165,18.9652903 54.216165,18.8991535 C54.216165,18.8657871 54.2149359,18.8327187 54.2136299,18.7997248 C54.2190075,18.7348541 54.2226181,18.6693876 54.2226181,18.6031763 C54.2226181,18.5698845 54.221389,18.5368905 54.2200062,18.5039711 C54.2254606,18.4390259 54.2289944,18.3735594 54.2289944,18.3072737 C54.2289944,18.2739818 54.2278421,18.2410624 54.2264593,18.2081429 C54.2319137,18.1431977 54.2354475,18.0776568 54.2354475,18.0112965 C54.2354475,17.9780791 54.2342184,17.9451597 54.2328356,17.9123147 C54.23829,17.8472951 54.2418238,17.7817541 54.2418238,17.7153194 C54.2418238,17.682251 54.2405947,17.649406 54.2392887,17.616561 C54.2447431,17.5514669 54.2482769,17.4858514 54.2482769,17.4194167 C54.2482769,17.3863483 54.2470478,17.3535033 54.2457418,17.3208073 C54.2511194,17.2556387 54.2547301,17.1900232 54.2547301,17.123514 C54.2547301,17.0904456 54.2535009,17.0576751 54.2521181,17.0249791 C54.2575725,16.9598105 54.2611063,16.8941206 54.2611063,16.8275369 C54.2611063,16.794543 54.2598772,16.761847 54.2585712,16.7291509 C54.2640256,16.6639823 54.2675595,16.5982179 54.2675595,16.5316342 C54.2675595,16.49797 54.2662535,16.4646037 54.2649475,16.4313118" id="Fill-1" fill="#CFDCE7"></path>
                            </g>
                            <g id="编组-12" transform="translate(56.265560, 44.254890)">
                                <path d="M51.235553,48.8571429 L8.01755902,48.8571429 C3.59605094,48.8571429 0,45.4295999 0,41.216497 C0,39.7157256 0.445419946,38.2892111 1.28722278,37.093284 L22.8063185,3.65031369 C24.1752697,1.42651445 26.8069252,0 29.626556,0 C32.4461869,0 35.0778423,1.42260619 36.4876577,3.71675409 L58.0557905,37.2261648 C58.8076921,38.2892111 59.253112,39.7157256 59.253112,41.216497 C59.253112,45.4295999 55.6570611,48.8571429 51.235553,48.8571429 L51.235553,48.8571429 Z" id="路径" fill="#566FFE" fill-rule="nonzero"></path>
                                <path d="M29.7087277,13.5044458 C31.6638496,13.5044458 33.2487891,15.0893853 33.2487891,17.0445072 C33.2487891,17.1331939 33.2454564,17.2218493 33.2387981,17.3102857 L32.3852688,28.6468633 C32.2798434,30.0471247 31.1129523,31.1294634 29.7087277,31.1294634 C28.3045031,31.1294634 27.137612,30.0471247 27.0321865,28.6468633 L26.1786573,17.3102857 C26.0318719,15.3606816 27.4933452,13.6612222 29.4429492,13.5144368 C29.5313856,13.5077785 29.620041,13.5044458 29.7087277,13.5044458 Z" id="矩形" fill="#FFFFFF"></path>
                                <circle id="椭圆形" fill="#FFFFFF" fill-rule="nonzero" cx="29.626556" cy="38.1517487" r="3.23651452"></circle>
                            </g>
                        </g>
                    </g>
                </g>
            </g>
        </g>
    </g>
</svg>