<?xml version="1.0" encoding="UTF-8"?>
<svg width="190px" height="60px" viewBox="0 0 190 60" version="1.1" xmlns="http://www.w3.org/2000/svg" xmlns:xlink="http://www.w3.org/1999/xlink">
    <title>safepal_logo</title>
    <defs>
        <rect id="path-1" x="0" y="0" width="190" height="60"></rect>
    </defs>
    <g id="NFT交易市场" stroke="none" stroke-width="1" fill="none" fill-rule="evenodd">
        <g id="Home首页" transform="translate(-1143.000000, -3342.000000)">
            <g id="编组-33" transform="translate(0.000000, 3191.000000)">
                <g id="编组-32" transform="translate(432.000000, 70.000000)">
                    <g id="编组-29" transform="translate(0.000000, 81.000000)">
                        <g id="safepal_logo" transform="translate(711.000000, 0.000000)">
                            <mask id="mask-2" fill="white">
                                <use xlink:href="#path-1"></use>
                            </mask>
                            <g id="蒙版"></g>
                            <g mask="url(#mask-2)" fill="#3F37FF" id="形状结合">
                                <g transform="translate(0.000000, 13.000000)">
                                    <path d="M29.7740113,19.6892655 L29.7740113,22.0903955 C29.7740113,28.8135593 19.9774011,32.6553672 17,33.6158192 L17,33.6158192 L15.9435028,34 L15.9435028,29.8700565 L16.519774,29.6779661 C21.2259887,27.9491525 25.9322034,24.9717514 25.9322034,22.0903955 L25.9322034,22.0903955 L25.9322034,19.6892655 L29.7740113,19.6892655 Z M14.9830508,0 L19.0169492,1.24858757 L19.0169492,5.47457627 L14.9830508,4.2259887 L14.6949153,4.3220339 L14.6949153,13.8305085 L18.920904,13.8305085 L18.920904,17.7683616 L14.6949153,17.7683616 L14.6949153,33.9039548 L13.5423729,33.519774 C13.0621469,33.3276836 12.1977401,33.039548 11.1412429,32.559322 L11.1412429,32.559322 L10.6610169,32.3672316 L10.6610169,1.24858757 L14.9830508,0 Z M9.41242938,1.63276836 L9.41242938,5.85875706 L4.03389831,7.58757062 L4.03389831,13.8305085 L9.50847458,13.8305085 L9.50847458,31.9830508 L8.25988701,31.4067797 C4.51412429,29.4858757 0.0960451977,26.3163842 0.0960451977,21.8022599 L0.0960451977,21.8022599 L0.0960451977,19.6892655 L4.03389831,19.6892655 L4.03389831,21.8022599 C4.03389831,22.7627119 4.51412429,23.7231638 5.47457627,24.6836158 L5.47457627,24.6836158 L5.47457627,17.7683616 L0,17.7683616 L0,4.51412429 L9.41242938,1.63276836 Z M20.1694915,1.53672316 L29.7740113,4.51412429 L29.7740113,17.7683616 L24.1073446,17.7683616 L24.1073446,23.5310734 C24.1073446,23.5310734 22.8587571,25.1638418 20.1694915,26.5084746 C20.1694915,25.740113 20.1694915,14.1186441 20.1694915,7.01129944 L20.1694915,1.53672316 Z M95.6610169,7.68361582 C98.9265537,7.68361582 101.615819,10.2768362 101.711864,13.5423729 C101.711864,16.8079096 99.0225989,19.4971751 95.7570621,19.4971751 L91.9152542,19.4971751 L91.9152542,26.1242938 L88.8418079,26.1242938 L88.7457627,7.68361582 L95.6610169,7.68361582 Z M81.0621469,13.3502825 C84.6158192,13.3502825 87.4971751,16.2316384 87.4971751,19.6892655 C87.4971751,20.2655367 87.4011299,20.7457627 87.3050847,21.3220339 L78.180791,21.3220339 C78.7570621,22.3785311 79.8135593,23.0508475 81.0621469,23.0508475 C81.6384181,23.0508475 82.2146893,22.8587571 82.6949153,22.6666667 L82.6949153,22.6666667 L86.0564972,23.7231638 C84.9039548,25.1638418 83.079096,26.1242938 80.9661017,26.1242938 C77.4124294,26.1242938 74.5310734,23.2429379 74.5310734,19.7853107 C74.5310734,16.3276836 77.4124294,13.3502825 81.0621469,13.3502825 Z M73.9548023,7.68361582 L73.9548023,10.7570621 L73.1864407,10.7570621 C72.0338983,10.7570621 71.0734463,11.7175141 70.9774011,12.8700565 L70.9774011,13.3502825 L73.9548023,13.3502825 L73.9548023,16.4237288 L70.9774011,16.4237288 L70.9774011,26.1242938 L67.9039548,26.1242938 L67.9039548,16.4237288 L66.4632768,16.4237288 L66.4632768,13.3502825 L67.9039548,13.3502825 L67.9039548,12.2937853 C67.9039548,9.70056497 70.0169492,7.68361582 72.6101695,7.68361582 L73.9548023,7.68361582 Z M58.779661,13.3502825 C58.779661,13.3502825 58.779661,13.3502825 58.779661,13.3502825 C58.8757062,13.3502825 58.9717514,13.3502825 59.0677966,13.3502825 C60.220339,13.4463277 61.3728814,13.7344633 62.2372881,14.4067797 L65.2146893,13.4463277 L65.2146893,26.1242938 L62.1412429,26.1242938 L62.1412429,25.1638418 C61.9491525,25.259887 61.7570621,25.3559322 61.5649718,25.4519774 L61.5649718,25.4519774 C61.2768362,25.6440678 60.8926554,25.740113 60.6045198,25.8361582 L60.5084746,25.8361582 L60.5084746,25.8361582 C60.4124294,25.8361582 60.3163842,25.8361582 60.3163842,25.9322034 L60.220339,25.9322034 L60.220339,25.9322034 C60.1242938,25.9322034 60.1242938,25.9322034 60.0282486,25.9322034 C59.9322034,25.9322034 59.9322034,25.9322034 59.8361582,25.9322034 C59.740113,25.9322034 59.740113,25.9322034 59.6440678,25.9322034 C59.5480226,25.9322034 59.5480226,25.9322034 59.4519774,25.9322034 C59.3559322,25.9322034 59.259887,25.9322034 59.259887,25.9322034 C59.259887,25.9322034 59.1638418,25.9322034 59.1638418,25.9322034 C59.0677966,25.9322034 58.9717514,25.9322034 58.779661,25.9322034 C57.3389831,25.9322034 55.9943503,25.4519774 54.9378531,24.6836158 C54.6497175,24.4915254 54.4576271,24.299435 54.2655367,24.1073446 C54.0734463,23.9152542 53.8813559,23.6271186 53.6892655,23.4350282 C52.920904,22.4745763 52.440678,21.2259887 52.440678,19.8813559 C52.440678,19.7853107 52.440678,19.6892655 52.440678,19.5932203 L52.440678,19.5932203 C52.3446328,16.2316384 55.2259887,13.3502825 58.779661,13.3502825 L58.779661,13.3502825 Z M107.762712,13.3502825 C107.762712,13.3502825 107.858757,13.3502825 107.762712,13.3502825 C107.858757,13.3502825 107.954802,13.3502825 108.050847,13.3502825 C109.20339,13.4463277 110.355932,13.7344633 111.220339,14.4067797 L114.19774,13.4463277 L114.19774,26.1242938 L111.124294,26.1242938 L111.124294,25.1638418 C110.932203,25.259887 110.740113,25.3559322 110.548023,25.4519774 L110.548023,25.4519774 C110.259887,25.6440678 109.875706,25.740113 109.587571,25.8361582 L109.491525,25.8361582 L109.491525,25.8361582 C109.39548,25.8361582 109.299435,25.8361582 109.299435,25.9322034 L109.20339,25.9322034 L109.20339,25.9322034 C109.107345,25.9322034 109.107345,25.9322034 109.011299,25.9322034 C108.915254,25.9322034 108.915254,25.9322034 108.819209,25.9322034 C108.723164,25.9322034 108.723164,25.9322034 108.627119,25.9322034 C108.531073,25.9322034 108.531073,25.9322034 108.435028,25.9322034 C108.338983,25.9322034 108.242938,25.9322034 108.242938,25.9322034 C108.242938,25.9322034 108.146893,25.9322034 108.146893,25.9322034 C108.050847,25.9322034 107.954802,25.9322034 107.762712,25.9322034 C106.322034,25.9322034 104.977401,25.4519774 103.920904,24.6836158 C103.632768,24.4915254 103.440678,24.299435 103.248588,24.1073446 C103.056497,23.9152542 102.864407,23.6271186 102.672316,23.4350282 C101.903955,22.4745763 101.423729,21.2259887 101.423729,19.8813559 C101.423729,19.7853107 101.423729,19.6892655 101.423729,19.5932203 L101.423729,19.5932203 C101.327684,16.2316384 104.20904,13.3502825 107.762712,13.3502825 L107.762712,13.3502825 Z M118.615819,7.68361582 L118.615819,26.0282486 L115.542373,26.0282486 L115.542373,8.74011299 L118.615819,7.68361582 Z M44.180791,7.68361582 C47.1581921,7.68361582 49.3672316,9.22033898 50.6158192,11.6214689 C48.6949153,12.2937853 47.5423729,12.5819209 47.2542373,12.6779661 C46.5819209,11.7175141 45.7175141,11.0451977 44.180791,11.0451977 C42.740113,11.0451977 41.779661,11.8135593 41.779661,12.7740113 C41.779661,13.8305085 42.4519774,14.4067797 45.1412429,15.2711864 C48.0225989,16.1355932 51,17.0960452 51,20.7457627 C51,24.1073446 48.3107345,26.1242938 44.4689266,26.1242938 C40.819209,26.1242938 38.4180791,24.3954802 37.4576271,21.7062147 C38.8983051,21.2259887 39.9548023,20.9378531 40.819209,20.7457627 C41.4915254,21.9943503 42.740113,22.6666667 44.5649718,22.6666667 C46.6779661,22.6666667 47.4463277,21.8022599 47.4463277,20.7457627 C47.4463277,19.4011299 46.1977401,18.920904 43.6045198,18.1525424 C40.819209,17.3841808 38.2259887,16.2316384 38.2259887,12.8700565 C38.3220339,9.60451977 41.1073446,7.68361582 44.180791,7.68361582 Z M58.6836158,16.2316384 C56.7627119,16.2316384 55.2259887,17.7683616 55.2259887,19.5932203 C55.2259887,21.4180791 56.7627119,22.9548023 58.6836158,22.9548023 C60.6045198,22.9548023 62.1412429,21.4180791 62.1412429,19.5932203 C62.1412429,17.7683616 60.6045198,16.2316384 58.6836158,16.2316384 Z M107.666667,16.2316384 C105.745763,16.2316384 104.20904,17.7683616 104.20904,19.5932203 C104.20904,21.4180791 105.745763,22.9548023 107.666667,22.9548023 C109.587571,22.9548023 111.124294,21.4180791 111.124294,19.5932203 C111.124294,17.7683616 109.587571,16.2316384 107.666667,16.2316384 Z M81.0621469,16.4237288 C79.7175141,16.4237288 78.5649718,17.1920904 78.0847458,18.2485876 L84.1355932,18.2485876 C83.4632768,17.1920904 82.3107345,16.4237288 81.0621469,16.4237288 Z M95.6610169,10.7570621 L91.819209,10.7570621 L91.819209,16.4237288 L95.6610169,16.4237288 C97.2937853,16.4237288 98.5423729,15.1751412 98.5423729,13.5423729 C98.5423729,12.0056497 97.2937853,10.7570621 95.6610169,10.7570621 L95.6610169,10.7570621 Z M24.1073446,7.01129944 L24.1073446,13.8305085 L25.8361582,13.8305085 L25.8361582,7.49152542 L24.1073446,7.01129944 Z"></path>
                                </g>
                            </g>
                        </g>
                    </g>
                </g>
            </g>
        </g>
    </g>
</svg>