<?xml version="1.0" encoding="UTF-8"?>
<svg width="20px" height="20px" viewBox="0 0 20 20" version="1.1" xmlns="http://www.w3.org/2000/svg" xmlns:xlink="http://www.w3.org/1999/xlink">
    <title>Share</title>
    <g id="页面-1" stroke="none" stroke-width="1" fill="none" fill-rule="evenodd">
        <g id="单个Collection" transform="translate(-1957.000000, -369.000000)">
            <g id="编组-13" transform="translate(1927.000000, 349.000000)">
                <g id="Share" transform="translate(30.000000, 20.000000)">
                    <rect id="矩形" x="0" y="0" width="20" height="20"></rect>
                    <path d="M15.1965695,13.1843093 C14.420185,13.1833847 13.6750497,13.490056 13.1242346,14.0372091 L9.24213101,11.7957039 C9.74784174,10.6930375 9.69042454,9.41411066 9.08793941,8.36119651 L13.0766555,6.05801476 C14.131435,7.14567627 15.8406859,7.25194102 17.0220629,6.30330217 C18.2034399,5.35466332 18.4688015,3.66279627 17.6345882,2.39802136 C16.800375,1.13324645 15.1406678,0.711105607 13.8035409,1.4236076 C12.4664141,2.1361096 11.8911808,3.74916183 12.4757488,5.14696276 L8.40509096,7.49596143 C7.70915062,6.83653189 6.78662718,6.46941487 5.82788875,6.47036712 C3.75291055,6.47036712 2.07001952,8.15325814 2.07001952,10.2273552 C2.07001952,11.7908695 3.03822112,13.1909848 4.50113565,13.7427618 C5.96405018,14.2945389 7.61577113,13.8826205 8.64827312,12.7085181 L12.5030628,14.9332824 C11.972668,16.1260238 12.2899714,17.5255642 13.2829005,18.372938 C14.2758296,19.2203118 15.7078496,19.3136583 16.8023813,18.602356 C17.8969129,17.8910536 18.3932178,16.5445484 18.0221515,15.2930452 C17.6510852,14.0415419 16.501043,13.1831728 15.1956884,13.1834282 L15.1965695,13.1843093 Z" id="路径" fill="#566FFE" fill-rule="nonzero"></path>
                </g>
            </g>
        </g>
    </g>
</svg>