<?xml version="1.0" encoding="UTF-8"?>
<svg width="190px" height="60px" viewBox="0 0 190 60" version="1.1" xmlns="http://www.w3.org/2000/svg" xmlns:xlink="http://www.w3.org/1999/xlink">
    <title>Token Pocket</title>
    <defs>
        <rect id="path-1" x="0" y="0" width="190" height="60"></rect>
    </defs>
    <g id="NFT交易市场" stroke="none" stroke-width="1" fill="none" fill-rule="evenodd">
        <g id="Home首页" transform="translate(-1616.000000, -3342.000000)">
            <g id="编组-33" transform="translate(0.000000, 3191.000000)">
                <g id="编组-32" transform="translate(432.000000, 70.000000)">
                    <g id="编组-29" transform="translate(0.000000, 81.000000)">
                        <g id="Token-Pocket" transform="translate(1184.000000, 0.000000)">
                            <mask id="mask-2" fill="white">
                                <use xlink:href="#path-1"></use>
                            </mask>
                            <g id="蒙版"></g>
                            <g id="编组" mask="url(#mask-2)">
                                <g transform="translate(0.000000, 18.000000)">
                                    <polygon id="Fill-1" fill="#29AEFF" points="0 1.55694981 0 9.47411798 4.20365928 9.47411798 4.21465368 23.6738867 12.0878442 23.6738867 12.0878442 1.55694981"></polygon>
                                    <path d="M8.41817303,0 L8.41817303,22.1171395 L15.2622877,22.1171395 L15.2622877,16.3072982 C15.2622877,16.3072982 26.8162038,17.6937921 26.8162038,7.8566017 C26.8162038,-0.0439749166 16.8688695,0 16.8688695,0 L8.41817303,0 Z" id="Fill-2" fill="#2761E7"></path>
                                    <path d="M38.4138377,8.22013657 L41.0107152,8.22013657 L41.0107152,17.6831175 L44.1797014,17.6831175 L44.1797014,8.22013657 L46.8425454,8.22013657 L46.8425454,5.05115038 L38.4138377,5.05115038 L38.4138377,8.22013657 Z M168.314286,5.05115038 L159.885578,5.05115038 L159.885578,8.22013657 L162.482456,8.22013657 L162.482456,17.6831175 L165.651442,17.6831175 L165.651442,8.22013657 L168.314286,8.22013657 L168.314286,5.05115038 Z M90.9763302,12.8256112 L85.757188,5.05117037 L83.1213303,5.05117037 L83.1213303,17.6831375 L85.7951687,17.6831375 L85.7951687,10.4154386 L90.9007687,17.6831375 L93.7507173,17.6831375 L93.7507173,5.05117037 L90.941348,5.05117037 L90.9763302,12.8256112 Z M73.6140719,5.05115038 L73.6140719,8.17615897 L73.6140719,9.76075201 L73.6140719,12.9297382 L73.6140719,14.5141313 L73.6140719,17.6831175 L76.783258,17.6831175 L82.02239,17.6831175 L82.02239,14.993887 L76.783258,14.993887 L76.783258,12.3898132 L82.02239,12.3898132 L82.02239,10.2403078 L76.783258,10.2403078 L76.783258,7.63643382 L82.02239,7.63643382 L82.02239,5.00717278 L73.6140719,5.00717278 L73.6140719,5.05115038 Z M150.374981,5.05115038 L150.374981,8.17615897 L150.374981,9.76075201 L150.374981,12.9297382 L150.374981,14.5141313 L150.374981,17.6831175 L153.543968,17.6831175 L158.783299,17.6831175 L158.783299,14.993887 L153.543968,14.993887 L153.543968,12.3898132 L158.783299,12.3898132 L158.783299,10.2403078 L153.543968,10.2403078 L153.543968,7.63643382 L158.783299,7.63643382 L158.783299,5.00717278 L150.374981,5.00717278 L150.374981,5.05115038 Z M53.9178623,15.5264758 C51.7361733,15.5264758 49.967474,13.7577765 49.967474,11.5762874 C49.967474,9.39459848 51.7361733,7.62589919 53.9178623,7.62589919 C56.0995512,7.62589919 57.8682505,9.39459848 57.8682505,11.5762874 C57.8682505,13.7577765 56.0995512,15.5264758 53.9178623,15.5264758 M53.9178623,5.00703285 C50.2899098,5.00703285 47.3488076,7.94813509 47.3488076,11.5762874 C47.3488076,15.2042399 50.2899098,18.1453421 53.9178623,18.1453421 C57.5458147,18.1453421 60.486917,15.2042399 60.486917,11.5762874 C60.486917,7.94813509 57.5458147,5.00703285 53.9178623,5.00703285 M116.527958,15.5264758 C114.346469,15.5264758 112.57777,13.7577765 112.57777,11.5762874 C112.57777,9.39459848 114.346469,7.62589919 116.527958,7.62589919 C118.709647,7.62589919 120.478346,9.39459848 120.478346,11.5762874 C120.478346,13.7577765 118.709647,15.5264758 116.527958,15.5264758 M116.527958,5.00703285 C112.900006,5.00703285 109.958903,7.94813509 109.958903,11.5762874 C109.958903,15.2042399 112.900006,18.1453421 116.527958,18.1453421 C120.15591,18.1453421 123.097013,15.2042399 123.097013,11.5762874 C123.097013,7.94813509 120.15591,5.00703285 116.527958,5.00703285 M69.4439356,5.05115038 L64.9324331,10.9049693 L64.9324331,5.05115038 L61.763247,5.05115038 L61.763247,17.6831175 L64.9324331,17.6831175 L64.9324331,11.9834201 L69.4439356,17.6831175 L72.5689442,17.6831175 L67.8673385,11.5762275 L72.5689442,5.05115038 L69.4439356,5.05115038 Z M145.852484,5.05115038 L141.340982,10.9049693 L141.340982,5.05115038 L138.171996,5.05115038 L138.171996,17.6831175 L141.340982,17.6831175 L141.340982,11.9834201 L145.852484,17.6831175 L148.977493,17.6831175 L144.276087,11.5762275 L148.977493,5.05115038 L145.852484,5.05115038 Z M104.108702,11.9636502 L102.311418,11.9636502 L102.311418,7.67543396 L104.108702,7.67543396 C105.292899,7.67543396 106.253011,8.63554503 106.253011,9.81954207 C106.253011,11.003739 105.292899,11.9636502 104.108702,11.9636502 M104.127093,5.05117037 L102.311418,5.05117037 L99.1424316,5.05117037 L99.1424316,7.96668564 L99.1424316,11.6723985 L99.1424316,14.5141513 L99.1424316,17.6831375 L102.311418,17.6831375 L102.311418,14.5141513 L104.127093,14.5141513 C106.740162,14.5141513 108.858684,12.3958301 108.858684,9.78256091 C108.858684,7.16949162 106.740162,5.05117037 104.127093,5.05117037 M128.790073,8.11862827 C130.546179,7.1483224 132.717274,7.6592622 133.875884,9.23246105 L136.836576,9.23246105 C136.728231,8.95000489 136.600696,8.67154669 136.450372,8.39908544 C134.695666,5.22370251 130.699101,4.07188907 127.523518,5.82639559 C124.347936,7.581102 123.196322,11.5776667 124.950829,14.7532496 C126.705335,17.9288324 130.7021,19.0806458 133.877483,17.3259394 C135.238989,16.5737225 136.226886,15.4089157 136.774807,14.0739955 L133.758343,14.0739955 C133.449101,14.4532024 133.065696,14.7826346 132.610928,15.0337068 C130.7015,16.0889694 128.298124,15.3963221 127.243061,13.4866946 C126.187799,11.5770671 126.880446,9.17369097 128.790073,8.11862827" id="形状结合" fill="#222222"></path>
                                </g>
                            </g>
                        </g>
                    </g>
                </g>
            </g>
        </g>
    </g>
</svg>