<?xml version="1.0" encoding="UTF-8"?>
<svg width="24px" height="24px" viewBox="0 0 24 24" version="1.1" xmlns="http://www.w3.org/2000/svg" xmlns:xlink="http://www.w3.org/1999/xlink">
    <title>YouTuBe</title>
    <defs>
        <filter color-interpolation-filters="auto" id="filter-1">
            <feColorMatrix in="SourceGraphic" type="matrix" values="0 0 0 0 0.337255 0 0 0 0 0.435294 0 0 0 0 0.996078 0 0 0 1.000000 0"></feColorMatrix>
        </filter>
    </defs>
    <g id="页面-1" stroke="none" stroke-width="1" fill="none" fill-rule="evenodd">
        <g id="Profile" transform="translate(-1939.000000, -534.000000)">
            <g id="YouTuBe" transform="translate(1895.000000, 534.000000)" filter="url(#filter-1)">
                <g transform="translate(44.000000, 0.000000)">
                    <path d="M12.8695207,0 C18.9912843,0 24,5.00871568 24,11.1304793 L24,12.8695207 C24,18.9912843 18.9912569,24 12.8695207,24 L11.1304793,24 C5.00871568,24 0,18.9912843 0,12.8695207 L0,11.1304793 C0,5.00871568 5.00871568,0 11.1304793,0 L12.8695207,0 Z M11.9280357,7.07679162 C9.37657893,7.07679162 6.83962469,7.20838351 6.83962469,7.20838348 C5.81205664,7.32536318 5.56751508,7.89159203 5.30433133,8.83140475 C5.30433133,8.83140475 5.04114759,10.3279607 5.04114759,11.8435153 C5.04114759,13.398054 5.30433133,14.9726056 5.30433133,14.9726056 C5.50903895,15.8831665 5.92906376,16.4786471 6.83962469,16.5956268 C6.83962469,16.5956268 8.99548639,16.7299602 11.3311869,16.7635436 L11.8337266,16.7691122 L11.8337266,16.7691122 L12.3374509,16.7710827 L12.3374509,16.7710827 C14.7761499,16.7710827 17.104202,16.5956268 17.104202,16.5956268 C18.014763,16.420171 18.3324477,15.9416427 18.5956314,14.9726056 C18.5956314,14.9726056 18.8588152,13.5332646 18.8588152,12.0482229 C18.8588152,10.4657758 18.595604,8.83140475 18.595604,8.83140475 C18.3031685,7.86236767 18.0732117,7.32536318 17.1041746,7.20838348 C17.1041746,7.20838348 14.5086894,7.07679162 11.9280357,7.07679162 Z M10.5681708,9.31393571 L14.5599554,11.9020189 L10.5681708,14.490102 L10.5681708,9.31393571 Z" id="形状结合" fill="#000000" fill-rule="nonzero"></path>
                </g>
            </g>
        </g>
    </g>
</svg>